<svg width="1920" height="390" viewBox="0 0 1920 390" fill="none" xmlns="http://www.w3.org/2000/svg">
<path d="M358.067 19.0165L-220.5 19.0165V537L2512 596V230.577C1859.37 252.141 655.5 298 571 148.5C498.5 37.0001 402.187 18.2394 358.067 19.0165Z" fill="#2B8A1C" stroke="black" stroke-width="6"/>
<path d="M946 248.595C950.498 243.73 965.38 234 988.931 234C1012.48 234 1025.46 246 1029 252" stroke="black" stroke-width="6" stroke-linecap="round"/>
<path d="M990 237C965.5 237 952.498 246.135 948 251L940 260.5L1034.5 265L1030 258C1026.46 252 1015 237 990 237Z" fill="#2B8A1C"/>
<path d="M1537.68 271.358C1540.44 267.905 1549.58 261 1564.03 261C1578.49 261 1586.45 269.516 1588.62 273.774" stroke="black" stroke-width="6" stroke-linecap="round"/>
<path d="M1564.69 263.129C1549.65 263.129 1541.67 269.612 1538.91 273.065L1534 279.807L1592 283L1589.24 278.032C1587.06 273.774 1580.03 263.129 1564.69 263.129Z" fill="#2B8A1C"/>
<path d="M18.6826 64.3575C21.443 60.905 30.5774 54.0001 45.0318 54.0001C59.4862 54.0001 67.4496 62.5162 69.6244 66.7743" stroke="black" stroke-width="6" stroke-linecap="round"/>
<path d="M45.6878 58.1291C30.6508 58.1291 22.6704 64.6121 19.9101 68.0646L15 74.8065L73 78.0001L70.2381 73.0323C68.0632 68.7743 61.0317 58.1291 45.6878 58.1291Z" fill="#2B8A1C"/>
<path d="M391 69.4376C393.249 66.6251 400.69 61.0001 412.465 61.0001C424.24 61.0001 430.727 67.9376 432.499 71.4064" stroke="black" stroke-width="6" stroke-linecap="round"/>
<path d="M412.999 65.3637C400.75 65.3637 394.249 70.645 392 73.4575L388 78.9497L435.249 81.5513L432.999 77.5044C431.227 74.0356 425.499 65.3637 412.999 65.3637Z" fill="#2B8A1C"/>
<path d="M257.022 93.3115C260.036 89.541 270.012 82.0001 285.798 82.0001C301.584 82.0001 310.281 91.3006 312.656 95.9509" stroke="black" stroke-width="6" stroke-linecap="round"/>
<path d="M286.514 87.85C270.092 87.85 261.377 94.9302 258.362 98.7007L253 106.064L316.342 109.551L313.326 104.126C310.951 99.4757 303.272 87.85 286.514 87.85Z" fill="#2B8A1C"/>
<path d="M483 130.219C484.924 127.813 491.29 123 501.365 123C511.439 123 516.99 128.936 518.505 131.903" stroke="black" stroke-width="6" stroke-linecap="round"/>
<path d="M493.389 131.702C482.908 131.702 477.346 136.22 475.422 138.626L472 143.325L512.425 145.551L510.5 142.089C508.984 139.121 504.083 131.702 493.389 131.702Z" fill="#2B8A1C"/>
<path d="M98 67.4881C99.1961 65.9921 103.154 63.0001 109.418 63.0001C115.681 63.0001 119.131 66.6902 120.074 68.5353" stroke="black" stroke-width="6" stroke-linecap="round"/>
<path d="M108.298 67.9226C101.782 67.9226 98.3237 70.7318 97.1276 72.2278L95 75.1492L120.132 76.533L118.936 74.3804C117.993 72.5353 114.946 67.9226 108.298 67.9226Z" fill="#2B8A1C"/>
<path d="M71 77.4881C72.1961 75.9921 76.1542 73.0001 82.4175 73.0001C88.6809 73.0001 92.1315 76.6902 93.0739 78.5353" stroke="black" stroke-width="6" stroke-linecap="round"/>
<path d="M81.2975 77.9226C74.7817 77.9226 71.3237 80.7318 70.1276 82.2278L68 85.1492L93.1323 86.533L91.9355 84.3804C90.9931 82.5353 87.9463 77.9226 81.2975 77.9226Z" fill="#2B8A1C"/>
<path d="M914 251.488C915.196 249.992 919.154 247 925.418 247C931.681 247 935.131 250.69 936.074 252.535" stroke="black" stroke-width="6" stroke-linecap="round"/>
<path d="M924.298 251.923C917.782 251.923 914.324 254.732 913.128 256.228L911 259.149L936.132 260.533L934.936 258.38C933.993 256.535 930.946 251.923 924.298 251.923Z" fill="#2B8A1C"/>
<path d="M1743.68 260.358C1746.44 256.905 1755.58 250 1770.03 250C1784.49 250 1792.45 258.516 1794.62 262.774" stroke="black" stroke-width="6" stroke-linecap="round"/>
<path d="M1770.69 253.129C1755.65 253.129 1747.67 259.612 1744.91 263.065L1740 269.807L1798 273L1795.24 268.032C1793.06 263.774 1786.03 253.129 1770.69 253.129Z" fill="#2B8A1C"/>
<path d="M224.453 258.658C232.545 263.562 236.61 254.125 237.631 248.794C238.163 245.226 234.284 240.943 232.278 239.247C225.103 231.584 219.414 245.769 218.698 247.264C217.982 248.759 214.339 252.528 224.453 258.658Z" fill="#595959"/>
<path d="M237.631 248.794C236.61 254.125 232.545 263.562 224.453 258.658C214.339 252.528 217.982 248.759 218.698 247.264C219.414 245.769 225.103 231.584 232.278 239.247" stroke="black" stroke-width="6" stroke-linecap="round"/>
<path d="M27 202.5C7.8 201.3 -11.3333 188 -18.5 181.5L-65.5 176L-78 476.5L2059.5 534C2053.33 445.5 2029.4 267.6 1983 264C1925 259.5 1943.5 293.5 1893 297.5C1842.5 301.5 1832.5 289.5 1795.5 289C1758.5 288.5 1730.5 303 1670 304.5C1609.5 306 1607 292 1553 292C1499 292 1484.33 315.706 1436.5 300C1403 289 1353 285.5 1314.5 296.5C1302.45 299.942 1273.54 306.116 1222 285.5C1184.5 270.5 1141 281 1124.5 282.5C1108.43 283.961 1042.5 302.375 1017.5 285.5C997.5 272 955.127 276.283 939.5 282C919 289.5 903.968 301.46 853 280C815 264 771.574 262.223 755 266.5C739.5 270.5 715.5 268 689 255.5C662.5 243 635.5 238.5 597 243.5C546.898 250.007 550.613 217.84 513.5 214.5C463.5 210 459.5 199.5 431 189C408.2 180.6 368 196 354 196C340 196 329.7 194.1 292.5 186.5C246 177 221.5 190.5 185 196C148.5 201.5 141 196 114 190.5C87 185 51 204 27 202.5Z" fill="#533A1C" stroke="black" stroke-width="6"/>
<path d="M5 300.371C-7 303.871 -9 321.371 -9 323.371C-8.6 325.771 -3.83333 326.704 -1.5 326.871C4.5 327.871 24.5 314.871 22 306.371C20 299.571 9.83333 299.537 5 300.371Z" fill="#595959"/>
<path d="M-9 323.371C-9 321.371 -7 303.871 5 300.371C9.83333 299.537 20 299.571 22 306.371C24.5 314.871 4.5 327.871 -1.5 326.871" stroke="black" stroke-width="6" stroke-linecap="round"/>
<path d="M804.625 306.202C798.089 308.108 797 317.639 797 318.728C797.218 320.035 799.814 320.543 801.085 320.634C804.352 321.179 815.244 314.099 813.883 309.47C812.794 305.766 807.257 305.748 804.625 306.202Z" fill="#595959"/>
<path d="M797 318.728C797 317.639 798.089 308.108 804.625 306.202C807.257 305.748 812.794 305.766 813.883 309.47C815.244 314.099 804.352 321.179 801.085 320.634" stroke="black" stroke-width="6" stroke-linecap="round"/>
<path d="M645.896 309.327C643.74 316.916 652.424 323.857 653.493 324.528C654.91 325.12 657.009 322.885 657.881 321.694C660.429 318.822 660.19 303.768 654.807 302.253C650.501 301.04 647.072 306.464 645.896 309.327Z" fill="#595959"/>
<path d="M653.493 324.528C652.424 323.857 643.74 316.916 645.896 309.327C647.072 306.464 650.501 301.04 654.807 302.253C660.19 303.768 660.429 318.822 657.881 321.694" stroke="black" stroke-width="6" stroke-linecap="round"/>
<path d="M267.586 215.046C260.043 212.735 252.925 221.274 252.232 222.329C251.611 223.734 253.802 225.878 254.976 226.774C257.794 229.38 272.849 229.452 274.476 224.102C275.777 219.822 270.425 216.282 267.586 215.046Z" fill="#595959"/>
<path d="M252.232 222.329C252.925 221.274 260.043 212.735 267.586 215.046C270.425 216.282 275.777 219.822 274.476 224.102C272.849 229.452 257.794 229.38 254.976 226.774" stroke="black" stroke-width="6" stroke-linecap="round"/>
<path d="M10.4784 380.563C15.2827 369.023 2.91137 356.485 1.35408 355.23C-0.765663 354.036 -4.4833 357.162 -6.07714 358.874C-10.6206 362.919 -13.0475 386.648 -4.86033 390.035C1.68939 392.745 8.09456 384.849 10.4784 380.563Z" fill="#595959"/>
<path d="M1.35408 355.23C2.91137 356.485 15.2827 369.023 10.4784 380.563C8.09456 384.849 1.68939 392.745 -4.86033 390.035C-13.0475 386.648 -10.6206 362.919 -6.07714 358.874" stroke="black" stroke-width="6" stroke-linecap="round"/>
<path d="M1202.33 314.857C1206.2 311.76 1204.29 305.038 1203.99 304.304C1203.48 303.484 1201.59 303.862 1200.71 304.154C1198.36 304.693 1192.98 312.485 1195.19 315.226C1196.95 317.418 1200.68 315.894 1202.33 314.857Z" fill="#595959"/>
<path d="M1203.99 304.304C1204.29 305.038 1206.2 311.76 1202.33 314.857C1200.68 315.894 1196.95 317.418 1195.19 315.226C1192.98 312.485 1198.36 304.693 1200.71 304.154" stroke="black" stroke-width="6" stroke-linecap="round"/>
<path d="M30.3885 323.927C29.4265 328.063 34.4198 332.973 39.7582 329.953C40.1244 329.736 41.2894 328.629 43.0201 325.938C44.3078 323.936 45.5959 319.715 40.4472 318.849C34.0113 317.766 31.3506 319.791 30.3885 323.927Z" fill="#595959"/>
<path d="M39.7582 329.953C34.4198 332.973 29.4265 328.063 30.3885 323.927C31.3506 319.791 34.0113 317.766 40.4472 318.849C45.5959 319.715 44.3078 323.936 43.0201 325.938" stroke="black" stroke-width="6" stroke-linecap="round"/>
<path d="M1110.44 369.278C1114.59 375.322 1126.66 374.685 1129.03 364.37C1129.18 363.65 1129.13 360.877 1127.72 355.538C1126.67 351.566 1122.8 345.008 1115.7 350.554C1106.82 357.487 1106.3 363.234 1110.44 369.278Z" fill="#595959"/>
<path d="M1129.03 364.37C1126.66 374.685 1114.59 375.322 1110.44 369.278C1106.3 363.234 1106.82 357.487 1115.7 350.554C1122.8 345.008 1126.67 351.566 1127.72 355.538" stroke="black" stroke-width="6" stroke-linecap="round"/>
<path d="M970.151 379.265C963.133 381.377 960.072 393.069 969.178 398.467C969.818 398.829 972.476 399.622 977.991 399.901C982.094 400.109 989.518 398.412 986.392 389.96C982.485 379.396 977.169 377.152 970.151 379.265Z" fill="#595959"/>
<path d="M969.178 398.467C960.072 393.069 963.133 381.377 970.151 379.265C977.169 377.152 982.485 379.396 986.392 389.96C989.518 398.412 982.094 400.109 977.991 399.901" stroke="black" stroke-width="6" stroke-linecap="round"/>
<path d="M1519.76 364.608C1521.42 369.552 1529.81 371.469 1533.44 364.874C1533.69 364.41 1534.19 362.502 1534.27 358.574C1534.32 355.651 1532.95 350.409 1527.01 352.82C1519.58 355.833 1518.11 359.664 1519.76 364.608Z" fill="#595959"/>
<path d="M1533.44 364.874C1529.81 371.469 1521.42 369.552 1519.76 364.608C1518.11 359.664 1519.58 355.833 1527.01 352.82C1532.95 350.409 1534.32 355.651 1534.27 358.574" stroke="black" stroke-width="6" stroke-linecap="round"/>
<path d="M645.759 282.768C644.336 286.972 649.03 292.588 654.891 289.991C655.294 289.803 656.618 288.769 658.693 286.147C660.236 284.196 662.007 279.937 656.739 278.511C650.155 276.729 647.181 278.563 645.759 282.768Z" fill="#595959"/>
<path d="M654.891 289.991C649.03 292.588 644.336 286.972 645.759 282.768C647.181 278.563 650.155 276.729 656.739 278.511C662.007 279.937 660.236 284.196 658.693 286.147" stroke="black" stroke-width="6" stroke-linecap="round"/>
<path d="M929.566 381.269C933.723 382.825 939.485 378.312 937.076 372.372C936.901 371.963 935.91 370.606 933.355 368.449C931.454 366.844 927.253 364.94 925.661 370.159C923.67 376.683 925.409 379.714 929.566 381.269Z" fill="#595959"/>
<path d="M937.076 372.372C939.485 378.312 933.723 382.825 929.566 381.269C925.409 379.714 923.67 376.683 925.661 370.159C927.253 364.94 931.454 366.844 933.355 368.449" stroke="black" stroke-width="6" stroke-linecap="round"/>
<path d="M1169.5 367.653C1157.9 371.653 1137 403.653 1128 419.153C1132.83 420.758 1146.2 423.206 1161 420.153C1166.6 419.295 1170.33 418.462 1171.5 418.153C1190.83 413.653 1212.5 410.153 1214 397.153C1215.09 387.703 1184 362.653 1169.5 367.653Z" fill="#595959"/>
<path d="M1171.5 418.153C1190.83 413.653 1212.5 410.153 1214 397.153C1215.09 387.703 1184 362.653 1169.5 367.653C1157.9 371.653 1137 403.653 1128 419.153C1132.83 420.758 1146.2 423.206 1161 420.153" stroke="black" stroke-width="6" stroke-linecap="round"/>
<path d="M943.551 326.274C940.341 334.726 948.255 361.116 952.984 374.342C953.198 374.939 953.906 375.181 954.425 374.815C958.128 372.209 965.11 365.923 970.023 356.746C972.245 353.064 973.574 350.483 973.961 349.653C980.734 336.196 989.225 321.865 982.376 314.672C977.397 309.443 947.684 315.391 943.551 326.274Z" fill="#595959"/>
<path d="M973.961 349.653C980.734 336.196 989.225 321.865 982.376 314.672C977.397 309.443 947.684 315.391 943.551 326.274C940.341 334.726 948.255 361.116 952.984 374.342C953.198 374.939 953.906 375.181 954.425 374.815C958.128 372.209 965.11 365.923 970.023 356.746" stroke="black" stroke-width="6" stroke-linecap="round"/>
<path d="M90.7872 361.33C69.5872 358.13 66.9539 378.997 68.2872 389.83C68.3885 396.63 71.3294 399.663 72.7871 400.33C80.7871 403.33 82.7871 403.33 85.2871 403.33C99.2871 403.33 107.287 394.83 109.287 389.33C110.862 384.998 117.287 365.33 90.7872 361.33Z" fill="#595959"/>
<path d="M68.2872 389.83C66.9539 378.997 69.5872 358.13 90.7872 361.33C117.287 365.33 110.862 384.998 109.287 389.33C107.287 394.83 99.2871 403.33 85.2871 403.33C82.7871 403.33 80.7871 403.33 72.7871 400.33" stroke="black" stroke-width="6" stroke-linecap="round"/>
<path d="M1182.02 286.145C1172.7 284.738 1171.54 293.915 1172.13 298.68C1172.17 301.671 1173.46 303.005 1174.11 303.299C1177.62 304.618 1178.5 304.618 1179.6 304.618C1185.76 304.618 1189.28 300.88 1190.16 298.46C1190.85 296.555 1193.68 287.904 1182.02 286.145Z" fill="#595959"/>
<path d="M1172.13 298.68C1171.54 293.915 1172.7 284.738 1182.02 286.145C1193.68 287.904 1190.85 296.555 1190.16 298.46C1189.28 300.88 1185.76 304.618 1179.6 304.618C1178.5 304.618 1177.62 304.618 1174.11 303.299" stroke="black" stroke-width="6" stroke-linecap="round"/>
<path d="M1611.1 401.581C1620.79 366.951 1586.6 358.27 1568.29 358.258C1556.95 357.027 1551.3 361.297 1549.89 363.587C1543.25 376.286 1542.83 379.615 1542.32 383.776C1539.44 407.081 1551.94 422.148 1560.68 426.61C1567.57 430.125 1598.98 444.87 1611.1 401.581Z" fill="#595959"/>
<path d="M1568.29 358.258C1586.6 358.27 1620.79 366.951 1611.1 401.581C1598.98 444.87 1567.57 430.125 1560.68 426.61C1551.94 422.148 1539.44 407.081 1542.32 383.776C1542.83 379.615 1543.25 376.286 1549.89 363.587" stroke="black" stroke-width="6" stroke-linecap="round"/>
<path d="M30.6199 351.689C21.8199 353.689 25.2866 362.855 28.1199 367.189C30.12 369.989 35.6199 370.355 38.1199 370.189C48.1198 370.689 42.6199 357.189 42.1199 355.689C41.6199 354.189 41.6199 349.189 30.6199 351.689Z" fill="#595959"/>
<path d="M28.1199 367.189C25.2866 362.855 21.8199 353.689 30.6199 351.689C41.6199 349.189 41.6199 354.189 42.1199 355.689C42.6199 357.189 48.1198 370.689 38.1199 370.189" stroke="black" stroke-width="6" stroke-linecap="round"/>
<path d="M1671.62 382.689C1662.82 384.689 1666.29 393.855 1669.12 398.189C1671.12 400.989 1676.62 401.355 1679.12 401.189C1689.12 401.689 1683.62 388.189 1683.12 386.689C1682.62 385.189 1682.62 380.189 1671.62 382.689Z" fill="#595959"/>
<path d="M1669.12 398.189C1666.29 393.855 1662.82 384.689 1671.62 382.689C1682.62 380.189 1682.62 385.189 1683.12 386.689C1683.62 388.189 1689.12 401.689 1679.12 401.189" stroke="black" stroke-width="6" stroke-linecap="round"/>
<path d="M1904.01 317.361C1907.85 323.767 1914.17 318.678 1916.85 315.332C1918.53 313.037 1917.4 308.617 1916.63 306.694C1914.44 298.7 1905.24 306.506 1904.19 307.285C1903.14 308.065 1899.21 309.354 1904.01 317.361Z" fill="#595959"/>
<path d="M1916.85 315.332C1914.17 318.678 1907.85 323.767 1904.01 317.361C1899.21 309.354 1903.14 308.065 1904.19 307.285C1905.24 306.506 1914.44 298.7 1916.63 306.694" stroke="black" stroke-width="6" stroke-linecap="round"/>
<path d="M692.678 290.904C690.573 280.712 679.925 284.499 674.863 287.667C671.589 289.909 671.04 296.242 671.175 299.128C670.37 310.647 686.061 304.614 687.802 304.072C689.543 303.53 695.309 303.645 692.678 290.904Z" fill="#595959"/>
<path d="M674.863 287.667C679.925 284.499 690.573 280.712 692.678 290.904C695.309 303.645 689.543 303.53 687.802 304.072C686.061 304.614 670.37 310.647 671.175 299.128" stroke="black" stroke-width="6" stroke-linecap="round"/>
<path d="M1872.52 311.07C1863.48 316.555 1865.68 331.286 1866.11 332.92C1866.97 334.792 1871.06 334.511 1873.01 334.137C1878.13 333.641 1891.62 318.646 1887.71 312.25C1884.59 307.134 1876.28 309.332 1872.52 311.07Z" fill="#595959"/>
<path d="M1866.11 332.92C1865.68 331.286 1863.48 316.555 1872.52 311.07C1876.28 309.332 1884.59 307.134 1887.71 312.25C1891.62 318.646 1878.13 333.641 1873.01 334.137" stroke="black" stroke-width="6" stroke-linecap="round"/>
<path d="M299.694 312.209C300.682 305.068 304.354 303.47 306.585 302.654C310.891 302.701 311.524 311.729 312.614 312.351C313.704 312.972 320.395 310.526 321.849 311.355C323.303 312.184 324.553 316.748 326.734 317.991C328.914 319.234 335.085 316.01 337.059 317.617C339.032 319.223 339.348 323.737 341.736 324.617C344.124 325.496 347.962 323.832 350.142 325.075C352.323 326.318 360.689 337.827 359.032 340.735C353.15 339.79 333.725 334.11 305.356 318.326" stroke="#826E50" stroke-width="6" stroke-linecap="round"/>
<path d="M376.568 290.541C375.111 287.014 363.193 286.127 357.884 286.15C358.821 289.574 370.56 301.08 373.413 300.299C376.266 299.518 378.389 294.949 376.568 290.541Z" stroke="#826E50" stroke-width="6" stroke-linecap="round"/>
<path d="M370.386 331.798C372.928 332.124 379.466 331.581 385.272 326.801C392.53 320.826 390.88 282.327 386.206 278.7C381.532 275.073 368.667 277.37 362.488 273.848C356.31 270.326 335.379 252.137 327.286 252.82C320.811 253.366 315.473 269.039 313.613 276.807C313.2 278.658 312.665 282.526 313.828 283.189C315.281 284.017 322.801 280.117 323.684 281.102C324.567 282.087 323.539 290.65 325.356 291.686C327.173 292.721 337.237 290.272 338.327 290.893C339.417 291.515 337.146 302.258 338.6 303.087C340.053 303.915 349.492 299.183 350.582 299.805C351.672 300.426 352.152 312.256 353.45 312.514C358.24 311.713 367.708 312.167 367.26 320.386" stroke="#826E50" stroke-width="6" stroke-linecap="round"/>
<path d="M404.887 346.852C403.402 349.458 402.287 360.502 403.59 361.244C406.631 362.978 424.858 357.252 426.343 354.646C427.829 352.04 425.961 345.22 421.93 345.224C418.705 345.228 415.418 345.541 413.372 346.102" stroke="#826E50" stroke-width="6" stroke-linecap="round"/>
<path d="M459.739 325.338C460.178 329.616 464.713 336.806 465.955 338.665C467.197 340.524 480.776 337.905 486.237 340.441C491.697 342.978 489.694 326.298 487.709 325.742C485.724 325.186 473.01 324.269 470.964 324.829" stroke="#826E50" stroke-width="6" stroke-linecap="round"/>
<path d="M471.067 350.235C469.174 349.61 460.729 351.61 460.142 352.639C462.687 354.09 470.489 363.079 474.444 374.873C477.608 384.309 479.826 389.095 481.368 388.36C489.082 365.955 472.959 350.859 471.067 350.235Z" stroke="#826E50" stroke-width="6" stroke-linecap="round"/>
<path d="M528.786 371.045C527.764 369.516 522.336 366.58 519.75 365.303C519.382 365.12 515.985 375.295 513.248 381.694C510.402 388.348 505.625 399.22 507.412 400.239C509.198 401.257 530.064 372.955 528.786 371.045Z" stroke="#826E50" stroke-width="6" stroke-linecap="round"/>
<path d="M372.318 347.448C373.701 345.359 376.913 341.204 378.699 341.302C380.932 341.423 390.55 345.754 392.661 348.109C394.772 350.463 391.305 356.544 388.825 356.857C386.841 357.107 381.422 354.364 378.96 352.961" stroke="#826E50" stroke-width="6" stroke-linecap="round"/>
<path d="M438.185 351.036C436.447 350.046 433.897 343.413 433.584 340.932C434.08 340.064 445.543 331.059 448.706 330.559C451.868 330.06 455.664 342.583 455.169 343.452C454.674 344.32 439.922 352.027 438.185 351.036Z" stroke="#826E50" stroke-width="6" stroke-linecap="round"/>
<path d="M515.595 354.427C513.211 353.068 501.26 347.26 499.309 345.144C497.358 343.027 498.387 335.281 503.083 330.212C509.546 331.858 523.318 340.139 527.71 344.25C532.103 348.362 527.624 354.25 524.836 356.679" stroke="#826E50" stroke-width="6" stroke-linecap="round"/>
<path d="M534.202 364.328C535.501 361.04 538.681 354.45 541.013 354.398C543.928 354.333 562.611 369.011 563.545 372.421C564.479 375.831 557.537 379.931 555.987 379.623C554.436 379.315 541.339 368.972 540.223 368.911" stroke="#826E50" stroke-width="6" stroke-linecap="round"/>
<path d="M583.891 401.281C581.586 402.953 576.685 405.367 575.525 401.645C574.365 397.924 568.188 390.985 565.244 387.981C566.887 385.233 570.634 380.158 572.486 381.84C574.337 383.522 578.853 389.848 580.879 392.801" stroke="#826E50" stroke-width="6" stroke-linecap="round"/>
<path d="M421.502 368.314C419.764 364.756 425.023 363.708 427.87 363.629C431.998 373.155 439.052 392.321 434.241 392.783C428.227 393.359 423.674 372.761 421.502 368.314Z" stroke="#826E50" stroke-width="6" stroke-linecap="round"/>
<path d="M451.07 359.526C449.752 358.316 443.776 360.875 442.229 361.828C442.031 362.175 449.134 371.73 455.676 380.506C460.909 387.528 464.973 388.559 465.494 387.938C465.782 371.582 452.388 360.736 451.07 359.526Z" stroke="#826E50" stroke-width="6" stroke-linecap="round"/>
<path d="M506.164 359.941C503.959 356.363 494.649 352.217 490.998 353.038C493.556 359.72 494.571 365.872 494.766 369.698C495.072 375.677 491.522 396.798 494.519 391.541C497.765 385.845 508.92 364.414 506.164 359.941Z" stroke="#826E50" stroke-width="6" stroke-linecap="round"/>
<path d="M547.782 384.904C548.015 383.857 541.439 378.799 539.537 378.304C538.664 377.922 517.903 406.202 520.966 409.127C524.03 412.052 547.549 385.95 547.782 384.904Z" stroke="#826E50" stroke-width="6" stroke-linecap="round"/>
<path d="M564.93 401.357C563.41 398.674 558.588 394.335 556.367 392.501C555.3 392.461 532.693 418.751 536.969 421.756C541.245 424.761 566.829 404.71 564.93 401.357Z" stroke="#826E50" stroke-width="6" stroke-linecap="round"/>
<path d="M404.22 370.236C403.723 369.492 399.258 369.518 397.087 369.624C391.226 378.561 381.164 395.539 387.809 391.96C396.114 387.486 404.841 371.166 404.22 370.236Z" stroke="#826E50" stroke-width="6" stroke-linecap="round"/>
<path d="M372.674 390.24C369.822 390.532 363.286 390.758 359.96 389.323C355.803 387.529 370.19 386.521 372.674 390.24Z" stroke="#826E50" stroke-width="4" stroke-linecap="round"/>
<path d="M378.821 396.621C378.139 396.808 367.101 397.998 363.383 400.483C359.665 402.967 377.957 400.157 378.821 396.621Z" stroke="#826E50" stroke-width="4" stroke-linecap="round"/>
<path d="M349.535 383.381C352.681 385.175 354.476 384.471 354.869 384.12C354.178 376.244 341.673 373.873 344.378 375.262C354.617 380.523 346.928 381.896 349.535 383.381Z" fill="#826E50"/>
<path d="M347.826 389.194C350.384 389.982 351.566 389.186 351.793 388.87C350.029 383.299 340.626 383.598 342.801 384.166C351.033 386.315 345.707 388.541 347.826 389.194Z" fill="#826E50"/>
<path d="M1417 388.5C1415.17 392.5 1411.3 401.1 1410.5 403.5L1417.5 407L1421.5 387.5L1405.5 356L1413 344L1408 331L1410.5 344L1403 356L1417 388.5Z" fill="black"/>
<path d="M1422.16 399.612C1423.45 402.507 1426.17 408.73 1426.73 410.467L1421.81 413L1419 398.888L1430.24 376.092L1424.97 367.408L1428.49 358L1426.73 367.408L1432 376.092L1422.16 399.612Z" fill="black"/>
<path d="M724.649 383.092C722.468 387.829 717.87 398.013 716.919 400.855L725.243 405L730 381.908L710.973 344.605L719.892 330.395L713.946 315L716.919 330.395L708 344.605L724.649 383.092Z" fill="black"/>
<path d="M66.9709 402.304C63.5546 407.024 56.307 417.193 54.6469 420.103L62.8326 426.461L73.0743 402.169L60.4456 357.117L73.2921 343.472L70.1624 325.294L70.0451 342.825L57.1986 356.47L66.9709 402.304Z" fill="black"/>
<path d="M17.3171 401.89C17.0457 405.394 16.4097 412.898 16.0373 414.884L9.79261 414.613L14.5632 399.447L37.9516 383.66L37.3696 372.373L45.9027 365.236L39.1151 373.343L39.697 384.63L17.3171 401.89Z" fill="black"/>
<path d="M-42.9354 366.922C-45.423 372.192 -50.8354 383.445 -52.5839 386.303L-62.101 382.198L-45.7616 361.511L-0.20457 350.844L5.55198 333.009L22.9856 326.983L7.6848 335.542L1.92825 353.376L-42.9354 366.922Z" fill="black"/>
<path d="M14.3703 383.753C15.5493 386.876 18.0273 393.586 18.5077 395.444L13.0274 397.728L11.0167 382.761L24.7684 359.755L19.7177 350.282L24.1797 340.704L21.6098 350.412L26.6604 359.885L14.3703 383.753Z" fill="black"/>
<path d="M141.536 32.3755C144.033 22.1794 149.089 2.03708 149.339 3.03587C149.588 4.03467 156.518 23.0118 159.951 32.3755" stroke="black" stroke-width="6" stroke-linecap="round"/>
<path d="M149.864 10.2317C149.614 9.23286 144.87 29.7231 142.373 39.9192H160.788C157.355 30.5555 150.113 11.2304 149.864 10.2317Z" fill="#2B8A1C"/>
<path d="M156.607 40.2924C158.311 33.3336 161.762 19.5866 161.932 20.2683C162.103 20.9499 166.832 33.9017 169.175 40.2924" stroke="black" stroke-width="6" stroke-linecap="round"/>
<path d="M162.557 26.9662C162.386 26.2845 159.148 40.269 157.444 47.2277H170.012C167.669 40.8371 162.727 27.6479 162.557 26.9662Z" fill="#2B8A1C"/>
<path d="M134 38.4731C135.123 33.8895 137.396 24.8347 137.508 25.2837C137.62 25.7327 140.735 34.2637 142.278 38.4731" stroke="black" stroke-width="6" stroke-linecap="round"/>
<path d="M383 123.206C384.123 118.622 386.396 109.567 386.508 110.016C386.62 110.465 389.735 118.996 391.278 123.206" stroke="black" stroke-width="6" stroke-linecap="round"/>
<path d="M387.368 118.016C387.255 117.567 385.123 126.778 384 131.362H392.278C390.735 127.152 387.48 118.465 387.368 118.016Z" fill="#2B8A1C"/>
<path d="M632 202.206C633.123 197.622 635.396 188.567 635.508 189.016C635.62 189.465 638.735 197.996 640.278 202.206" stroke="black" stroke-width="6" stroke-linecap="round"/>
<path d="M636.368 197.016C636.255 196.567 634.123 205.778 633 210.362H641.278C639.735 206.152 636.48 197.465 636.368 197.016Z" fill="#2B8A1C"/>
<path d="M1889 252.206C1890.12 247.622 1892.4 238.567 1892.51 239.016C1892.62 239.465 1895.74 247.996 1897.28 252.206" stroke="black" stroke-width="6" stroke-linecap="round"/>
<path d="M1892.37 247.016C1892.26 246.567 1890.12 255.778 1889 260.362H1897.28C1895.74 256.152 1892.48 247.465 1892.37 247.016Z" fill="#2B8A1C"/>
<path d="M48 148.206C49.1225 143.622 51.3956 134.567 51.5078 135.016C51.6201 135.465 54.735 143.996 56.2785 148.206" stroke="black" stroke-width="6" stroke-linecap="round"/>
<path d="M52.3675 143.016C52.2553 142.567 50.1225 151.778 49 156.362H57.2785C55.735 152.152 52.4798 143.465 52.3675 143.016Z" fill="#2B8A1C"/>
<path d="M57 143.772C58.9357 135.868 62.8554 120.254 63.049 121.028C63.2425 121.802 68.614 136.513 71.2756 143.772" stroke="black" stroke-width="6" stroke-linecap="round"/>
<path d="M64.5314 134.823C64.3378 134.048 60.66 149.933 58.7244 157.837H72.9999C70.3384 150.578 64.7249 135.597 64.5314 134.823Z" fill="#2B8A1C"/>
<path d="M840.252 239.375C837.755 229.179 832.699 209.037 832.449 210.036C832.2 211.035 825.271 230.012 821.837 239.375" stroke="black" stroke-width="6" stroke-linecap="round"/>
<path d="M831.924 217.232C832.174 216.233 836.918 236.723 839.415 246.919H821C824.433 237.555 831.675 218.23 831.924 217.232Z" fill="#2B8A1C"/>
<path d="M847.788 245.473C846.666 240.89 844.393 231.835 844.28 232.284C844.168 232.733 841.053 241.264 839.51 245.473" stroke="black" stroke-width="6" stroke-linecap="round"/>
<path d="M843.583 238.144C843.695 237.695 845.828 246.907 846.951 251.49H838.672C840.216 247.281 843.471 238.593 843.583 238.144Z" fill="#2B8A1C"/>
<path d="M1479.79 283.206C1478.67 278.622 1476.39 269.567 1476.28 270.016C1476.17 270.465 1473.05 278.996 1471.51 283.206" stroke="black" stroke-width="6" stroke-linecap="round"/>
<path d="M1467.36 285.873C1466.49 282.353 1464.75 275.4 1464.66 275.745C1464.58 276.09 1462.19 282.641 1461 285.873" stroke="black" stroke-width="6" stroke-linecap="round"/>
</svg>
