<?xml version="1.0" encoding="UTF-8"?>
<svg id="PlantEgg_Ready" data-name="PlantEgg Ready" xmlns="http://www.w3.org/2000/svg" viewBox="0 0 437.18 607.14">
  <defs>
    <style>
      .cls-1 {
        stroke-width: 10px;
      }

      .cls-1, .cls-2 {
        stroke: #000;
        stroke-miterlimit: 10;
      }

      .cls-1, .cls-2, .cls-3 {
        fill: #fff;
      }

      .cls-2 {
        stroke-width: 11px;
      }

      .cls-4 {
        fill: #20471d;
      }

      .cls-5 {
        fill: #3d1c7c;
      }

      .cls-3 {
        opacity: .3;
      }
    </style>
  </defs>
  <g>
    <path class="cls-5" d="M384.6,405.28c1.93-40.98-14.78-79.61-45.15-106.92-15.53-13.96-33.11-25.32-49.44-38.28-15.2-12.07-29.09-25.88-39.74-42.19-22.67-34.69-33.7-76.09-60.56-108.19-11.93-14.25-26.77-26.79-44.46-33.1-19.11-6.81-40.15-4.75-58.28,4.02-35.64,17.25-54.63,54.61-65.5,90.89-12.69,42.36-17.54,86.98-14.62,131.08,2.85,42.94,12.88,86.14,30.6,125.43,8.21,18.21,18.48,35.3,32.41,49.72,13.89,14.36,30.53,25.69,48.19,34.9,18.58,9.69,38.33,17.33,58.27,23.7,20.71,6.62,42.12,12.75,63.91,12.9,37.89.26,76.22-12.46,106.8-42.89,6.56-6.53,10.39-15.34,14.42-23.67"/>
    <path d="M390.6,405.28c1.61-39.06-13.21-77.26-40.61-105.14-15.56-15.83-34.48-27.9-51.99-41.38-17.13-13.18-32.76-28.32-44.34-46.69-21.78-34.57-33.21-74.93-59.71-106.61-12.61-15.08-28.42-28-47.11-34.64-20.03-7.11-42.23-4.87-61.35,3.89-34.35,15.74-54.6,50.36-66.45,84.73C4.15,202.64-1.69,249.48.41,295.04s11.8,89.64,29.64,131.02c8.34,19.36,18.87,37.85,33.2,53.44,14.21,15.46,31.76,27.74,50.25,37.55,20.06,10.64,41.38,18.81,62.99,25.67,21.91,6.96,44.4,12.91,67.57,12.53,39.62-.65,79.35-15.96,107.2-44.62,6.93-7.14,11.09-16.03,15.36-24.88,3.34-6.93-7.01-13.02-10.36-6.06-4.4,9.13-8.54,17.81-15.98,24.88-6.94,6.6-14.49,12.47-22.62,17.52-15.72,9.74-33.2,16.15-51.43,19.22-19.89,3.34-39.94,2.15-59.52-2.47-21.05-4.97-41.91-11.98-61.89-20.26-38.14-15.8-72.22-38.75-92.97-75.29-20.73-36.49-32.26-79.23-37.17-120.71-5.19-43.76-2.82-88.33,7.6-131.17,8.32-34.18,21.34-70.18,49.01-93.55,14.48-12.23,33.03-19.75,52.1-19.26,19.61.5,37.18,10.44,51.13,23.68,28.42,26.95,41.08,64.77,58.9,98.64,9.21,17.51,20.26,33.63,34.36,47.57,14.81,14.65,32.04,26.37,48.63,38.85,15.71,11.82,30.43,24.75,41.27,41.32,9.91,15.14,16.53,32.13,19.48,49.98,1.45,8.8,1.79,17.75,1.42,26.64-.32,7.72,11.68,7.71,12,0h0Z"/>
  </g>
  <g>
    <path class="cls-5" d="M268.71,413.48c16.29-34.6,34.21-68.44,53.68-101.36,9.28-15.7,19.99-32.13,36.87-39.03,6.93-2.83,14.81-3.82,21.94-1.55,9.21,2.93,16.11,10.96,19.86,19.86,3.75,8.9,4.78,18.69,5.5,28.32,3.06,40.82,1.43,81.98-4.83,122.43-1.33,8.61-2.74,18.04,1.7,25.54,2.71,4.59,7.24,7.75,11.17,11.36,14.07,12.92,20.83,33.31,17.28,52.07-3.55,18.76-17.31,35.27-35.12,42.15-4.47,1.73-9.2,2.89-14,3-22.07.51-39-21.39-42.72-43.16s1.78-43.9,3.61-65.9c3.44-41.24-6.04-82.35-15.46-122.65"/>
    <path d="M272.6,415.75c11.97-25.37,24.77-50.34,38.44-74.83,6.21-11.13,12.47-22.26,19.2-33.08,5.96-9.58,12.75-19.27,22.11-25.83,9.76-6.85,23.13-10.45,33.63-3.09,10.18,7.14,13.79,20.05,15.24,31.76,3.41,27.66,3.01,56.27,1.21,84.03-.92,14.18-2.38,28.34-4.46,42.4-1.66,11.25-4.55,24.08,2.44,34.2,2.99,4.32,7.2,7.4,11.01,10.93,4.16,3.86,7.62,8.29,10.34,13.28,5.42,9.91,7.73,21.73,6.04,32.93-3.24,21.39-22.43,42.71-45.04,43.33s-36.43-23.48-38.83-42.99c-1.9-15.49.58-31.12,2.54-46.46s2.87-30.56,2.04-46c-1.69-31.48-8.83-62.34-15.98-92.95-1.32-5.64-10-3.25-8.68,2.39,7.11,30.44,14.31,61.14,15.75,92.48.7,15.11-.32,30.03-2.26,45.01s-4.1,29.47-2.57,44.25c2.25,21.75,14.75,45.65,37.29,51.91,22.85,6.35,46.96-10.2,57.69-29.56,11.34-20.45,9.5-46.36-4.27-65.24-3.64-4.98-8-8.9-12.56-12.99-5.61-5.02-8.2-10.27-8-17.94.17-6.7,1.63-13.36,2.54-19.99,1.11-8.12,2.06-16.27,2.81-24.43,2.8-30.34,3.1-60.99.63-91.36-1.06-13.12-3.01-26.77-11.03-37.64-6.83-9.25-17.17-15.1-28.87-14.44-29.34,1.64-45.37,31.56-58.3,53.92-17.24,29.8-33.19,60.32-47.88,91.46-2.46,5.21,5.3,9.78,7.77,4.54h0Z"/>
  </g>
  <g>
    <path class="cls-5" d="M169.99,449.44c21.85-48.4,51.04-93.48,86.25-133.23,11.59-13.08,24.22-25.87,40.08-33.2,5.43-2.51,11.58-4.36,17.36-2.83,11.88,3.14,15.78,17.82,17.08,30.04,3.84,36.02,3.28,72.51-1.66,108.39-3.2,23.26-7.8,48.79,4.56,68.75,10.08,16.27,29.94,25.71,36.65,43.63,4.81,12.87,1.48,27.78-6.16,39.19-7.64,11.41-19.11,19.75-31.14,26.38-7.39,4.07-15.94,7.68-24.06,5.4-5.47-1.53-9.91-5.57-13.41-10.04-19.88-25.4-13.1-62.33-23.91-92.72-3.33-9.36-8.34-18.05-11.85-27.35-12.69-33.54-4.97-71.05,4.47-105.64-8.26,17.54-12.32,37.04-11.74,56.43.16,5.25.64,10.53-.1,15.72-2,14.04-12.47,25.17-22.42,35.28"/>
    <path d="M173.88,451.72c23.43-51.65,55.02-101.59,94.77-142.3,9.48-9.7,20.74-19.87,33.93-24.07,13.87-4.42,20.2,6.38,22.67,18.3,2.91,14.04,3.08,29.08,3.42,43.36.37,15.52-.07,31.06-1.32,46.53-1.17,14.49-3.52,28.81-5.16,43.24-1.45,12.79-2.03,26.06,1.44,38.59,3.21,11.58,10.14,20.84,18.67,29.08,8,7.73,17.39,14.87,22.46,25.01,13.41,26.8-12.71,51.57-34.02,63.22-5.64,3.08-12.32,6.37-18.96,5.33-7.11-1.12-12.26-7.58-15.83-13.32-6.49-10.42-9.13-22.6-10.89-34.59-2.04-13.9-2.84-28.02-6.08-41.73-3.69-15.64-12.61-29.14-17.14-44.46-9.37-31.71-1.68-65.48,6.74-96.49,1.29-4.76-6.03-8.22-8.22-3.47-8.24,17.83-12.69,37.2-12.4,56.88.15,10.04,1,19.25-3.93,28.41-4.36,8.08-10.84,14.73-17.22,21.23-4.06,4.14,2.3,10.51,6.36,6.36,12.89-13.14,24.39-26.95,24.12-46.3-.15-10.5-.51-20.71,1.27-31.12s5.03-21.08,9.57-30.91c-2.74-1.16-5.48-2.31-8.22-3.47-8.06,29.68-14.98,61.1-9.03,91.83,3.12,16.12,11.76,29.64,16.92,45.01,4.36,12.96,5.59,26.66,7.21,40.16,1.58,13.14,3.45,26.35,8.73,38.6,4.96,11.52,13.87,24.52,27.29,26.3,13.61,1.8,27.8-7.6,38.22-15.33,11.21-8.32,20.71-18.92,25.23-32.33,4.17-12.4,3.3-26.09-3.62-37.33-6.52-10.58-16.66-18.05-25.21-26.85-9.99-10.27-14.91-22.46-15.51-36.77s2.24-29.75,4.11-44.52c4.26-33.68,4.7-67.87,1.23-101.65-1.12-10.94-3.12-23.69-11.76-31.45-10.83-9.73-25.3-4.56-36.37,1.95-12.77,7.51-23.36,18.15-33.16,29.12s-19.99,23.45-29.22,35.78c-18.57,24.79-34.97,51.21-48.94,78.86-3.46,6.85-6.76,13.77-9.92,20.76-2.37,5.23,5.38,9.82,7.77,4.54h0Z"/>
  </g>
  <path class="cls-3" d="M73.5,247.22c0,54.89,20.43,95.23.23,95.23-38.28,0-54.65-66.8-44.43-120.72,12.26-64.64,27.85-78.71,50.63-78.71,18.17,0-6.43,49.31-6.43,104.2Z"/>
  <circle class="cls-2" cx="122.04" cy="191.47" r="23.94"/>
  <circle class="cls-1" cx="195.38" cy="185.53" r="18"/>
  <path d="M157.73,240.26c1.8-4.3,3.87-8.49,6.13-12.57,2.07-3.75,4.22-8.42,7.32-11.43l-4.24,1.76c2.6-.15,6.59,3.94,8.4,5.38,2.95,2.35,5.74,4.88,8.45,7.51,5.55,5.37,14.05-3.11,8.49-8.49-4.13-3.99-8.5-7.69-13.11-11.11-3.94-2.93-9.35-6.97-14.54-4.78-4.69,1.98-7.85,9.33-10.23,13.51-3.14,5.5-5.79,11.2-8.24,17.03-1.26,3.01,1.36,6.57,4.19,7.38,3.45.99,6.13-1.22,7.38-4.19h0Z"/>
  <g>
    <path class="cls-4" d="M169.57,101.87c12.31,2.57,25.13-1.92,37.6-.25,3.51.47,6.94,1.42,10.47,1.7,4.13.32,8.33-.31,12.18-1.83-8.93-2.15-17.23-6.9-23.6-13.52-3.13-3.24-5.79-6.91-8.84-10.23-9.19-10-21.95-16.65-35.41-18.45"/>
    <path d="M167.58,109.1c10.98,1.99,21.45-.21,32.44-.36,5.09-.07,9.86,1.09,14.87,1.75,5.76.76,11.45.18,16.93-1.78,6.64-2.38,7.6-12.49,0-14.46-6.64-1.72-12.85-4.7-17.97-9.34s-8.91-10.52-13.92-15.27c-9.86-9.35-22.52-15.6-35.97-17.59-4.03-.6-8.02,1.01-9.23,5.24-1.01,3.53,1.24,8.63,5.24,9.23,13.37,1.98,24.94,8.18,33.78,18.42,4.65,5.39,8.97,10.62,14.77,14.83,5.78,4.2,12.4,7.15,19.3,8.94v-14.46c-9.34,3.34-18.25-.62-27.81-.5-9.44.12-19.05,2.6-28.45.89s-13.49,12.74-3.99,14.46h0Z"/>
  </g>
  <g>
    <path class="cls-4" d="M170,58.47c5.79-5.58,6.12-15.28,2.24-22.32-3.87-7.05-11.09-11.71-18.64-14.47,3.83,2.08,4.95,7.4,3.42,11.47s-5.07,7.06-8.78,9.36c-3.7,2.3-7.72,4.11-11.12,6.85"/>
    <path d="M175.3,63.77c7.48-7.94,8.82-19.39,4.43-29.24s-14.12-16.24-24.14-20.08c-8.33-3.19-12.45,9.23-5.78,13.71,4.49,3.01-14.97,13.59-16.47,14.73-3.25,2.47-4.87,6.44-2.69,10.26,1.82,3.2,7.04,5.13,10.26,2.69,7.35-5.57,16.81-8.52,21.64-16.96s2.77-18.35-5.17-23.68l-5.78,13.71c8.42,3.23,22.23,14.54,13.09,24.26-6.61,7.03,3.97,17.65,10.61,10.61h0Z"/>
  </g>
  <g>
    <path class="cls-4" d="M94.44,66.6c-4.79-5.44-12.52-8.14-19.65-6.86s-13.44,6.49-16.05,13.25c-1.27,3.3-1.7,6.86-2.84,10.21-3.42,10.08-12.65,16.85-21.36,22.96,6.7,13.89,23.4,22.16,38.51,19.06,15.11-3.1,27.21-17.28,27.89-32.69"/>
    <path d="M99.74,61.3c-11.52-12.15-31.29-12.4-42.58.24-2.89,3.24-4.93,7.01-6.23,11.14-1.14,3.63-1.54,7.46-3.31,10.87-3.62,6.97-10.61,11.74-16.87,16.14-3.46,2.43-4.67,6.39-2.69,10.26,8.62,16.89,28.45,26.31,46.98,22.5,18.74-3.85,32.15-21.31,33.4-39.92.64-9.64-14.36-9.6-15,0-.81,12.11-10.38,23.2-22.38,25.46s-24.53-4.8-30.04-15.61l-2.69,10.26c11.45-8.05,22.13-16.7,25.77-30.84,1.59-6.17,3.35-11.68,9.89-14.11,5.54-2.06,11.27.1,15.16,4.21,6.66,7.02,17.25-3.6,10.61-10.61h0Z"/>
  </g>
  <g>
    <path class="cls-4" d="M111.38,48.15c-.77-6.24,2.07-12.37,2.26-18.66.3-9.58-6.3-18.96-15.4-21.93-8.22,6.73-14.5,15.8-17.9,25.86,2.68-1.3,6.03-.57,8.39,1.26s3.82,4.58,4.76,7.41c2.21,6.7,1.68,14.25-1.45,20.57"/>
    <path d="M118.88,48.15c-.73-10.04,4.25-18.98.52-29.05-3.34-9.01-10.22-15.49-19.17-18.77-2.61-.96-5.34.28-7.3,1.93-9.24,7.78-15.81,17.82-19.83,29.17-1.85,5.24,4,11.06,9.23,9.23,3.18-1.11,4.35,4.23,4.74,6.57.66,3.91.13,8.04-1.52,11.65s-1.03,8.03,2.69,10.26c3.21,1.92,8.58.98,10.26-2.69,4-8.76,5.19-18.59,1.69-27.76s-12.02-15.95-21.85-12.5c3.08,3.08,6.15,6.15,9.23,9.23,3.17-8.96,8.73-16.45,15.97-22.55l-7.3,1.93c5.15,1.89,9.18,6.95,9.85,12.41.85,6.95-2.73,13.87-2.21,20.94.7,9.57,15.71,9.65,15,0h0Z"/>
  </g>
  <g>
    <path class="cls-4" d="M91.73,72.68c-1.33,7.62,3.33,15.14,9.23,20.12,5.91,4.99,13.08,8.21,19.38,12.69,8.97,6.38,16.08,15.36,20.23,25.56,11.79-8.11,24.39-17.33,28.19-31.13,1.74-6.32,1.41-13.04.35-19.5-.78-4.76-1.97-9.54-4.47-13.67-4.34-7.14-12.09-11.51-19.92-14.43-8.28-3.1-17.21-4.95-25.97-3.77s-17.32,5.73-21.99,13.23c-4.67,7.5-4.69,18.05,1.07,24.75"/>
    <path d="M84.23,72.68c-1.88,15.27,10.74,26.06,22.49,33.13s21.66,15.53,27.38,29.03c1.5,3.55,7.25,4.77,10.26,2.69,10.81-7.46,22.43-15.67,28.51-27.72,6.67-13.21,5.95-30.69-.26-44-6.25-13.39-21.51-20.45-35.22-23.53s-29.92-1.48-41.22,8.64c-11.93,10.67-13.49,28.47-3.64,40.92,2.53,3.2,7.95,2.6,10.61,0,3.17-3.1,2.5-7.45,0-10.61-7.36-9.31,2.28-20.83,11.14-23.92,12.01-4.2,27.76-.06,37.93,7.13s12.65,23.7,8.9,34.91-14.96,18.78-24.32,25.23l10.26,2.69c-5.05-11.94-13.58-21.93-24.29-29.19-9.05-6.14-25.2-11.9-23.54-25.4.49-4.03-3.8-7.5-7.5-7.5-4.46,0-7,3.46-7.5,7.5h0Z"/>
  </g>
  <g>
    <path class="cls-5" d="M92.02,259.69c43.63,30.04,95.68,46.4,148.28,52.67,28.13,3.35,57.86,3.67,83.36-8.66,5.8-2.8,11.58-6.3,18.01-6.5s13.6,4.61,13.06,11.02c-.33,3.93-3.34,7.07-6.37,9.59-7.25,6.03-15.72,10.58-24.75,13.32,4.97-2.85,10.09-5.75,15.76-6.54s12.09,1.03,15.14,5.88c3.91,6.22.64,14.91-5.16,19.42s-13.37,5.87-20.62,7.1c5.13-1.16,10.48-2.32,15.61-1.14,5.13,1.18,9.96,5.45,9.95,10.71,0,6.58-6.91,10.81-13.12,13.01-21.03,7.44-44.25,6.96-66.02,2.07-21.77-4.89-42.34-14-62.47-23.61-43.03-20.55-84.81-43.7-125.06-69.28"/>
    <path d="M89.75,263.57c34.01,23.25,72.94,38.53,113.12,47.13,38.41,8.22,82.76,14.66,119.92-1.67,5.43-2.39,10.72-6.02,16.63-7.08,4.05-.72,11.6.96,10.73,6.51-.73,4.62-7.96,8.63-11.46,10.84-5.1,3.22-10.52,5.68-16.27,7.49l3.47,8.22c4.91-2.8,10.3-6.15,16.15-6.1,4.73.04,9.76,2.6,9.69,7.91-.17,11.82-15.32,14.31-24.18,15.83l2.39,8.68c4.55-1.01,9.92-2.48,14.49-.78,4.19,1.56,7.02,5.68,3.86,9.62-5.01,6.24-16.67,7.88-23.98,9.14-20.21,3.47-41.04.53-60.51-5.31-20.18-6.05-39.27-15.14-58.15-24.36-18.6-9.09-36.97-18.66-55.07-28.71-20.57-11.42-40.79-23.46-60.66-36.07-4.9-3.11-9.43,4.67-4.54,7.77,41.31,26.21,84.19,49.96,128.42,70.88,21.51,10.17,43.73,19.73,67.3,23.9,21.17,3.74,46.36,4.27,66.13-5.52,8.35-4.13,15.08-13.26,9.55-22.45-6.24-10.36-19.12-9.04-29.2-6.79-5.72,1.28-3.23,9.64,2.39,8.68,8.16-1.4,16.68-3.14,23.13-8.71,5.4-4.66,8.9-12.48,7.27-19.63s-7.6-11.54-14.43-12.71c-8.9-1.54-17.07,2.69-24.56,6.97-4.36,2.49-1.47,9.78,3.47,8.22,11.98-3.78,46.81-20.2,30.59-37.14-7.13-7.45-17.45-6.21-26.06-2.39-10.41,4.62-20.05,9.21-31.33,11.46-22.51,4.5-46.14,2.36-68.65-1.01-22.48-3.36-44.72-8.61-66.2-16.08-24.36-8.48-47.57-19.95-68.88-34.51-4.79-3.28-9.3,4.52-4.54,7.77h0Z"/>
  </g>
  <g>
    <path class="cls-5" d="M424.22,346.09c6.64.84,10.12,9.59,7.23,15.63s-10.1,9.04-16.79,8.87c-4.79-.13-9.67-1.71-13.11-5.05s-5.18-8.57-3.69-13.13,6.52-7.88,11.19-6.79"/>
    <path d="M423.02,350.43c3.81.77,5.71,4.76,4.69,8.43-1.2,4.32-6.28,6.62-10.36,7.12-4.8.6-10.8-.81-13.76-4.93-2.68-3.73-2.11-12.05,4.26-11.1,5.67.84,8.11-7.83,2.39-8.68-9.68-1.44-18.26,6.01-17.3,16.05,1.05,11,11.36,17.48,21.72,17.75,8.73.23,18.78-4.41,21.58-13.26,2.6-8.24-2.01-18.3-10.82-20.07-5.66-1.14-8.08,7.54-2.39,8.68h0Z"/>
  </g>
  <g>
    <path class="cls-5" d="M416.24,311.16c7.64,3.82,16.42,9.43,16.21,17.97-.19,7.41-7.55,12.79-14.8,14.31-5.16,1.08-10.75.77-15.41-1.7s-8.21-7.31-8.33-12.58,3.68-10.6,8.88-11.47"/>
    <path d="M413.97,315.05c4.68,2.38,10.62,5.26,13.08,10.2,2.88,5.79-2.02,10.7-7.11,12.79-5.61,2.3-13.34,2.32-18.04-1.98s-4.91-12.32,2.09-14.02c5.63-1.36,3.24-10.04-2.39-8.68-9.77,2.37-14.58,13.17-10.75,22.25,4.5,10.67,16.54,14.32,27.22,12.3,9.39-1.77,19.09-9.06,18.87-19.45-.22-10.5-10.04-16.93-18.42-21.19-5.15-2.62-9.71,5.14-4.54,7.77h0Z"/>
  </g>
  <g>
    <path class="cls-5" d="M413.08,285.7c-10.83-3.19-23.53,5.12-24.92,16.33-.2,1.64-.19,3.34.3,4.92,1.65,5.27,7.77,7.46,13.09,8.93,3.34.92,6.95,1.83,10.2.64,5.53-2.03,7.29-8.84,8.26-14.65.68-4.05,1.29-8.48-.78-12.03s-7.73-4.83-11.05-4.83"/>
    <path d="M414.27,281.36c-11.27-2.85-23.6,2.89-28.61,13.46-2.43,5.14-3.16,11.61-.04,16.62,2.91,4.68,8.43,6.92,13.48,8.42,6.03,1.79,12.69,2.95,17.97-1.31,4.28-3.46,6.06-9.01,7.05-14.23,1.11-5.83,2.06-12.54-1.66-17.67-3.21-4.42-9.1-5.97-14.29-6.15-5.79-.2-5.79,8.8,0,9,2.37.08,5.64.53,7.17,2.6,2,2.72.5,8.05-.15,11.1-.57,2.67-1.29,6.37-3.57,8.22-3,2.45-8.13.44-11.39-.62-2.65-.87-6.41-2.15-7.45-5.05-1.15-3.18.75-7.36,2.66-9.82,3.84-4.95,10.35-7.44,16.43-5.9,5.62,1.42,8.01-7.26,2.39-8.68h0Z"/>
  </g>
</svg>