<svg width="1920" height="1080" viewBox="0 0 1920 1080" fill="none" xmlns="http://www.w3.org/2000/svg">
<rect width="1920" height="1080" fill="#4AC7E3"/>
<path d="M2016.09 317.29C2129.08 312.365 2247.24 369.572 2336.98 524.141C2426.63 678.569 2488 930.274 2488 1314.93V1317.89L2485.04 1317.93L750.045 1344L746.264 1344.06L747.068 1340.36C761.307 1275 830.492 1106.04 926.564 953.161C974.621 876.688 1029.51 804.068 1087.76 750.375C1145.95 696.733 1207.87 661.636 1269.97 661C1346.39 660.217 1401.42 682.547 1440.39 705.07C1459.84 716.311 1475.31 727.613 1487.3 735.995C1493.33 740.209 1498.41 743.634 1502.71 746.007C1507.09 748.424 1510.24 749.5 1512.5 749.5C1517.65 749.5 1527.93 748.12 1543.78 733.474C1559.74 718.728 1581.23 690.641 1608.55 637.381C1659.44 538.144 1705.06 460.491 1766.13 406.489C1827.35 352.358 1903.85 322.182 2016.09 317.29Z" fill="#2B8A1C" stroke="black" stroke-width="6"/>
<path d="M1805.54 425.375C1808.03 415.179 1813.09 395.037 1813.34 396.036C1813.59 397.035 1820.52 416.012 1823.95 425.375" stroke="black" stroke-width="6" stroke-linecap="round"/>
<path d="M1813.86 403.232C1813.61 402.233 1808.87 422.723 1806.37 432.919H1824.79C1821.35 423.555 1814.11 404.23 1813.86 403.232Z" fill="#2B8A1C"/>
<path d="M1820.61 433.292C1822.31 426.334 1825.76 412.587 1825.93 413.268C1826.1 413.95 1830.83 426.902 1833.17 433.292" stroke="black" stroke-width="6" stroke-linecap="round"/>
<path d="M1826.56 419.966C1826.39 419.284 1823.15 433.269 1821.44 440.228H1834.01C1831.67 433.837 1826.73 420.648 1826.56 419.966Z" fill="#2B8A1C"/>
<path d="M1798 431.473C1799.12 426.889 1801.4 417.835 1801.51 418.284C1801.62 418.733 1804.74 427.264 1806.28 431.473" stroke="black" stroke-width="6" stroke-linecap="round"/>
<path d="M1825 779.375C1827.5 769.179 1832.55 749.037 1832.8 750.036C1833.05 751.035 1839.98 770.012 1843.42 779.375" stroke="black" stroke-width="6" stroke-linecap="round"/>
<path d="M1833.49 760.035C1833.24 759.036 1828.5 779.527 1826 789.723H1844.42C1840.98 780.359 1833.74 761.034 1833.49 760.035Z" fill="#2B8A1C"/>
<path d="M1415.25 744.375C1412.76 734.179 1407.7 714.037 1407.45 715.036C1407.2 716.035 1400.27 735.012 1396.84 744.375" stroke="black" stroke-width="6" stroke-linecap="round"/>
<path d="M1406.92 722.232C1407.17 721.233 1411.92 741.723 1414.42 751.919H1396C1399.43 742.555 1406.67 723.23 1406.92 722.232Z" fill="#2B8A1C"/>
<path d="M1422.79 750.473C1421.67 745.889 1419.39 736.835 1419.28 737.284C1419.17 737.733 1416.05 746.264 1414.51 750.473" stroke="black" stroke-width="6" stroke-linecap="round"/>
<path d="M1418.58 743.144C1418.7 742.695 1420.83 751.907 1421.95 756.49H1413.67C1415.22 752.281 1418.47 743.593 1418.58 743.144Z" fill="#2B8A1C"/>
<path d="M1171 713.595C1175.5 708.73 1190.38 699 1213.93 699C1237.48 699 1250.46 711 1254 717" stroke="black" stroke-width="6" stroke-linecap="round"/>
<path d="M1215 702C1190.5 702 1177.5 711.135 1173 716L1165 725.5L1259.5 730L1255 723C1251.46 717 1240 702 1215 702Z" fill="#2B8A1C"/>
<path d="M1275.44 726.515C1276.89 724.945 1281.69 721.804 1289.29 721.804C1296.89 721.804 1301.08 725.677 1302.22 727.614" stroke="black" stroke-width="6" stroke-linecap="round"/>
<path d="M1289.64 725.772C1281.73 725.772 1277.53 728.721 1276.08 730.291L1273.5 733.357L1304 734.809L1302.55 732.55C1301.4 730.614 1297.71 725.772 1289.64 725.772Z" fill="#2B8A1C"/>
<path d="M1867.94 387.71C1869.39 386.14 1874.19 383 1881.79 383C1889.39 383 1893.58 386.873 1894.72 388.809" stroke="black" stroke-width="6" stroke-linecap="round"/>
<path d="M1882.14 386.968C1874.23 386.968 1870.03 389.917 1868.58 391.487L1866 394.553L1896.5 396.005L1895.05 393.746C1893.9 391.809 1890.21 386.968 1882.14 386.968Z" fill="#2B8A1C"/>
<path d="M1710.94 544.71C1712.39 543.14 1717.19 540 1724.79 540C1732.39 540 1736.58 543.873 1737.72 545.81" stroke="black" stroke-width="6" stroke-linecap="round"/>
<path d="M1725.14 543.968C1717.23 543.968 1713.03 546.917 1711.58 548.487L1709 551.553L1739.5 553.005L1738.05 550.746C1736.9 548.809 1733.21 543.968 1725.14 543.968Z" fill="#2B8A1C"/>
<path d="M1613.79 768.71C1612.34 767.14 1607.53 764 1599.93 764C1592.33 764 1588.14 767.873 1587 769.81" stroke="black" stroke-width="6" stroke-linecap="round"/>
<path d="M1599.59 767.968C1607.49 767.968 1611.69 770.917 1613.14 772.487L1615.72 775.553L1585.22 777.005L1586.68 774.746C1587.82 772.809 1591.52 767.968 1599.59 767.968Z" fill="#2B8A1C"/>
<path d="M1736.94 563.71C1738.39 562.14 1743.19 559 1750.79 559C1758.4 559 1762.58 562.873 1763.73 564.81" stroke="black" stroke-width="6" stroke-linecap="round"/>
<path d="M1587.79 787.71C1586.34 786.14 1581.53 783 1573.93 783C1566.33 783 1562.14 786.873 1561 788.81" stroke="black" stroke-width="6" stroke-linecap="round"/>
<path d="M1751.14 562.968C1743.23 562.968 1739.04 565.917 1737.58 567.487L1735 570.553L1765.5 572.005L1764.05 569.746C1762.91 567.809 1759.21 562.968 1751.14 562.968Z" fill="#2B8A1C"/>
<path opacity="0.47" d="M2016.09 317.29C2129.08 312.365 2247.24 369.572 2336.98 524.141C2426.63 678.569 2488 930.274 2488 1314.93V1317.89L2485.04 1317.93L750.045 1344L746.264 1344.06L747.068 1340.36C761.307 1275 830.492 1106.04 926.564 953.161C974.621 876.688 1029.51 804.068 1087.76 750.375C1145.95 696.733 1207.87 661.636 1269.97 661C1346.39 660.217 1401.42 682.547 1440.39 705.07C1459.84 716.311 1475.31 727.613 1487.3 735.995C1493.33 740.209 1498.41 743.634 1502.71 746.007C1507.09 748.424 1510.24 749.5 1512.5 749.5C1517.65 749.5 1527.93 748.12 1543.78 733.474C1559.74 718.728 1581.23 690.641 1608.55 637.381C1659.44 538.144 1705.06 460.491 1766.13 406.489C1827.35 352.358 1903.85 322.182 2016.09 317.29Z" fill="white" stroke="white" stroke-width="6"/>
<g filter="url(#filter0_d_69_501)">
<path d="M1268.15 840.308C1495.5 840.308 1553.5 956 1605.5 975.5C1638.5 923 1706.5 753.5 2050 753.5L2059.5 1329H1566L-353 1317.25V931.772C-283.229 805.848 -85.0229 554 149.628 554C384.278 554 532.05 634.226 583 745C684.072 633.655 855.918 673.633 876 680.5C1054.76 741.626 1050.5 840.308 1268.15 840.308Z" fill="#2B8A1C"/>
<path d="M-356 1320.23L-353.019 1320.25L1565.98 1332H2062.55L2062.5 1328.95L2053 753.45L2052.95 750.5H2050C1877.73 750.5 1774.18 793.013 1709.49 842.429C1646.59 890.477 1620.67 944.963 1604.28 971.774C1592.54 966.741 1580.17 956.703 1564.74 943.846C1548.46 930.274 1529.09 913.859 1504.19 898.059C1454.29 866.396 1382.4 837.309 1268.15 837.309C1159.94 837.309 1107.17 812.827 1059.15 780.83C1010.96 748.711 966.833 708.39 876.971 677.661C866.589 674.111 818.224 662.338 759.713 665.425C702.322 668.452 634.755 685.806 583.817 739.704C530.444 629.471 381.924 551 149.628 551C31.2354 551 -77.6707 614.509 -165.521 693.433C-253.409 772.391 -320.602 867.111 -355.624 930.318L-356 930.996V1320.23Z" stroke="black" stroke-width="6" stroke-linecap="round"/>
</g>
<path d="M187.683 605.357C190.443 601.905 199.577 595 214.032 595C228.486 595 236.45 603.516 238.624 607.774" stroke="black" stroke-width="6" stroke-linecap="round"/>
<path d="M214.688 599.129C199.651 599.129 191.67 605.612 188.91 609.065L184 615.806L242 619L239.238 614.032C237.063 609.774 230.032 599.129 214.688 599.129Z" fill="#2B8A1C"/>
<path d="M837.683 706.357C840.443 702.905 849.577 696 864.032 696C878.486 696 886.45 704.516 888.624 708.774" stroke="black" stroke-width="6" stroke-linecap="round"/>
<path d="M864.688 700.129C849.651 700.129 841.67 706.612 838.91 710.065L834 716.806L892 720L889.238 715.032C887.063 710.774 880.032 700.129 864.688 700.129Z" fill="#2B8A1C"/>
<path d="M1855.68 825.357C1858.44 821.905 1867.58 815 1882.03 815C1896.49 815 1904.45 823.516 1906.62 827.774" stroke="black" stroke-width="6" stroke-linecap="round"/>
<path d="M1882.69 819.129C1867.65 819.129 1859.67 825.612 1856.91 829.065L1852 835.806L1910 839L1907.24 834.032C1905.06 829.774 1898.03 819.129 1882.69 819.129Z" fill="#2B8A1C"/>
<path d="M246.841 612.179C248.222 610.452 252.789 607 260.016 607C267.243 607 271.225 611.258 272.312 613.387" stroke="black" stroke-width="6" stroke-linecap="round"/>
<path d="M260.344 609.065C252.825 609.065 248.835 612.306 247.455 614.032L245 617.403L274 619L272.619 616.516C271.532 614.387 268.016 609.065 260.344 609.065Z" fill="#2B8A1C"/>
<path d="M413.841 665.179C415.222 663.452 419.789 660 427.016 660C434.243 660 438.225 664.258 439.312 666.387" stroke="black" stroke-width="6" stroke-linecap="round"/>
<path d="M427.344 662.065C419.825 662.065 415.835 665.306 414.455 667.032L412 670.403L441 672L439.619 669.516C438.532 667.387 435.016 662.065 427.344 662.065Z" fill="#2B8A1C"/>
<path d="M803.841 693.179C805.222 691.452 809.789 688 817.016 688C824.243 688 828.225 692.258 829.312 694.387" stroke="black" stroke-width="6" stroke-linecap="round"/>
<path d="M817.344 692.065C809.825 692.065 805.835 695.306 804.455 697.032L802 700.403L831 702L829.619 699.516C828.532 697.387 825.016 692.065 817.344 692.065Z" fill="#2B8A1C"/>
<path d="M1821.84 812.179C1823.22 810.452 1827.79 807 1835.02 807C1842.24 807 1846.22 811.258 1847.31 813.387" stroke="black" stroke-width="6" stroke-linecap="round"/>
<path d="M1835.34 811.065C1827.83 811.065 1823.84 814.306 1822.46 816.032L1820 819.403L1849 821L1847.62 818.516C1846.53 816.387 1843.02 811.065 1835.34 811.065Z" fill="#2B8A1C"/>
<path d="M1164.84 884.179C1166.22 882.452 1170.79 879 1178.02 879C1185.24 879 1189.22 883.258 1190.31 885.387" stroke="black" stroke-width="6" stroke-linecap="round"/>
<path d="M1178.34 883.065C1170.83 883.065 1166.84 886.306 1165.46 888.032L1163 891.403L1192 893L1190.62 890.516C1189.53 888.387 1186.02 883.065 1178.34 883.065Z" fill="#2B8A1C"/>
<path d="M1209.84 877.179C1211.22 875.452 1215.79 872 1223.02 872C1230.24 872 1234.22 876.258 1235.31 878.387" stroke="black" stroke-width="6" stroke-linecap="round"/>
<path d="M1223.34 876.065C1215.83 876.065 1211.84 879.306 1210.46 881.032L1208 884.403L1237 886L1235.62 883.516C1234.53 881.387 1231.02 876.065 1223.34 876.065Z" fill="#2B8A1C"/>
<path d="M668.841 752.179C670.222 750.452 674.789 747 682.016 747C689.243 747 693.225 751.258 694.312 753.387" stroke="black" stroke-width="6" stroke-linecap="round"/>
<path d="M682.344 751.065C674.825 751.065 670.835 754.306 669.455 756.032L667 759.403L696 761L694.619 758.516C693.532 756.387 690.016 751.065 682.344 751.065Z" fill="#2B8A1C"/>
<path d="M1017.54 797.375C1020.03 787.179 1025.09 767.037 1025.34 768.036C1025.59 769.035 1032.52 788.012 1035.95 797.375" stroke="black" stroke-width="6" stroke-linecap="round"/>
<path d="M1025.86 775.232C1025.61 774.233 1020.87 794.723 1018.37 804.919H1036.79C1033.35 795.555 1026.11 776.23 1025.86 775.232Z" fill="#2B8A1C"/>
<path d="M1032.61 805.292C1034.31 798.334 1037.76 784.587 1037.93 785.268C1038.1 785.95 1042.83 798.902 1045.17 805.292" stroke="black" stroke-width="6" stroke-linecap="round"/>
<path d="M1038.56 791.966C1038.39 791.284 1035.15 805.269 1033.44 812.228H1046.01C1043.67 805.837 1038.73 792.648 1038.56 791.966Z" fill="#2B8A1C"/>
<path d="M1010 803.473C1011.12 798.889 1013.4 789.835 1013.51 790.284C1013.62 790.733 1016.74 799.264 1018.28 803.473" stroke="black" stroke-width="6" stroke-linecap="round"/>
<path d="M612 776.206C613.123 771.622 615.396 762.567 615.508 763.016C615.62 763.465 618.735 771.996 620.278 776.206" stroke="black" stroke-width="6" stroke-linecap="round"/>
<path d="M1793 868C1795.17 858.976 1799.56 841.148 1799.78 842.032C1800 842.916 1806.02 859.712 1809 868" stroke="black" stroke-width="6" stroke-linecap="round"/>
<path d="M619 771C621.034 761.976 625.153 744.148 625.356 745.032C625.559 745.916 631.203 762.712 634 771" stroke="black" stroke-width="6" stroke-linecap="round"/>
<path opacity="0.25" d="M-356 1320.23L-353.019 1320.25L1565.98 1332H2062.55L2062.5 1328.95L2053 753.45L2052.95 750.5H2050C1877.73 750.5 1774.18 793.013 1709.49 842.429C1646.59 890.477 1620.67 944.963 1604.28 971.774C1592.54 966.741 1580.17 956.703 1564.74 943.846C1548.46 930.274 1529.09 913.859 1504.19 898.059C1454.29 866.396 1382.4 837.309 1268.15 837.309C1159.94 837.309 1107.17 812.827 1059.15 780.83C1010.96 748.711 966.833 708.39 876.971 677.661C866.589 674.111 818.224 662.338 759.713 665.425C702.322 668.452 634.755 685.806 583.817 739.704C530.444 629.471 381.924 551 149.628 551C31.2354 551 -77.6707 614.509 -165.521 693.433C-253.409 772.391 -320.602 867.111 -355.624 930.318L-356 930.996V1320.23Z" fill="white" stroke="white" stroke-width="6" stroke-linecap="round"/>
<path d="M807.496 35C834.381 35.0002 856.176 56.7947 856.176 83.6797C856.176 84.9112 856.129 86.1322 856.039 87.3408C860.879 85.1115 866.266 83.8672 871.943 83.8672C892.961 83.8672 910 100.906 910 121.924C910 142.254 894.059 158.858 873.994 159.924C873.537 160.186 873 160.34 872.403 160.331L694.046 157.576C692.582 157.76 691.091 157.855 689.578 157.855C669.929 157.855 654 141.926 654 122.277C654 102.628 669.929 86.7002 689.578 86.7002C697.498 86.7002 704.814 89.2884 710.726 93.665C715.738 80.09 728.794 70.4112 744.11 70.4111C749.73 70.4111 755.046 71.7155 759.771 74.0361C764.246 51.7704 783.913 35 807.496 35Z" stroke="black" stroke-width="6" stroke-linecap="round"/>
<path d="M836.887 121.924C836.887 141.285 852.582 156.98 871.943 156.98C891.305 156.98 907 141.285 907 121.924C907 102.562 891.305 86.8668 871.943 86.8668C852.582 86.8668 836.887 102.562 836.887 121.924Z" fill="white"/>
<path d="M761.816 83.6799C761.816 108.908 782.267 129.36 807.496 129.36C832.724 129.36 853.176 108.908 853.176 83.6799C853.176 58.4516 832.724 38 807.496 38C782.267 38 761.816 58.4516 761.816 83.6799Z" fill="white"/>
<path d="M711.533 105.989C711.533 123.981 726.118 138.567 744.111 138.567C762.103 138.567 776.689 123.981 776.689 105.989C776.689 87.9964 762.103 73.4108 744.111 73.4108C726.118 73.4108 711.533 87.9964 711.533 105.989Z" fill="white"/>
<path d="M657 122.278C657 140.27 671.586 154.856 689.578 154.856C707.57 154.856 722.156 140.27 722.156 122.278C722.156 104.285 707.57 89.6997 689.578 89.6997C671.586 89.6997 657 104.285 657 122.278Z" fill="white"/>
<path d="M815.328 79.8416L872.531 157.172C872.581 157.238 872.532 157.332 872.45 157.331L689.447 154.505C689.361 154.504 689.317 154.401 689.375 154.337L735.594 104.238C735.606 104.225 735.621 104.215 735.638 104.21L815.219 79.8054C815.259 79.793 815.303 79.8075 815.328 79.8416Z" fill="white"/>
<path d="M1268.9 162C1251.8 162 1237.94 175.86 1237.94 192.956C1237.94 193.112 1237.94 193.267 1237.95 193.422C1235.3 192.442 1232.44 191.906 1229.46 191.906C1215.95 191.906 1205 202.855 1205 216.361C1205 229.338 1215.11 239.952 1227.88 240.764C1228.27 240.94 1228.71 241.038 1229.19 241.03L1338.27 239.346C1339.18 239.457 1340.12 239.516 1341.06 239.516C1353.73 239.516 1364 229.246 1364 216.578C1364 203.91 1353.73 193.641 1341.06 193.641C1336.49 193.641 1332.23 194.979 1328.65 197.285C1325.08 189.264 1317.04 183.672 1307.69 183.672C1304.58 183.672 1301.62 184.289 1298.92 185.406C1295.55 171.959 1283.39 162 1268.9 162Z" stroke="black" stroke-width="6" stroke-linecap="round"/>
<path d="M1250.91 216.361C1250.91 228.21 1241.3 237.816 1229.45 237.816C1217.61 237.816 1208 228.21 1208 216.361C1208 204.512 1217.61 194.907 1229.45 194.907C1241.3 194.907 1250.91 204.512 1250.91 216.361Z" fill="white"/>
<path d="M1296.85 192.956C1296.85 208.396 1284.34 220.912 1268.9 220.912C1253.46 220.912 1240.94 208.396 1240.94 192.956C1240.94 177.516 1253.46 165 1268.9 165C1284.34 165 1296.85 177.516 1296.85 192.956Z" fill="white"/>
<path d="M1327.63 206.609C1327.63 217.62 1318.7 226.547 1307.69 226.547C1296.68 226.547 1287.75 217.62 1287.75 206.609C1287.75 195.598 1296.68 186.671 1307.69 186.671C1318.7 186.671 1327.63 195.598 1327.63 206.609Z" fill="white"/>
<path d="M1361 216.578C1361 227.589 1352.07 236.516 1341.06 236.516C1330.05 236.516 1321.12 227.589 1321.12 216.578C1321.12 205.567 1330.05 196.64 1341.06 196.64C1352.07 196.64 1361 205.567 1361 216.578Z" fill="white"/>
<path d="M1264.1 190.607L1229.09 237.933C1229.06 237.974 1229.09 238.031 1229.14 238.031L1341.14 236.301C1341.2 236.3 1341.22 236.237 1341.19 236.198L1312.9 205.538C1312.89 205.53 1312.88 205.524 1312.87 205.521L1264.17 190.585C1264.15 190.577 1264.12 190.586 1264.1 190.607Z" fill="white"/>
<path d="M1781 66C1802.94 66.0002 1820.73 83.7863 1820.73 105.727C1820.73 106.402 1820.71 107.073 1820.67 107.739C1824.41 106.161 1828.51 105.289 1832.81 105.289C1850.04 105.289 1864 119.251 1864 136.475C1864 153.087 1851.01 166.663 1834.63 167.605C1834.21 167.825 1833.72 167.95 1833.17 167.941L1689.82 165.728C1688.63 165.875 1687.42 165.952 1686.19 165.952C1670.07 165.952 1657 152.881 1657 136.759C1657 120.636 1670.07 107.567 1686.19 107.566C1692.42 107.566 1698.18 109.515 1702.92 112.833C1707.22 102.073 1717.74 94.4707 1730.04 94.4707C1734.38 94.4707 1738.5 95.4201 1742.21 97.1221C1746.14 79.3187 1762.01 66 1781 66Z" stroke="black" stroke-width="6" stroke-linecap="round"/>
<path d="M1804.63 136.474C1804.63 152.041 1817.25 164.66 1832.81 164.66C1848.38 164.66 1861 152.041 1861 136.474C1861 120.908 1848.38 108.289 1832.81 108.289C1817.25 108.289 1804.63 120.908 1804.63 136.474Z" fill="white"/>
<path d="M1744.27 105.727C1744.27 126.01 1760.72 142.453 1781 142.453C1801.28 142.453 1817.73 126.01 1817.73 105.727C1817.73 85.4431 1801.28 69 1781 69C1760.72 69 1744.27 85.4431 1744.27 105.727Z" fill="white"/>
<path d="M1703.84 123.663C1703.84 138.129 1715.57 149.856 1730.04 149.856C1744.5 149.856 1756.23 138.129 1756.23 123.663C1756.23 109.197 1744.5 97.4703 1730.04 97.4703C1715.57 97.4703 1703.84 109.197 1703.84 123.663Z" fill="white"/>
<path d="M1660 136.759C1660 151.225 1671.73 162.952 1686.19 162.952C1700.66 162.952 1712.39 151.225 1712.39 136.759C1712.39 122.293 1700.66 110.567 1686.19 110.567C1671.73 110.567 1660 122.293 1660 136.759Z" fill="white"/>
<path d="M1787.3 102.641L1833.29 164.814C1833.33 164.868 1833.29 164.943 1833.22 164.942L1686.09 162.67C1686.02 162.669 1685.98 162.586 1686.03 162.535L1723.19 122.255C1723.2 122.245 1723.21 122.237 1723.22 122.233L1787.21 102.612C1787.24 102.602 1787.28 102.613 1787.3 102.641Z" fill="white"/>
<path d="M180.106 89C153.322 89 131.609 110.713 131.609 137.497C131.609 138.717 131.655 139.927 131.743 141.124C126.926 138.908 121.566 137.671 115.916 137.671C94.9755 137.671 78 154.647 78 175.588C78.0001 195.842 93.8805 212.385 113.869 213.448C114.325 213.71 114.863 213.863 115.459 213.854L293.093 211.109C294.554 211.293 296.042 211.388 297.553 211.388C317.13 211.388 333 195.517 333 175.94C333 156.363 317.13 140.493 297.553 140.493C289.667 140.493 282.383 143.07 276.495 147.425C271.497 133.907 258.494 124.27 243.238 124.27C237.644 124.27 232.353 125.567 227.648 127.875C223.185 105.7 203.596 89.0001 180.106 89Z" stroke="black" stroke-width="6" stroke-linecap="round"/>
<path d="M150.833 175.588C150.833 194.872 135.2 210.504 115.916 210.504C96.6326 210.504 81 194.872 81 175.588C81 156.304 96.6326 140.671 115.916 140.671C135.2 140.671 150.833 156.304 150.833 175.588Z" fill="white"/>
<path d="M225.603 137.497C225.603 162.625 205.234 182.994 180.106 182.994C154.979 182.994 134.609 162.625 134.609 137.497C134.609 112.37 154.979 92 180.106 92C205.234 92 225.603 112.37 225.603 137.497Z" fill="white"/>
<path d="M275.685 159.717C275.685 177.637 261.158 192.164 243.238 192.164C225.318 192.164 210.79 177.637 210.79 159.717C210.79 141.796 225.318 127.269 243.238 127.269C261.158 127.269 275.685 141.796 275.685 159.717Z" fill="white"/>
<path d="M330 175.941C330 193.861 315.473 208.388 297.552 208.388C279.632 208.388 265.105 193.861 265.105 175.941C265.105 158.02 279.632 143.493 297.552 143.493C315.473 143.493 330 158.02 330 175.941Z" fill="white"/>
<path d="M172.305 133.674L115.331 210.695C115.282 210.761 115.33 210.855 115.412 210.854L297.682 208.039C297.768 208.038 297.812 207.935 297.754 207.872L251.721 157.973C251.709 157.96 251.694 157.951 251.677 157.945L172.414 133.638C172.374 133.626 172.33 133.64 172.305 133.674Z" fill="white"/>
<defs>
<filter id="filter0_d_69_501" x="-363" y="548" width="2432.6" height="795" filterUnits="userSpaceOnUse" color-interpolation-filters="sRGB">
<feFlood flood-opacity="0" result="BackgroundImageFix"/>
<feColorMatrix in="SourceAlpha" type="matrix" values="0 0 0 0 0 0 0 0 0 0 0 0 0 0 0 0 0 0 127 0" result="hardAlpha"/>
<feOffset dy="4"/>
<feGaussianBlur stdDeviation="2"/>
<feComposite in2="hardAlpha" operator="out"/>
<feColorMatrix type="matrix" values="0 0 0 0 0 0 0 0 0 0 0 0 0 0 0 0 0 0 0.25 0"/>
<feBlend mode="normal" in2="BackgroundImageFix" result="effect1_dropShadow_69_501"/>
<feBlend mode="normal" in="SourceGraphic" in2="effect1_dropShadow_69_501" result="shape"/>
</filter>
</defs>
</svg>
