<svg width="25" height="188" viewBox="0 0 25 188" fill="none" xmlns="http://www.w3.org/2000/svg">
<g clip-path="url(#clip0_53_1375)">
<rect width="25" height="188" fill="#FACD86"/>
<path d="M13 11.5C12.4838 11.5 11.947 11.749 11.4102 12.2939C10.8716 12.8407 10.3631 13.6574 9.92578 14.707C9.05203 16.8041 8.5 19.7358 8.5 23C8.5 26.2642 9.05203 29.1959 9.92578 31.293C10.3631 32.3426 10.8716 33.1593 11.4102 33.7061C11.947 34.251 12.4838 34.5 13 34.5C13.5162 34.5 14.053 34.251 14.5898 33.7061C15.1284 33.1593 15.6369 32.3426 16.0742 31.293C16.948 29.1959 17.5 26.2642 17.5 23C17.5 19.7358 16.948 16.8041 16.0742 14.707C15.6369 13.6574 15.1284 12.8407 14.5898 12.2939C14.053 11.749 13.5162 11.5 13 11.5Z" stroke="#DD874C"/>
<path d="M13.5 17.5C13.329 17.5 13.1206 17.5809 12.8828 17.8223C12.6434 18.0653 12.4045 18.4427 12.1934 18.9492C11.772 19.9605 11.5 21.3927 11.5 23C11.5 24.6073 11.772 26.0395 12.1934 27.0508C12.4045 27.5573 12.6434 27.9347 12.8828 28.1777C13.1206 28.4191 13.329 28.5 13.5 28.5C13.671 28.5 13.8794 28.4191 14.1172 28.1777C14.3566 27.9347 14.5955 27.5573 14.8066 27.0508C15.228 26.0395 15.5 24.6073 15.5 23C15.5 21.3927 15.228 19.9605 14.8066 18.9492C14.5955 18.4427 14.3566 18.0653 14.1172 17.8223C13.8794 17.5809 13.671 17.5 13.5 17.5Z" stroke="#DD874C"/>
<path d="M25 97.5C25.427 97.5 25.8941 97.7287 26.3779 98.2744C26.8613 98.8196 27.319 99.6375 27.7139 100.69C28.5022 102.793 29 105.73 29 109C29 112.27 28.5022 115.207 27.7139 117.31C27.319 118.363 26.8613 119.18 26.3779 119.726C25.8941 120.271 25.427 120.5 25 120.5C24.573 120.5 24.1059 120.271 23.6221 119.726C23.1387 119.18 22.681 118.363 22.2861 117.31C21.4978 115.207 21 112.27 21 109C21 105.73 21.4978 102.793 22.2861 100.69C22.681 99.6375 23.1387 98.8196 23.6221 98.2744C24.1059 97.7287 24.573 97.5 25 97.5Z" stroke="#DD874C"/>
<path d="M25 102.557C25.0372 102.604 25.0857 102.674 25.1377 102.776C25.289 103.075 25.4394 103.54 25.5713 104.155C25.8334 105.378 26 107.091 26 109C26 110.909 25.8334 112.622 25.5713 113.845C25.4394 114.46 25.289 114.925 25.1377 115.224C25.0859 115.326 25.0371 115.395 25 115.442C24.9629 115.395 24.9141 115.326 24.8623 115.224C24.711 114.925 24.5606 114.46 24.4287 113.845C24.1666 112.622 24 110.909 24 109C24 107.091 24.1666 105.378 24.4287 104.155C24.5606 103.54 24.711 103.075 24.8623 102.776C24.9143 102.674 24.9628 102.604 25 102.557Z" stroke="#DD874C"/>
<path d="M26 84C26.5 86.8333 25.8 92.7 23 95.5C19.5 99 19 104 19 110.5C19 117 21.5 122.5 25 124.5C27.8 126.1 27.8333 132.5 27.5 135.5" stroke="#DD874C"/>
<path d="M14 135C17.5 148 17.5 145 17.5 157" stroke="#DD874C"/>
<path d="M12.6069 79C12.1069 81.5 6.10686 95.5 8.60686 104" stroke="#DD874C"/>
<path d="M18.4998 13.5C19.9998 18 21.0001 24.5 18.5001 32" stroke="#DD874C"/>
</g>
<defs>
<clipPath id="clip0_53_1375">
<rect width="25" height="188" fill="white"/>
</clipPath>
</defs>
</svg>
