<svg width="254" height="245" viewBox="0 0 254 245" fill="none" xmlns="http://www.w3.org/2000/svg">
<path d="M75.3566 218.368C74.9501 219.165 71.8432 220.007 70.3405 220.328L68.1211 185.809L94.3561 157.021L107.331 160.127C97.2638 168.378 76.9249 185.38 76.1087 187.374C75.0884 189.865 75.8647 217.373 75.3566 218.368Z" fill="#A6861C" stroke="black"/>
<path d="M103.332 160.094L86.3404 158.956C79.4531 165.567 65.0728 179.484 62.6501 182.264C59.6217 185.739 58.8493 219.234 59.3412 220.238C59.833 221.242 68.8287 221.815 70.3408 220.328C71.853 218.84 72.101 188.341 72.6173 186.345C73.0303 184.748 93.1017 167.844 103.332 160.094Z" fill="#FAC310" stroke="black"/>
<path d="M184.732 219.931C185.323 220.602 188.541 220.65 190.076 220.59L183.7 186.593L151.167 165.178L139.361 171.392C151.155 176.901 175.063 188.352 176.347 190.082C177.951 192.245 183.993 219.091 184.732 219.931Z" fill="#A6861C" stroke="black"/>
<path d="M143.229 170.373L159.413 165.072C167.72 169.777 185.092 179.71 188.126 181.806C191.919 184.426 200.942 216.692 200.713 217.786C200.485 218.881 191.909 221.658 190.077 220.59C188.244 219.522 180.47 190.029 179.476 188.223C178.682 186.778 155.057 175.356 143.229 170.373Z" fill="#FAC310" stroke="black"/>
<path d="M41.7631 202.543C41.1754 203.217 37.9572 203.279 36.4215 203.226L42.6449 169.2L75.0814 147.639L86.9151 153.8C75.1462 159.363 51.2895 170.921 50.014 172.657C48.4195 174.826 42.4977 201.7 41.7631 202.543Z" fill="#A6861C" stroke="black"/>
<path d="M83.0427 152.798L66.8354 147.571C58.5498 152.313 41.2222 162.324 38.1972 164.434C34.416 167.071 25.5388 199.377 25.7723 200.47C26.0058 201.564 34.5935 204.302 36.4214 203.226C38.2494 202.15 45.891 172.623 46.8761 170.812C47.6642 169.363 71.2377 157.835 83.0427 152.798Z" fill="#FAC310" stroke="black"/>
<path d="M210.681 209.162C211.188 209.9 214.378 210.331 215.909 210.455L213.635 175.939L183.889 150.796L171.426 155.557C182.478 162.434 204.85 176.656 205.918 178.527C207.252 180.865 210.049 208.241 210.681 209.162Z" fill="#A6861C" stroke="black"/>
<path d="M175.388 155.006L192.089 151.675C199.775 157.337 215.838 169.273 218.601 171.715C222.054 174.769 227.162 207.881 226.805 208.94C226.447 210 217.602 211.734 215.909 210.455C214.217 209.176 210.017 178.966 209.247 177.054C208.63 175.525 186.537 161.365 175.388 155.006Z" fill="#FAC310" stroke="black"/>
<path d="M112.121 202.538C111.806 203.375 108.811 204.556 107.353 205.041L101.323 170.98L124.207 139.463L137.447 141.112C128.355 150.429 110.025 169.579 109.435 171.651C108.697 174.24 112.516 201.492 112.121 202.538Z" fill="#A6861C" stroke="black"/>
<path d="M133.468 141.523L116.455 142.275C110.343 149.608 97.5927 165.032 95.4929 168.064C92.8683 171.853 95.8115 205.228 96.4115 206.171C97.0116 207.114 106.015 206.687 107.353 205.041C108.691 203.395 105.559 173.056 105.851 171.016C106.084 169.383 124.16 150.359 133.468 141.523Z" fill="#FAC310" stroke="black"/>
<path d="M139.167 217.841C139.647 218.596 142.82 219.14 144.346 219.317L143.29 184.743L114.449 158.567L101.826 162.886C112.629 170.148 134.485 185.15 135.486 187.057C136.738 189.441 138.567 216.898 139.167 217.841Z" fill="#A6861C" stroke="black"/>
<path d="M105.805 162.475L122.612 159.735C130.094 165.664 145.727 178.158 148.402 180.697C151.745 183.87 155.683 217.142 155.288 218.188C154.894 219.234 145.993 220.655 144.347 219.317C142.7 217.979 139.568 187.641 138.865 185.703C138.303 184.152 116.722 169.223 105.805 162.475Z" fill="#FAC310" stroke="black"/>
<path d="M37.2062 166.039C35.3682 163.816 34.0077 151.29 33.6951 141.772C92.9362 142.692 78.3839 160.782 218.125 141.328C222.642 140.699 218.425 157.214 217.846 162.971C165.021 181.997 39.5037 168.818 37.2062 166.039Z" fill="#BF8845" stroke="black" stroke-width="6"/>
<path d="M36.4001 149.356C32.6098 146.732 31.6402 138.957 34.0188 136.031C31.5319 136.287 18.6705 128.567 21.7251 119.204C24.16 111.74 32.0461 112.597 39.1435 113.368L39.2197 113.376L58.1192 111.425C104.383 114.858 191.865 118.627 205.16 118.863C221.778 119.158 230.921 130.78 226.165 137.303C222.202 142.739 207.752 150.349 199.237 149.131C193.115 148.255 171.815 146.433 164.32 151.731C156.726 157.099 141.91 160.499 135.884 158.688C129.66 156.818 118.409 150.656 108.257 154.001C92.7012 159.126 84.2687 155.461 78.2454 150.565C73.8559 146.997 62.7086 146.137 58.8324 147.543C54.7888 149.009 41.6644 153.002 36.4001 149.356Z" fill="#2B8A1C" stroke="black" stroke-width="6"/>
<path d="M34.1941 132.859C32.7975 131.906 31.7694 123.847 35.6942 120.637C45.2279 121.741 70.2573 128.208 126.294 131.882C128.105 132 127.264 138.593 126.713 141.487C98.1225 144.935 35.5906 133.811 34.1941 132.859Z" fill="#CE0000" stroke="black" stroke-width="6"/>
<path d="M128.483 145.439C126.895 144.859 123.92 137.298 126.936 133.223C136.449 131.952 162.3 132.077 217.524 121.881C219.309 121.551 220.112 128.149 220.288 131.09C193.419 141.451 130.07 146.019 128.483 145.439Z" fill="#CE0000" stroke="black" stroke-width="6"/>
<path d="M33.1881 118.412C31.5614 116.259 27.8005 93.4307 32.6577 90.6075C70.8839 112.663 187.665 109.428 220.621 97.6671C224.016 103.353 222.85 119.26 219.667 124.696C122.559 140.759 36.7608 123.142 33.1881 118.412Z" fill="#662B06" stroke="black" stroke-width="6"/>
<path d="M240.94 103.283C233.944 93.9524 211.402 82.4734 202.064 78.5655C167.451 61.5853 96.9854 30.5849 92.0295 42.4241C87.0736 54.2632 31.1317 86.7438 8.45584 105.673C42.7255 92.634 114.611 116.327 141.431 132.659C160.436 117.125 218.44 106.824 240.94 103.283Z" fill="#E29502" stroke="black" stroke-width="6"/>
<path d="M228.917 93.9699C190.085 117.08 33.0639 100.619 27.2527 88.1507C23.3801 74.9781 66.7616 0.965865 143.082 12.353C202.815 21.2652 235.61 71.1614 228.917 93.9699Z" fill="#BF8845" stroke="black" stroke-width="6"/>
<path d="M97.7972 90.8913C94.8117 88.2293 91.8354 79.5464 91.3004 76.3899C94.8841 77.129 102.798 79.2726 105.783 81.9347C108.769 84.5967 107.559 88.2073 106.228 89.7001C104.897 91.1929 100.783 93.5534 97.7972 90.8913Z" fill="#CE0000" stroke="black"/>
<path d="M101.912 88.5307C101.016 87.732 100.712 86.1205 100.671 85.4145C101.377 85.3741 103.013 85.4929 103.909 86.2915C104.804 87.0901 105.109 88.7017 105.149 89.4076C104.443 89.448 102.808 89.3293 101.912 88.5307Z" fill="black" stroke="black"/>
<path d="M101.876 72.1105C100.224 70.544 98.6828 65.5529 98.4337 63.7479C100.459 64.231 104.923 65.5887 106.575 67.1552C108.227 68.7217 107.476 70.7544 106.693 71.5803C105.909 72.4062 103.528 73.677 101.876 72.1105Z" fill="#CE0000" stroke="black"/>
<path d="M104.257 70.8396C103.762 70.3696 103.617 69.4476 103.606 69.0453C104.008 69.0347 104.937 69.1308 105.432 69.6008C105.928 70.0707 106.073 70.9927 106.084 71.395C105.681 71.4057 104.753 71.3095 104.257 70.8396Z" fill="black" stroke="black"/>
<path d="M82.3111 89.6873C81.0488 88.4902 79.871 84.676 79.6806 83.2966C81.2286 83.6658 84.6401 84.7034 85.9023 85.9005C87.1646 87.0975 86.5905 88.6509 85.992 89.2821C85.3934 89.9132 83.5734 90.8844 82.3111 89.6873Z" fill="#CE0000" stroke="black"/>
<path d="M84.1308 88.7161C83.7521 88.357 83.6411 87.6524 83.633 87.3449C83.9404 87.3368 84.6499 87.4103 85.0286 87.7694C85.4073 88.1285 85.5182 88.8332 85.5264 89.1406C85.219 89.1487 84.5095 89.0752 84.1308 88.7161Z" fill="black" stroke="black"/>
<path d="M80.7706 74.7666C79.5083 73.5695 78.3305 69.7553 78.1401 68.376C79.688 68.7451 83.0995 69.7827 84.3618 70.9798C85.6241 72.1769 85.05 73.7303 84.4515 74.3614C83.8529 74.9926 82.0328 75.9637 80.7706 74.7666Z" fill="#CE0000" stroke="black"/>
<path d="M82.5903 73.7955C82.2116 73.4363 82.1006 72.7317 82.0925 72.4243C82.3999 72.4161 83.1094 72.4896 83.4881 72.8488C83.8668 73.2079 83.9777 73.9125 83.9859 74.2199C83.6785 74.2281 82.9689 74.1546 82.5903 73.7955Z" fill="black" stroke="black"/>
<path d="M67.5903 89.8291C65.9155 89.3586 63.095 86.5336 62.2835 85.4021C63.825 85.0069 67.3268 84.3341 69.0016 84.8046C70.6764 85.275 70.8928 86.9169 70.6576 87.7543C70.4224 88.5917 69.2651 90.2995 67.5903 89.8291Z" fill="#CE0000" stroke="black"/>
<path d="M68.7473 88.1211C68.2449 87.9799 67.8182 87.4084 67.6676 87.1402C67.9358 86.9896 68.5977 86.7238 69.1002 86.865C69.6026 87.0061 70.0293 87.5777 70.1799 87.8458C69.9117 87.9964 69.2498 88.2622 68.7473 88.1211Z" fill="black" stroke="black"/>
<path d="M65.8434 77.2055C63.9202 75.8016 61.6531 70.83 61.153 68.9908C63.3191 69.2208 68.1321 70.0318 70.0553 71.4357C71.9786 72.8397 71.4713 75.049 70.7694 76.0107C70.0674 76.9723 67.7667 78.6095 65.8434 77.2055Z" fill="#CE0000" stroke="black"/>
<path d="M68.1436 75.5678C67.5666 75.1466 67.2926 74.2095 67.2277 73.7936C67.6436 73.7287 68.6196 73.7042 69.1966 74.1254C69.7736 74.5466 70.0476 75.4837 70.1126 75.8996C69.6967 75.9645 68.7206 75.989 68.1436 75.5678Z" fill="black" stroke="black"/>
<path d="M51.4141 88.102C49.9661 87.7488 47.4674 85.4134 46.739 84.4687C48.0472 84.0846 51.0256 83.4048 52.4737 83.758C53.9217 84.1112 54.1556 85.5106 53.979 86.2346C53.8025 86.9587 52.8621 88.4552 51.4141 88.102Z" fill="#CE0000" stroke="black"/>
<path d="M52.3546 86.6054C51.9202 86.4995 51.5379 86.0227 51.401 85.7975C51.6262 85.6607 52.1851 85.4134 52.6195 85.5194C53.0539 85.6254 53.4362 86.1021 53.573 86.3273C53.3479 86.4642 52.789 86.7114 52.3546 86.6054Z" fill="black" stroke="black"/>
<path d="M54.1025 78.337C52.7925 77.6262 50.9719 74.7308 50.5085 73.6316C51.8714 73.5938 54.9248 73.696 56.2348 74.4068C57.5449 75.1175 57.4143 76.5304 57.0589 77.1854C56.7035 77.8405 55.4126 79.0477 54.1025 78.337Z" fill="#CE0000" stroke="black"/>
<path d="M55.3932 77.1295C55.0002 76.9162 54.7521 76.3577 54.6772 76.1051C54.9298 76.0302 55.5333 75.9337 55.9263 76.1469C56.3193 76.3601 56.5674 76.9186 56.6423 77.1713C56.3897 77.2462 55.7862 77.3427 55.3932 77.1295Z" fill="black" stroke="black"/>
<path d="M65.8963 62.9883C64.8022 61.9761 63.7526 58.721 63.5749 57.5414C64.905 57.8412 67.8386 58.6938 68.9327 59.7059C70.0268 60.7181 69.5515 62.055 69.0454 62.602C68.5394 63.1491 66.9904 64.0004 65.8963 62.9883Z" fill="#CE0000" stroke="black"/>
<path d="M67.4451 62.1367C67.1169 61.8331 67.0143 61.2306 67.0041 60.9673C67.2673 60.9571 67.876 61.0125 68.2042 61.3161C68.5324 61.6198 68.635 62.2223 68.6452 62.4855C68.3819 62.4958 67.7733 62.4404 67.4451 62.1367Z" fill="black" stroke="black"/>
<path d="M79.8112 64.5799C78.8827 63.414 78.3373 60.0376 78.3399 58.8446C79.6094 59.342 82.3804 60.6284 83.3089 61.7943C84.2374 62.9602 83.5655 64.2099 82.9825 64.6741C82.3996 65.1384 80.7397 65.7458 79.8112 64.5799Z" fill="#CE0000" stroke="black"/>
<path d="M81.4708 63.972C81.1923 63.6223 81.182 63.0112 81.2116 62.7494C81.4734 62.7791 82.0667 62.9259 82.3452 63.2756C82.6238 63.6254 82.6341 64.2365 82.6044 64.4983C82.3426 64.4686 81.7494 64.3218 81.4708 63.972Z" fill="black" stroke="black"/>
<path d="M79.9484 52.9155C79.0971 51.6921 78.7707 48.2875 78.8503 47.0972C80.085 47.6756 82.7673 49.1381 83.6186 50.3615C84.4699 51.5849 83.7187 52.7886 83.107 53.2143C82.4953 53.6399 80.7997 54.1389 79.9484 52.9155Z" fill="#CE0000" stroke="black"/>
<path d="M81.6439 52.416C81.3885 52.049 81.4176 51.4386 81.4641 51.1792C81.7235 51.2257 82.306 51.4105 82.5614 51.7775C82.8168 52.1446 82.7877 52.755 82.7411 53.0143C82.4818 52.9678 81.8993 52.7831 81.6439 52.416Z" fill="black" stroke="black"/>
<path d="M90.7376 58.9971C89.9454 57.7346 89.7812 54.3184 89.9172 53.1332C91.1231 53.7695 93.7328 55.3579 94.525 56.6203C95.3173 57.8828 94.5097 59.0494 93.8785 59.4456C93.2472 59.8417 91.5299 60.2595 90.7376 58.9971Z" fill="#CE0000" stroke="black"/>
<path d="M92.455 58.5789C92.2174 58.2001 92.2755 57.5918 92.3343 57.3349C92.5911 57.3937 93.1642 57.606 93.4019 57.9847C93.6396 58.3634 93.5814 58.9718 93.5226 59.2286C93.2658 59.1699 92.6927 58.9576 92.455 58.5789Z" fill="black" stroke="black"/>
<path d="M91.7566 70.3413C90.6624 69.3293 89.6124 66.0743 89.4346 64.8947C90.7647 65.1943 93.6984 66.0467 94.7926 67.0587C95.8869 68.0707 95.4117 69.4076 94.9057 69.9547C94.3997 70.5018 92.8508 71.3533 91.7566 70.3413Z" fill="#CE0000" stroke="black"/>
<path d="M93.305 69.4897C92.9768 69.1861 92.8742 68.5836 92.8639 68.3203C93.1272 68.31 93.7358 68.3654 94.0641 68.669C94.3923 68.9726 94.4949 69.5751 94.5052 69.8383C94.2419 69.8486 93.6333 69.7933 93.305 69.4897Z" fill="black" stroke="black"/>
<path d="M158.31 89.8553C160.957 86.8564 162.878 77.8808 163.033 74.683C159.563 75.8439 151.961 78.9155 149.314 81.9144C146.667 84.9133 148.298 88.354 149.798 89.6775C151.297 91.001 155.663 92.8542 158.31 89.8553Z" fill="#CE0000" stroke="black"/>
<path d="M153.944 88.002C154.738 87.1024 154.849 85.466 154.805 84.7602C154.099 84.8042 152.489 85.1171 151.695 86.0168C150.901 86.9165 150.79 88.5529 150.834 89.2586C151.54 89.2146 153.15 88.9017 153.944 88.002Z" fill="black" stroke="black"/>
<path d="M152.022 71.6946C153.476 69.9424 154.411 64.8031 154.443 62.9814C152.49 63.7024 148.219 65.5825 146.766 67.3347C145.313 69.0868 146.301 71.0155 147.177 71.7422C148.053 72.4688 150.569 73.4467 152.022 71.6946Z" fill="#CE0000" stroke="black"/>
<path d="M149.506 70.7164C149.942 70.1908 149.976 69.258 149.939 68.8573C149.538 68.8947 148.628 69.1008 148.192 69.6264C147.756 70.1521 147.722 71.0849 147.759 71.4855C148.16 71.4482 149.07 71.2421 149.506 70.7164Z" fill="black" stroke="black"/>
<path d="M173.543 86.8142C174.654 85.4753 175.368 81.5478 175.393 80.1557C173.9 80.7067 170.637 82.1434 169.526 83.4824C168.415 84.8214 169.17 86.2953 169.84 86.8506C170.509 87.4059 172.432 88.1532 173.543 86.8142Z" fill="#CE0000" stroke="black"/>
<path d="M171.62 86.0667C171.953 85.665 171.98 84.9522 171.951 84.646C171.645 84.6745 170.949 84.832 170.616 85.2337C170.283 85.6354 170.257 86.3483 170.285 86.6545C170.591 86.6259 171.287 86.4684 171.62 86.0667Z" fill="black" stroke="black"/>
<path d="M173.294 71.8164C174.405 70.4775 175.12 66.55 175.144 65.1579C173.652 65.7089 170.388 67.1456 169.277 68.4846C168.167 69.8236 168.922 71.2975 169.591 71.8528C170.261 72.4081 172.184 73.1554 173.294 71.8164Z" fill="#CE0000" stroke="black"/>
<path d="M171.372 71.0689C171.705 70.6672 171.731 69.9544 171.702 69.6482C171.396 69.6767 170.701 69.8342 170.367 70.2359C170.034 70.6376 170.008 71.3505 170.037 71.6567C170.343 71.6281 171.038 71.4706 171.372 71.0689Z" fill="black" stroke="black"/>
<path d="M188.176 85.2004C189.783 84.5337 192.247 81.3927 192.918 80.1726C191.34 79.9639 187.783 79.7133 186.176 80.38C184.569 81.0467 184.55 82.7026 184.884 83.506C185.217 84.3094 186.569 85.8671 188.176 85.2004Z" fill="#CE0000" stroke="black"/>
<path d="M186.824 83.6428C187.306 83.4428 187.661 82.8244 187.779 82.5402C187.495 82.4227 186.806 82.2377 186.324 82.4377C185.842 82.6377 185.486 83.2561 185.369 83.5403C185.653 83.6578 186.342 83.8428 186.824 83.6428Z" fill="black" stroke="black"/>
<path d="M188.406 72.4587C190.148 70.8355 191.806 65.6291 192.084 63.7435C189.96 64.23 185.278 65.6088 183.536 67.232C181.794 68.8552 182.561 70.9883 183.372 71.8594C184.184 72.7306 186.663 74.0819 188.406 72.4587Z" fill="#CE0000" stroke="black"/>
<path d="M185.926 71.107C186.449 70.62 186.609 69.6569 186.624 69.2363C186.204 69.2214 185.232 69.3134 184.709 69.8003C184.186 70.2873 184.026 71.2504 184.011 71.671C184.432 71.6859 185.404 71.5939 185.926 71.107Z" fill="black" stroke="black"/>
<path d="M204.031 81.5579C205.426 81.0346 207.629 78.4181 208.24 77.3932C206.895 77.1678 203.857 76.8478 202.461 77.3711C201.065 77.8943 201 79.3117 201.262 80.0095C201.523 80.7073 202.635 82.0811 204.031 81.5579Z" fill="#CE0000" stroke="black"/>
<path d="M202.919 80.1836C203.338 80.0267 203.661 79.5077 203.77 79.2679C203.53 79.1588 202.945 78.98 202.527 79.1369C202.108 79.2939 201.785 79.8129 201.676 80.0527C201.916 80.1618 202.5 80.3406 202.919 80.1836Z" fill="black" stroke="black"/>
<path d="M200.197 72.183C201.413 71.3211 202.876 68.2294 203.205 67.0827C201.847 67.2077 198.828 67.673 197.612 68.5349C196.396 69.3967 196.694 70.7839 197.125 71.392C197.556 72 198.981 73.0448 200.197 72.183Z" fill="#CE0000" stroke="black"/>
<path d="M198.772 71.1378C199.137 70.8792 199.317 70.2951 199.361 70.0354C199.101 69.9911 198.49 69.9672 198.126 70.2258C197.761 70.4843 197.581 71.0684 197.537 71.3282C197.797 71.3724 198.407 71.3963 198.772 71.1378Z" fill="black" stroke="black"/>
<path d="M186.659 58.3491C187.625 57.2138 188.279 53.8568 188.315 52.6644C187.03 53.1205 184.219 54.3168 183.253 55.4521C182.287 56.5874 182.919 57.8581 183.486 58.341C184.054 58.8238 185.693 59.4844 186.659 58.3491Z" fill="#CE0000" stroke="black"/>
<path d="M185.02 57.6881C185.31 57.3475 185.34 56.7371 185.318 56.4745C185.056 56.4957 184.458 56.6232 184.168 56.9638C183.879 57.3044 183.849 57.9148 183.87 58.1775C184.133 58.1563 184.73 58.0287 185.02 57.6881Z" fill="black" stroke="black"/>
<path d="M173.033 61.5876C173.816 60.3194 173.955 56.902 173.81 55.7179C172.609 56.3631 170.011 57.9705 169.228 59.2388C168.445 60.507 169.261 61.6677 169.895 62.0592C170.53 62.4507 172.25 62.8559 173.033 61.5876Z" fill="#CE0000" stroke="black"/>
<path d="M171.312 61.1821C171.547 60.8016 171.484 60.1937 171.424 59.9373C171.167 59.998 170.596 60.2144 170.361 60.5949C170.126 60.9754 170.189 61.5833 170.249 61.8397C170.506 61.779 171.077 61.5626 171.312 61.1821Z" fill="black" stroke="black"/>
<path d="M171.506 50.0229C172.206 48.7068 172.124 45.2876 171.903 44.1153C170.746 44.8367 168.257 46.6084 167.558 47.9246C166.859 49.2407 167.748 50.3463 168.406 50.696C169.064 51.0458 170.807 51.3391 171.506 50.0229Z" fill="#CE0000" stroke="black"/>
<path d="M169.763 49.7292C169.973 49.3344 169.872 48.7318 169.795 48.4798C169.543 48.5569 168.986 48.8098 168.776 49.2047C168.567 49.5995 168.668 50.2021 168.745 50.4541C168.997 50.377 169.554 50.1241 169.763 49.7292Z" fill="black" stroke="black"/>
<path d="M161.518 57.3473C162.154 55.9994 161.91 52.5879 161.634 51.4274C160.512 52.2029 158.111 54.091 157.475 55.4389C156.838 56.7868 157.779 57.8488 158.453 58.1669C159.127 58.485 160.882 58.6952 161.518 57.3473Z" fill="#CE0000" stroke="black"/>
<path d="M159.764 57.1366C159.954 56.7322 159.824 56.1351 159.735 55.8871C159.487 55.9761 158.944 56.2551 158.753 56.6595C158.562 57.0639 158.692 57.661 158.781 57.909C159.029 57.82 159.573 57.541 159.764 57.1366Z" fill="black" stroke="black"/>
<path d="M161.859 68.7318C162.825 67.5966 163.48 64.2396 163.516 63.0472C162.231 63.5033 159.419 64.6992 158.454 65.8344C157.488 66.9696 158.119 68.2404 158.687 68.7233C159.254 69.2062 160.893 69.867 161.859 68.7318Z" fill="#CE0000" stroke="black"/>
<path d="M160.22 68.0708C160.51 67.7303 160.54 67.1199 160.519 66.8572C160.256 66.8784 159.659 67.0059 159.369 67.3465C159.079 67.687 159.049 68.2974 159.07 68.5601C159.333 68.5389 159.931 68.4114 160.22 68.0708Z" fill="black" stroke="black"/>
<path d="M134.53 22.0059C109.149 19.6001 84.916 18.5836 54.4337 54.4038C91.16 25.5058 108.427 27.2138 134.53 22.0059Z" fill="white" fill-opacity="0.42"/>
</svg>
