<?xml version="1.0" encoding="UTF-8"?>
<svg id="Calque_1" data-name="Calque 1" xmlns="http://www.w3.org/2000/svg" xmlns:xlink="http://www.w3.org/1999/xlink" viewBox="0 0 98.77 98.77">
  <defs>
    <style>
      .cls-1 {
        fill: #2c4b9b;
      }

      .cls-1, .cls-2, .cls-3, .cls-4, .cls-5, .cls-6, .cls-7, .cls-8, .cls-9, .cls-10, .cls-11, .cls-12, .cls-13, .cls-14, .cls-15, .cls-16, .cls-17, .cls-18, .cls-19 {
        stroke-miterlimit: 10;
      }

      .cls-1, .cls-2, .cls-3, .cls-20, .cls-6, .cls-7, .cls-8, .cls-11, .cls-12, .cls-13, .cls-14, .cls-15, .cls-16, .cls-17, .cls-18, .cls-19 {
        stroke: #1d1d1b;
      }

      .cls-2 {
        fill: url(#Dégradé_sans_nom_9);
      }

      .cls-2, .cls-12, .cls-13, .cls-16, .cls-17, .cls-19 {
        stroke-width: .5px;
      }

      .cls-3 {
        fill: #5f3305;
      }

      .cls-4, .cls-5, .cls-9 {
        stroke: #5a5a59;
      }

      .cls-4, .cls-21 {
        fill: #5a5a59;
      }

      .cls-5, .cls-22, .cls-9, .cls-10, .cls-18 {
        fill: none;
      }

      .cls-20 {
        stroke-linejoin: round;
      }

      .cls-20, .cls-11 {
        fill: #1d1d1b;
      }

      .cls-6 {
        fill: #d01137;
      }

      .cls-7 {
        fill: url(#Dégradé_sans_nom_15);
      }

      .cls-8 {
        fill: #007435;
      }

      .cls-9 {
        stroke-linecap: round;
      }

      .cls-10 {
        stroke: #e73728;
      }

      .cls-12 {
        fill: #d4d4d4;
      }

      .cls-13 {
        fill: url(#Dégradé_sans_nom_9-2);
      }

      .cls-14 {
        fill: url(#Dégradé_sans_nom_16);
      }

      .cls-15 {
        stroke-width: .75px;
      }

      .cls-15, .cls-16 {
        fill: #e9bf87;
      }

      .cls-23 {
        clip-path: url(#clippath);
      }

      .cls-17 {
        fill: #dba6cc;
      }

      .cls-19 {
        fill: url(#Dégradé_sans_nom_22);
      }
    </style>
    <clipPath id="clippath">
      <circle class="cls-22" cx="49.39" cy="49.39" r="49.39"/>
    </clipPath>
    <linearGradient id="Dégradé_sans_nom_16" data-name="Dégradé sans nom 16" x1="54.75" y1="42.53" x2="58.27" y2="51.09" gradientUnits="userSpaceOnUse">
      <stop offset="0" stop-color="#fff"/>
      <stop offset=".13" stop-color="#f4f9fd"/>
      <stop offset=".36" stop-color="#d8ebf8"/>
      <stop offset=".65" stop-color="#abd5f0"/>
      <stop offset="1" stop-color="#6db6e5"/>
      <stop offset="1" stop-color="#6db6e5"/>
    </linearGradient>
    <linearGradient id="Dégradé_sans_nom_15" data-name="Dégradé sans nom 15" x1="36.01" y1="41.99" x2="40.23" y2="50.85" gradientUnits="userSpaceOnUse">
      <stop offset="0" stop-color="#fff"/>
      <stop offset=".13" stop-color="#f4f9fd"/>
      <stop offset=".36" stop-color="#d8ebf8"/>
      <stop offset=".65" stop-color="#abd5f0"/>
      <stop offset="1" stop-color="#6db6e5"/>
      <stop offset="1" stop-color="#6db6e5"/>
    </linearGradient>
    <linearGradient id="Dégradé_sans_nom_9" data-name="Dégradé sans nom 9" x1="55.68" y1="-50.21" x2="56.02" y2="-45.85" gradientTransform="translate(-12.07 86.65) rotate(-10.11)" gradientUnits="userSpaceOnUse">
      <stop offset="0" stop-color="#452605"/>
      <stop offset=".49" stop-color="#4f2b05"/>
      <stop offset="1" stop-color="#5f3305"/>
    </linearGradient>
    <linearGradient id="Dégradé_sans_nom_9-2" data-name="Dégradé sans nom 9" x1="86.89" y1="289.2" x2="87.02" y2="290.88" gradientTransform="translate(148.23 -262.96) rotate(31.62)" xlink:href="#Dégradé_sans_nom_9"/>
    <linearGradient id="Dégradé_sans_nom_22" data-name="Dégradé sans nom 22" x1="77.29" y1="-71.98" x2="76.18" y2="-67.76" gradientTransform="translate(-7.97 103.66) rotate(-11.27)" gradientUnits="userSpaceOnUse">
      <stop offset="0" stop-color="#452605"/>
      <stop offset=".49" stop-color="#4f2b05"/>
      <stop offset="1" stop-color="#5f3305"/>
    </linearGradient>
  </defs>
  <g class="cls-23">
    <circle class="cls-8" cx="49.39" cy="49.39" r="49.39"/>
    <path class="cls-1" d="M3.37,124.18c0-25.97,21.05-47.02,47.02-47.02s47.02,21.05,47.02,47.02"/>
    <path class="cls-15" d="M72.69,49.78c2.87,19.08-11.09,33.83-23.27,33.8-11.71-.03-25.11-13.73-23.47-32.04,1.92-.41,3.36-2.22,3.36-4.39,0-.58-.1-1.14-.29-1.65.66-.57,1.15-1.4,1.35-2.36.07,0,.14,0,.21,0,1.73,0,3.14-1.21,3.14-2.71,0-.48-.15-.94-.4-1.33.19-.15.37-.3.54-.48.58.49,1.32.79,2.13.79,1.23,0,2.31-.69,2.91-1.72.91.44,1.98.7,3.14.7,2.75,0,5.05-1.45,5.66-3.41.29.1.6.2.91.27.55,1.68,2.37,2.91,4.52,2.91,1.63,0,3.07-.71,3.91-1.78.47.73,1.1,1.25,1.81,1.48,1.22,1.7,3.39,2.84,5.85,2.84,1.25,0,2.43-.29,3.45-.81.52,1.02,1.39,1.8,2.43,2.1.05.1.1.21.15.3h0c-.23.72-.36,1.5-.36,2.32,0,2.21.93,4.14,2.31,5.16Z"/>
    <path class="cls-4" d="M71.44,43.1c-.06-.1-.1-.2-.15-.3-.01,0-.02,0-.04-.01-1.02-.31-1.88-1.08-2.4-2.09-1.02.52-2.2.81-3.45.81-2.46,0-4.62-1.13-5.85-2.84-.71-.23-1.34-.75-1.81-1.48-.84,1.07-2.28,1.78-3.91,1.78-2.16,0-3.98-1.23-4.52-2.91-.31-.08-.62-.17-.91-.27-.61,1.96-2.91,3.41-5.66,3.41-1.16,0-2.23-.26-3.14-.7-.6,1.04-1.68,1.72-2.91,1.72-.81,0-1.54-.29-2.13-.79-.17.17-.35.33-.54.48.26.39.4.85.4,1.33,0,1.5-1.41,2.71-3.14,2.71-.07,0-.14,0-.21,0-.2.96-.68,1.79-1.35,2.36.19.51.29,1.07.29,1.65,0,2.17-1.45,3.98-3.36,4.39-.27.06-.54.09-.83.09-2.32,0-4.2-2.01-4.2-4.48,0-.96.28-1.85.77-2.57-.1-.35-.16-.73-.16-1.13,0-.19.01-.38.04-.56-.62-.49-1.02-1.21-1.02-2.01s.41-1.55,1.06-2.04c0-.06,0-.11,0-.17,0-.78.32-1.5.87-2.09-.58-.45-.94-1.12-.94-1.87,0-.56.2-1.07.54-1.48.1-.38.25-.74.47-1.08-.8-.57-1.29-1.36-1.29-2.23,0-1.22.98-2.28,2.4-2.79-.02-.13-.02-.26-.02-.39,0-.34.05-.67.15-.98-.08-.19-.12-.4-.12-.62,0-1.12,1.17-2.03,2.61-2.03h.02s.03,0,.04,0h0c0-.07,0-.14,0-.2.08-2.09,1.4-3.75,3.02-3.75h.05c.28-.46.67-.87,1.14-1.2-.08-.22-.12-.46-.12-.7,0-1.33,1.22-2.41,2.73-2.41.62,0,1.2.19,1.66.5.43-.28.93-.48,1.47-.57.71-1.34,2.28-2.27,4.11-2.27.57,0,1.12.09,1.63.26.12-.01.25-.02.38-.02.35,0,.69.05,1,.14.5-1.16,1.81-1.98,3.34-1.98,1.39,0,2.59.68,3.17,1.67.59-.62,1.56-1.02,2.66-1.02l5.73,3.26,7.12,6.67,4.27,11.34,1.07,9.43Z"/>
    <path class="cls-21" d="M52.72,59.38s2.68,2.95-2.68,2.95-3.23-2.95-3.23-2.95h5.92Z"/>
    <path class="cls-4" d="M49.67,68.75l9.88,3.74c-8.1-6.67-9.88-5.52-9.88-5.52,0,0-1.78-1.16-9.88,5.52l9.88-3.74Z"/>
    <path class="cls-11" d="M49.48,68.45l9.88,3.74c-8.1-6.67-9.88-5.52-9.88-5.52,0,0-1.78-1.16-9.88,5.52l9.88-3.74Z"/>
    <g>
      <g>
        <rect class="cls-4" x="35.49" y="46.19" width="11.39" height="1.36" transform="translate(4.42 -3.54) rotate(5.2)"/>
        <rect class="cls-4" x="53.07" y="43.47" width="11.39" height="1.36" transform="translate(-2.96 4.24) rotate(-4.03)"/>
      </g>
      <rect class="cls-11" x="35.27" y="46.02" width="11.39" height="1.36" transform="translate(4.41 -3.52) rotate(5.2)"/>
      <rect class="cls-11" x="52.85" y="43.3" width="11.39" height="1.36" transform="translate(-2.95 4.23) rotate(-4.03)"/>
    </g>
    <path class="cls-15" d="M46.54,59.18s-2.05,2.67,3.11,2.67,2.58-2.67,2.58-2.67"/>
    <g>
      <g>
        <path class="cls-9" d="M47.98,50.12c.18-.14.92-.71,1.99-.65.87.05,1.46.49,1.66.65"/>
        <polygon class="cls-5" points="33.72 48.61 25.24 51.39 25.25 51.64 33.72 49.03 33.72 48.61"/>
        <rect class="cls-21" x="51.64" y="48.64" width="14.26" height="6.3"/>
        <polygon class="cls-5" points="65.89 48.64 72.89 51.06 72.88 51.28 65.89 49.01 65.89 48.64"/>
        <rect class="cls-21" x="33.72" y="48.64" width="14.26" height="6.3"/>
      </g>
      <path class="cls-18" d="M47.61,49.72c.18-.14.92-.71,1.99-.65.87.05,1.46.49,1.66.65"/>
      <polygon class="cls-20" points="33.35 48.2 24.87 50.98 24.87 51.23 33.35 48.63 33.35 48.2"/>
      <rect class="cls-14" x="51.27" y="48.23" width="14.26" height="6.3"/>
      <polygon class="cls-20" points="65.52 48.23 73.11 50.91 73.1 51.14 65.52 48.64 65.52 48.23"/>
      <rect class="cls-7" x="33.35" y="48.23" width="14.26" height="6.3"/>
    </g>
    <g>
      <path class="cls-4" d="M52.77,77.15c.33-2.55-1.55-4.47-3.15-4.45-1.58.02-3.38,1.95-3.05,4.45h6.2Z"/>
      <path class="cls-6" d="M52.58,76.94c.33-2.55-1.55-4.47-3.15-4.45-1.58.02-3.38,1.95-3.05,4.45h6.2Z"/>
      <path class="cls-17" d="M47.18,76.79h4.41s-1.94-2.21-4.41,0Z"/>
      <path class="cls-12" d="M47.05,73.98c.31-.61.84-1.08,1.46-1.31.32-.12.66-.18,1.02-.18,1,.02,1.91.59,2.37,1.49h-4.84Z"/>
      <line class="cls-16" x1="48.6" y1="73.98" x2="48.6" y2="72.63"/>
      <line class="cls-16" x1="50.39" y1="73.98" x2="50.39" y2="72.64"/>
    </g>
    <g>
      <path class="cls-3" d="M79.68,42.93c.2.67.31,1.39.31,2.15,0,3.28-2.06,5.95-4.6,5.95-.83,0-1.61-.29-2.28-.79-1.38-1.02-2.31-2.95-2.31-5.16,0-.82.13-1.6.36-2.32h0c-.06-.1-.1-.2-.15-.31-1.04-.31-1.91-1.08-2.43-2.1-1.02.52-2.2.81-3.45.81-2.46,0-4.62-1.13-5.85-2.84-.71-.23-1.34-.75-1.81-1.48-.84,1.07-2.28,1.78-3.91,1.78-2.16,0-3.98-1.23-4.52-2.91-.31-.08-.62-.17-.91-.27-.61,1.96-2.91,3.41-5.66,3.41-1.16,0-2.23-.26-3.14-.7-.6,1.04-1.68,1.72-2.91,1.72-.81,0-1.54-.29-2.13-.79-.17.17-.35.33-.54.48.26.39.4.85.4,1.33,0,1.5-1.41,2.71-3.14,2.71-.07,0-.14,0-.21,0-.2.96-.68,1.79-1.35,2.36.19.51.29,1.07.29,1.65,0,2.17-1.45,3.98-3.36,4.39-.27.06-.54.09-.83.09-2.32,0-4.2-2.01-4.2-4.48,0-.96.28-1.85.77-2.57-.1-.35-.16-.73-.16-1.13,0-.19.01-.38.04-.56-.62-.49-1.02-1.21-1.02-2.01s.41-1.55,1.06-2.04c0-.06,0-.11,0-.17,0-.78.32-1.5.87-2.09-.58-.45-.94-1.12-.94-1.87,0-.56.2-1.07.54-1.48.1-.38.25-.74.47-1.08-.8-.57-1.29-1.36-1.29-2.23,0-1.22.98-2.28,2.4-2.79-.02-.13-.02-.26-.02-.39,0-.34.05-.67.15-.98-.08-.19-.12-.4-.12-.62,0-1.12,1.17-2.03,2.61-2.03h.02s.03,0,.04,0h0c0-.07,0-.14,0-.2.08-2.09,1.4-3.75,3.02-3.75h.05c.28-.46.67-.87,1.14-1.2-.08-.22-.12-.46-.12-.7,0-1.33,1.22-2.41,2.73-2.41.62,0,1.2.19,1.66.5.43-.28.93-.48,1.47-.57.71-1.34,2.28-2.27,4.11-2.27.57,0,1.12.09,1.63.26.12-.01.25-.02.38-.02.35,0,.69.05,1,.14.5-1.16,1.81-1.98,3.34-1.98,1.39,0,2.59.68,3.17,1.67.59-.62,1.56-1.02,2.66-1.02.98,0,1.85.32,2.45.83.59-.52,1.38-.83,2.26-.83,1.08,0,2.03.48,2.63,1.21.11-.01.23-.02.34-.02.89,0,1.7.4,2.23,1.03,1.68.16,2.96,1.09,2.96,2.22,0,.15-.02.29-.06.43.23-.04.47-.06.71-.06,1.8,0,3.26,1.1,3.26,2.46,0,.12-.01.24-.03.35.21.23.39.48.54.75h.04c1.55,0,2.81,1.47,2.81,3.29,0,.16,0,.32-.03.47,2.46.71,4.23,2.66,4.23,4.96,0,.78-.21,1.52-.57,2.18,1.51.79,2.5,2.13,2.5,3.64,0,.32-.04.64-.13.94,1.51.61,2.56,2.02,2.56,3.65,0,1.42-.79,2.66-1.99,3.37Z"/>
      <path class="cls-2" d="M27.54,34.27c.13-1.54,1.09-2.83,2.41-3.25,1.24-.4,2.34.11,2.61.25-.23-1.43.51-2.84,1.79-3.44,1.36-.64,3.02-.23,3.95.99.73-.76,1.83-1.02,2.8-.68,1.38.49,1.69,1.93,1.71,2"/>
      <path class="cls-13" d="M66.97,29.19c.43-.41,1.04-.53,1.53-.32.46.2.64.63.69.74.3-.47.88-.68,1.4-.53.55.16.93.71.88,1.3.4-.03.79.18.98.52.27.5,0,.99-.02,1.01"/>
      <path class="cls-19" d="M46.9,22.03c.76-2.01,2.73-3.2,4.64-2.92,1.49.22,2.76,1.3,3.32,2.79.84-1.23,2.38-1.69,3.58-1.17.91.39,1.53,1.3,1.65,2.35"/>
    </g>
    <g>
      <path class="cls-10" d="M35.61,41.28s-3.14,1.38-3.92-2.19"/>
      <path class="cls-10" d="M30.14,39.59s1.38,3.14-2.19,3.92"/>
      <path class="cls-10" d="M28.38,44.96s3.14-1.38,3.92,2.19"/>
      <path class="cls-10" d="M33.84,46.65s-1.38-3.14,2.19-3.92"/>
    </g>
  </g>
</svg>