<?xml version="1.0" encoding="UTF-8"?>
<svg id="Florian" xmlns="http://www.w3.org/2000/svg" viewBox="0 0 896.5 920.44">
  <defs>
    <style>
      .cls-1, .cls-2 {
        fill: #423c30;
      }

      .cls-3, .cls-4, .cls-5 {
        fill: #fff;
      }

      .cls-3, .cls-6, .cls-2, .cls-7, .cls-5 {
        stroke: #000;
        stroke-miterlimit: 10;
      }

      .cls-3, .cls-7 {
        stroke-linecap: round;
        stroke-width: 10px;
      }

      .cls-6 {
        fill: #c1a670;
      }

      .cls-6, .cls-2, .cls-5 {
        stroke-width: 20px;
      }

      .cls-8, .cls-7 {
        fill: #443811;
      }
    </style>
  </defs>
  <path class="cls-2" d="M612.28,551.75s-50.04,148.09,0,227.74c50.04,79.66,62.3,94.98,51.06,114.38-11.23,19.4-114.38,42.89-131.23-65.36-16.85-108.26-171.87-91.91-188.32-16.34-16.45,75.57-40.96,100.09-102.23,88.85-61.28-11.23-37.58-87.83,4.7-118.47-9.81-74.55,0-102.47,0-102.47l17.4-109.8,348.63-18.54Z"/>
  <path d="M290.67,789.33s119.39,88.2,281.77,25.9c-52.09-108.26-147.79-110.3-147.79-110.3,0,0-120.71,15.97-133.98,84.4Z"/>
  <path class="cls-1" d="M283.43,786.64s128.68,52.09,297.19,31.66c-52.09-108.26-155.96-129.7-155.96-129.7,0,0-127.95,29.62-141.23,98.04Z"/>
  <path class="cls-6" d="M157.3,516.95s-30.64-30.96-49.02,0c-18.38,30.96-4.09,44.24-4.09,44.24,0,0-85.79-25.53-90.89,0-5.11,25.53,13.28,68.43,56.17,72.51,42.89,4.09-43.91,31.66-37.79,64.34,6.13,32.68,35.74,43.91,98.04,19.4,19.4,40.85,34.72,59.23,64.34,44.94,29.62-14.3,23.96-23.49,22.7-58.21,41.64-32.68,52.87-45.96,52.87-45.96"/>
  <path class="cls-6" d="M668.45,545.22s59.74,29.94,69.96,33.17c10.21,3.23,28.6-25.36,65.36-19.23,36.77,6.13,13.28,65.36,16.34,72.51,3.06,7.15,67.4,33.7,66.38,61.28-1.02,27.57-73.53,20.43-76.6,28.6-3.06,8.17,16.34,58.21-2.04,74.55-18.38,16.34-65.36-5.11-75.57-26.55-32.68,29.62-72.1,41.87-79.46,25.53-7.35-16.34,4.9-82.72,4.9-82.72,0,0-29.62-32.68-37.79-52.09-23.49,5.11-43.91-4.09-43.91-4.09"/>
  <path class="cls-1" d="M233.74,607.32s172.66-60.53,412.95-35.06c-85.28,132.68-216.25,158.84-216.25,158.84,0,0-177.76-38.47-196.69-123.77Z"/>
  <path class="cls-7" d="M113.08,411.7s-79.34,24.07-80.36-45.67c-1.02-69.74,13.9-28.56,20.43-50.33,6.53-21.77-72.17-29.62-40.68-58.21,31.49-28.6,49.87-56.75,65.19-83.01,15.32-26.26-32.68-49.75,25.53-58.94,58.21-9.19,72.05-63.45,101.17-57.36,37.04,7.74,22.61-24.68,59.29-31.4,77.74-14.25,55.14,41.79,87.26,19.32,32.11-22.47.46-59.23,55.6-30.64,55.15,28.6,81.7-21.45,114.38,5.11,32.68,26.55,27.53,53.11,51.55,53.11s29.13-17.36,49.55,10.21c20.43,27.57,42.13,17.96,64.34,51.66,22.21,33.7-16.62,47.32,26.55,47.47,43.17.15,26.55,17.56,34.72,53.17,8.17,35.61,27.57,95.87,7.15,109.14-49.49,32.17-61.28-35.74-61.28-35.74,0,0,48-32.68-26.3-58.21-74.3-25.53-21.3-62.14-21.3-62.14"/>
  <path class="cls-6" d="M726.92,396.85c0,160.33-155.49,236.43-289.53,250.21-15.82,1.63-43.91,24.51-87.57,24.51-39.06,0-62.14-37.06-77.48-42.02-67.54-21.81-178.61-127.77-186.27-232.71-11.93-163.48,126-327.83,305.36-327.83,191.49,0,335.49,167.5,335.49,327.83Z"/>
  <path class="cls-8" d="M734.34,303.45c0,103.01-3.1-177.27-390.55-168.43C49.06,141.75,65.41,471.9,65.41,368.9S141.06,59.35,390.65,58.18c217.82-1.02,343.69,142.27,343.69,245.27Z"/>
  <path class="cls-5" d="M668.45,476.26c0,65.64-49.94,115.4-118.47,115.4-110.3,0-154.21-51.81-154.21-117.45s74.45-114.38,142.98-114.38,129.7,50.79,129.7,116.43Z"/>
  <path class="cls-5" d="M379.43,490.56c0,65.64-44.83,87.83-113.36,87.83-45.45,0-134.87-41-151.21-115.96-13.98-64.13,57.19-135.05,124.65-122.94,113.37,20.35,139.92,85.43,139.92,151.07Z"/>
  <path d="M379.43,503.83c0,54.83-40.13,62.16-80.17,66.04-65.07,6.31-135.48-60.62-149.13-123.23-11.68-53.57,21.98-118.47,105.6-107.38,95.38,12.65,123.7,109.74,123.7,164.57Z"/>
  <path d="M652.82,421.25c.02,87.98-66.08,151.01-146.76,151.01-37.96,0-90.52.31-104.17-62.3-11.68-53.57,19.98-125.58,103.15-139.66,98.04-16.6,147.77,18.41,147.78,50.95Z"/>
  <path class="cls-4" d="M261.06,392.03c7.5,21.58-8.37,39.99-32.78,48.48-24.41,8.49-48.11,3.83-55.62-17.74-7.5-21.58,6.2-45.95,30.61-54.44,24.41-8.49,50.28,2.12,57.78,23.7Z"/>
  <path class="cls-4" d="M502.73,423.79c7.18,20.66-6.05,37.61-27.01,44.9-20.96,7.29-41.71,2.15-48.89-18.51-7.18-20.66,3.98-43.31,24.94-50.6,20.96-7.29,43.77,3.55,50.96,24.21Z"/>
  <path class="cls-4" d="M319.17,540.6s-39.83-29.62-16.34-42.89c23.49-13.28,6.13,26.55,22.47,21.45,16.34-5.11,17.36-17.02,18.38-1.36,1.02,15.66-5.11,29.96-24.51,22.81Z"/>
  <ellipse class="cls-4" cx="252.07" cy="463.17" rx="5.82" ry="4.92"/>
  <ellipse class="cls-4" cx="471.07" cy="483.92" rx="6.39" ry="2.55"/>
  <path class="cls-4" d="M577.55,510.98c-23.56-21.32-21.45-43.91-14.3-44.94,7.15-1.02,7.15,12.26,21.45,9.7,14.3-2.55,27.57-10.72,27.57,5.62s-13.28,49.02-34.72,29.62Z"/>
  <path class="cls-3" d="M281.55,591.66s-5.45,11.32,0,21.53"/>
  <path class="cls-3" d="M301.04,593.28s-6.89,8.17,0,20.94"/>
  <path class="cls-3" d="M320.7,588.94s-15.57,9.45-7.4,24.26"/>
  <path class="cls-3" d="M333.98,590.6s-8.68,5.62-3.57,20.94"/>
  <path class="cls-3" d="M350.91,587.32s-6.64,12.6-3.06,22.55"/>
  <path class="cls-3" d="M366.66,585.62s-4.85,10.21,0,22.21"/>
  <path class="cls-3" d="M382.75,591.66s-2.04,11.57,1.02,21.53"/>
  <path class="cls-3" d="M399.55,589.96s4.89,12.51,2.85,23.23"/>
  <path class="cls-3" d="M421.81,591.66s7.15,13.36,0,21.53"/>
  <path class="cls-3" d="M439.34,598.47s4.77,7.15,0,17.7"/>
  <path class="cls-3" d="M456.36,603.75s.68,14.81-4.43,18.55"/>
  <path class="cls-7" d="M383.77,129.83s9.28,23.49-72.84,35.74c-82.12,12.26-111.74,20.43-69.86-35.74"/>
  <path class="cls-7" d="M239.02,154.7s-24.51,48.67-49.02,26.2c-24.51-22.47-19.39-57.19-19.39-57.19"/>
  <path class="cls-7" d="M348.85,113.49s-26.02,100.09,82.71,79.66c108.74-20.43,56.65-54.13,56.65-54.13"/>
  <path class="cls-7" d="M204.36,163.53s-11.3,62.3-48.06,54.13c-36.77-8.17-42.89-36.77-20.43-54.13"/>
  <path class="cls-7" d="M413.51,46.6s-60.11,83.23,2.19,92.94c62.3,9.7,106.18-14.3,98.79-36.77-7.39-22.47-40.58-49.55-40.58-49.55"/>
  <path class="cls-7" d="M513.75,129.83s-80.68,40.29-21.45,88.57c59.23,48.28,66.11-17.08,66.11-17.08,0,0-43.92,26.49-43.92,4.09s25.27-41.43,43.92-30.93"/>
  <path class="cls-7" d="M113.08,190.97s78.27,34.48,27.97,82.86c-50.3,48.39-83.82-12.26-81.78,29.62"/>
  <path class="cls-7" d="M558.41,152.16s-35.26,43.5,26.93,66.25c62.19,22.75,53-10.95,53-10.95"/>
  <path class="cls-7" d="M207.36,98.17s-72.51,50.26-12.77,53.98c59.74,3.72,93.96-8.02,93.45-35.09-.51-27.06-37.28-30.64-37.28-30.64"/>
  <path class="cls-7" d="M556.64,86.43s-73.02-36.26-70.47,15.83c2.55,52.09,22.98,83.74,55.66,76.6,32.68-7.15,29.62-65.36,29.62-65.36"/>
  <path class="cls-7" d="M630.17,141.75s29.96,39.8-7.83,47.47c-37.79,7.67-88.51-32.16-75.23-45.43,13.28-13.28,11.02-41.82,46.53-38.1"/>
  <path class="cls-7" d="M650.26,147.78s-56.85,27.33-42.21,50.82c14.64,23.49,51.56,82.9,87.4,66.3,35.84-16.6,23.92-38.61,23.92-38.61"/>
</svg>