<svg width="61" height="245" viewBox="0 0 61 245" fill="none" xmlns="http://www.w3.org/2000/svg">
<g clip-path="url(#clip0_111_43)">
<path d="M12.3845 143C12.3845 150.579 21.3845 208 21.3845 238C21.3845 240.895 25.3845 245 31.3845 245C37.3845 245 41.7179 240.895 42.3845 238C42.3845 209.053 50.3845 153.105 50.3845 143C50.3845 130.368 40.3845 128 30.3845 128C20.3845 128 12.3845 133.526 12.3845 143Z" fill="#FACD86" stroke="#DD874C" stroke-width="2"/>
</g>
<path d="M33.3845 219C34.2552 219 35.1923 218.553 36.1541 217.514C37.1168 216.473 38.0296 214.912 38.8171 212.899C40.3899 208.88 41.3845 203.259 41.3845 197C41.3845 190.741 40.3899 185.12 38.8171 181.101C38.0296 179.088 37.1168 177.527 36.1541 176.486C35.1923 175.447 34.2552 175 33.3845 175C32.5139 175 31.5768 175.447 30.615 176.486C29.6522 177.527 28.7395 179.088 27.9519 181.101C26.3791 185.12 25.3845 190.741 25.3845 197C25.3845 203.259 26.3791 208.88 27.9519 212.899C28.7395 214.912 29.6522 216.473 30.615 217.514C31.5768 218.553 32.5139 219 33.3845 219Z" stroke="#DD874C" stroke-width="2"/>
<path d="M35.3418 244C36.2674 238.608 34.9716 227.445 29.7887 222.117C23.31 215.456 22.3845 205.942 22.3845 193.573C22.3845 181.204 27.0122 170.738 33.4908 166.932C38.6737 163.887 38.7354 151.709 38.1184 146" stroke="#DD874C" stroke-width="2"/>
<path d="M38.8549 6.97258L50.0062 132.478C51.0682 144.431 43.7191 152.112 33.7584 152.997C23.7976 153.882 13.5713 151.778 12.1553 135.841L1.00404 10.3357C1.34358 6.62438 5.96255 2.86746 20.306 1.59303C34.6495 0.318596 38.5304 3.3203 38.8549 6.97258Z" fill="#FACD86"/>
<path d="M1.00404 10.3357C2.98868 13.8404 9.50366 15.604 21.4566 14.542C33.4095 13.48 38.1834 10.7134 38.8549 6.97258M1.00404 10.3357C4.24912 46.8584 11.0225 123.091 12.1553 135.841C13.5713 151.778 23.7976 153.882 33.7584 152.997C43.7191 152.112 51.0682 144.431 50.0062 132.478C49.1566 122.916 42.218 44.8235 38.8549 6.97258M1.00404 10.3357C1.34358 6.62438 5.96255 2.86746 20.306 1.59303C34.6495 0.318596 38.5304 3.3203 38.8549 6.97258" stroke="#DD874C" stroke-width="2"/>
<path d="M59.0061 13.0861L50.1615 134.82C49.3191 146.414 40.8488 152.597 30.8751 151.873C20.9014 151.148 11.1383 147.525 12.2614 132.067L21.106 10.3324C22.0283 6.83822 27.1827 3.97517 41.5448 5.01865C55.907 6.06214 59.2635 9.54356 59.0061 13.0861Z" fill="#FACD86"/>
<path d="M21.106 10.3324C22.5109 13.9958 28.6638 16.709 40.6323 17.5785C52.6007 18.4481 57.7514 16.5562 59.0061 13.0861M21.106 10.3324C18.5322 45.7578 13.1599 119.7 12.2614 132.067C11.1383 147.525 20.9014 151.148 30.8751 151.873C40.8488 152.597 49.3191 146.414 50.1615 134.82C50.8354 125.545 56.3387 49.7996 59.0061 13.0861M21.106 10.3324C22.0283 6.83822 27.1827 3.97517 41.5448 5.01865C55.907 6.06214 59.2635 9.54356 59.0061 13.0861" stroke="#DD874C" stroke-width="2"/>
<path d="M30.3845 21C31.4168 21 32.4906 21.4981 33.5642 22.5879C34.6414 23.6813 35.6583 25.3148 36.533 27.4141C38.2805 31.6082 39.3845 37.4717 39.3845 44C39.3845 50.5283 38.2805 56.3918 36.533 60.5859C35.6583 62.6852 34.6414 64.3187 33.5642 65.4121C32.4906 66.5019 31.4168 67 30.3845 67C29.3522 67 28.2785 66.5019 27.2048 65.4121C26.1277 64.3187 25.1108 62.6852 24.2361 60.5859C22.4886 56.3918 21.3845 50.5283 21.3845 44C21.3845 37.4717 22.4886 31.6082 24.2361 27.4141C25.1108 25.3148 26.1277 23.6813 27.2048 22.5879C28.2785 21.4981 29.3522 21 30.3845 21Z" stroke="#DD874C" stroke-width="2"/>
<path d="M29.3845 33C29.7264 33 30.1426 33.1621 30.6179 33.6445C31.0969 34.1307 31.5746 34.886 31.9968 35.8994C32.8396 37.922 33.3845 40.7853 33.3845 44C33.3845 47.2147 32.8396 50.078 31.9968 52.1006C31.5746 53.114 31.0969 53.8693 30.6179 54.3555C30.1426 54.8379 29.7264 55 29.3845 55C29.0426 55 28.6265 54.8379 28.1511 54.3555C27.6722 53.8693 27.1945 53.114 26.7722 52.1006C25.9295 50.078 25.3845 47.2147 25.3845 44C25.3845 40.7853 25.9295 37.922 26.7722 35.8994C27.1945 34.886 27.6722 34.1307 28.1511 33.6445C28.6265 33.1621 29.0426 33 29.3845 33Z" stroke="#DD874C" stroke-width="2"/>
<defs>
<clipPath id="clip0_111_43">
<rect width="38" height="117" fill="white" transform="translate(12.3845 128)"/>
</clipPath>
</defs>
</svg>
