<?xml version="1.0" encoding="UTF-8"?>
<svg id="Lettuce-2" data-name="Lettuce" xmlns="http://www.w3.org/2000/svg" viewBox="0 0 542.2 708.42">
  <defs>
    <style>
      .cls-1 {
        fill: #37b52d;
      }

      .cls-2 {
        fill: #fff;
        stroke: #000;
        stroke-miterlimit: 10;
        stroke-width: 13px;
      }

      .cls-3 {
        fill: #065600;
      }

      .cls-4 {
        fill: #067700;
      }
    </style>
  </defs>
  <g>
    <path class="cls-1" d="M439.21,238.32c5.12-9.66,9.7-19.63,13.23-29.99,16.91-49.7,6.94-107.96-26.48-148.45C392.55,19.39,336.53-1.48,284.97,8.45c-51.55,9.93-96.18,50.76-109.5,101.55-2.09,7.98-3.45,16.5-1.13,24.43"/>
    <path d="M444.4,241.35c9.34-17.77,16.82-36.44,19.98-56.35,2.87-18.08,2.75-36.34-.25-54.4-5.96-35.82-24.12-69.7-52-93.19C385.06,14.6,350.45,1.08,315.02.06c-35.14-1.01-69.11,11.38-96.29,33.45-14.53,11.8-26.95,26.47-36.06,42.83-9.49,17.05-19.22,39.96-14.12,59.67,1.93,7.47,13.51,4.3,11.57-3.19-2.32-8.97.03-18.15,2.72-26.79,2.35-7.54,5.42-14.79,9.15-21.75,7.28-13.56,16.83-25.71,28.12-36.15,22.96-21.21,53.01-34.57,84.33-36,32.82-1.49,65.55,8.88,92.06,28.16s45.27,48.53,53.32,80.52c4.63,18.39,5.84,37.57,3.6,56.41-2.45,20.56-9.83,39.83-19.41,58.06-3.59,6.83,6.76,12.9,10.36,6.06h0Z"/>
  </g>
  <g>
    <path class="cls-1" d="M213.38,120.57c-7.48-15.92-19.24-29.8-33.71-39.79-33.8-23.32-81.32-23.1-116.6-2.09C24.29,101.78,1.21,148.79,6.66,193.6c5.44,44.81,39.1,84.92,82.27,98.07"/>
    <path d="M218.56,117.54c-14.07-29.34-41.12-50.91-72.96-57.76-30.53-6.58-63.8-.83-89.91,16.47S12.11,119.23,4.2,148.37c-7.88,29.02-4.59,59.73,9.15,86.45,15.22,29.59,42.19,52.71,73.98,62.63,7.39,2.3,10.55-9.28,3.19-11.57C38.96,269.8,3.8,215.22,13.51,161.58c4.81-26.55,18.76-51.08,39.46-68.45,21.75-18.25,50.84-26.29,78.93-23.47,33.31,3.34,61.88,23.86,76.3,53.94,3.34,6.96,13.69.88,10.36-6.06h0Z"/>
  </g>
  <g>
    <path class="cls-1" d="M141.8,502.27c-21.43-18.41-46.71-32.15-66.92-51.89-24.64-24.06-40.74-56.68-44.87-90.86-4.13-34.19,3.76-69.7,21.97-98.93,6.58-10.56,14.9-20.67,26.28-25.71"/>
    <path d="M146.04,498.03c-16.28-13.86-34.5-25.12-51.29-38.31-16.15-12.69-30.01-27.58-40.26-45.46-20.78-36.21-25.04-79.77-11.98-119.41,6.69-20.31,18.33-45.26,38.77-54.8,6.99-3.26.9-13.61-6.06-10.36-19.48,9.1-31.42,30.26-39.46,49.25-8.92,21.04-13.4,43.97-12.76,66.84,1.19,43.07,20.67,84.77,52.69,113.55,19.34,17.38,42.1,30.34,61.87,47.17,5.85,4.98,14.38-3.47,8.49-8.49h0Z"/>
  </g>
  <g>
    <path class="cls-1" d="M401.36,460.57c21.29-10.05,43.52-18.7,62.48-32.65,18.97-13.95,34.71-34.47,36.37-57.96.6-8.47-.64-17.03.48-25.44,2.6-19.37,17.02-34.73,25.74-52.21,16.04-32.15,11.66-72.69-8.38-102.51-20.04-29.82-54.26-48.83-89.9-53.35-8.92-1.13-18.2-1.39-26.68,1.63"/>
    <path d="M404.39,465.75c29.6-13.91,62.11-25.96,83.34-52.16,9.54-11.77,16.4-25.41,18.18-40.58,1.08-9.14-.51-18.38.68-27.5.99-7.62,4.15-14.69,7.86-21.33,7.54-13.49,16.88-25.73,22.07-40.45,5.15-14.58,6.72-30.57,5-45.91-3.43-30.76-18.95-58.7-43.13-78.02-13.28-10.61-28.4-18.64-44.59-23.81s-36.8-9.32-53.93-3.7c-7.3,2.4-4.18,13.99,3.19,11.57,14.26-4.68,30.55-1.33,44.6,2.8,13.33,3.92,25.95,9.99,37.32,17.97,23.52,16.5,39.75,41.6,44.13,70.08,2.15,14,1.21,28.55-2.93,42.1-4.26,13.92-12.75,25.51-20.1,37.88-8.02,13.51-12.15,26.74-11.83,42.54.16,7.86.21,15.47-1.92,23.11-1.91,6.86-5.07,13.24-9,19.16-19.43,29.27-54.62,41.61-85.01,55.9-6.98,3.28-.9,13.63,6.06,10.36h0Z"/>
  </g>
  <g>
    <path class="cls-3" d="M450.58,294.3c.85-21.59,18.57-38.29,27.29-58.05,11.84-26.81,3.32-63.21-22.93-76.26-7.76-3.86-16.76-5.73-23.09-11.65-12.61-11.8-8.44-32.27-11.79-49.22-2.69-13.59-11.06-25.96-22.67-33.52-17.72-11.53-41.5-11.08-60.73-2.3-16.98,7.75-32.81,21.77-51.39,19.97-6.34-.61-12.32-3.09-18.29-5.29-14.04-5.18-28.57-9.02-43.34-11.43-14.01-2.29-28.56-3.26-42.27.43-13.71,3.69-26.56,12.68-32.06,25.77-4.03,9.6-3.94,20.7-8.94,29.83-8.61,15.75-28.57,20.27-44.22,29.07-13.88,7.8-25.26,19.98-32.1,34.35-2.51,5.27-4.45,11.15-3.35,16.87,1.18,6.13,5.7,11.27,6.64,17.45,1.6,10.52-7.29,19.33-11.9,28.93-5.63,11.71-4.87,25.67-.76,38,4.11,12.32,11.28,23.35,18.38,34.23"/>
    <path d="M456.58,294.3c.8-13.74,8.99-25.4,16.13-36.65s13.25-21.93,15.33-34.71c3.65-22.49-2.89-47.87-21.31-62.45-4.84-3.83-10.12-6.45-15.82-8.75-6.11-2.47-12.89-4.64-17.06-10.08-7.38-9.64-5.63-24.13-6.78-35.5-2.86-28.35-22.95-50.81-51.61-54.66-14.03-1.88-28.21.58-41.1,6.3-12.93,5.74-24.41,15.33-38.33,18.71-7.24,1.76-14,.5-20.92-1.9-7.8-2.71-15.47-5.66-23.42-7.93-15.61-4.45-32.09-7.84-48.37-8.14-14.51-.26-29.55,2.59-41.7,10.9-11.72,8.01-18.29,19.05-21.33,32.77-1.5,6.75-2.57,13.84-6.51,19.69-3.33,4.95-8.35,8.44-13.47,11.33-11.11,6.26-23.44,10.08-33.9,17.5-11.43,8.1-21.02,18.91-27.18,31.53-3.25,6.66-5.69,13.87-4.42,21.35,1.14,6.72,6.98,12.8,6.73,19.68-.23,6.45-5.07,12.23-8.27,17.52-3.87,6.4-6.46,13.08-7.39,20.52-1.91,15.23,2.92,30.18,10,43.5,3.61,6.79,7.82,13.24,12.02,19.68s14.6.44,10.36-6.06c-8-12.26-16.37-24.86-19.6-39.35-1.54-6.91-1.8-14.26,0-21.15s5.69-11.97,9.11-17.77,6.09-11.78,5.76-18.36-4.39-12-6.41-18.28c-2.23-6.93,1.69-14.26,5.12-20.13s7.49-10.99,12.29-15.63c9.19-8.89,20.38-13.91,31.83-19.18,10.45-4.8,20.71-10.44,27.42-20.09,7.93-11.41,6.22-26.29,13.41-37.9,6.7-10.81,19.03-16.86,31.2-19.05,15.33-2.76,31.51-.07,46.53,3.25,7.61,1.68,15.13,3.75,22.54,6.18s13.9,5.49,21.13,7.19c28.64,6.74,49.24-18.98,75.59-24.22s54.05,8.46,59.97,36c2.55,11.9.99,24.34,4.15,36.17,3.36,12.61,11.97,20.05,23.71,24.89,10.61,4.37,19.81,8.81,26.28,18.74,5.77,8.85,8.67,19.35,8.84,29.88.19,11.76-3.2,22.43-9,32.57-6.44,11.26-14.38,21.63-19.33,33.7-2.42,5.92-3.81,12.01-4.18,18.39-.45,7.71,11.55,7.69,12,0h0Z"/>
  </g>
  <g>
    <path class="cls-4" d="M300.2,515.11c2.81,53.56,8.49,106.98,17.03,159.93,10.64-7.78,24.23-15.91,36.11-10.21,11.44,5.49,14.01,20.56,13.57,33.24-.05,1.4-.17,2.94-1.17,3.92-1.02,1.01-2.62,1.08-4.05,1.1-21.02.22-42.03.44-63.05.66-2.19.02-4.52.01-6.39-1.14-1.85-1.14-2.92-3.19-3.8-5.17-6.18-13.88-7.8-29.31-9.02-44.46-3.47-43-4.34-86.16-5.22-129.29"/>
    <path d="M295.7,515.11c2.86,53.97,8.62,107.76,17.19,161.12.44,2.72,4.41,4.28,6.61,2.69,7.41-5.36,16.59-12.07,26.23-11.49,8.52.51,13.27,7.47,15.26,15.06.93,3.57,1.33,7.22,1.44,10.9.03,1.13.46,4.17-.38,4.94-1.19,1.09-6.61.32-8.24.34-11.16.12-22.33.23-33.49.35-5.25.05-10.51.11-15.76.16-2.48.03-5.11.31-7.57.05-3.24-.34-3.98-2.5-5.12-5.22-3.98-9.53-5.81-19.9-6.93-30.11-2.35-21.42-3.29-43.06-4.17-64.58-1.03-25.2-1.54-50.42-2.05-75.63-.12-5.78-9.12-5.8-9,0,.55,27.21,1.1,54.41,2.31,81.6.62,13.92,1.4,27.83,2.45,41.73.91,12.07,1.79,24.28,4.55,36.1,2.05,8.79,4.92,23.39,15.71,24.91,5.73.81,11.94.13,17.71.07,7.22-.08,14.45-.15,21.67-.23,6.57-.07,13.13-.14,19.7-.2,4.61-.05,11.44,1.14,15.12-2.5,3.16-3.12,2.64-8.41,2.48-12.45-.19-4.88-.81-9.87-2.28-14.53-3.09-9.77-10.12-17.88-20.65-19.46-12.34-1.85-23.99,5.53-33.52,12.43l6.61,2.69c-8.44-52.57-14.05-105.56-16.87-158.73-.31-5.76-9.31-5.8-9,0h0Z"/>
  </g>
  <g>
    <path class="cls-4" d="M243.68,517.99c1.37,50.11-5.18,100.42-19.33,148.51-12.99-4.57-29.03-8.61-39.22.66-9.38,8.53-8.12,23.36-6.12,35.88,27.17.02,54.35.04,81.52.06,1.88-56.54,3.76-113.09,5.64-169.63"/>
    <path d="M239.18,517.99c1.27,49.82-5.19,99.48-19.17,147.31l5.54-3.14c-13.57-4.71-30.93-9.12-43.04,1.34-11.65,10.07-9.97,27.08-7.84,40.73.3,1.92,2.53,3.3,4.34,3.3,27.17.02,54.35.04,81.52.06,2.49,0,4.42-2.06,4.5-4.5,1.88-56.54,3.76-113.09,5.64-169.63.19-5.79-8.81-5.79-9,0-1.88,56.54-3.76,113.09-5.64,169.63l4.5-4.5c-27.17-.02-54.35-.04-81.52-.06l4.34,3.3c-1.6-10.23-3.63-24.71,5.64-32.04,9.52-7.53,24.03-2.48,34.16,1.04,2.32.81,4.89-.93,5.54-3.14,14.19-48.55,20.78-99.14,19.5-149.7-.15-5.78-9.15-5.8-9,0h0Z"/>
  </g>
  <g>
    <path class="cls-4" d="M420.15,472.31c22.88-56.88,33.18-118.79,29.94-180.02-1.31-24.78-5.01-50.07-16.87-71.87-17.47-32.1-51.21-53.1-86.69-61.84-35.48-8.73-72.77-6.46-108.92-1.11-23.74,3.52-47.35,8.35-70.14,15.88-15.13,4.99-29.99,11.23-43.04,20.37-37.04,25.93-55.14,72.82-56.17,118.03-1.03,45.21,12.79,89.38,28.58,131.74,13.03,34.97,30.27,72.38,64.06,88.21,8.71,4.08,18.11,6.48,27.52,8.51,42.36,9.15,86.2,11.35,129.26,6.5,28.84-3.25,60.71-12,75.01-37.25"/>
    <path d="M425.94,473.91c16.6-41.53,26.6-85.53,29.71-130.15,1.52-21.81,1.53-43.88-.61-65.66-2.06-21-6.47-42.02-16.64-60.71-17.87-32.82-51.88-54.4-87.33-63.84-43.57-11.6-90.01-6.77-133.77,1.21-40.82,7.45-85.85,18.94-115.1,50.41-24.82,26.7-37.32,63.07-39.63,99.03-2.91,45.23,9.95,89.96,25.21,132.03,12.09,33.34,26,69.51,55.26,91.63,16.84,12.73,37.44,17.26,57.83,20.9,22.48,4.01,45.3,6.2,68.14,6.43,21.51.21,43.39-.92,64.58-4.79,16.84-3.07,33.89-8.56,47.6-19.1,6.74-5.18,12.37-11.46,16.66-18.81,3.9-6.68-6.46-12.73-10.36-6.06-17.68,30.26-59.39,34.22-90.78,36.08-21.63,1.28-43.36.81-64.91-1.41-20.83-2.15-42.94-5.09-62.67-12.42-32.6-12.11-50.1-45.24-62.26-75.69-15.32-38.4-29.17-79.1-32.12-120.6-2.52-35.47,3.75-72.05,23.22-102.31,9.42-14.64,21.9-27.07,36.89-35.97,17.76-10.54,37.9-16.81,57.83-21.81,41.08-10.31,85.51-16.79,127.85-12.23,35.77,3.85,71.64,18.23,95.52,45.98,26.27,30.54,28.92,73.48,28.58,111.97-.37,41.8-7.05,83.43-19.72,123.27-3.16,9.94-6.71,19.74-10.57,29.42-2.87,7.17,8.74,10.29,11.57,3.19h0Z"/>
  </g>
  <g>
    <circle class="cls-2" cx="211.37" cy="475.91" r="26.5"/>
    <circle class="cls-2" cx="345.51" cy="461.98" r="26.5"/>
    <g>
      <path class="cls-3" d="M394.04,427.5c5.53-18.84,5.95-39.15,1.22-58.2-.44-1.77-.98-3.62-2.3-4.86-1.76-1.65-4.41-1.82-6.82-1.84-24.33-.25-48.79,4.3-71.07,14.09-5.09,2.24-10.37,5.03-13,9.93-2.79,5.21-1.94,11.53-1.01,17.36,1.37,8.6,2.73,17.21,4.1,25.81.47,2.93,1.02,6.06,3.06,8.22,2.91,3.1,7.73,3.15,11.98,2.99,16.86-.65,33.72-1.31,50.58-1.96,8.78-.34,19.53-2.05,22.47-10.33,1.24-3.48.71-7.5,2.49-10.74"/>
      <path d="M399.83,429.1c3.5-12.31,5.16-25.18,4.59-37.97-.24-5.43-.88-10.87-1.83-16.22s-1.81-12.11-6.59-15.65c-4.35-3.21-10.2-2.74-15.32-2.64-6.09.12-12.17.54-18.21,1.27-12.62,1.52-25.08,4.18-37.1,8.35-9.55,3.31-21.9,7.08-27.69,16.06-6.21,9.65-2.6,22.04-.94,32.49s.95,25.75,11.9,30.58c4.27,1.88,8.93,1.71,13.5,1.54,7.13-.26,14.27-.55,21.4-.83,12.77-.5,26.69.51,39.18-2.54,4.52-1.11,9.04-3.14,12.31-6.55,1.8-1.88,3.2-4.23,4.01-6.7.98-3,.61-6.43,1.89-9.31,3.09-7-7.24-13.11-10.36-6.06-1.72,3.9-1.34,8.44-3.1,12.17-1.22,2.58-4.1,3.8-6.68,4.53-8.12,2.32-17.22,1.67-25.57,1.99-10.38.4-20.75.81-31.13,1.21-2.91.11-7.98,1.21-10.64-.37-3.16-1.88-3-9.47-3.52-12.73-.73-4.61-1.46-9.22-2.2-13.83s-1.98-9.68-1.47-14.44c.94-8.75,11.88-11.83,18.87-14.43,18.35-6.83,37.81-10.26,57.38-10.45,1.74-.02,5.31-.6,6.52.62,1.06,1.07,1.38,5.63,1.66,7.07,1.08,5.5,1.65,11.07,1.81,16.67.32,11.19-1.16,22.18-4.22,32.94-2.12,7.44,9.46,10.62,11.57,3.19h0Z"/>
    </g>
    <g>
      <path class="cls-3" d="M244.69,443.6c-.86-12.18-2.15-24.33-3.86-36.43-.86-6.08-1.96-12.45-5.78-17.26-5.25-6.61-14.26-8.68-22.61-9.98-13.95-2.17-28.06-3.35-42.18-3.53-8.8-.11-18.49.51-24.85,6.6-6.39,6.12-7.42,15.86-7.45,24.71-.04,12.35,1.1,24.71,3.39,36.85.81,4.29,2.06,9,5.74,11.37,2.32,1.49,5.19,1.76,7.94,1.93,24,1.53,48.24-.73,71.54-6.68,4.26-1.09,8.61-2.36,12.06-5.09s5.82-7.27,4.76-11.54"/>
      <path d="M250.69,443.6c-.99-13.71-2.25-27.52-4.54-41.08-1.86-11-7-19.95-17.52-24.5s-23.68-5.38-35.29-6.43c-12.16-1.1-25.19-2.43-37.28-.13-26.56,5.04-25.21,34.71-23.18,55.73,1,10.32,1,26.96,10.62,33.49,4.98,3.38,11.43,3.25,17.22,3.48,6.96.27,13.92.23,20.88-.14,15.05-.79,30.09-2.97,44.73-6.58,12.3-3.04,25.22-9.66,22.86-24.47-1.21-7.61-12.78-4.38-11.57,3.19,1.34,8.42-17.61,10.52-22.81,11.59-10.33,2.14-20.78,3.53-31.31,4.16-5.05.3-10.12.44-15.18.41s-10.82.37-15.78-.75c-4.46-1-4.84-5.69-5.56-9.57-1.03-5.55-1.78-11.14-2.27-16.76-.81-9.22-1.83-19.47.23-28.6s7.74-12.91,16.4-13.94c9.21-1.09,18.97-.16,28.17.56,10.03.78,20.52,1.53,30.24,4.28,4.19,1.18,8.39,3.01,11.03,6.63s3.38,8.68,4.05,13.07c1.85,12.04,2.99,24.21,3.87,36.36.55,7.66,12.56,7.72,12,0h0Z"/>
    </g>
    <g>
      <path class="cls-4" d="M258.84,490.64c14.93-3.54,30.16-5.81,45.48-6.8"/>
      <path d="M260.44,496.43c14.46-3.37,29.07-5.58,43.88-6.58,7.66-.52,7.72-12.52,0-12-15.86,1.08-31.59,3.4-47.07,7.01-7.52,1.75-4.34,13.33,3.19,11.57h0Z"/>
    </g>
  </g>
  <g>
    <path class="cls-4" d="M167.6,505c-4.21,29.43.18,59.33,4.55,88.74,1.14,7.66,2.47,15.76,7.51,21.65s15.12,8.14,20.43,2.5c2.86-3.04,3.63-7.48,3.8-11.66.43-10.54-2.09-20.94-4.21-31.28-4.16-20.28-6.84-40.87-8.01-61.54"/>
    <path d="M161.82,503.41c-2.53,18.54-2.2,37.06-.29,55.64.95,9.24,2.23,18.45,3.56,27.64,1.16,7.94,1.85,16.25,4.85,23.77,4.82,12.05,19.87,22.45,32.25,13.48,13.51-9.8,6.8-33.59,4.03-46.93-4.37-21-7.29-42.17-8.56-63.59-.45-7.68-12.46-7.73-12,0,1.17,19.91,3.63,39.75,7.46,59.33,1.35,6.9,12.45,48.51-4.79,41.64-7.3-2.91-8.81-12.34-9.93-19.15-1.56-9.44-2.87-18.95-4.02-28.45-2.41-19.91-3.74-40.23-1.01-60.18.44-3.24-.78-6.4-4.19-7.38-2.79-.8-6.94.98-7.38,4.19h0Z"/>
  </g>
  <g>
    <path class="cls-4" d="M355.34,515.77c.39,26.14-4.09,52.35-13.14,76.89-2.17,5.89-4.63,11.79-5.12,18.05-.48,6.26,1.39,13.1,6.41,16.86,6.89,5.17,17.35,2.57,23.39-3.57,6.04-6.14,8.64-14.81,10.56-23.21,7.54-32.91,7.92-67.45,1.1-100.52"/>
    <path d="M349.34,515.77c.22,20.7-2.48,41.22-8.25,61.1-4.57,15.73-16.79,35.76-5.29,51.27,10.55,14.22,30.65,7.82,39.31-4.83,5.14-7.51,7.29-16.74,9.11-25.52,2.08-10.01,3.53-20.17,4.37-30.35,1.9-23,.3-46.17-4.26-68.78-1.53-7.56-13.1-4.36-11.57,3.19,6.76,33.47,6.81,69.82-2.5,102.85-1.84,6.52-4.62,13.82-10.74,17.47-5.26,3.14-12.5,3.18-15.29-3.14-3.08-6.98.1-14.93,2.55-21.57,2.88-7.8,5.52-15.65,7.6-23.71,4.87-18.91,7.16-38.47,6.96-57.99-.08-7.72-12.08-7.74-12,0h0Z"/>
  </g>
</svg>