<?xml version="1.0" encoding="UTF-8"?>
<svg id="lylou" xmlns="http://www.w3.org/2000/svg" viewBox="0 0 1098 920.93">
  <defs>
    <style>
      .cls-1, .cls-2 {
        fill: #ff008c;
      }

      .cls-1, .cls-3, .cls-4, .cls-5, .cls-6, .cls-7 {
        stroke-linecap: round;
        stroke-linejoin: round;
      }

      .cls-1, .cls-3, .cls-4, .cls-5, .cls-6, .cls-7, .cls-8 {
        stroke: #000;
        stroke-width: 20px;
      }

      .cls-3 {
        fill: #fff;
      }

      .cls-4, .cls-9 {
        fill: #5b3524;
      }

      .cls-5 {
        fill: none;
      }

      .cls-6, .cls-8 {
        fill: #d8b79c;
      }

      .cls-7 {
        fill: #ffda00;
      }

      .cls-8 {
        stroke-miterlimit: 10;
      }
    </style>
  </defs>
  <path class="cls-4" d="M803.45,628.49s-9.7,71.15,83.23,64c90.89-7.15,27.57-30.3,27.57-30.3,0,0,142.64-17.7,102.64,36.77-22.49,30.62-207.32,61.14-246.13,4.53s32.68-75,32.68-75Z"/>
  <path class="cls-8" d="M167.89,445.94c10.72,185.87,147.06,317.62,318.64,332.93,126.68,11.31,320.58-31.66,367.56-125.62,24.74-49.49,21.77-101.53-24.41-122.55,58.21-333.96-138.92-411.12-324.77-425.87S157.15,259.82,167.89,445.94Z"/>
  <path class="cls-4" d="M160.13,791.98s-212.94,45.11-102.64,95.66,219.06,3.06,219.06,3.06c0,0-101.11,15.32-124.09-20.51s170.04,2.12,272.68-48.43-70.47-50.55-121.02-72-24-63.83,17.87-149.62-33.7-43.91-35.74-65.36,21.45-35.74,49.02-62.3-11.23-41.87-65.36-68.43,2.04-37.79,19.4-40.85,32.68-31.66,29.62-47.08,31.66-12.15,53.11-1.94,29.62-21.45,14.3-58.21,18.38,3.06,54.13,12.26,38.81-26.55,59.23-48,31.66,4.09,72.51,24.12,21.45-19.02,32.68-36.93,44.94,20.98,68.43,42.43,26.55-11.23,51.06-42.43,93.16,79.41,93.16,79.41c0,0-45.16-157.75-180.99-149.24s-214.89-10.89-214.89-10.89l-116.01,36.77-92.94,80.68-56.17,111.32,3.57,436.51Z"/>
  <path class="cls-4" d="M361.83,103.87s-106.72-178.27-221.62-43.47-52.09,166.98-52.09,166.98c0,0-73.53-4.6-78.13-35.23,1.53,42.89,38.3,138.46,105.7,104.46-87.32,77.83,110.18,450.94,6.84,504.9l97.08,10.81,56.96-95.72-64.11-204.79,29.87-88.85-49.53-70.04,70.47-102.13,147.06-103.15,155.23,22.47,106.21-5.11s96.32,22.6,122.55,76.25,38.49,98.76,38.49,98.76c0,0-17.83-246.89-279.25-253.91-152.17-4.09-191.74,17.76-191.74,17.76Z"/>
  <path class="cls-9" d="M103.45,820.66s46.98-13.28,58.21-57.19,60.26-70.47,60.26-70.47l-62.3-211.4-11.23-144,97.02-122.55,154.21-93.96h69.45l192.84,16.87,98.39,51.9s-21.79-8.68-40.68,7.66c-24.43,21.13-39.15,24.68-39.15,24.68l-53.11-37.79-69.45,2.04-89.87,8.17-53.11,21.45-60.26,12.26-9.19,33.7-50.04,9.19-11.23,43.91-62.3,16.34s-7.15,40.85,30.64,83.74-4.09,103.6-4.09,103.6l27.57,121.08,1.02,35.74s-29.62,26.55,0,72.51-24.51,76.6-24.51,76.6l-149.11-4.09Z"/>
  <g>
    <ellipse class="cls-3" cx="527.68" cy="542.51" rx="101.11" ry="32.68" transform="translate(-50.44 54.11) rotate(-5.6)"/>
    <ellipse class="cls-3" cx="736.01" cy="520.75" rx="72.64" ry="24.73" transform="translate(-47.32 74.34) rotate(-5.6)"/>
    <circle cx="550.56" cy="546.37" r="22.88"/>
    <circle cx="736.01" cy="527.44" r="18.93"/>
  </g>
  <path class="cls-6" d="M374.09,472.92s-91.48-62.67-111.15,45.9c-18.29,100.95,55.15,130.18,93.45,109.67"/>
  <g>
    <path class="cls-6" d="M920.54,671.09c-2.55,19.4-12.77,31.66-27.06,51.06s-32.68-19.4-30.64-26.55,8.17-3.06,16.85-28.6,13.79-26.55,13.79-26.55c0,0,15.32-19.4,30.13-10.21s24.51,33.19,24.51,33.19"/>
    <path class="cls-6" d="M905.4,655.52s-6.55-20.5-33.62-27.75-46.72,30.05-60.32,56.43,18.93,43.33,18.93,43.33c0,0,20.04,12.01,23.21-19.16s19.71-42.89,19.71-42.89l20.68,6.13"/>
    <path class="cls-6" d="M957.56,684.2c-1.53,7.49-4.92,22.72-4.6,40.51s-29.11,5.11-35.23,2.82-6.64-31.93-5.81-57.46,20.92-31.74,36.2-35.23,28.85,29.11,28.85,29.11c0,0,31.15,48.82,11.23,80.58s-49.53,54.74-79.15,34.83-24.82,8.68-46.37-3.57-33.94-21.6-20.66-41.28"/>
  </g>
  <path class="cls-2" d="M715.01,717.14s38.55,39.91,80.51,16.6,1.76-20.68,15.06-38.13,44.94-11.74,56.68,19.91-13.53-10.3,1.79-17.45,47.49,14.81,48.77,24.51,42.81.17,13.7,25.19,30.61,18.38,22.13,30.38c-24,33.96-96.68-16.6-123.23,16.09s2.55,57.7-36.77,67.91-60.08-8.53-75.24,0-47.31,4.6-45.27-32.17-35.06-55.34-23.83-85.46,11.57-66.71,65.7-27.39Z"/>
  <g>
    <path class="cls-6" d="M588.62,773.48s-47.49-46.57,0-76.14,39.83,0,39.83,0"/>
    <path class="cls-6" d="M622.05,773.48s-44.83-35.73-9.26-66.12,66.22-12.69,66.22-12.69"/>
    <path class="cls-6" d="M655.26,773.48s-29.87-30.64,0-55.91,53.62-32.85,60.51-26.38,28.34,14.13,32.17,14.13,24.51,14.91,13.02,23.16-15.2,16.67-38.24,11.31-43.72,2.3-34.53,15.32c0,0,54.72,22.38,45.53,56.85s-7.66,64.34-43.66,58.21-109.53,30.64-134.04-11.49-36.09-40.26-39.15-52.51-5.53-42.89,20.43-36,27.91,35.85,37.87,27.71,13.45-24.39,13.45-24.39"/>
  </g>
  <path class="cls-7" d="M1052.81,605.7c-8.11,4.46-26.3,13.03-50.81,12.67-22.77-.34-39.68-8.23-47.74-12.67-4.78-47.74-9.55-95.49-14.33-143.23,12.73-5.79,36.86-14.73,68.2-14.14,28.17.53,49.94,8.52,62.3,14.14l-17.62,143.23Z"/>
  <path class="cls-1" d="M925.91,472.92s-5.11-21.36-5.62-30.66c-.44-8.01,42.22-15.31,83.86-15.89,26.49-.37,85.75,6.31,83.8,17.7-2.38,13.96-5.28,28.85-5.28,28.85,0,0-93.96,29.7-156.77,0Z"/>
  <path class="cls-5" d="M1007.76,572.41v-59.23s32.43-4.34,32.43,16.09-27.06,15.83-27.06,15.83"/>
  <circle cx="980.47" cy="525.16" r="8.17"/>
  <circle cx="982" cy="555.3" r="8.17"/>
</svg>