<?xml version="1.0" encoding="UTF-8"?>
<svg id="Matteo" xmlns="http://www.w3.org/2000/svg" viewBox="0 0 911.92 1006.76">
  <defs>
    <style>
      .cls-1, .cls-2 {
        stroke-width: 5px;
      }

      .cls-1, .cls-2, .cls-3, .cls-4, .cls-5, .cls-6, .cls-7, .cls-8, .cls-9, .cls-10, .cls-11 {
        stroke: #000;
      }

      .cls-1, .cls-2, .cls-4, .cls-5, .cls-6, .cls-7, .cls-10 {
        stroke-linecap: round;
      }

      .cls-1, .cls-2, .cls-5, .cls-9 {
        fill: none;
      }

      .cls-1, .cls-3, .cls-8, .cls-9, .cls-11 {
        stroke-miterlimit: 10;
      }

      .cls-2, .cls-4, .cls-5, .cls-6, .cls-7, .cls-10 {
        stroke-linejoin: round;
      }

      .cls-3, .cls-4 {
        fill: #443811;
      }

      .cls-3, .cls-4, .cls-6, .cls-11 {
        stroke-width: 20px;
      }

      .cls-5, .cls-7, .cls-8, .cls-9, .cls-10 {
        stroke-width: 10px;
      }

      .cls-6 {
        fill: #564c2e;
      }

      .cls-7, .cls-8, .cls-12, .cls-11 {
        fill: #d8b79c;
      }

      .cls-10 {
        fill: #fff;
      }
    </style>
  </defs>
  <path class="cls-11" d="M148.14,468c-50.26-207.94,89.71-296.59,107.49-305.36,2.92-1.44,13-6.9,15.87-8.43,63.06-33.45,189.54-69.82,249.15-56.68,107.71,23.74,199.15,58.92,272.68,220.8,20.54,45.22,40.34,138.95,56.68,148.14,138.76,78.05-34.2,293.18-128.62,418.35-59.3,88.95-124.5,101.23-167.63,96.55-22.51-2.44-43.16-13.27-58.81-29.63-8.3-8.67-22.96-19.34-48.44-27.3-50.94-15.92-52.16-37.62-59.59-54.07-7.43-16.45-7.53-19.98-14.4-21.53-46.03-10.38-80.45-29.28-113.26-68.09-35.73-42.27-51.9-124.12-63.74-153.83-33.07-8.49-37.77-30.69-33-69.62,0,0-2.13-51-14.38-89.3Z"/>
  <path d="M362.86,570.95s.82-1.15,2.28-3.25c8.69-12.48,40.04-58.6,56.88-98.01,19.68-46.04,60.96-77.47,97.12-35.15-17.54,8.83-39.27,7.33-83.81,79.94-44.54,72.61-72.48,56.47-72.48,56.47Z"/>
  <path d="M305.74,610.22s-91.09,27.45-132.46-4.72c20.68,45.19,84.97,33.06,132.46,4.72Z"/>
  <path class="cls-5" d="M334.39,506.37s54.14-29.76,66.87-68.14c6.61-19.92,15.07-67.62,78.81-59.29"/>
  <path class="cls-5" d="M354.35,447.37s26.88-18.98,34.26-43.34c2.92-9.64.19-45.79,56.69-46.36"/>
  <path class="cls-5" d="M278.17,549.11s26.85,28.89,23.28,44.21"/>
  <path class="cls-10" d="M534.16,533.67c-5.92,37.83-36.85,67.99-90.64,89.87-4.96,2.02-34.94-31.32-33.7-36.94,0,0,23.58-27.12,60.17-42.38,12.35-5.15,22.97-9.72,39.66-12.6,8.89-1.53,15.68-.9,24.51,2.04Z"/>
  <path class="cls-10" d="M322.85,636.52c-2.8,3.21-5.6,6.27-8.41,9.15-2.76,2.85-5.52,5.53-8.28,8.03-33.22,30.27-65.02,35.43-79.31-.16,0,0,7.14-14.63,41.22-18.73,12.65-1.52,29.01-1.59,50.09,1.08,1.54.2,3.1.41,4.69.63Z"/>
  <path d="M518.54,556.43c-.87,13.93-11.31,25.28-25.27,25.28s-25.28-11.32-25.28-25.28c0-3.34.65-6.53,1.83-9.45,12.35-5.15,18.85-13.57,34.98-12.29,5.45,1.36,14.64,7.32,13.74,21.74Z"/>
  <path d="M318.16,635.89c-.54,3.56-1.84,6.88-3.72,9.78-2.09,3.28-4.94,6.03-8.28,8.03-3.79,2.27-8.23,3.58-12.97,3.58-13.01,0-23.73-9.83-25.12-22.47,12.65-1.52,29.01-1.59,50.09,1.08Z"/>
  <path class="cls-9" d="M349.44,576.25s56.04-131,187.76-117.18c84.45,8.86,74.69,156.36-14.93,201.32-71.53,35.89-184.38,1.26-172.83-84.14Z"/>
  <path class="cls-9" d="M181.96,639.58c12.94-20.52,102.3-65.05,140.9-32.11,38.6,32.94,17.11,102.58-48,129.39s-124.3-47.49-92.9-97.28Z"/>
  <path d="M348.61,572.48c-8.16,19.45-45.13,20.34-45.13,20.34,0,0,25.19,11.64,33.53,23.73,1.79-10.11,10.55-3.3,10.55-3.3,0,0-3.31-32.35,1.04-40.77Z"/>
  <path class="cls-8" d="M555.79,635.5s-27.91,26.12-30.93,33.61c-28.76,71.35-77.19,103.74-96.09,118.04-18.89,14.3-62.43,10.99-86.73-2.55-40.07-22.33-37.52-64.21-27.82-86.17s34.58-28.04,27.82-45.91c0,0,17.24,49.05,66.05,49.83,85.21,1.36,147.7-66.85,147.7-66.85Z"/>
  <path class="cls-5" d="M385.63,841.1s20.77,42.59,92.26,19.61c71.49-22.98,159.25-162.89,167.36-176.21"/>
  <path class="cls-1" d="M428.29,799.19s13.94,30.64,11.9,44.94"/>
  <path class="cls-1" d="M442.74,790.22s45.96,19.18,63.83,31.43"/>
  <path class="cls-2" d="M428.7,902.98s110.86,49.02,178.97-119.36"/>
  <path d="M430.2,833.4c-.32-7.25-1.53-14.43-3.64-21.37-.56-1.84-3.44-1.06-2.89.8,1.23,4.22,2.18,8.53,2.76,12.88.49,3.68,1.44,8.39-.44,11.81l2.74.36c-1.35-5.51-2.71-11.02-4.06-16.53-.43-1.76-2.77-1.18-2.95.4-.42,3.83-1.55,7.55-3.3,10.97l2.8.76c-.75-6.38-2.39-12.53-4.91-18.44-.59-1.38-2.87-.66-2.8.76.29,5.29.64,10.92-1.61,15.87l2.74.36c-1.31-5.33-2.17-10.74-2.55-16.22h-3c.48,5.38-.01,10.72-1.51,15.91l2.95.4c-.37-3.39-1.23-6.59-2.59-9.71-.53-1.21-2.45-.81-2.74.36-.34,1.36-.68,2.72-1.02,4.08h2.89c-.89-3.21-1.78-6.43-2.66-9.64-.44-1.6-3.01-1.32-2.95.4.09,2.39-.25,4.66-1.01,6.93l2.95.4c-.16-4.16-.77-8.28-1.85-12.3-.37-1.38-2.58-1.48-2.89,0-.84,3.89-1.67,7.79-2.51,11.68h2.89c-.8-5.38-1.61-10.77-2.41-16.15-.21-1.44-2.66-1.42-2.89,0-.68,4.19-1.35,8.37-2.03,12.56-.31,1.89,2.58,2.7,2.89.8.68-4.19,1.35-8.37,2.03-12.56h-2.89c.8,5.38,1.61,10.77,2.41,16.15.22,1.48,2.6,1.38,2.89,0,.84-3.89,1.67-7.79,2.51-11.68h-2.89c1.01,3.77,1.59,7.6,1.74,11.51.06,1.71,2.4,2.01,2.95.4.84-2.49,1.21-5.1,1.12-7.73l-2.95.4c.89,3.21,1.78,6.43,2.66,9.64.39,1.4,2.53,1.45,2.89,0,.34-1.36.68-2.72,1.02-4.08l-2.74.36c1.14,2.6,1.88,5.38,2.19,8.2.17,1.6,2.45,2.13,2.95.4,1.57-5.42,2.12-11.09,1.62-16.71-.17-1.9-3.13-1.94-3,0,.4,5.74,1.28,11.43,2.65,17.02.29,1.17,2.2,1.56,2.74.36,2.5-5.5,2.35-11.48,2.02-17.39l-2.8.76c2.3,5.38,3.82,11.11,4.5,16.92.16,1.33,2.05,2.23,2.8.76,2.01-3.93,3.23-8.1,3.71-12.49l-2.95.4c1.35,5.51,2.71,11.02,4.06,16.53.3,1.24,2.13,1.48,2.74.36,2.13-3.89,1.45-8.6.92-12.82-.6-4.81-1.58-9.54-2.93-14.19l-2.89.8c2.03,6.7,3.22,13.58,3.53,20.57.09,1.92,3.09,1.93,3,0h0Z"/>
  <path d="M487.94,791.52c5.49,5.83,11.39,11.25,17.66,16.23,1.01.8,3.15.1,2.51-1.46-3.45-8.32-6.89-16.65-10.34-24.97l-2.51,1.46c5.7,5.58,11.39,11.16,17.09,16.75.71.7,1.83.51,2.36-.3.83-1.3.66-2.8.15-4.2-.63-1.72-1.4-3.41-2.1-5.1-1.46-3.56-2.93-7.11-4.39-10.67l-1.45,1.9c4.01.36,7.09,3.44,9.88,6.05,3.02,2.82,6.18,5.72,10.29,6.76.86.22,2-.44,1.9-1.45-.41-3.92-2.72-6.94-5.25-9.8s-5.17-5.47-5.75-9.24l-2.2,1.69c3.46,2.16,6.85,4.43,10.16,6.81,1.68,1.21,3.33,2.45,4.97,3.72,1.29,1,2.62,2.64,4.27,1.36,2.65-2.06,0-6.2-1-8.38-1.77-3.84-3.53-7.68-5.3-11.52l-1.69,2.2c5.35,1.83,10.21,4.82,14.27,8.76.57.55,1.55.6,2.12,0,1.73-1.81,1.78-4.35.99-6.62-.89-2.54-3.13-4.79-2.81-7.62l-2.26,1.3c4.42,2.45,8.83,4.9,13.25,7.36,1.04.58,2.71-.41,2.2-1.69-.97-2.47-1.95-4.94-2.92-7.41l-1.46-3.7-.73-1.85c-.1-.26-.19-.71-.37-.93l-.13-.37c-.59.17-.74.29-.45.35.1.17.85.46,1.05.6.52.38,1.04.77,1.56,1.16,1.04.77,2.08,1.54,3.11,2.31,2.14,1.59,4.28,3.18,6.42,4.77.9.67,2.34-.23,2.26-1.3-.25-3.43-1-6.75-2.31-9.93l-2.2,1.69c2.96,2.09,5.92,4.17,8.88,6.26,1.58,1.11,3.08-1.49,1.51-2.59-2.96-2.09-5.92-4.17-8.88-6.26-1.01-.71-2.7.49-2.2,1.69,1.2,2.92,1.97,5.98,2.2,9.13l2.26-1.3c-2.66-1.98-5.32-3.95-7.98-5.93-1.74-1.29-4.6-4.37-7.04-3.05-1.16.63-1.4,2-1.08,3.17.43,1.54,1.19,3.05,1.78,4.54,1.28,3.24,2.56,6.48,3.84,9.73l2.2-1.69c-4.42-2.45-8.83-4.9-13.25-7.36-1.07-.6-2.13.18-2.26,1.3-.28,2.5.99,4.68,2.14,6.79.8,1.47,1.95,3.88.56,5.33h2.12c-4.44-4.3-9.75-7.53-15.6-9.53-1.36-.46-2.19,1.12-1.69,2.2,1.39,3.03,2.79,6.05,4.18,9.08.68,1.48,1.36,2.95,2.04,4.43.26.56.56,1.11.69,1.71.04.19.02.44.09.62.08.22-.17.25.14.13l1.46.39c-5.62-4.49-11.48-8.66-17.58-12.46-1.22-.76-2.39.49-2.2,1.69.57,3.71,3.05,6.66,5.46,9.38,2.26,2.54,5.06,5.31,5.43,8.87l1.9-1.45c-4.12-1.04-7.11-4.3-10.13-7.08s-6.48-5.45-10.84-5.84c-.9-.08-1.8,1.04-1.45,1.9,1.28,3.1,2.55,6.2,3.83,9.31.62,1.51,1.25,3.03,1.87,4.54.39.94,1.58,2.81.94,3.81l2.36-.3c-5.7-5.58-11.39-11.16-17.09-16.75-.99-.97-3.11,0-2.51,1.46,3.45,8.32,6.89,16.65,10.34,24.97l2.51-1.46c-6.27-4.98-12.17-10.4-17.66-16.23-1.33-1.41-3.45.72-2.12,2.12h0Z"/>
  <path d="M450.26,829.85c-1.51-6.1-3.01-12.19-4.52-18.29l-2.74,1.16c1.55,2.6,3.24,5.12,5.08,7.52,1.56,2.04,3.26,4.67,6.13,4.65,1.01,0,1.66-.95,1.45-1.9-1.15-5.06-2.29-10.12-3.44-15.18l-2.2,1.69c5.47,2.91,8.17,8.99,12.97,12.72,1.53,1.19,3.32-.59,2.12-2.12-2.32-2.99-4.91-5.75-7.76-8.25-1.38-1.21-2.83-2.36-4.31-3.44-1.23-.9-3.29-1.8-3.73-3.38l-1.05,1.85c2.4-.96,5.11.99,7.12,2.15,2.25,1.3,4.41,2.73,6.59,4.14,4.31,2.81,8.7,5.52,13.63,7.11,1.84.59,2.63-2.3.8-2.89-5.21-1.68-9.77-4.76-14.32-7.72-2.23-1.45-4.47-2.89-6.82-4.14s-5.11-2.6-7.78-1.53c-.75.3-1.28.99-1.05,1.85.49,1.76,1.78,2.85,3.23,3.86,1.69,1.19,3.35,2.39,4.93,3.73,3.1,2.64,5.91,5.59,8.41,8.8l2.12-2.12c-5.02-3.91-7.82-10.14-13.57-13.19-1.18-.63-2.5.4-2.2,1.69,1.15,5.06,2.29,10.12,3.44,15.18l1.45-1.9c-1.05,0-1.75-.95-2.37-1.69-.79-.95-1.53-1.94-2.26-2.93-1.43-1.96-2.75-3.99-3.99-6.07-.88-1.47-3.15-.5-2.74,1.16,1.51,6.1,3.01,12.19,4.52,18.29.46,1.87,3.36,1.08,2.89-.8h0Z"/>
  <path class="cls-5" d="M537.2,459.07l97.38-101.41s-87.88,85.83-85.23,103.81c-7.65-3.42-12.15-2.4-12.15-2.4Z"/>
  <path class="cls-5" d="M641.42,679.32s7.66,3.57,10.38,7.66"/>
  <path class="cls-3" d="M380.47,245.97s87.53,77.36-22.5,107.79c.33,53.11-27.66,111.58-83.11,104.3s-43.19-30.77-43.19-30.77"/>
  <path class="cls-6" d="M698.55,413.16c-106.21-80.91-40.09,29.02-40.09,29.02,0,0-61.4,37.87-55.91,17.45s10.11-102.75-18.72-120.17-69.58-105.19-69.58-105.19c0,0,20.05-89.87,139.03-58.21s183.97,266.13,183.97,266.13c0,0-44.57-98.64-67.04-90.47s-38.61,26.27-38.61,26.27l-33.05,35.18Z"/>
  <path class="cls-7" d="M635.31,392.14s-7.48-55.91,25.45-59.74,117.19,72.09,88.09,125.66-46.72,22.17-46.72,22.17"/>
  <path class="cls-4" d="M268.8,443.08c9.95,13.83,16.95,35.83,2.95,47.83-24,21-64,28-87,6-7-6-8-16-4-25-7,14-17,27-30.99,35.2-12.34,7.91-25.9,11.48-38.22,11.67-8.21.13-15.87-1.23-22.25-3.81-7.54-2.07-15.54-8.07-14.54-15.07,7-34,8-62-26-84-17-11-4-35,4-51,4,9,15,18,25,11-20,8-56,21-64-5-3.5-11.5-4.75-24.75-2.88-37.25s6.74-24.29,14.97-32.99c2.91-4.76,8.91-3.76,13.91-3.76,11,1,28,12,30,3,4-24-32-43-54-54-6-3-1-21,10-27,15-8,32,7,41-2,10-9,21-26,37-21-2-7-9-9-14-14-10-7-30-13-26-24,13-34,57-50,92-39,11-38,52-76,94-64,8.5,2.5,19.75,9.5,29.38,13.88s17.62,6.12,19.62-1.88c11-43,59-32,88.95-41.05,8.86-3.47,18.23-6.66,27.83-9.24,47.94-12.96,101.55-10.88,123.22,43.29,1,2,4,5,7,6,64,4,151,11,174.88,80.2,4.79,7.26,10.89,15.34,16.95,23.95,12.13,17.23,24.13,36.64,25.15,56.04,2.04,38.81,3.23,41.87,3.23,41.87,0,0-74.55-75.49-204.76-47.15,27.57,36-24.63,68.17-34.91,68.17s-75.39,3.83-63.13,26.81c4.6,8.62-8.95,10.45-27.06,7.11-9.06-1.67-19.26-4.62-28.91-8.64-18.43-6.36-42.43-20.36-36.86-41.93"/>
  <path class="cls-12" d="M337.91,679.92s9.36-16.34,8.85-37.28c9.96,3.06,56.68,37.28,56.68,37.28l40.85,6.89,40.34-8.46,34.98-7.37-40.6,43.66-96,21.45-45.11-40.85v-15.32Z"/>
  <path class="cls-2" d="M496.89,928.69s-50.55,53.94-10.21,53.52,37.28-34.12,37.28-34.12"/>
  <path class="cls-2" d="M506.57,939.41s-8.46,59.66,17.44,50.55,26.5-34.51,26.5-34.51"/>
  <path class="cls-2" d="M540.81,955.45s34.21-14.6,37.28,0"/>
  <path class="cls-2" d="M568.4,961.88s-47.16,38.81-12.61,42.38"/>
  <path class="cls-2" d="M590.85,955.45s34.21,46.77,0,45.24"/>
  <path class="cls-2" d="M594.94,939.41s3.06,48.25,27.57,38.68"/>
  <path class="cls-2" d="M634.77,939.41s39.32,6.56,15.83,25.75-24.51,28.38-24.51,28.38"/>
  <path class="cls-2" d="M611.79,928.69s-12.26,24.42,8.68,26.76,37.61-26.76,37.61-26.76"/>
</svg>