<?xml version="1.0" encoding="UTF-8"?>
<svg id="Moi" xmlns="http://www.w3.org/2000/svg" viewBox="0 0 968.5 913.99">
  <defs>
    <style>
      .cls-1 {
        fill: #fff;
      }

      .cls-1, .cls-2, .cls-3, .cls-4, .cls-5, .cls-6, .cls-7, .cls-8 {
        stroke: #000;
      }

      .cls-1, .cls-3, .cls-4, .cls-5, .cls-6 {
        stroke-width: 10px;
      }

      .cls-1, .cls-6, .cls-8 {
        stroke-miterlimit: 10;
      }

      .cls-2 {
        stroke-width: 5px;
      }

      .cls-2, .cls-3, .cls-4, .cls-5, .cls-7 {
        stroke-linecap: round;
        stroke-linejoin: round;
      }

      .cls-2, .cls-4, .cls-7 {
        fill: none;
      }

      .cls-3, .cls-9 {
        fill: #634011;
      }

      .cls-5, .cls-6, .cls-10, .cls-8 {
        fill: #d8b79c;
      }

      .cls-11 {
        fill: #9b7c65;
      }

      .cls-7 {
        stroke-width: 7px;
      }

      .cls-8 {
        stroke-width: 20px;
      }
    </style>
  </defs>
  <path class="cls-3" d="M813.87,216.79s96-79.66,131.74,0-35.74,106.55-10.21,146.21,36.79,48.96,20.44,60.65c-4.1-9.75-10.22-27.66-25.54-30.45s-59.23-18.11-54.13-69.17-62.3-107.23-62.3-107.23Z"/>
  <path class="cls-3" d="M752.67,310.75s181.72-79.66,129.63-140.94-129.63-33.7-119.45-109.28-50.39-52.09-50.39-52.09c0,0,23.8,23.49,11.54,48s-45.96,79.27-19.4,101.42,48.07,152.87,48.07,152.87Z"/>
  <path class="cls-3" d="M112.73,350.24S-37.79,163.35,192.71,47.94c17.72,68.43,57.36,109.28,138.71,86.81,81.36-22.47,481.35-41.34,421.9,228.26"/>
  <path class="cls-3" d="M247.41,498.32s-192,7.15-219.57,115.4c-65.36-123.57,18.24-300.26,141.38-295.15"/>
  <path class="cls-8" d="M761.75,557.64c-14.3,169.53-85.79,277.79-256.34,293.11-124.14,11.15-288.08-1.34-330.89-110.81-12.98-33.18-2.28-67.4,33.7-81.19-78.13-283.4,125.69-393.13,288.04-388.09,164.39,5.11,279.15,125.13,265.5,286.98Z"/>
  <path class="cls-3" d="M730.6,336.2s74.43-24.01,115.28,65.87-49.02,334.98-127.66,389.11l-78.64,54.13s86.54-167.61,72.89-212.49c-22.84,60.32-63.69,67.29-63.69,67.29,0,0,58.34-113.79,37.85-143.61s12.45-225.89,43.98-220.28Z"/>
  <path class="cls-11" d="M570.57,623.29c4.46,48.7-29.73,91.64-76.35,95.9-46.62,4.27-88.03-31.76-92.48-80.46l168.83-15.45Z"/>
  <path class="cls-11" d="M368.2,638.48c1.19,42.2-29.55,77.3-68.65,78.4-39.1,1.1-71.76-32.22-72.94-74.42l141.6-3.98Z"/>
  <path class="cls-1" d="M570.57,623.29c3.47,37.91-31.51,72.11-78.13,76.37-46.62,4.27-87.23-23.01-90.69-60.93l168.83-15.45Z"/>
  <path class="cls-1" d="M368.2,638.48c.92,32.91-30.02,60.48-69.13,61.58-39.1,1.1-71.55-24.69-72.47-57.61l141.6-3.98Z"/>
  <ellipse class="cls-1" cx="306.77" cy="664.03" rx="16.6" ry="7.66"/>
  <ellipse class="cls-1" cx="474" cy="660.28" rx="18.89" ry="9.02"/>
  <path class="cls-4" d="M408.3,578.75s12.43-14.21,18.55-29.53,22.04-109.87,105.53-109.87c64.68,0,74.3,11.49,74.3,11.49"/>
  <path class="cls-7" d="M408.3,533.9s28.77-117.96,101.28-117.96,77.62,11.74,77.62,11.74"/>
  <path class="cls-2" d="M413.07,462.92s27.57-68.94,68.43-68.43,59.74,7.66,59.74,7.66"/>
  <path class="cls-4" d="M297.41,583.94s-28.35-11.23-27.33-25.53-35.23-135.83-56.17-121.53"/>
  <path class="cls-7" d="M286.43,518.58s-25.02-100.6-48-105.19-21.24,6.49-21.24,6.49"/>
  <path class="cls-2" d="M297.41,481.81s-30.9-101.11-62.05-87.32"/>
  <path class="cls-4" d="M534.32,517.16s-7.58-36.79,11.07-38.15,22.4,6.98,22.4,30.04,24.51,43.15,34.04,49.62"/>
  <path class="cls-10" d="M660.77,761.79l27.66-64.15s100.17,134.13,116.51,143.32-28.61,111.88-83.97,56.95c-21.64-21.47-30.24-79.97-60.2-136.12Z"/>
  <polygon class="cls-10" points="111.45 616.41 145.66 599.05 152.47 600.58 164.34 564.94 189.92 532.83 189.92 599.9 174.51 636.32 133.75 638.48 111.45 616.41"/>
  <path class="cls-10" d="M680.22,592.22s22.85,48.06,10.93,98.78c-3.75,15.97-2.72,6.64-2.72,6.64l-10.89,56.68-43.91-61.62,21.79-86.13,24.81-14.36Z"/>
  <path class="cls-4" d="M631.53,558.66s-6.47-29.11-17.36-26.72-24.31,10.78-23.56,17.81"/>
  <path class="cls-5" d="M730.6,903.18c-37.28-10.72-37.29-108.43-99.28-188.51-16.98-21.94-30.09-33.45-44.13-42.98s-10.47-8.85-23.23-9.99-9.7-10.44-9.7-10.44c0,0,6.83-35.38,41.2-19.31"/>
  <path class="cls-4" d="M798.26,835.77s-118.64-114.13-104.34-161.62-24.26-103.4-27.66-105.11-14.64-13.96-14.64-13.96c0,0-12.46-21.24-24.95-11.3"/>
  <path class="cls-4" d="M587.19,569.9c-33.45-12.77-52.85-48.94-55.91-60.85-2.53-9.85,1.53-32.09-23.79-24.94-9.49,2.68-14.84,10.89-17.82,20.11-6.25,19.37-1.31,40.61,12.12,55.91,17.1,19.48,40.87,34.59,65.74,45.52,33.7,14.81,21.45,25.02,36.26,38.81"/>
  <path class="cls-5" d="M142.09,618.75s22.07-40.34,27.12-75.57,1.52-44.26,10.67-47.49c15.89-5.62,27.06,6.13,27.06,15.32"/>
  <path class="cls-5" d="M179.87,632.03s5.62,11.23,32.68-51.06,30.13-39.83,22.81-75.57-30.47-20.94-36.09-2.04c0,0-14.98,86.21-29.02,101.02"/>
  <path class="cls-6" d="M155.53,640.07s20.95-36.13,53.79-24.89,22.12,34.38,9.36,41.19-32.68-8.85-38.81,7.66-12.77,41.53-33.7,46.64-16.6,75.83-42.64,125.11-101.87,11.23-87.32-18.64,70.72-78.68,68.68-119.02-20.44-78.15,10.21-93.96c16.34-8.43,21.05-1.19,21.05-1.19"/>
  <path class="cls-5" d="M116.3,628.41s-10.21-28.38,11.74-35.53,19.06,6.85,19.06,6.85"/>
  <path class="cls-5" d="M356,708.79s47.95-2.69,71.91,0"/>
  <path class="cls-9" d="M226.6,386.75l29.06-107.23,277.13-53.62,168.48,35.23s70.11,12.13,46.55,91.85-66.46,62.96-66.46,62.96l-90.78,28.33-83.09-68.25-184.13,3.06-96.76,7.66Z"/>
  <path class="cls-3" d="M328.6,456.86s-17.18,29.89-62.21,18.06-53.28-59.99-96.13-51.23-39.68,15.66-39.68,15.66c0,0,35.63-160.34,185.76-81.19"/>
  <path class="cls-3" d="M603.79,462.92s-179.7-158.64-242.51,12c-23.01,62.53,17.36,64.94-22.47,83.74,0,0,13.02-38.36-15.45-61.44s-44.59-180.82,90.77-201.37c0,0,82.13-13.87,124.77-3.15"/>
  <path class="cls-3" d="M774.99,477.69s8.11,4.27-52.48,42.45-46.43,65.52-46.43,65.52c0,0-152.25-159.74-20.74-232.68"/>
  <path class="cls-3" d="M671.92,393.2s102.92-55.91,87.41-104.56c95.4-52.45,129.1-26.91,144.42,10.87s-26.55,183.28-231.83,93.68Z"/>
</svg>