<svg width="44" height="44" viewBox="0 0 44 44" fill="none" xmlns="http://www.w3.org/2000/svg">
<g clip-path="url(#clip0_65_9)">
<path d="M0 35.75V13.75H11V35.75M16.5 35.75V13.75H27.5V35.75M33 35.75V13.75H44V35.75M0 11C3.66667 -3.66667 7.33333 -3.66667 11 11H0ZM16.5 11C20.1667 -3.66667 23.8333 -3.66667 27.5 11H16.5ZM33 11C36.6667 -3.66667 40.3333 -3.66667 44 11H33ZM0 44V38.5H11V44M16.5 44V38.5H27.5V44M33 44V38.5H44V44" fill="white"/>
</g>
<defs>
<clipPath id="clip0_65_9">
<rect width="44" height="44" fill="white"/>
</clipPath>
</defs>
</svg>
