<svg width="1972" height="1080" viewBox="0 0 1972 1080" fill="none" xmlns="http://www.w3.org/2000/svg">
<rect width="1972" height="1080" fill="black" fill-opacity="0.5"/>
<path d="M686.616 333C685.782 333 685.366 332.583 685.366 331.75V267.6C685.366 266.767 685.782 266.35 686.616 266.35H704.916C705.749 266.35 706.166 266.767 706.166 267.6V289.65H710.366V267.6C710.366 266.767 710.782 266.35 711.616 266.35H729.916C730.749 266.35 731.166 266.767 731.166 267.6V331.75C731.166 332.583 730.749 333 729.916 333H711.616C710.782 333 710.366 332.583 710.366 331.75V309.65H706.166V331.75C706.166 332.583 705.749 333 704.916 333H686.616ZM736.616 333C735.782 333 735.366 332.583 735.366 331.75V267.6C735.366 266.767 735.782 266.35 736.616 266.35H771.416C772.249 266.35 772.666 266.767 772.666 267.6V285.1C772.666 285.933 772.249 286.35 771.416 286.35H756.166V290.5H771.416C772.249 290.5 772.666 290.917 772.666 291.75V307.6C772.666 308.433 772.249 308.85 771.416 308.85H756.166V313H771.416C772.249 313 772.666 313.417 772.666 314.25V331.75C772.666 332.583 772.249 333 771.416 333H736.616ZM778.12 333C777.286 333 776.87 332.583 776.87 331.75V285.4C776.87 284.867 777.036 284.367 777.37 283.9L789.17 267.1C789.536 266.6 790.07 266.35 790.77 266.35H808.67C809.403 266.35 809.936 266.6 810.27 267.1L822.17 283.9C822.503 284.367 822.67 284.867 822.67 285.4V331.75C822.67 332.583 822.253 333 821.42 333H803.12C802.286 333 801.87 332.583 801.87 331.75V313H797.67V331.75C797.67 332.583 797.253 333 796.42 333H778.12ZM799.77 295.65C801.203 295.65 802.37 295.2 803.27 294.3C804.17 293.4 804.62 292.25 804.62 290.85C804.62 289.417 804.17 288.25 803.27 287.35C802.37 286.45 801.203 286 799.77 286C798.336 286 797.17 286.45 796.27 287.35C795.37 288.25 794.92 289.417 794.92 290.85C794.92 292.25 795.37 293.4 796.27 294.3C797.17 295.2 798.336 295.65 799.77 295.65ZM828.12 333C827.286 333 826.87 332.583 826.87 331.75V267.6C826.87 266.767 827.286 266.35 828.12 266.35H846.42C847.253 266.35 847.67 266.767 847.67 267.6V313H856.12C856.953 313 857.37 313.417 857.37 314.25V331.75C857.37 332.583 856.953 333 856.12 333H828.12ZM869.838 333C869.004 333 868.588 332.583 868.588 331.75V286.35H862.788C861.954 286.35 861.538 285.933 861.538 285.1V267.6C861.538 266.767 861.954 266.35 862.788 266.35H895.288C896.121 266.35 896.538 266.767 896.538 267.6V285.1C896.538 285.933 896.121 286.35 895.288 286.35H889.438V331.75C889.438 332.583 889.021 333 888.188 333H869.838ZM901.948 333C901.114 333 900.698 332.583 900.698 331.75V267.6C900.698 266.767 901.114 266.35 901.948 266.35H920.248C921.081 266.35 921.498 266.767 921.498 267.6V289.65H925.698V267.6C925.698 266.767 926.114 266.35 926.948 266.35H945.248C946.081 266.35 946.498 266.767 946.498 267.6V331.75C946.498 332.583 946.081 333 945.248 333H926.948C926.114 333 925.698 332.583 925.698 331.75V309.65H921.498V331.75C921.498 332.583 921.081 333 920.248 333H901.948ZM951.948 333C951.114 333 950.698 332.583 950.698 331.75V267.6C950.698 266.767 951.114 266.35 951.948 266.35H970.248C971.081 266.35 971.498 266.767 971.498 267.6V313H979.948C980.781 313 981.198 313.417 981.198 314.25V331.75C981.198 332.583 980.781 333 979.948 333H951.948ZM986.616 333C985.782 333 985.366 332.583 985.366 331.75V267.6C985.366 266.767 985.782 266.35 986.616 266.35H1004.92C1005.75 266.35 1006.17 266.767 1006.17 267.6V331.75C1006.17 332.583 1005.75 333 1004.92 333H986.616ZM1011.62 333C1010.78 333 1010.37 332.583 1010.37 331.75V267.6C1010.37 266.767 1010.78 266.35 1011.62 266.35H1043.37C1044.13 266.35 1044.8 266.617 1045.37 267.15L1055.37 277.15C1055.9 277.717 1056.17 278.383 1056.17 279.15V331.75C1056.17 332.583 1055.75 333 1054.92 333H1036.62C1035.78 333 1035.37 332.583 1035.37 331.75V286.35H1031.17V331.75C1031.17 332.583 1030.75 333 1029.92 333H1011.62ZM1073.17 333C1072.4 333 1071.73 332.717 1071.17 332.15L1061.17 322.15C1060.63 321.617 1060.37 320.95 1060.37 320.15V279.15C1060.37 278.383 1060.63 277.717 1061.17 277.15L1071.17 267.15C1071.73 266.617 1072.4 266.35 1073.17 266.35H1103.42C1104.25 266.35 1104.67 266.767 1104.67 267.6V285.1C1104.67 285.933 1104.25 286.35 1103.42 286.35H1082.87C1082.4 286.35 1082 286.517 1081.67 286.85C1081.33 287.15 1081.17 287.533 1081.17 288V311.35C1081.17 311.783 1081.33 312.167 1081.67 312.5C1082 312.833 1082.4 313 1082.87 313H1089.92V305.6L1085.77 305.5C1084.93 305.5 1084.52 305.083 1084.52 304.25V291.75C1084.52 290.917 1084.93 290.5 1085.77 290.5H1107.02C1107.85 290.5 1108.27 290.917 1108.27 291.75V320.15C1108.27 320.95 1107.98 321.617 1107.42 322.15L1097.42 332.15C1096.88 332.717 1096.22 333 1095.42 333H1073.17ZM1113.47 333C1112.64 333 1112.22 332.583 1112.22 331.75V317.65C1112.22 317.25 1112.24 316.933 1112.27 316.7C1112.34 316.433 1112.54 316.2 1112.87 316L1123.47 309.9V307.4L1113.02 301.9C1112.49 301.6 1112.22 301.1 1112.22 300.4V277.9C1112.22 277.367 1112.25 276.983 1112.32 276.75C1112.39 276.483 1112.62 276.2 1113.02 275.9L1126.22 267C1126.49 266.8 1126.77 266.65 1127.07 266.55C1127.37 266.417 1127.75 266.35 1128.22 266.35H1145.87C1146.7 266.35 1147.12 266.767 1147.12 267.6V282.4C1147.12 283.133 1146.87 283.633 1146.37 283.9L1133.27 289.65V292.25L1146.37 299.75C1146.87 299.983 1147.12 300.517 1147.12 301.35V323.1C1147.12 323.367 1147.07 323.65 1146.97 323.95C1146.9 324.217 1146.74 324.433 1146.47 324.6L1130.77 332.4C1130.57 332.533 1130.32 332.667 1130.02 332.8C1129.75 332.933 1129.49 333 1129.22 333H1113.47ZM1152.53 333C1151.7 333 1151.28 332.583 1151.28 331.75V267.6C1151.28 266.767 1151.7 266.35 1152.53 266.35H1170.83C1171.67 266.35 1172.08 266.767 1172.08 267.6V289.65H1176.28V267.6C1176.28 266.767 1176.7 266.35 1177.53 266.35H1195.83C1196.67 266.35 1197.08 266.767 1197.08 267.6V331.75C1197.08 332.583 1196.67 333 1195.83 333H1177.53C1176.7 333 1176.28 332.583 1176.28 331.75V309.65H1172.08V331.75C1172.08 332.583 1171.67 333 1170.83 333H1152.53ZM1214.08 333C1213.32 333 1212.65 332.717 1212.08 332.15L1202.08 322.15C1201.55 321.617 1201.28 320.95 1201.28 320.15V279.15C1201.28 278.383 1201.55 277.717 1202.08 277.15L1212.08 267.15C1212.65 266.617 1213.32 266.35 1214.08 266.35H1234.58C1235.38 266.35 1236.05 266.617 1236.58 267.15L1246.58 277.15C1247.15 277.717 1247.43 278.383 1247.43 279.15V320.15C1247.43 320.95 1247.15 321.617 1246.58 322.15L1236.58 332.15C1236.05 332.717 1235.38 333 1234.58 333H1214.08ZM1224.18 313H1224.53C1225.9 313 1226.58 312.05 1226.58 310.15V289.15C1226.58 287.283 1225.9 286.35 1224.53 286.35H1224.18C1222.78 286.35 1222.08 287.283 1222.08 289.15V310.15C1222.08 312.05 1222.78 313 1224.18 313ZM1259.97 333C1259.14 333 1258.72 332.583 1258.72 331.75V286.35H1252.92C1252.09 286.35 1251.67 285.933 1251.67 285.1V267.6C1251.67 266.767 1252.09 266.35 1252.92 266.35H1285.42C1286.26 266.35 1286.67 266.767 1286.67 267.6V285.1C1286.67 285.933 1286.26 286.35 1285.42 286.35H1279.57V331.75C1279.57 332.583 1279.16 333 1278.32 333H1259.97Z" fill="white"/>
<path d="M1162.33 467H815.154C815.154 496.244 790.385 501.118 778 499.899V575.445C808.698 575.445 815.56 599.815 815.154 612H1162.33C1162.33 586.655 1183.44 581.944 1194 582.756V499.899C1168.18 499.899 1162.12 477.966 1162.33 467Z" fill="#DEC36A" stroke="black" stroke-width="3"/>
<path d="M898.541 573C897.708 573 897.291 572.583 897.291 571.75V507.6C897.291 506.767 897.708 506.35 898.541 506.35H929.441C930.208 506.35 930.875 506.617 931.441 507.15L941.441 517.15C942.008 517.717 942.291 518.383 942.291 519.15V543.65C942.291 544.45 942.008 545.117 941.441 545.65L931.441 555.65C930.875 556.217 930.208 556.5 929.441 556.5H918.091V571.75C918.091 572.583 917.675 573 916.841 573H898.541ZM919.341 536C920.708 536 921.808 535.567 922.641 534.7C923.508 533.833 923.941 532.733 923.941 531.4C923.941 530.067 923.508 528.983 922.641 528.15C921.808 527.283 920.708 526.85 919.341 526.85C918.008 526.85 916.908 527.283 916.041 528.15C915.208 528.983 914.791 530.067 914.791 531.4C914.791 532.733 915.208 533.833 916.041 534.7C916.908 535.567 918.008 536 919.341 536ZM947.663 573C946.829 573 946.413 572.583 946.413 571.75V507.6C946.413 506.767 946.829 506.35 947.663 506.35H965.963C966.796 506.35 967.213 506.767 967.213 507.6V553H975.663C976.496 553 976.913 553.417 976.913 554.25V571.75C976.913 572.583 976.496 573 975.663 573H947.663ZM982.33 573C981.497 573 981.08 572.583 981.08 571.75V525.4C981.08 524.867 981.247 524.367 981.58 523.9L993.38 507.1C993.747 506.6 994.28 506.35 994.98 506.35H1012.88C1013.61 506.35 1014.15 506.6 1014.48 507.1L1026.38 523.9C1026.71 524.367 1026.88 524.867 1026.88 525.4V571.75C1026.88 572.583 1026.46 573 1025.63 573H1007.33C1006.5 573 1006.08 572.583 1006.08 571.75V553H1001.88V571.75C1001.88 572.583 1001.46 573 1000.63 573H982.33ZM1003.98 535.65C1005.41 535.65 1006.58 535.2 1007.48 534.3C1008.38 533.4 1008.83 532.25 1008.83 530.85C1008.83 529.417 1008.38 528.25 1007.48 527.35C1006.58 526.45 1005.41 526 1003.98 526C1002.55 526 1001.38 526.45 1000.48 527.35C999.58 528.25 999.13 529.417 999.13 530.85C999.13 532.25 999.58 533.4 1000.48 534.3C1001.38 535.2 1002.55 535.65 1003.98 535.65ZM1044.23 573C1043.4 573 1042.98 572.583 1042.98 571.75V551.35L1030.98 539.4C1030.75 539.133 1030.6 538.9 1030.53 538.7C1030.5 538.467 1030.48 538.2 1030.48 537.9V507.6C1030.48 506.767 1030.9 506.35 1031.73 506.35H1050.08C1050.91 506.35 1051.33 506.767 1051.33 507.6V532H1055.48V507.6C1055.48 506.767 1055.9 506.35 1056.73 506.35H1075.08C1075.91 506.35 1076.33 506.767 1076.33 507.6V537.9C1076.33 538.2 1076.31 538.467 1076.28 538.7C1076.25 538.9 1076.1 539.133 1075.83 539.4L1063.88 551.35V571.75C1063.88 572.583 1063.46 573 1062.63 573H1044.23Z" fill="white"/>
<path d="M920.164 649H746.577C746.577 663.622 734.192 666.059 728 665.45V703.223C743.349 703.223 746.78 715.408 746.577 721.5H920.164C920.164 708.828 930.721 706.472 936 706.878V665.45C923.088 665.45 920.062 654.483 920.164 649Z" fill="#DEC36A" stroke="black" stroke-width="3"/>
<path d="M781.227 702C780.81 702 780.602 701.792 780.602 701.375V669.3C780.602 668.883 780.81 668.675 781.227 668.675H794.777C795.177 668.675 795.51 668.783 795.777 669L801.527 674.7C801.71 674.867 801.818 675.008 801.852 675.125C801.902 675.242 801.927 675.433 801.927 675.7V682.55C801.927 682.767 801.843 682.958 801.677 683.125L798.927 685.8L796.602 687.8L799.352 691.45L802.177 697.5C802.243 697.65 802.293 697.8 802.327 697.95C802.377 698.083 802.402 698.25 802.402 698.45V701.375C802.402 701.792 802.193 702 801.777 702H795.177C794.81 702 794.56 701.833 794.427 701.5L790.402 689.8H788.527V701.375C788.527 701.792 788.318 702 787.902 702H781.227ZM791.277 683.675C792.66 683.675 793.602 683.392 794.102 682.825C794.602 682.242 794.852 681.158 794.852 679.575C794.852 677.975 794.602 676.892 794.102 676.325C793.602 675.742 792.66 675.45 791.277 675.45C789.91 675.45 788.968 675.742 788.452 676.325C787.935 676.892 787.677 677.975 787.677 679.575C787.677 681.158 787.935 682.242 788.452 682.825C788.968 683.392 789.91 683.675 791.277 683.675ZM812.808 702C812.408 702 812.074 701.858 811.808 701.575L806.808 696.575C806.524 696.308 806.383 695.975 806.383 695.575V669.3C806.383 668.883 806.591 668.675 807.008 668.675H814.083C814.499 668.675 814.708 668.883 814.708 669.3V694.825C814.708 695.158 814.874 695.325 815.208 695.325H819.308V669.3C819.308 668.883 819.516 668.675 819.933 668.675H827.008C827.424 668.675 827.633 668.883 827.633 669.3V701.375C827.633 701.792 827.424 702 827.008 702H812.808ZM834.254 702C833.837 702 833.629 701.792 833.629 701.375V669.3C833.629 668.883 833.837 668.675 834.254 668.675H841.329C841.746 668.675 841.954 668.883 841.954 669.3V695.325H848.254C848.671 695.325 848.879 695.533 848.879 695.95V701.375C848.879 701.792 848.671 702 848.254 702H834.254ZM853.492 702C853.076 702 852.867 701.792 852.867 701.375V669.3C852.867 668.883 853.076 668.675 853.492 668.675H870.917C871.334 668.675 871.542 668.883 871.542 669.3V674.7C871.542 675.117 871.334 675.325 870.917 675.325H861.192V682.425H870.067C870.484 682.425 870.692 682.633 870.692 683.05V687.625C870.692 688.042 870.484 688.25 870.067 688.25H861.192V695.325H870.917C871.334 695.325 871.542 695.533 871.542 695.95V701.375C871.542 701.792 871.334 702 870.917 702H853.492ZM877.4 702C876.984 702 876.775 701.792 876.775 701.375V696.675C876.775 696.458 876.784 696.283 876.8 696.15C876.834 696.017 876.934 695.908 877.1 695.825L883.65 692.825V688.375L877.2 684.375C876.917 684.208 876.775 683.958 876.775 683.625V674.45C876.775 674.183 876.792 673.992 876.825 673.875C876.859 673.742 876.984 673.6 877.2 673.45L883.775 669C883.942 668.9 884.092 668.825 884.225 668.775C884.375 668.708 884.559 668.675 884.775 668.675H891.525C891.942 668.675 892.15 668.883 892.15 669.3V673.55C892.15 673.917 892.025 674.167 891.775 674.3L885.225 677V681.625L891.775 685.375C892.025 685.492 892.15 685.758 892.15 686.175V697.05C892.15 697.183 892.125 697.325 892.075 697.475C892.042 697.625 891.959 697.733 891.825 697.8L883.975 701.7C883.875 701.75 883.75 701.817 883.6 701.9C883.467 701.967 883.334 702 883.2 702H877.4Z" fill="white"/>
<path d="M1224.36 649.25H1009.04C1009.04 663.771 993.681 666.191 986 665.586V703.099C1005.04 703.099 1009.29 715.2 1009.04 721.25H1224.36C1224.36 708.665 1237.45 706.326 1244 706.729V665.586C1227.98 665.586 1224.23 654.695 1224.36 649.25Z" fill="#DEC36A" stroke="black" stroke-width="3"/>
<path d="M1026.83 702.25C1026.42 702.25 1026.21 702.042 1026.21 701.625V696.925C1026.21 696.708 1026.22 696.533 1026.23 696.4C1026.27 696.267 1026.37 696.158 1026.53 696.075L1033.08 693.075V688.625L1026.63 684.625C1026.35 684.458 1026.21 684.208 1026.21 683.875V674.7C1026.21 674.433 1026.23 674.242 1026.26 674.125C1026.29 673.992 1026.42 673.85 1026.63 673.7L1033.21 669.25C1033.38 669.15 1033.53 669.075 1033.66 669.025C1033.81 668.958 1033.99 668.925 1034.21 668.925H1040.96C1041.38 668.925 1041.58 669.133 1041.58 669.55V673.8C1041.58 674.167 1041.46 674.417 1041.21 674.55L1034.66 677.25V681.875L1041.21 685.625C1041.46 685.742 1041.58 686.008 1041.58 686.425V697.3C1041.58 697.433 1041.56 697.575 1041.51 697.725C1041.48 697.875 1041.39 697.983 1041.26 698.05L1033.41 701.95C1033.31 702 1033.18 702.067 1033.03 702.15C1032.9 702.217 1032.77 702.25 1032.63 702.25H1026.83ZM1047.46 702.25C1047.04 702.25 1046.83 702.042 1046.83 701.625V669.55C1046.83 669.133 1047.04 668.925 1047.46 668.925H1064.88C1065.3 668.925 1065.51 669.133 1065.51 669.55V674.95C1065.51 675.367 1065.3 675.575 1064.88 675.575H1055.16V682.675H1064.03C1064.45 682.675 1064.66 682.883 1064.66 683.3V687.875C1064.66 688.292 1064.45 688.5 1064.03 688.5H1055.16V695.575H1064.88C1065.3 695.575 1065.51 695.783 1065.51 696.2V701.625C1065.51 702.042 1065.3 702.25 1064.88 702.25H1047.46ZM1077.12 702.25C1076.7 702.25 1076.49 702.042 1076.49 701.625V675.575H1072.12C1071.7 675.575 1071.49 675.367 1071.49 674.95V669.55C1071.49 669.133 1071.7 668.925 1072.12 668.925H1089.19C1089.61 668.925 1089.82 669.133 1089.82 669.55V674.95C1089.82 675.367 1089.61 675.575 1089.19 675.575H1084.82V701.625C1084.82 702.042 1084.61 702.25 1084.19 702.25H1077.12ZM1101.43 702.25C1101.02 702.25 1100.81 702.042 1100.81 701.625V675.575H1096.43C1096.02 675.575 1095.81 675.367 1095.81 674.95V669.55C1095.81 669.133 1096.02 668.925 1096.43 668.925H1113.51C1113.92 668.925 1114.13 669.133 1114.13 669.55V674.95C1114.13 675.367 1113.92 675.575 1113.51 675.575H1109.13V701.625C1109.13 702.042 1108.92 702.25 1108.51 702.25H1101.43ZM1120.75 702.25C1120.33 702.25 1120.12 702.042 1120.12 701.625V669.55C1120.12 669.133 1120.33 668.925 1120.75 668.925H1127.82C1128.24 668.925 1128.45 669.133 1128.45 669.55V701.625C1128.45 702.042 1128.24 702.25 1127.82 702.25H1120.75ZM1135.06 702.25C1134.64 702.25 1134.43 702.042 1134.43 701.625V669.55C1134.43 669.133 1134.64 668.925 1135.06 668.925H1149.26C1149.66 668.925 1149.99 669.058 1150.26 669.325L1155.26 674.325C1155.54 674.608 1155.68 674.942 1155.68 675.325V701.625C1155.68 702.042 1155.47 702.25 1155.06 702.25H1147.98C1147.56 702.25 1147.36 702.042 1147.36 701.625V675.575H1142.76V701.625C1142.76 702.042 1142.55 702.25 1142.13 702.25H1135.06ZM1168.1 702.25C1167.7 702.25 1167.37 702.108 1167.1 701.825L1162.1 696.825C1161.82 696.558 1161.68 696.225 1161.68 695.825V675.325C1161.68 674.942 1161.82 674.608 1162.1 674.325L1167.1 669.325C1167.37 669.058 1167.7 668.925 1168.1 668.925H1182.88C1183.29 668.925 1183.5 669.133 1183.5 669.55V674.95C1183.5 675.367 1183.29 675.575 1182.88 675.575H1170.85C1170.62 675.575 1170.42 675.658 1170.25 675.825C1170.09 675.992 1170 676.192 1170 676.425V694.7C1170 694.933 1170.09 695.133 1170.25 695.3C1170.42 695.467 1170.62 695.55 1170.85 695.55H1176.25V688.875H1173.05C1172.64 688.875 1172.43 688.667 1172.43 688.25V682.875C1172.43 682.458 1172.64 682.25 1173.05 682.25H1183.3C1183.72 682.25 1183.93 682.458 1183.93 682.875V695.825C1183.93 696.225 1183.79 696.558 1183.5 696.825L1178.5 701.825C1178.24 702.108 1177.9 702.25 1177.5 702.25H1168.1ZM1189.04 702.25C1188.63 702.25 1188.42 702.042 1188.42 701.625V696.925C1188.42 696.708 1188.43 696.533 1188.44 696.4C1188.48 696.267 1188.58 696.158 1188.74 696.075L1195.29 693.075V688.625L1188.84 684.625C1188.56 684.458 1188.42 684.208 1188.42 683.875V674.7C1188.42 674.433 1188.43 674.242 1188.47 674.125C1188.5 673.992 1188.63 673.85 1188.84 673.7L1195.42 669.25C1195.58 669.15 1195.73 669.075 1195.87 669.025C1196.02 668.958 1196.2 668.925 1196.42 668.925H1203.17C1203.58 668.925 1203.79 669.133 1203.79 669.55V673.8C1203.79 674.167 1203.67 674.417 1203.42 674.55L1196.87 677.25V681.875L1203.42 685.625C1203.67 685.742 1203.79 686.008 1203.79 686.425V697.3C1203.79 697.433 1203.77 697.575 1203.72 697.725C1203.68 697.875 1203.6 697.983 1203.47 698.05L1195.62 701.95C1195.52 702 1195.39 702.067 1195.24 702.15C1195.11 702.217 1194.98 702.25 1194.84 702.25H1189.04Z" fill="white"/>
<path d="M885.658 781V763.545H892.544C893.868 763.545 894.996 763.798 895.928 764.304C896.859 764.804 897.57 765.5 898.058 766.392C898.553 767.278 898.8 768.301 898.8 769.46C898.8 770.619 898.55 771.642 898.05 772.528C897.55 773.415 896.825 774.105 895.876 774.599C894.933 775.094 893.791 775.341 892.45 775.341H888.061V772.384H891.854C892.564 772.384 893.149 772.261 893.609 772.017C894.075 771.767 894.422 771.423 894.649 770.986C894.882 770.543 894.999 770.034 894.999 769.46C894.999 768.881 894.882 768.375 894.649 767.943C894.422 767.506 894.075 767.168 893.609 766.929C893.143 766.685 892.553 766.562 891.837 766.562H889.348V781H885.658ZM906.884 781.256C905.537 781.256 904.378 780.983 903.406 780.438C902.44 779.886 901.696 779.108 901.173 778.102C900.651 777.091 900.389 775.895 900.389 774.514C900.389 773.168 900.651 771.986 901.173 770.969C901.696 769.952 902.432 769.159 903.381 768.591C904.335 768.023 905.455 767.739 906.739 767.739C907.602 767.739 908.406 767.878 909.151 768.156C909.901 768.429 910.554 768.841 911.111 769.392C911.673 769.943 912.111 770.636 912.423 771.472C912.736 772.301 912.892 773.273 912.892 774.386V775.384H901.838V773.134H909.474C909.474 772.611 909.361 772.148 909.134 771.744C908.906 771.341 908.591 771.026 908.188 770.798C907.79 770.565 907.327 770.449 906.798 770.449C906.247 770.449 905.759 770.577 905.332 770.832C904.912 771.082 904.582 771.42 904.344 771.847C904.105 772.267 903.983 772.736 903.977 773.253V775.392C903.977 776.04 904.097 776.599 904.335 777.071C904.58 777.543 904.923 777.906 905.366 778.162C905.81 778.418 906.335 778.545 906.943 778.545C907.347 778.545 907.716 778.489 908.051 778.375C908.386 778.261 908.673 778.091 908.912 777.864C909.151 777.636 909.332 777.358 909.457 777.028L912.815 777.25C912.645 778.057 912.295 778.761 911.767 779.364C911.244 779.96 910.568 780.426 909.739 780.761C908.915 781.091 907.963 781.256 906.884 781.256ZM915.261 781V767.909H918.781V770.193H918.918C919.156 769.381 919.557 768.767 920.119 768.352C920.682 767.932 921.33 767.722 922.062 767.722C922.244 767.722 922.44 767.733 922.651 767.756C922.861 767.778 923.045 767.81 923.205 767.849V771.071C923.034 771.02 922.798 770.974 922.497 770.935C922.196 770.895 921.92 770.875 921.67 770.875C921.136 770.875 920.659 770.991 920.239 771.224C919.824 771.452 919.494 771.77 919.25 772.179C919.011 772.588 918.892 773.06 918.892 773.594V781H915.261ZM935.974 771.642L932.65 771.847C932.593 771.562 932.471 771.307 932.283 771.08C932.096 770.847 931.849 770.662 931.542 770.526C931.241 770.384 930.88 770.312 930.46 770.312C929.897 770.312 929.423 770.432 929.036 770.67C928.65 770.903 928.457 771.216 928.457 771.608C928.457 771.92 928.582 772.185 928.832 772.401C929.082 772.616 929.511 772.79 930.119 772.92L932.488 773.398C933.761 773.659 934.71 774.08 935.335 774.659C935.96 775.239 936.272 776 936.272 776.943C936.272 777.801 936.019 778.554 935.513 779.202C935.013 779.849 934.326 780.355 933.451 780.719C932.582 781.077 931.579 781.256 930.442 781.256C928.71 781.256 927.329 780.895 926.3 780.173C925.278 779.446 924.678 778.457 924.502 777.207L928.073 777.02C928.181 777.548 928.442 777.952 928.857 778.23C929.272 778.503 929.803 778.639 930.451 778.639C931.087 778.639 931.599 778.517 931.985 778.273C932.377 778.023 932.576 777.702 932.582 777.31C932.576 776.98 932.437 776.71 932.164 776.5C931.891 776.284 931.471 776.119 930.903 776.006L928.636 775.554C927.357 775.298 926.406 774.855 925.781 774.224C925.161 773.594 924.852 772.79 924.852 771.812C924.852 770.972 925.079 770.247 925.533 769.639C925.994 769.031 926.638 768.562 927.468 768.233C928.303 767.903 929.281 767.739 930.4 767.739C932.053 767.739 933.354 768.088 934.303 768.787C935.258 769.486 935.815 770.437 935.974 771.642ZM944.473 781.256C943.149 781.256 942.004 780.974 941.038 780.412C940.078 779.844 939.337 779.054 938.814 778.043C938.291 777.026 938.03 775.847 938.03 774.506C938.03 773.153 938.291 771.972 938.814 770.96C939.337 769.943 940.078 769.153 941.038 768.591C942.004 768.023 943.149 767.739 944.473 767.739C945.797 767.739 946.939 768.023 947.899 768.591C948.865 769.153 949.609 769.943 950.132 770.96C950.655 771.972 950.916 773.153 950.916 774.506C950.916 775.847 950.655 777.026 950.132 778.043C949.609 779.054 948.865 779.844 947.899 780.412C946.939 780.974 945.797 781.256 944.473 781.256ZM944.49 778.443C945.092 778.443 945.595 778.273 945.999 777.932C946.402 777.585 946.706 777.114 946.911 776.517C947.121 775.92 947.226 775.241 947.226 774.48C947.226 773.719 947.121 773.04 946.911 772.443C946.706 771.847 946.402 771.375 945.999 771.028C945.595 770.682 945.092 770.509 944.49 770.509C943.882 770.509 943.371 770.682 942.956 771.028C942.547 771.375 942.237 771.847 942.027 772.443C941.822 773.04 941.72 773.719 941.72 774.48C941.72 775.241 941.822 775.92 942.027 776.517C942.237 777.114 942.547 777.585 942.956 777.932C943.371 778.273 943.882 778.443 944.49 778.443ZM956.908 773.432V781H953.277V767.909H956.737V770.219H956.891C957.18 769.457 957.666 768.855 958.348 768.412C959.03 767.963 959.857 767.739 960.828 767.739C961.737 767.739 962.53 767.938 963.206 768.335C963.882 768.733 964.408 769.301 964.783 770.04C965.158 770.773 965.345 771.648 965.345 772.665V781H961.714V773.312C961.72 772.511 961.516 771.886 961.101 771.438C960.686 770.983 960.115 770.756 959.388 770.756C958.899 770.756 958.467 770.861 958.092 771.071C957.723 771.281 957.433 771.588 957.223 771.991C957.018 772.389 956.913 772.869 956.908 773.432ZM971.94 781.247C971.104 781.247 970.36 781.102 969.707 780.812C969.053 780.517 968.536 780.082 968.156 779.509C967.781 778.929 967.593 778.207 967.593 777.344C967.593 776.616 967.727 776.006 967.994 775.511C968.261 775.017 968.624 774.619 969.085 774.318C969.545 774.017 970.067 773.79 970.653 773.636C971.244 773.483 971.863 773.375 972.511 773.312C973.272 773.233 973.886 773.159 974.352 773.091C974.817 773.017 975.156 772.909 975.366 772.767C975.576 772.625 975.681 772.415 975.681 772.136V772.085C975.681 771.545 975.511 771.128 975.17 770.832C974.835 770.537 974.357 770.389 973.738 770.389C973.085 770.389 972.565 770.534 972.178 770.824C971.792 771.108 971.536 771.466 971.411 771.898L968.053 771.625C968.224 770.83 968.559 770.142 969.059 769.562C969.559 768.977 970.204 768.528 970.994 768.216C971.789 767.898 972.71 767.739 973.755 767.739C974.482 767.739 975.178 767.824 975.843 767.994C976.513 768.165 977.107 768.429 977.624 768.787C978.147 769.145 978.559 769.605 978.86 770.168C979.161 770.724 979.312 771.392 979.312 772.17V781H975.869V779.185H975.766C975.556 779.594 975.275 779.955 974.923 780.267C974.57 780.574 974.147 780.815 973.653 780.991C973.158 781.162 972.587 781.247 971.94 781.247ZM972.979 778.741C973.513 778.741 973.985 778.636 974.394 778.426C974.803 778.21 975.124 777.92 975.357 777.557C975.59 777.193 975.707 776.781 975.707 776.321V774.932C975.593 775.006 975.437 775.074 975.238 775.136C975.045 775.193 974.826 775.247 974.582 775.298C974.337 775.344 974.093 775.386 973.849 775.426C973.604 775.46 973.383 775.491 973.184 775.52C972.758 775.582 972.386 775.682 972.067 775.818C971.749 775.955 971.502 776.139 971.326 776.372C971.15 776.599 971.062 776.884 971.062 777.224C971.062 777.719 971.241 778.097 971.599 778.358C971.962 778.614 972.423 778.741 972.979 778.741ZM985.759 763.545V781H982.129V763.545H985.759ZM994.222 781V767.909H997.742V770.193H997.879C998.117 769.381 998.518 768.767 999.08 768.352C999.643 767.932 1000.29 767.722 1001.02 767.722C1001.21 767.722 1001.4 767.733 1001.61 767.756C1001.82 767.778 1002.01 767.81 1002.17 767.849V771.071C1002 771.02 1001.76 770.974 1001.46 770.935C1001.16 770.895 1000.88 770.875 1000.63 770.875C1000.1 770.875 999.62 770.991 999.2 771.224C998.785 771.452 998.455 771.77 998.211 772.179C997.972 772.588 997.853 773.06 997.853 773.594V781H994.222ZM1009.4 781.256C1008.05 781.256 1006.89 780.983 1005.92 780.438C1004.96 779.886 1004.21 779.108 1003.69 778.102C1003.17 777.091 1002.9 775.895 1002.9 774.514C1002.9 773.168 1003.17 771.986 1003.69 770.969C1004.21 769.952 1004.95 769.159 1005.9 768.591C1006.85 768.023 1007.97 767.739 1009.25 767.739C1010.12 767.739 1010.92 767.878 1011.67 768.156C1012.42 768.429 1013.07 768.841 1013.63 769.392C1014.19 769.943 1014.63 770.636 1014.94 771.472C1015.25 772.301 1015.41 773.273 1015.41 774.386V775.384H1004.35V773.134H1011.99C1011.99 772.611 1011.88 772.148 1011.65 771.744C1011.42 771.341 1011.11 771.026 1010.7 770.798C1010.31 770.565 1009.84 770.449 1009.31 770.449C1008.76 770.449 1008.27 770.577 1007.85 770.832C1007.43 771.082 1007.1 771.42 1006.86 771.847C1006.62 772.267 1006.5 772.736 1006.49 773.253V775.392C1006.49 776.04 1006.61 776.599 1006.85 777.071C1007.1 777.543 1007.44 777.906 1007.88 778.162C1008.33 778.418 1008.85 778.545 1009.46 778.545C1009.86 778.545 1010.23 778.489 1010.57 778.375C1010.9 778.261 1011.19 778.091 1011.43 777.864C1011.67 777.636 1011.85 777.358 1011.97 777.028L1015.33 777.25C1015.16 778.057 1014.81 778.761 1014.28 779.364C1013.76 779.96 1013.08 780.426 1012.25 780.761C1011.43 781.091 1010.48 781.256 1009.4 781.256ZM1023.69 781.256C1022.35 781.256 1021.2 780.972 1020.23 780.403C1019.27 779.83 1018.53 779.034 1018.02 778.017C1017.5 777 1017.25 775.83 1017.25 774.506C1017.25 773.165 1017.51 771.989 1018.02 770.977C1018.55 769.96 1019.29 769.168 1020.25 768.599C1021.21 768.026 1022.35 767.739 1023.67 767.739C1024.82 767.739 1025.82 767.946 1026.67 768.361C1027.53 768.776 1028.21 769.358 1028.71 770.108C1029.21 770.858 1029.49 771.739 1029.54 772.75H1026.11C1026.02 772.097 1025.76 771.571 1025.35 771.173C1024.94 770.77 1024.4 770.568 1023.73 770.568C1023.17 770.568 1022.68 770.722 1022.26 771.028C1021.85 771.33 1021.52 771.77 1021.29 772.349C1021.06 772.929 1020.94 773.631 1020.94 774.455C1020.94 775.29 1021.05 776 1021.28 776.585C1021.51 777.17 1021.84 777.616 1022.26 777.923C1022.68 778.23 1023.17 778.384 1023.73 778.384C1024.15 778.384 1024.52 778.298 1024.85 778.128C1025.19 777.957 1025.46 777.71 1025.68 777.386C1025.9 777.057 1026.04 776.662 1026.11 776.202H1029.54C1029.48 777.202 1029.21 778.082 1028.72 778.844C1028.24 779.599 1027.57 780.19 1026.72 780.616C1025.87 781.043 1024.86 781.256 1023.69 781.256ZM1037.78 781.256C1036.45 781.256 1035.31 780.974 1034.34 780.412C1033.38 779.844 1032.64 779.054 1032.12 778.043C1031.6 777.026 1031.33 775.847 1031.33 774.506C1031.33 773.153 1031.6 771.972 1032.12 770.96C1032.64 769.943 1033.38 769.153 1034.34 768.591C1035.31 768.023 1036.45 767.739 1037.78 767.739C1039.1 767.739 1040.24 768.023 1041.2 768.591C1042.17 769.153 1042.91 769.943 1043.44 770.96C1043.96 771.972 1044.22 773.153 1044.22 774.506C1044.22 775.847 1043.96 777.026 1043.44 778.043C1042.91 779.054 1042.17 779.844 1041.2 780.412C1040.24 780.974 1039.1 781.256 1037.78 781.256ZM1037.79 778.443C1038.4 778.443 1038.9 778.273 1039.3 777.932C1039.71 777.585 1040.01 777.114 1040.22 776.517C1040.43 775.92 1040.53 775.241 1040.53 774.48C1040.53 773.719 1040.43 773.04 1040.22 772.443C1040.01 771.847 1039.71 771.375 1039.3 771.028C1038.9 770.682 1038.4 770.509 1037.79 770.509C1037.19 770.509 1036.68 770.682 1036.26 771.028C1035.85 771.375 1035.54 771.847 1035.33 772.443C1035.13 773.04 1035.02 773.719 1035.02 774.48C1035.02 775.241 1035.13 775.92 1035.33 776.517C1035.54 777.114 1035.85 777.585 1036.26 777.932C1036.68 778.273 1037.19 778.443 1037.79 778.443ZM1046.58 781V767.909H1050.1V770.193H1050.24C1050.48 769.381 1050.88 768.767 1051.44 768.352C1052 767.932 1052.65 767.722 1053.38 767.722C1053.56 767.722 1053.76 767.733 1053.97 767.756C1054.18 767.778 1054.37 767.81 1054.52 767.849V771.071C1054.35 771.02 1054.12 770.974 1053.82 770.935C1053.52 770.895 1053.24 770.875 1052.99 770.875C1052.46 770.875 1051.98 770.991 1051.56 771.224C1051.14 771.452 1050.81 771.77 1050.57 772.179C1050.33 772.588 1050.21 773.06 1050.21 773.594V781H1046.58ZM1060.62 781.213C1059.62 781.213 1058.72 780.957 1057.91 780.446C1057.11 779.929 1056.48 779.17 1056.01 778.17C1055.54 777.165 1055.31 775.932 1055.31 774.472C1055.31 772.972 1055.55 771.724 1056.03 770.73C1056.51 769.73 1057.16 768.983 1057.96 768.489C1058.76 767.989 1059.65 767.739 1060.61 767.739C1061.34 767.739 1061.95 767.864 1062.44 768.114C1062.93 768.358 1063.33 768.665 1063.63 769.034C1063.94 769.398 1064.17 769.756 1064.33 770.108H1064.44V763.545H1068.07V781H1064.49V778.903H1064.33C1064.16 779.267 1063.92 779.628 1063.61 779.986C1063.3 780.338 1062.9 780.631 1062.41 780.864C1061.92 781.097 1061.32 781.213 1060.62 781.213ZM1061.77 778.324C1062.35 778.324 1062.85 778.165 1063.25 777.847C1063.66 777.523 1063.97 777.071 1064.19 776.491C1064.41 775.912 1064.52 775.233 1064.52 774.455C1064.52 773.676 1064.41 773 1064.2 772.426C1063.98 771.852 1063.67 771.409 1063.26 771.097C1062.85 770.784 1062.35 770.628 1061.77 770.628C1061.17 770.628 1060.67 770.79 1060.26 771.114C1059.85 771.437 1059.54 771.886 1059.33 772.46C1059.12 773.034 1059.01 773.699 1059.01 774.455C1059.01 775.216 1059.12 775.889 1059.33 776.474C1059.55 777.054 1059.86 777.509 1060.26 777.838C1060.67 778.162 1061.17 778.324 1061.77 778.324ZM1078.73 781.222C1078.16 781.222 1077.68 781.023 1077.28 780.625C1076.88 780.222 1076.68 779.739 1076.68 779.176C1076.68 778.619 1076.88 778.142 1077.28 777.744C1077.68 777.347 1078.16 777.148 1078.73 777.148C1079.27 777.148 1079.75 777.347 1080.16 777.744C1080.57 778.142 1080.77 778.619 1080.77 779.176C1080.77 779.551 1080.68 779.895 1080.48 780.207C1080.3 780.514 1080.05 780.761 1079.74 780.949C1079.43 781.131 1079.1 781.222 1078.73 781.222ZM1078.73 772.051C1078.16 772.051 1077.68 771.852 1077.28 771.455C1076.88 771.057 1076.68 770.574 1076.68 770.006C1076.68 769.449 1076.88 768.974 1077.28 768.582C1077.68 768.185 1078.16 767.986 1078.73 767.986C1079.27 767.986 1079.75 768.185 1080.16 768.582C1080.57 768.974 1080.77 769.449 1080.77 770.006C1080.77 770.386 1080.68 770.733 1080.48 771.045C1080.3 771.352 1080.05 771.597 1079.74 771.778C1079.43 771.96 1079.1 772.051 1078.73 772.051ZM953.04 792.545V810H949.41V792.545H953.04ZM961.915 810.256C960.568 810.256 959.409 809.983 958.438 809.438C957.472 808.886 956.727 808.108 956.205 807.102C955.682 806.091 955.42 804.895 955.42 803.514C955.42 802.168 955.682 800.986 956.205 799.969C956.727 798.952 957.463 798.159 958.412 797.591C959.366 797.023 960.486 796.739 961.77 796.739C962.634 796.739 963.438 796.878 964.182 797.156C964.932 797.429 965.585 797.841 966.142 798.392C966.705 798.943 967.142 799.636 967.455 800.472C967.767 801.301 967.923 802.273 967.923 803.386V804.384H956.869V802.134H964.506C964.506 801.611 964.392 801.148 964.165 800.744C963.938 800.341 963.622 800.026 963.219 799.798C962.821 799.565 962.358 799.449 961.83 799.449C961.278 799.449 960.79 799.577 960.364 799.832C959.943 800.082 959.614 800.42 959.375 800.847C959.136 801.267 959.014 801.736 959.009 802.253V804.392C959.009 805.04 959.128 805.599 959.366 806.071C959.611 806.543 959.955 806.906 960.398 807.162C960.841 807.418 961.366 807.545 961.974 807.545C962.378 807.545 962.747 807.489 963.082 807.375C963.418 807.261 963.705 807.091 963.943 806.864C964.182 806.636 964.364 806.358 964.489 806.028L967.847 806.25C967.676 807.057 967.327 807.761 966.798 808.364C966.276 808.96 965.599 809.426 964.77 809.761C963.946 810.091 962.994 810.256 961.915 810.256ZM982.146 796.909L977.569 810H973.478L968.901 796.909H972.737L975.455 806.276H975.592L978.302 796.909H982.146ZM989.548 810.256C988.201 810.256 987.042 809.983 986.07 809.438C985.104 808.886 984.36 808.108 983.837 807.102C983.315 806.091 983.053 804.895 983.053 803.514C983.053 802.168 983.315 800.986 983.837 799.969C984.36 798.952 985.096 798.159 986.045 797.591C986.999 797.023 988.119 796.739 989.403 796.739C990.266 796.739 991.07 796.878 991.815 797.156C992.565 797.429 993.218 797.841 993.775 798.392C994.337 798.943 994.775 799.636 995.087 800.472C995.4 801.301 995.556 802.273 995.556 803.386V804.384H984.502V802.134H992.138C992.138 801.611 992.025 801.148 991.798 800.744C991.57 800.341 991.255 800.026 990.852 799.798C990.454 799.565 989.991 799.449 989.462 799.449C988.911 799.449 988.423 799.577 987.996 799.832C987.576 800.082 987.246 800.42 987.008 800.847C986.769 801.267 986.647 801.736 986.641 802.253V804.392C986.641 805.04 986.761 805.599 986.999 806.071C987.244 806.543 987.587 806.906 988.031 807.162C988.474 807.418 988.999 807.545 989.607 807.545C990.011 807.545 990.38 807.489 990.715 807.375C991.05 807.261 991.337 807.091 991.576 806.864C991.815 806.636 991.996 806.358 992.121 806.028L995.479 806.25C995.309 807.057 994.96 807.761 994.431 808.364C993.908 808.96 993.232 809.426 992.403 809.761C991.579 810.091 990.627 810.256 989.548 810.256ZM1001.56 792.545V810H997.925V792.545H1001.56ZM1016.36 810.239C1015.16 810.239 1014.08 810.017 1013.14 809.574C1012.2 809.131 1011.46 808.52 1010.91 807.741C1010.35 806.963 1010.07 806.071 1010.04 805.065H1013.62C1013.66 805.741 1013.95 806.29 1014.48 806.71C1015 807.131 1015.63 807.341 1016.36 807.341C1016.94 807.341 1017.45 807.213 1017.89 806.957C1018.34 806.696 1018.69 806.335 1018.94 805.875C1019.2 805.409 1019.33 804.875 1019.33 804.273C1019.33 803.659 1019.2 803.119 1018.93 802.653C1018.68 802.187 1018.32 801.824 1017.87 801.562C1017.41 801.301 1016.89 801.168 1016.31 801.162C1015.8 801.162 1015.3 801.267 1014.82 801.477C1014.34 801.687 1013.97 801.974 1013.7 802.338L1010.42 801.75L1011.25 792.545H1021.92V795.562H1014.29L1013.84 799.935H1013.94C1014.25 799.503 1014.71 799.145 1015.33 798.861C1015.95 798.577 1016.64 798.435 1017.41 798.435C1018.46 798.435 1019.4 798.682 1020.22 799.176C1021.04 799.67 1021.7 800.349 1022.17 801.213C1022.65 802.071 1022.89 803.06 1022.88 804.179C1022.89 805.355 1022.61 806.401 1022.06 807.315C1021.52 808.224 1020.75 808.94 1019.77 809.463C1018.79 809.98 1017.66 810.239 1016.36 810.239Z" fill="white"/>
<path d="M783.557 383H779.602L785.628 365.545H790.384L796.401 383H792.446L788.074 369.534H787.938L783.557 383ZM783.31 376.139H792.651V379.02H783.31V376.139ZM798.504 383V369.909H802.134V383H798.504ZM800.327 368.222C799.788 368.222 799.325 368.043 798.938 367.685C798.558 367.321 798.367 366.886 798.367 366.381C798.367 365.881 798.558 365.452 798.938 365.094C799.325 364.73 799.788 364.548 800.327 364.548C800.867 364.548 801.327 364.73 801.708 365.094C802.094 365.452 802.288 365.881 802.288 366.381C802.288 366.886 802.094 367.321 801.708 367.685C801.327 368.043 800.867 368.222 800.327 368.222ZM805.043 383V369.909H808.503V372.219H808.656C808.929 371.452 809.384 370.847 810.02 370.403C810.656 369.96 811.418 369.739 812.304 369.739C813.202 369.739 813.966 369.963 814.597 370.412C815.227 370.855 815.648 371.457 815.858 372.219H815.994C816.261 371.469 816.744 370.869 817.443 370.42C818.148 369.966 818.98 369.739 819.94 369.739C821.162 369.739 822.153 370.128 822.915 370.906C823.682 371.679 824.065 372.776 824.065 374.196V383H820.443V374.912C820.443 374.185 820.25 373.639 819.864 373.276C819.477 372.912 818.994 372.73 818.415 372.73C817.756 372.73 817.241 372.94 816.872 373.361C816.503 373.776 816.318 374.324 816.318 375.006V383H812.798V374.835C812.798 374.193 812.614 373.682 812.244 373.301C811.881 372.92 811.401 372.73 810.804 372.73C810.401 372.73 810.037 372.832 809.713 373.037C809.395 373.236 809.142 373.517 808.955 373.881C808.767 374.239 808.673 374.659 808.673 375.142V383H805.043ZM839.451 369.909V372.636H831.567V369.909H839.451ZM833.357 366.773H836.988V378.977C836.988 379.312 837.039 379.574 837.141 379.761C837.244 379.943 837.386 380.071 837.567 380.145C837.755 380.219 837.971 380.256 838.215 380.256C838.386 380.256 838.556 380.241 838.727 380.213C838.897 380.179 839.028 380.153 839.119 380.136L839.69 382.838C839.508 382.895 839.252 382.96 838.923 383.034C838.593 383.114 838.192 383.162 837.721 383.179C836.846 383.213 836.079 383.097 835.42 382.83C834.766 382.562 834.258 382.148 833.894 381.585C833.531 381.023 833.352 380.312 833.357 379.455V366.773ZM845.728 375.432V383H842.097V365.545H845.626V372.219H845.779C846.075 371.446 846.552 370.841 847.211 370.403C847.87 369.96 848.697 369.739 849.691 369.739C850.6 369.739 851.393 369.938 852.069 370.335C852.751 370.727 853.279 371.293 853.654 372.031C854.035 372.764 854.222 373.642 854.217 374.665V383H850.586V375.312C850.592 374.506 850.387 373.878 849.972 373.429C849.563 372.98 848.989 372.756 848.251 372.756C847.756 372.756 847.319 372.861 846.938 373.071C846.563 373.281 846.268 373.588 846.052 373.991C845.842 374.389 845.734 374.869 845.728 375.432ZM863.04 383.256C861.693 383.256 860.534 382.983 859.562 382.438C858.597 381.886 857.852 381.108 857.33 380.102C856.807 379.091 856.545 377.895 856.545 376.514C856.545 375.168 856.807 373.986 857.33 372.969C857.852 371.952 858.588 371.159 859.537 370.591C860.491 370.023 861.611 369.739 862.895 369.739C863.759 369.739 864.563 369.878 865.307 370.156C866.057 370.429 866.71 370.841 867.267 371.392C867.83 371.943 868.267 372.636 868.58 373.472C868.892 374.301 869.048 375.273 869.048 376.386V377.384H857.994V375.134H865.631C865.631 374.611 865.517 374.148 865.29 373.744C865.063 373.341 864.747 373.026 864.344 372.798C863.946 372.565 863.483 372.449 862.955 372.449C862.403 372.449 861.915 372.577 861.489 372.832C861.068 373.082 860.739 373.42 860.5 373.847C860.261 374.267 860.139 374.736 860.134 375.253V377.392C860.134 378.04 860.253 378.599 860.491 379.071C860.736 379.543 861.08 379.906 861.523 380.162C861.966 380.418 862.491 380.545 863.099 380.545C863.503 380.545 863.872 380.489 864.207 380.375C864.543 380.261 864.83 380.091 865.068 379.864C865.307 379.636 865.489 379.358 865.614 379.028L868.972 379.25C868.801 380.057 868.452 380.761 867.923 381.364C867.401 381.96 866.724 382.426 865.895 382.761C865.071 383.091 864.119 383.256 863.04 383.256ZM876.972 369.909H880.603V383.648C880.603 384.659 880.404 385.477 880.006 386.102C879.609 386.727 879.038 387.185 878.293 387.474C877.555 387.764 876.671 387.909 875.643 387.909C875.518 387.909 875.398 387.906 875.285 387.901C875.165 387.901 875.04 387.898 874.91 387.892V385.054C875.006 385.06 875.092 385.062 875.165 385.062C875.234 385.068 875.308 385.071 875.387 385.071C875.972 385.071 876.381 384.946 876.614 384.696C876.853 384.452 876.972 384.082 876.972 383.588V369.909ZM878.779 368.222C878.245 368.222 877.785 368.043 877.398 367.685C877.012 367.321 876.819 366.886 876.819 366.381C876.819 365.881 877.012 365.452 877.398 365.094C877.785 364.73 878.245 364.548 878.779 364.548C879.325 364.548 879.788 364.73 880.168 365.094C880.555 365.452 880.748 365.881 880.748 366.381C880.748 366.886 880.555 367.321 880.168 367.685C879.788 368.043 879.325 368.222 878.779 368.222ZM891.906 377.426V369.909H895.537V383H892.051V380.622H891.915C891.619 381.389 891.128 382.006 890.44 382.472C889.759 382.937 888.926 383.17 887.943 383.17C887.068 383.17 886.298 382.972 885.634 382.574C884.969 382.176 884.449 381.611 884.074 380.878C883.705 380.145 883.517 379.267 883.511 378.244V369.909H887.142V377.597C887.148 378.369 887.355 378.98 887.764 379.429C888.173 379.878 888.722 380.102 889.409 380.102C889.847 380.102 890.256 380.003 890.636 379.804C891.017 379.599 891.324 379.298 891.557 378.901C891.795 378.503 891.912 378.011 891.906 377.426ZM902.072 375.432V383H898.441V369.909H901.901V372.219H902.055C902.344 371.457 902.83 370.855 903.512 370.412C904.194 369.963 905.021 369.739 905.992 369.739C906.901 369.739 907.694 369.938 908.37 370.335C909.046 370.733 909.572 371.301 909.947 372.04C910.322 372.773 910.509 373.648 910.509 374.665V383H906.879V375.312C906.884 374.511 906.68 373.886 906.265 373.438C905.85 372.983 905.279 372.756 904.552 372.756C904.063 372.756 903.631 372.861 903.256 373.071C902.887 373.281 902.597 373.588 902.387 373.991C902.183 374.389 902.077 374.869 902.072 375.432ZM916.661 379.233L916.669 374.878H917.197L921.391 369.909H925.558L919.925 376.489H919.064L916.661 379.233ZM913.371 383V365.545H917.001V383H913.371ZM921.553 383L917.7 377.298L920.121 374.733L925.805 383H921.553ZM939.934 369.909V372.636H931.854V369.909H939.934ZM933.704 383V368.963C933.704 368.014 933.888 367.227 934.258 366.602C934.633 365.977 935.144 365.509 935.792 365.196C936.44 364.884 937.175 364.727 937.999 364.727C938.556 364.727 939.065 364.77 939.525 364.855C939.991 364.94 940.337 365.017 940.565 365.085L939.917 367.812C939.775 367.767 939.599 367.724 939.388 367.685C939.184 367.645 938.974 367.625 938.758 367.625C938.224 367.625 937.852 367.75 937.641 368C937.431 368.244 937.326 368.588 937.326 369.031V383H933.704ZM947.598 383.256C946.274 383.256 945.129 382.974 944.163 382.412C943.203 381.844 942.462 381.054 941.939 380.043C941.416 379.026 941.155 377.847 941.155 376.506C941.155 375.153 941.416 373.972 941.939 372.96C942.462 371.943 943.203 371.153 944.163 370.591C945.129 370.023 946.274 369.739 947.598 369.739C948.922 369.739 950.064 370.023 951.024 370.591C951.99 371.153 952.734 371.943 953.257 372.96C953.78 373.972 954.041 375.153 954.041 376.506C954.041 377.847 953.78 379.026 953.257 380.043C952.734 381.054 951.99 381.844 951.024 382.412C950.064 382.974 948.922 383.256 947.598 383.256ZM947.615 380.443C948.217 380.443 948.72 380.273 949.124 379.932C949.527 379.585 949.831 379.114 950.036 378.517C950.246 377.92 950.351 377.241 950.351 376.48C950.351 375.719 950.246 375.04 950.036 374.443C949.831 373.847 949.527 373.375 949.124 373.028C948.72 372.682 948.217 372.509 947.615 372.509C947.007 372.509 946.496 372.682 946.081 373.028C945.672 373.375 945.362 373.847 945.152 374.443C944.947 375.04 944.845 375.719 944.845 376.48C944.845 377.241 944.947 377.92 945.152 378.517C945.362 379.114 945.672 379.585 946.081 379.932C946.496 380.273 947.007 380.443 947.615 380.443ZM962.317 383.256C960.993 383.256 959.848 382.974 958.882 382.412C957.922 381.844 957.18 381.054 956.658 380.043C956.135 379.026 955.874 377.847 955.874 376.506C955.874 375.153 956.135 373.972 956.658 372.96C957.18 371.943 957.922 371.153 958.882 370.591C959.848 370.023 960.993 369.739 962.317 369.739C963.641 369.739 964.783 370.023 965.743 370.591C966.709 371.153 967.453 371.943 967.976 372.96C968.499 373.972 968.76 375.153 968.76 376.506C968.76 377.847 968.499 379.026 967.976 380.043C967.453 381.054 966.709 381.844 965.743 382.412C964.783 382.974 963.641 383.256 962.317 383.256ZM962.334 380.443C962.936 380.443 963.439 380.273 963.842 379.932C964.246 379.585 964.55 379.114 964.754 378.517C964.964 377.92 965.07 377.241 965.07 376.48C965.07 375.719 964.964 375.04 964.754 374.443C964.55 373.847 964.246 373.375 963.842 373.028C963.439 372.682 962.936 372.509 962.334 372.509C961.726 372.509 961.214 372.682 960.8 373.028C960.391 373.375 960.081 373.847 959.871 374.443C959.666 375.04 959.564 375.719 959.564 376.48C959.564 377.241 959.666 377.92 959.871 378.517C960.081 379.114 960.391 379.585 960.8 379.932C961.214 380.273 961.726 380.443 962.334 380.443ZM975.945 383.213C974.95 383.213 974.05 382.957 973.243 382.446C972.442 381.929 971.805 381.17 971.334 380.17C970.868 379.165 970.635 377.932 970.635 376.472C970.635 374.972 970.876 373.724 971.359 372.73C971.842 371.73 972.484 370.983 973.286 370.489C974.092 369.989 974.976 369.739 975.936 369.739C976.669 369.739 977.28 369.864 977.768 370.114C978.263 370.358 978.661 370.665 978.962 371.034C979.268 371.398 979.501 371.756 979.661 372.108H979.771V365.545H983.393V383H979.814V380.903H979.661C979.49 381.267 979.249 381.628 978.936 381.986C978.629 382.338 978.229 382.631 977.734 382.864C977.246 383.097 976.649 383.213 975.945 383.213ZM977.095 380.324C977.68 380.324 978.175 380.165 978.578 379.847C978.987 379.523 979.3 379.071 979.516 378.491C979.737 377.912 979.848 377.233 979.848 376.455C979.848 375.676 979.74 375 979.524 374.426C979.308 373.852 978.996 373.409 978.587 373.097C978.178 372.784 977.68 372.628 977.095 372.628C976.499 372.628 975.996 372.79 975.587 373.114C975.178 373.437 974.868 373.886 974.658 374.46C974.447 375.034 974.342 375.699 974.342 376.455C974.342 377.216 974.447 377.889 974.658 378.474C974.874 379.054 975.183 379.509 975.587 379.838C975.996 380.162 976.499 380.324 977.095 380.324ZM998.973 369.909V372.636H990.893V369.909H998.973ZM992.743 383V368.963C992.743 368.014 992.928 367.227 993.297 366.602C993.672 365.977 994.183 365.509 994.831 365.196C995.479 364.884 996.214 364.727 997.038 364.727C997.595 364.727 998.104 364.77 998.564 364.855C999.03 364.94 999.376 365.017 999.604 365.085L998.956 367.812C998.814 367.767 998.638 367.724 998.428 367.685C998.223 367.645 998.013 367.625 997.797 367.625C997.263 367.625 996.891 367.75 996.68 368C996.47 368.244 996.365 368.588 996.365 369.031V383H992.743ZM1006.64 383.256C1005.31 383.256 1004.17 382.974 1003.2 382.412C1002.24 381.844 1001.5 381.054 1000.98 380.043C1000.46 379.026 1000.19 377.847 1000.19 376.506C1000.19 375.153 1000.46 373.972 1000.98 372.96C1001.5 371.943 1002.24 371.153 1003.2 370.591C1004.17 370.023 1005.31 369.739 1006.64 369.739C1007.96 369.739 1009.1 370.023 1010.06 370.591C1011.03 371.153 1011.77 371.943 1012.3 372.96C1012.82 373.972 1013.08 375.153 1013.08 376.506C1013.08 377.847 1012.82 379.026 1012.3 380.043C1011.77 381.054 1011.03 381.844 1010.06 382.412C1009.1 382.974 1007.96 383.256 1006.64 383.256ZM1006.65 380.443C1007.26 380.443 1007.76 380.273 1008.16 379.932C1008.57 379.585 1008.87 379.114 1009.07 378.517C1009.28 377.92 1009.39 377.241 1009.39 376.48C1009.39 375.719 1009.28 375.04 1009.07 374.443C1008.87 373.847 1008.57 373.375 1008.16 373.028C1007.76 372.682 1007.26 372.509 1006.65 372.509C1006.05 372.509 1005.53 372.682 1005.12 373.028C1004.71 373.375 1004.4 373.847 1004.19 374.443C1003.99 375.04 1003.88 375.719 1003.88 376.48C1003.88 377.241 1003.99 377.92 1004.19 378.517C1004.4 379.114 1004.71 379.585 1005.12 379.932C1005.53 380.273 1006.05 380.443 1006.65 380.443ZM1015.44 383V369.909H1018.96V372.193H1019.1C1019.34 371.381 1019.74 370.767 1020.3 370.352C1020.86 369.932 1021.51 369.722 1022.24 369.722C1022.42 369.722 1022.62 369.733 1022.83 369.756C1023.04 369.778 1023.23 369.81 1023.38 369.849V373.071C1023.21 373.02 1022.98 372.974 1022.68 372.935C1022.38 372.895 1022.1 372.875 1021.85 372.875C1021.32 372.875 1020.84 372.991 1020.42 373.224C1020 373.452 1019.67 373.77 1019.43 374.179C1019.19 374.588 1019.07 375.06 1019.07 375.594V383H1015.44ZM1037.78 369.909V372.636H1029.9V369.909H1037.78ZM1031.69 366.773H1035.32V378.977C1035.32 379.312 1035.37 379.574 1035.47 379.761C1035.57 379.943 1035.71 380.071 1035.9 380.145C1036.08 380.219 1036.3 380.256 1036.54 380.256C1036.71 380.256 1036.88 380.241 1037.05 380.213C1037.23 380.179 1037.36 380.153 1037.45 380.136L1038.02 382.838C1037.84 382.895 1037.58 382.96 1037.25 383.034C1036.92 383.114 1036.52 383.162 1036.05 383.179C1035.17 383.213 1034.41 383.097 1033.75 382.83C1033.09 382.562 1032.59 382.148 1032.22 381.585C1031.86 381.023 1031.68 380.312 1031.69 379.455V366.773ZM1044.06 375.432V383H1040.43V365.545H1043.95V372.219H1044.11C1044.4 371.446 1044.88 370.841 1045.54 370.403C1046.2 369.96 1047.02 369.739 1048.02 369.739C1048.93 369.739 1049.72 369.938 1050.4 370.335C1051.08 370.727 1051.61 371.293 1051.98 372.031C1052.36 372.764 1052.55 373.642 1052.54 374.665V383H1048.91V375.312C1048.92 374.506 1048.72 373.878 1048.3 373.429C1047.89 372.98 1047.32 372.756 1046.58 372.756C1046.08 372.756 1045.65 372.861 1045.27 373.071C1044.89 373.281 1044.6 373.588 1044.38 373.991C1044.17 374.389 1044.06 374.869 1044.06 375.432ZM1061.37 383.256C1060.02 383.256 1058.86 382.983 1057.89 382.438C1056.92 381.886 1056.18 381.108 1055.66 380.102C1055.13 379.091 1054.87 377.895 1054.87 376.514C1054.87 375.168 1055.13 373.986 1055.66 372.969C1056.18 371.952 1056.92 371.159 1057.87 370.591C1058.82 370.023 1059.94 369.739 1061.22 369.739C1062.09 369.739 1062.89 369.878 1063.63 370.156C1064.38 370.429 1065.04 370.841 1065.6 371.392C1066.16 371.943 1066.6 372.636 1066.91 373.472C1067.22 374.301 1067.38 375.273 1067.38 376.386V377.384H1056.32V375.134H1063.96C1063.96 374.611 1063.85 374.148 1063.62 373.744C1063.39 373.341 1063.08 373.026 1062.67 372.798C1062.27 372.565 1061.81 372.449 1061.28 372.449C1060.73 372.449 1060.24 372.577 1059.82 372.832C1059.4 373.082 1059.07 373.42 1058.83 373.847C1058.59 374.267 1058.47 374.736 1058.46 375.253V377.392C1058.46 378.04 1058.58 378.599 1058.82 379.071C1059.06 379.543 1059.41 379.906 1059.85 380.162C1060.29 380.418 1060.82 380.545 1061.43 380.545C1061.83 380.545 1062.2 380.489 1062.54 380.375C1062.87 380.261 1063.16 380.091 1063.4 379.864C1063.63 379.636 1063.82 379.358 1063.94 379.028L1067.3 379.25C1067.13 380.057 1066.78 380.761 1066.25 381.364C1065.73 381.96 1065.05 382.426 1064.22 382.761C1063.4 383.091 1062.45 383.256 1061.37 383.256ZM1078.93 365.545V383H1075.3V365.545H1078.93ZM1087.75 383.256C1086.43 383.256 1085.29 382.974 1084.32 382.412C1083.36 381.844 1082.62 381.054 1082.1 380.043C1081.57 379.026 1081.31 377.847 1081.31 376.506C1081.31 375.153 1081.57 373.972 1082.1 372.96C1082.62 371.943 1083.36 371.153 1084.32 370.591C1085.29 370.023 1086.43 369.739 1087.75 369.739C1089.08 369.739 1090.22 370.023 1091.18 370.591C1092.15 371.153 1092.89 371.943 1093.41 372.96C1093.94 373.972 1094.2 375.153 1094.2 376.506C1094.2 377.847 1093.94 379.026 1093.41 380.043C1092.89 381.054 1092.15 381.844 1091.18 382.412C1090.22 382.974 1089.08 383.256 1087.75 383.256ZM1087.77 380.443C1088.37 380.443 1088.88 380.273 1089.28 379.932C1089.68 379.585 1089.99 379.114 1090.19 378.517C1090.4 377.92 1090.51 377.241 1090.51 376.48C1090.51 375.719 1090.4 375.04 1090.19 374.443C1089.99 373.847 1089.68 373.375 1089.28 373.028C1088.88 372.682 1088.37 372.509 1087.77 372.509C1087.16 372.509 1086.65 372.682 1086.24 373.028C1085.83 373.375 1085.52 373.847 1085.31 374.443C1085.1 375.04 1085 375.719 1085 376.48C1085 377.241 1085.1 377.92 1085.31 378.517C1085.52 379.114 1085.83 379.585 1086.24 379.932C1086.65 380.273 1087.16 380.443 1087.77 380.443ZM1108.34 369.909L1103.76 383H1099.67L1095.1 369.909H1098.93L1101.65 379.276H1101.79L1104.5 369.909H1108.34ZM1115.74 383.256C1114.4 383.256 1113.24 382.983 1112.27 382.438C1111.3 381.886 1110.56 381.108 1110.03 380.102C1109.51 379.091 1109.25 377.895 1109.25 376.514C1109.25 375.168 1109.51 373.986 1110.03 372.969C1110.56 371.952 1111.29 371.159 1112.24 370.591C1113.19 370.023 1114.31 369.739 1115.6 369.739C1116.46 369.739 1117.27 369.878 1118.01 370.156C1118.76 370.429 1119.41 370.841 1119.97 371.392C1120.53 371.943 1120.97 372.636 1121.28 373.472C1121.6 374.301 1121.75 375.273 1121.75 376.386V377.384H1110.7V375.134H1118.33C1118.33 374.611 1118.22 374.148 1117.99 373.744C1117.77 373.341 1117.45 373.026 1117.05 372.798C1116.65 372.565 1116.19 372.449 1115.66 372.449C1115.11 372.449 1114.62 372.577 1114.19 372.832C1113.77 373.082 1113.44 373.42 1113.2 373.847C1112.96 374.267 1112.84 374.736 1112.84 375.253V377.392C1112.84 378.04 1112.96 378.599 1113.19 379.071C1113.44 379.543 1113.78 379.906 1114.23 380.162C1114.67 380.418 1115.19 380.545 1115.8 380.545C1116.21 380.545 1116.58 380.489 1116.91 380.375C1117.25 380.261 1117.53 380.091 1117.77 379.864C1118.01 379.636 1118.19 379.358 1118.32 379.028L1121.67 379.25C1121.5 380.057 1121.15 380.761 1120.63 381.364C1120.1 381.96 1119.43 382.426 1118.6 382.761C1117.77 383.091 1116.82 383.256 1115.74 383.256ZM1135.59 383.256C1134.27 383.256 1133.12 382.974 1132.16 382.412C1131.2 381.844 1130.45 381.054 1129.93 380.043C1129.41 379.026 1129.15 377.847 1129.15 376.506C1129.15 375.153 1129.41 373.972 1129.93 372.96C1130.45 371.943 1131.2 371.153 1132.16 370.591C1133.12 370.023 1134.27 369.739 1135.59 369.739C1136.91 369.739 1138.06 370.023 1139.02 370.591C1139.98 371.153 1140.73 371.943 1141.25 372.96C1141.77 373.972 1142.03 375.153 1142.03 376.506C1142.03 377.847 1141.77 379.026 1141.25 380.043C1140.73 381.054 1139.98 381.844 1139.02 382.412C1138.06 382.974 1136.91 383.256 1135.59 383.256ZM1135.61 380.443C1136.21 380.443 1136.71 380.273 1137.12 379.932C1137.52 379.585 1137.82 379.114 1138.03 378.517C1138.24 377.92 1138.34 377.241 1138.34 376.48C1138.34 375.719 1138.24 375.04 1138.03 374.443C1137.82 373.847 1137.52 373.375 1137.12 373.028C1136.71 372.682 1136.21 372.509 1135.61 372.509C1135 372.509 1134.49 372.682 1134.07 373.028C1133.66 373.375 1133.35 373.847 1133.14 374.443C1132.94 375.04 1132.84 375.719 1132.84 376.48C1132.84 377.241 1132.94 377.92 1133.14 378.517C1133.35 379.114 1133.66 379.585 1134.07 379.932C1134.49 380.273 1135 380.443 1135.61 380.443ZM1151.43 369.909V372.636H1143.35V369.909H1151.43ZM1145.2 383V368.963C1145.2 368.014 1145.39 367.227 1145.76 366.602C1146.13 365.977 1146.64 365.509 1147.29 365.196C1147.94 364.884 1148.68 364.727 1149.5 364.727C1150.06 364.727 1150.56 364.77 1151.02 364.855C1151.49 364.94 1151.84 365.017 1152.06 365.085L1151.42 367.812C1151.27 367.767 1151.1 367.724 1150.89 367.685C1150.68 367.645 1150.47 367.625 1150.26 367.625C1149.72 367.625 1149.35 367.75 1149.14 368C1148.93 368.244 1148.83 368.588 1148.83 369.031V383H1145.2ZM1162.84 365.545V383H1159.21V365.545H1162.84ZM1165.75 383V369.909H1169.38V383H1165.75ZM1167.57 368.222C1167.03 368.222 1166.57 368.043 1166.18 367.685C1165.8 367.321 1165.61 366.886 1165.61 366.381C1165.61 365.881 1165.8 365.452 1166.18 365.094C1166.57 364.73 1167.03 364.548 1167.57 364.548C1168.11 364.548 1168.57 364.73 1168.95 365.094C1169.34 365.452 1169.53 365.881 1169.53 366.381C1169.53 366.886 1169.34 367.321 1168.95 367.685C1168.57 368.043 1168.11 368.222 1167.57 368.222ZM1179.32 369.909V372.636H1171.25V369.909H1179.32ZM1173.09 383V368.963C1173.09 368.014 1173.28 367.227 1173.65 366.602C1174.02 365.977 1174.53 365.509 1175.18 365.196C1175.83 364.884 1176.57 364.727 1177.39 364.727C1177.95 364.727 1178.46 364.77 1178.92 364.855C1179.38 364.94 1179.73 365.017 1179.96 365.085L1179.31 367.812C1179.17 367.767 1178.99 367.724 1178.78 367.685C1178.57 367.645 1178.36 367.625 1178.15 367.625C1177.61 367.625 1177.24 367.75 1177.03 368C1176.82 368.244 1176.72 368.588 1176.72 369.031V383H1173.09ZM1187.04 383.256C1185.69 383.256 1184.53 382.983 1183.56 382.438C1182.6 381.886 1181.85 381.108 1181.33 380.102C1180.81 379.091 1180.55 377.895 1180.55 376.514C1180.55 375.168 1180.81 373.986 1181.33 372.969C1181.85 371.952 1182.59 371.159 1183.54 370.591C1184.49 370.023 1185.61 369.739 1186.89 369.739C1187.76 369.739 1188.56 369.878 1189.31 370.156C1190.06 370.429 1190.71 370.841 1191.27 371.392C1191.83 371.943 1192.27 372.636 1192.58 373.472C1192.89 374.301 1193.05 375.273 1193.05 376.386V377.384H1181.99V375.134H1189.63C1189.63 374.611 1189.52 374.148 1189.29 373.744C1189.06 373.341 1188.75 373.026 1188.34 372.798C1187.95 372.565 1187.48 372.449 1186.95 372.449C1186.4 372.449 1185.91 372.577 1185.49 372.832C1185.07 373.082 1184.74 373.42 1184.5 373.847C1184.26 374.267 1184.14 374.736 1184.13 375.253V377.392C1184.13 378.04 1184.25 378.599 1184.49 379.071C1184.74 379.543 1185.08 379.906 1185.52 380.162C1185.97 380.418 1186.49 380.545 1187.1 380.545C1187.5 380.545 1187.87 380.489 1188.21 380.375C1188.54 380.261 1188.83 380.091 1189.07 379.864C1189.31 379.636 1189.49 379.358 1189.61 379.028L1192.97 379.25C1192.8 380.057 1192.45 380.761 1191.92 381.364C1191.4 381.96 1190.72 382.426 1189.89 382.761C1189.07 383.091 1188.12 383.256 1187.04 383.256Z" fill="white"/>
</svg>
