<svg width="486" height="458" viewBox="0 0 486 458" fill="none" xmlns="http://www.w3.org/2000/svg">
<path d="M360.786 140.699C380.773 73.9579 336.629 1.00005 254.263 3.04213C178.246 4.9268 158.448 71.222 151.01 125.48C83.7345 99.1934 7.68068 132.582 3.15041 212.641C-0.998873 285.967 82.017 308.794 123.348 300.185C121.433 353.758 175.73 377.951 199.449 377.278C189.579 406.239 229.765 442.725 265.331 451.295C322.747 465.13 359.727 438.408 372.34 401.181C389.972 420.007 445.418 449.895 470.083 401.181C488.384 365.037 464.762 340.903 443.388 329.325C483.428 297.823 467.446 259.568 452.346 244.845C472.158 231.318 501.904 175.287 465.933 140.699C429.121 105.303 396.448 124.558 360.786 140.699Z" fill="#FFFEE7"/>
<path d="M149.11 140.695C149.639 136.08 150.258 130.965 151.01 125.48M354.567 158.686C357.772 150.834 357.925 150.251 360.786 140.699M360.786 140.699C380.773 73.9579 336.629 1.00005 254.263 3.04213C178.246 4.9268 158.448 71.222 151.01 125.48M360.786 140.699C396.448 124.558 429.121 105.303 465.933 140.699C501.904 175.287 472.158 231.318 452.346 244.845M421.66 253.454C428.578 254.838 443.796 252.071 452.346 244.845M452.346 244.845C467.482 259.602 483.503 298.003 443.105 329.547M430.653 323.705C453.02 331.314 492.219 357.462 470.083 401.181C445.418 449.895 389.972 420.007 372.34 401.181M367.704 394.955C368.605 396.758 370.192 398.888 372.34 401.181M372.34 401.181C359.727 438.408 322.747 465.13 265.331 451.295C229.765 442.725 189.579 406.239 199.449 377.278M207.909 359.292C204.833 364.196 201.814 370.337 199.449 377.278M199.449 377.278C175.73 377.951 121.433 353.758 123.348 300.185M126.276 289.425C124.892 292.192 123.348 295.651 123.348 300.185M123.348 300.185C82.017 308.794 -0.998873 285.967 3.15041 212.641C7.68068 132.582 83.7345 99.1934 151.01 125.48" stroke="black" stroke-width="6" stroke-linecap="round"/>
<path d="M289.543 139.317C287.467 232.704 330.079 229.245 400.915 198.808" stroke="black" stroke-width="6" stroke-linecap="round"/>
<path d="M25.2905 194.657C40.7858 142.638 91.6988 133.783 115.218 135.858C50.1963 172.521 53.6535 209.876 39.1256 208.493C26.4547 207.286 24.5988 199.269 25.2905 194.657Z" fill="#FFE99F"/>
<path d="M236.278 265.908C235.816 257.146 231.297 237.961 216.909 231.321C202.482 224.662 181.824 232.691 172.786 237.2C187.559 254.912 196.259 279.955 199.615 296.345C241.12 281.957 274.554 335.083 286.084 363.445C294.274 339.188 314.51 332.461 334.847 333.207C335.376 308.726 329.184 281.892 309.603 265.908C282.487 243.772 249.421 256.685 236.278 265.908Z" fill="#FE9900" stroke="black" stroke-width="6"/>
<path d="M376.012 343.384C352.031 332.316 300.472 320.833 286.084 363.445C274.555 335.083 241.12 281.957 199.615 296.345C193.62 267.061 170.561 210.153 126.289 216.794C164.566 210.798 254.955 226.478 240.428 137.242" stroke="black" stroke-width="6" stroke-linecap="round"/>
<path d="M292.746 26.363C292.705 26.3706 292.661 26.3774 292.616 26.3835C270.523 29.8733 248.428 43.0248 224.263 73.4022C190.518 115.823 181.605 90.2348 186.216 76.8609C215.111 4.62363 284.375 27.4925 292.616 26.3835C292.66 26.3766 292.703 26.3698 292.746 26.363Z" fill="#FFE99F"/>
<path d="M169.869 295.653C163.644 283.202 147.042 280.435 142.891 281.818C127.673 319.864 167.102 357.911 185.088 359.986C203.074 362.061 212.758 342.692 203.765 339.925C190.476 335.836 176.095 308.105 169.869 295.653Z" fill="#FFE99F"/>
<path d="M176.44 272.83C160.945 236.859 145.542 228.327 139.777 228.558C138.855 236.398 139.224 254.291 148.078 263.145C156.933 272 170.676 273.291 176.44 272.83Z" fill="#FFE99F"/>
<path d="M194.772 196.733C162.122 209.461 136.204 186.818 130.439 174.597C161.43 183.451 197.539 144.851 210.683 126.174C213.45 131.708 235.586 180.823 194.772 196.733Z" fill="#D9D9D9"/>
<path d="M134.214 173.893C170.582 172.427 194.654 155.26 207.788 127.826C207.829 127.74 207.959 127.762 207.978 127.856C220.896 189.733 178.271 202.86 134.164 174.079C134.082 174.026 134.117 173.897 134.214 173.893Z" fill="#CE0000" stroke="black" stroke-width="6"/>
<path d="M175.994 165.096C177.876 161.124 184.821 158.145 188.13 157.126C188.174 157.112 188.218 157.129 188.241 157.169C189.494 159.384 189.923 166.394 187.87 170.726C186.228 174.189 180.8 177.207 178.21 178.322C178.162 178.342 178.111 178.324 178.086 178.279C176.58 175.482 174.115 169.059 175.994 165.096Z" fill="black"/>
<path d="M317.904 203.65C297.982 189.262 310.526 151.538 319.288 134.475C320.441 139.317 325.791 152.461 337.965 166.296C350.14 180.131 375.781 178.056 387.08 175.288C381.546 183.59 342.808 221.636 317.904 203.65Z" fill="#D9D9D9"/>
<path d="M384.543 172.708C338.142 191.302 323.455 142.972 322.152 137.101C322.128 136.99 321.889 137.03 321.853 137.137C292.008 224.128 354.176 203.732 384.669 172.862C384.745 172.785 384.643 172.668 384.543 172.708Z" fill="#CE0000" stroke="black" stroke-width="6"/>
<path d="M329.452 175.824C327.818 171.744 330.351 164.625 331.853 161.504C331.873 161.463 331.915 161.442 331.96 161.452C334.437 162.038 339.87 166.487 341.653 170.937C343.078 174.496 341.603 180.529 340.66 183.186C340.643 183.235 340.595 183.26 340.545 183.248C337.47 182.452 331.083 179.896 329.452 175.824Z" fill="black"/>
<path d="M445.879 367.596C429.968 384.89 414.519 385.351 402.298 387.657C397.871 388.602 388.924 388.973 385.004 389.04C401.606 400.108 438.131 415.603 451.413 389.04C464.694 362.477 454.871 355.144 445.879 367.596Z" fill="#FFE99F"/>
</svg>
