<?xml version="1.0" encoding="UTF-8"?>
<svg id="Saucisson" xmlns="http://www.w3.org/2000/svg" viewBox="0 0 812.78 812.2">
  <defs>
    <style>
      .cls-1 {
        fill: #724c3f;
      }

      .cls-2, .cls-3, .cls-4 {
        fill: #e0dcd5;
      }

      .cls-3, .cls-5, .cls-4, .cls-6, .cls-7 {
        stroke: #000;
        stroke-miterlimit: 10;
      }

      .cls-3, .cls-6 {
        stroke-width: 14px;
      }

      .cls-5 {
        fill: none;
      }

      .cls-5, .cls-4, .cls-7 {
        stroke-width: 15px;
      }

      .cls-5, .cls-7 {
        stroke-linecap: round;
      }

      .cls-8 {
        fill: #dbd1b9;
      }

      .cls-6 {
        fill: #7a323e;
      }

      .cls-7 {
        fill: red;
      }

      .cls-9 {
        fill: #ff0;
      }
    </style>
  </defs>
  <g>
    <path class="cls-3" d="M802.66,676.67c10.12,32.43-7.62,51.54-7.62,51.54,0,0-22.19,34.12-101.11,32.03-67.39-1.78-90.92-29.65-95.32-79.66"/>
    <ellipse class="cls-6" cx="701.38" cy="684.53" rx="48.67" ry="102.75" transform="translate(13.47 1382.59) rotate(-89.72)"/>
    <path class="cls-8" d="M738.36,708.67s-6.51-11.23,8.13-17.02,25.87,3.4,19.4-8.85,21.79,2.27,19.4,11.18-26.12,24.57-46.93,14.69Z"/>
    <path class="cls-8" d="M728.1,656.58s20.09-11.98,27.57-2.25,8.17,13.82-5.79,19.95-25.02,12.6-26.47,7.83-2.4-22.12,4.68-25.53Z"/>
  </g>
  <g>
    <path class="cls-3" d="M711.1,578.5c22.13,25.78,27.26,66.15,27.26,66.15,0,0-2.35,59-75.65,88.31-62.6,25.03-106.24-9.61-130.07-53.8"/>
    <ellipse class="cls-6" cx="623.09" cy="630.75" rx="102.75" ry="85.53" transform="translate(-197.12 294.09) rotate(-23.03)"/>
    <path class="cls-8" d="M667.85,584.24s6.13-16,12.6-9.53,3.06,36.89,13.62,37.68,16.68,6.57,9.19,11.68-21.45,10.21-26.21-1.02-5.79-38.47-9.19-38.81Z"/>
    <path class="cls-8" d="M665.51,648.1s15.28-24.88,19.02-6.24-4.52,21.7,2.68,24.08,15.36-2.58,17.07-6.74-5.38,21.87-42.55,40.44,3.78-51.55,3.78-51.55Z"/>
  </g>
  <g>
    <path class="cls-3" d="M581.15,516.9c33.96,1.07,67.21,24.52,67.21,24.52,0,0,41.96,41.55,14.12,115.42-23.77,63.09-78.78,71.92-127.48,59.68"/>
    <ellipse class="cls-6" cx="560.32" cy="617.11" rx="102.75" ry="85.53" transform="translate(-207.91 940.54) rotate(-70.59)"/>
    <path class="cls-8" d="M562.43,522.96s14.86-2.7,31.54,4.27-9.87,20.58-9.87,20.58c0,0-32,7.11-26.55-5.47s10.44-18.02,4.88-19.38Z"/>
    <path class="cls-8" d="M599.48,575.49s-5.5-21.2,8.45-21.55,30.98,1.79,19.06,24.56,1.57,15.27,4.02,17.32,7.43,7.35,0,10.14-26.15-14.18-29.55-17.63-1.19-8.36-1.99-12.84Z"/>
    <path class="cls-8" d="M621.18,634.15s1.05-17.23,8.2-12.81,7.15,8.24,4.09,14.5-10.71,17.55-11.32,9.39-.96-11.09-.96-11.09Z"/>
  </g>
  <g>
    <path class="cls-3" d="M472.7,550.66c28.68-18.22,69.37-17.53,69.37-17.53,0,0,58.06,10.75,76.6,87.49,15.83,65.53-24.69,103.77-71.83,121.05"/>
    <ellipse class="cls-6" cx="511.84" cy="645.24" rx="85.53" ry="102.75" transform="translate(-148.01 152.37) rotate(-14.82)"/>
    <g>
      <path class="cls-8" d="M525.04,590.74c-6.7-1.82-12.57-6.52-15.81-12.66-.31-.59-.61-1.28-.38-1.9.2-.57.77-.92,1.31-1.18,5.15-2.49,11.56-1.3,16.56-4.09.88-.49,1.75-1.18,1.96-2.16.22-1.04-.35-2.06-.91-2.97-2.84-4.62-5.7-8.91-8.54-13.53,5.87,1.4,7.26,1.87,10.98,3.13s6.78,3.27,10.21,5.17c3.42,1.89,9.22,5.94,12.96,9.06,7.31,6.12,13.12,12.78,14.87,15.57.38.61.35.7-.01,1.31-.39.65-1.21.88-1.96.96-3.25.35-6.44-1.1-9.13-2.94s-5.11-4.11-7.94-5.74-6.3-2.58-9.38-1.49-5.32,4.77-3.99,7.76c-1.97-1.7-5.39-1.33-6.88.8s-.57,5.55,1.82,6.58c-4.24-.27-8.34-2.37-11.05-5.64"/>
      <path class="cls-8" d="M544.55,625.5c-6.3-.89-12.01-5.23-14.56-11.06-.65-1.5-1.11-3.21-.55-4.74,1.17-3.19,5.46-3.42,8.71-4.42,2.82-.87,5.32-2.74,6.94-5.21.27-.4.52-.83.92-1.1,1.1-.74,2.54.1,3.62.86,3.67,2.59,7.74,4.62,12.02,6,1.95.63,3.99,1.15,5.6,2.42,2.93,2.32,3.58,6.79,2.05,10.2s-4.88,5.75-8.46,6.81-7.4.97-11.12.58c-3.83-.4-7.63-1.12-11.34-2.15"/>
      <path class="cls-8" d="M455.69,589.92c-1.15-6.13,1.46-12.61,5.93-16.97s10.56-6.77,16.74-7.68c6.66-.98,14.2,0,18.73,4.98,2.93,3.22,4.16,7.61,5.04,11.87.85,4.09,1.49,8.23,1.89,12.39.41,4.27.53,8.82-1.54,12.57-2.9,5.24-9.27,7.5-15.22,8.14-4.99.54-10.09.25-14.95-1-5.85-1.5-11.75-4.84-13.94-10.47-.92-2.38-1.1-4.97-1.28-7.52-.27-3.97-.54-7.94-.8-11.9-.15-2.22-.28-4.53.6-6.57s3.12-3.68,5.26-3.11"/>
      <path class="cls-8" d="M505.98,623.58c-1.02-4.19-.59-8.72,1.2-12.64,1.14-2.52,3.16-4.99,5.92-5.26,2.41-.24,4.71,1.33,6.01,3.37s1.8,4.47,2.23,6.85c.58,3.24.86,7.11-1.61,9.29-1.68,1.47-4.09,1.64-6.32,1.74-2.61.12-5.69.02-7.19-2.12-.84-1.2-.94-2.75-1.02-4.21-.09-1.78-.12-3.75,1.05-5.1"/>
      <path class="cls-8" d="M526.24,666.85c3.25-7.18,6.52-14.35,9.82-21.52.67-1.46,1.42-3.01,2.8-3.84.96-.58,2.11-.74,3.22-.76,5.44-.13,10.66,2.61,14.55,6.42s6.65,8.61,9.18,13.43c3.7,7.06,7.06,15.48,3.81,22.77-2.24,5.02-7.31,8.35-12.64,9.71-5.33,1.35-10.94.99-16.4.34-6.66-.79-14.11-2.55-17.5-8.34-2.53-4.32-2.03-9.7-1.46-14.68.66-5.77,1.53-11.99,5.58-16.15,3.14-3.23,8.32-5.66,8.17-10.16"/>
      <path class="cls-8" d="M566.54,646.05c-1.8-1.86-3.12-4.18-3.8-6.68-.44-1.61-.55-3.51.53-4.79.6-.71,1.47-1.12,2.35-1.4,3.73-1.21,8.02-.47,11.13,1.91s4.94,6.34,4.74,10.25c-.12,2.45-1.07,4.93-2.94,6.5s-4.76,2.03-6.83.73c-2.91-1.83-3.89-6.54-7.31-6.91"/>
      <path class="cls-8" d="M525.66,716.05c2.32-3.78,7.12-5.09,11.49-5.88s9.14-1.56,12.13-4.84c.55-.6,1.02-1.27,1.67-1.77,2.47-1.9,6.44-.08,7.54,2.84s.05,6.24-1.62,8.88c-4.97,7.84-14.49,11.32-23.47,13.68-3.08.81-6.25,1.55-9.43,1.25s-6.39-1.85-7.93-4.64c-1.99-3.59-.59-8.39,2.47-11.14s7.36-3.71,11.46-3.65c1.6.02,3.48.07,4.46-1.2"/>
    </g>
  </g>
  <path class="cls-2" d="M341.24,457.29s119.69-79.33,129.7-161.44,27.91-80.92-6.57-165.01S324.19,1.46,291.51,7.51c-32.68,6.05-125.55,6.08-179.46,77.3-53.9,71.22,74.06,178.8,102.25,172.75s63.42-13.34,63.42-13.34c0,0-24.49,65.05-74.29,107.92-49.8,42.86-118.82,117.52-129.76,169.3s-11.52,119.23,19.16,176.65,101.25,89.2,132.35,95.52c31.1,6.33,190.42,27.71,272.63-33.28s7.96-146.69,7.96-146.69c0,0-29.74-46.64-113.58-11.84-63,26.15-106.8-7.65-111.9-44.42s35.5-81.27,60.97-100.1Z"/>
  <g>
    <path class="cls-1" d="M330.04,112.31c-10.79-11.41-28.47-14.43-42.59-7.69-3.49,1.67-6.15,4.3-9.35,6.4-2.77,1.82-2.89.45-3.16-2.94-.55-7.08.35-17.91,4.92-23.68s13.54-6.32,20.19-3.79c7.9,2.99,12.9,11.22,21.2,13.09,4.01.91,8.08.16,11.67-1.78s5.98-5.16,9.42-7c6.61-3.54,13.6,1.96,16.23,7.91,2.42,5.47,4.52,17.93-3.37,19.89-8.81,2.19-15.75-6.73-20.21-12.95-2.82,3.67-5.65,7.34-8.47,11.02-2.43-1.59-2.77-3.13-1.03-4.64l.2.02c-.46-.48-1.92-.92-2.55-1.49-2.13-1.93-3.65-4.6-5.43-6.83-4-5.01-8.98-8.28-15.41-9.19-12.43-1.75-26.09,2.69-33.6,12.92l13.98,3.79c.09-3.54,1.74-12.61,6.11-13.41h-3.99c-1.42-2.82-2.06-3.51-1.91-2.06l-.1.64c-.75,1.26-.85,2.91-1.68,4.24-1.59,2.57-3.62,4.15-6.29,5.51,3.67,1.49,7.34,2.99,11.02,4.48-1.02-4.82-1.95-15.59,5.2-16.75s10.9,9.46,13,14.09l11.78-9.09c-3.39-3.18-5.88-6.66-7.9-10.85-2.82,3.67-5.65,7.34-8.47,11.02,12.17,2.82,22.62,8.97,31.01,18.23l5.3-12.8c-3.28-.44-6.65-1.53-9.58-3.03-1.47-.75-2.9-1.58-4.25-2.53-1.09-.76-2.74-3.21-2.84-1.63l-1.02,3.79c-1.12,1.94-3.12,1.24.17,1.45,1.42.09,2.74.26,4.13.54,2.7.55,5.41,1.35,7.91,2.48,5.33,2.41,9.72,6.01,13.5,10.44,2.43-4.18,4.86-8.36,7.3-12.54-1.79-.28-4.07-1.27-5.82-1.27-2.04,0,1.19-1.69-2.07,1.26-1.87.82-2.05,1.46-.55,1.91.74.65,1.43,1.34,2.06,2.09.41.52.71,1.1.9,1.73.74-1.08.69-1.49-.15-1.26l3.79-1.02c.52-.05.09.82-.08,0s-1.42-1.77-1.68-2.75-.46-2.08.41-2.81c.49-.4,2.54,1.06,3.7,1.97.97.76,2.07,1.24,1.74,2.22-.51,1.5-2.43.2-2.82-1.05-.07-.24.68-1.62.49-1.05-.04.1-.11-1.16-.11-.78.02-1,1.81-1.09-.5-.74-3.99.61-6.24,5.65-5.24,9.23,1.2,4.28,5.19,5.86,9.23,5.24,10.05-1.55,14.53-14.11,8.56-21.98-6.24-8.24-19.06-7.61-24.65,1.04s-2.27,19.05,6.33,23.67,20.03.42,23.09-9.25c3.17-10.02-5.09-19.52-14.26-22.67-9.9-3.4-20.12,3.55-21.09,13.93-.83,8.88,5.8,20.67,15.67,20.92,11.57.3,14.98-13.66,9.77-21.89-5.48-8.67-20.25-15.92-26.67-3.99-2.38,4.43-1.57,9.96,1.1,14.05,3.27,5.02,9.27,6.86,14.86,7.73,7.42,1.16,12.39-6.56,7.3-12.54-5.56-6.53-12.66-11.43-20.64-14.54-6.65-2.59-16.76-5.38-23.58-2.06-9.78,4.75-6.05,15.03.66,20.46,7.31,5.92,15.68,9,24.92,10.24,6.97.93,9.17-8.53,5.3-12.8-9.98-11.02-23.14-18.73-37.63-22.09-6.67-1.54-11.3,5.13-8.47,11.02,2.52,5.24,6.01,9.91,10.24,13.88,6.5,6.1,15.21-1.53,11.78-9.09-5.44-12-16.17-25.54-31.22-20.61-14.82,4.86-17.2,21.57-14.4,34.82,1.05,5,6.97,6.55,11.02,4.48,6.52-3.32,11.57-9.03,14.02-15.93,2.17-6.1,2.36-14.23-3.67-18.24-6.52-4.33-13.48-.13-17.68,5.19-4.82,6.1-7.2,13.36-7.4,21.11s9.88,9.36,13.98,3.79c3.64-4.96,13.52-6.96,19.23-5.6,3.68.87,5.51,4.07,7.64,6.9,2.4,3.18,4.9,6.13,8.35,8.21,6.52,3.93,16.35,3.17,20.57-3.78s.83-16.07-6.95-18.57c-5.92-1.9-12.31,5.66-8.47,11.02,6.37,8.89,14.19,18.17,25.59,20.15s22.46-2.86,26.36-14c7.2-20.54-9.22-50.25-33.49-43.88-5.21,1.37-8.62,4.64-12.77,7.79-1.15.87-2.08,1.78-3.52,1.53-2.29-.4-4.94-3.85-6.71-5.24-8.82-6.94-19.68-10.93-30.96-9.13-11.45,1.83-20.05,9.81-23.67,20.67-1.72,5.16-2.21,10.73-2.63,16.13-.46,6.01-.69,12.48,2.57,17.83s8.74,8.47,14.89,7.81,9.85-5.18,14.93-8.19c8.64-5.13,20.01-3.08,26.79,4.09s17.24-3.59,10.61-10.61h0Z"/>
    <path class="cls-1" d="M238.98,240.11c14.34,11.12,32.23,3.42,40.77-10.93,4.39-7.38,7.54-16.41,9.02-24.84.75-4.29,1-8.52.36-12.84-.69-4.63-2.93-8.53-4.09-12.99-1.82-7.03,6.83-10.08,12.54-10.94,6.69-1.01,9.98,3.15,10.43,9.45.55,7.63-4.2,13.66-6.33,20.67-2.34,7.71-1.37,16.55,4.78,22.22l-1.17-9.09c-3.55,5.44-11.72,6.42-17.49,8.01-8.01,2.2-15.78,5.22-21.1,11.89-2.87,3.6-4.5,4.7-9.25,4.2s-9.77-1.99-14.76-2c-10.3-.01-19.01,5.21-25.09,13.25-4.56,6.04,4.28,14.25,10.26,10.26,5.34-3.56,8.81-8.49,13.43-12.8,5.47-5.12,11-1.1,17.73-1.52,7.17-.44,14.09-3.45,19.17-8.56,2.58-2.58,4.49-5.59,5.93-8.92.66-1.53,1.15-3.26,2.02-4.68,1.55-2.54,1.11-.57-.89-2.29,2.96,2.56,7.71,3.17,10.61,0,5.19-5.67,7.22-12.89,6.7-20.51-.27-4.01-1.12-7.94-2-11.85-.46-2.07-1.01-4.15-1.29-6.25-.15-1.13-.23-2.26-.25-3.4.36-2.26.08-2.41-.82-.43l-3.79,1.02c-2.06-1.79-2.75-2.12-2.06-1.01.36.6.59,1.26.68,1.97.39,1.31.68,2.68.91,4.02.49,2.86.59,5.79.47,8.69-.24,5.85-1.88,11.57-4.55,16.76,4.66,1.26,9.32,2.52,13.98,3.79-.29-8.25.89-16.41,4.15-24.04h-12.95c4.49,7.57,2.28,18.05-5.27,22.81-8.14,5.14-.63,18.12,7.57,12.95,14.37-9.06,19.39-28.62,10.66-43.33-2.59-4.37-10.66-5.39-12.95,0-4.31,10.13-6.58,20.56-6.19,31.61.25,7.04,10.42,10.72,13.98,3.79,4.52-8.8,7.01-18.52,6.59-28.46-.35-8.36-1.98-21.78-11.75-24.34-4.74-1.24-9.54,1.4-11.82,5.5s-1.96,9.62-1.29,14.3c1.03,7.24,6.57,19.4.7,25.82h10.61c-6.88-5.95-16.44-3.85-21.47,3.43-4.58,6.63-5.1,14.96-14.57,16.51-4.01.66-7.94-.96-11.93-1.2s-8.35.79-11.91,2.99c-6.23,3.85-9.7,10.69-15.7,14.69l10.26,10.26c5.89-7.79,14.94-5.5,23.15-4.3,4.92.72,9.84,1.01,14.55-.85,5.02-1.97,7.25-5.71,10.83-9.38,4.86-5,12.91-5.84,19.3-7.71,8.04-2.36,15.15-5.91,19.85-13.1,1.74-2.67,1.17-6.93-1.17-9.09-5.22-4.8,2.74-15.34,4.36-20.37,2.02-6.27,2.25-13.66.26-19.98-2.2-6.98-7.07-13.03-14.18-15.39-8.06-2.68-17.16-.43-24.55,3.25-6.82,3.4-12.58,9.39-13.31,17.25-.87,9.33,5.96,16.85,4.65,26.29-1.05,7.54-4.09,16.18-8.3,22.54-2.95,4.46-10.77,10.99-16.41,6.61-3.22-2.5-7.45-3.08-10.61,0-2.62,2.56-3.2,8.13,0,10.61h0Z"/>
    <path class="cls-1" d="M246.97,153.26c-1.27.26-2.7.42-3.93-.07-.02,0-1.94-.65-.99-.98.2-.07-.55,1.46-.67,1.23.08.14,2.44.52,2.98.79,1.04.54,1.84,1.29,2.51,2.24.3.43.52,1.07.76,1.47.19.34.27.69.26,1.06-.04,1.32.83.42,2.6-2.71-.16-.57,1.25.84-.05-.23-.27-.22-.89-.32-1.32-.55.14.07-2.11-1.03-1.78-1.23l.46.82c.3,3.88-2.62,3.84-8.75-.13l1.02-3.79-.32.67c-1.77,3.64-.99,8.11,2.69,10.26,3.29,1.93,8.48.97,10.26-2.69,2.78-5.72.53-12.64-5.87-14.7-5.77-1.85-11.65,1.53-13.39,7.28-3.37,11.13,10.27,21.43,20.62,18.82,13.12-3.3,9.42-20.18,1.52-26.92-8.17-6.97-24.25-8.33-27.87,4.3-1.63,5.67.28,12.1,4.78,15.92,5.21,4.41,12.03,4.93,18.46,3.59,3.97-.82,6.26-5.5,5.24-9.23-1.13-4.12-5.25-6.06-9.23-5.24h0Z"/>
    <path class="cls-1" d="M238.66,105.4l-.77,1.53c-.55.86-.84,1.79-.89,2.79-.22,1-.18,1.99.13,2.99.23.98.68,1.83,1.34,2.55.53.82,1.23,1.46,2.1,1.93l1.79.76c1.33.36,2.66.36,3.99,0l1.79-.76c1.13-.67,2.02-1.56,2.69-2.69l.77-1.53c.55-.86.84-1.79.89-2.79.22-1,.18-1.99-.13-2.99-.23-.98-.68-1.83-1.34-2.55-.53-.82-1.23-1.46-2.1-1.93l-1.79-.76c-1.33-.36-2.66-.36-3.99,0l-1.79.76c-1.13.67-2.02,1.56-2.69,2.69h0Z"/>
    <path class="cls-1" d="M143.25,70.53c4.05-2.41,11.58-7.38,14.92-1.81,3.22,5.38,3.95,11.52,8.58,16.18,8.32,8.38,22.94,9.92,32.69,3.16,5.35-3.71,8.42-9.26,10.72-15.21,2.09-5.42,3.06-12.02,7.16-16.4,5.24-5.61,11.25-3.39,17.91-3.9s11.88-4.87,14.7-11.02,4.28-11.83,10.91-15.33c7.64-4.02,16.89-3.53,25.26-3.4V7.81c-15.3,1.97-31.43,2.73-46.43,6.41-12.69,3.12-24.49,12.52-24.32,26.6.11,9.66,14.82,9.66,15,0,.03-1.41-.08-3.04.56-4.35.17-.34,1.02-1.72,1.05-1.56-2.48-.99-2.56-2.12-.24-3.39.38-1.07,1.02-1.68,1.92-1.83-.04-.25-1.52-1.03-1.86-1.26-5.02-3.35-10.04-6.72-16.4-4.99-12.96,3.52-27.23,20.23-17.78,33.37,4.95,6.88,15.41,2.82,13.71-5.78-.46-2.32.03-4.89,1.55-6.76-4.18-2.43-8.36-4.86-12.54-7.3-1.09,3.99-2.33,7.96-3.96,11.77-.94,2.2-2.01,4.36-3.15,6.46-.48.91-.98,1.8-1.52,2.68,1.09-.64,1.11-.88.05-.71-7.7.68-14.49,3.94-17.84,11.35l11.78-1.52c-4.54-4.12-4.33-11.86-7.84-16.89-4.11-5.9-11.55-10.28-18.75-7.33-7.78,3.19-6.78,13.97,1.99,14.73,4.74.41,10.38.8,14.35,3.74,1.71,1.27,4.43,5.31,3,7.13l11.78,1.52c-4.29-6.01-5.95-13.31-3.55-20.46.17-.57.37-1.13.6-1.67,1.24-1.38.83-1.91-1.21-1.6.31.89,1.24,1.36,1.53,2.58.72,3-.55,5.62-2.7,7.62l11.78,1.52c-5.29-9.23,1.32-19.37,11.7-19.03,9.66.32,9.64-14.68,0-15-21.88-.72-35.41,22.83-24.65,41.6,2.48,4.32,8.28,4.75,11.78,1.52,6-5.55,8.64-14.25,6.56-22.21-2.14-8.2-10.19-15.57-19.08-12.91-8.45,2.53-11.53,13.67-12.25,21.42-.79,8.48,1.6,17.28,6.54,24.2,2.48,3.47,8.53,5.66,11.78,1.52,6.19-7.89,5.78-18.01-.55-25.81-6.64-8.19-17.54-9.81-27.41-10.67l1.99,14.73c2.42-.99.18-.68.69-.37.81.5,1.42,1.21,1.94,2,1.16,1.79,1.57,4.06,2.21,6.07,1.5,4.76,3.4,9.25,7.16,12.66,3.23,2.93,9.68,3.13,11.78-1.52,1.68-3.73,3.44-3.66,7.17-3.98,4.44-.39,7.74-2.5,10.25-6.14,5.04-7.3,8.21-16.51,10.51-25,1.84-6.76-7.62-13.37-12.54-7.3s-7,13.28-5.4,21.35c4.57-1.93,9.14-3.85,13.71-5.78-2.56-3.56,1.57-6.68,4.39-8.64,3.92-2.74,3.75-3.02,7.38-.54,6.66,4.56,16.12,7.63,21.16-1.2,5.03-8.81-2.6-19.21-12.14-18.88-11.06.38-15.8,11.26-15.98,20.85h15c-.12-9.87,12.41-12.28,19.94-13.39,11.9-1.74,23.88-3.09,35.81-4.63,9.28-1.2,9.96-14.84,0-15-14.69-.24-31.44.58-41.88,12.51-2.33,2.66-3.98,5.48-5.34,8.72-.9,2.16-1.56,6.06-3.33,7.74s-4.67.63-6.99.51c-3.71-.2-7.52.35-11,1.64-6.57,2.43-12.06,7.02-15.44,13.19-3.17,5.79-4.22,12.38-7.08,18.27-2.23,4.6-5.82,7.48-11.12,6.89s-7.77-3.85-9.52-8.44c-2.82-7.38-6.32-14.61-14.6-16.93s-16.99,1.43-24.12,5.67c-8.29,4.93-.75,17.91,7.57,12.95h0Z"/>
    <path class="cls-1" d="M355.57,33.7c6.98,4.17,22.71,13.41,16,23.72-3.24,4.98-8.27,8.13-10.72,13.77s-2.48,11.51,1.05,16.48c7.23,10.21,22.62,6.62,33.08,5.8,3.79-.3,7.57-.64,11.36-.89,1.35-.09,4.89-.82,6.09.11s.48,4.37.47,5.74c-.02,3.04.19,6.05,1.14,8.95,4.18-2.43,8.36-4.86,12.54-7.3-3.93-4.97-7.85-9.94-11.78-14.9-3.41-4.31-6.65-8.92-10.83-12.54-3.74-3.23-8.02-5.83-12.98-6.47-2.62-.34-5.16-.11-7.7.63-1.1.32-2.16.77-3.25,1.13l-1.32.43c-2.54.36-1.79,1.12,2.25,2.27l-1.17,9.09c5.05-4.75,10.88-8.04,17.53-9.97l-9.23-5.24c.61,2.08.44,3.17-.3,5.19,4.18-1.1,8.36-2.21,12.54-3.31-2.72-2.38-4.84-5.71-4.28-9.51-1.75,1.75-3.49,3.49-5.24,5.24,4.54-.77,8.29,5.99,10.15,9.09,2.91,4.87,5.74,9.77,10.03,13.57,7.24,6.42,17.02-3.36,10.61-10.61-3.4-3.84-6.8-7.68-10.2-11.52l-9.09,11.78c6.88,4.22,11.77,10.81,13.65,18.68,1.06,4.44,1.06,8.82,4.71,12.11s7.77,3.08,12.14,3.12c7.22.07,11.65,11.19,14.91,16.31,5.9,9.28,11.81,18.55,17.71,27.83,5.21,8.19,17.27,1.04,12.95-7.57-12.72-25.35-26.92-51.72-52.28-66.44-8.36-4.86-15.93,8.1-7.57,12.95,22.99,13.35,35.4,38.14,46.9,61.06l12.95-7.57c-6.08-9.55-12.15-19.1-18.23-28.64-4.95-7.78-9.75-17.37-18.63-21.28-1.97-.87-3.9-1.36-6.06-1.55-.44-.04-5.78-.5-6.02-.05l1.94,1.45c-.11-.92-.24-1.83-.38-2.74-.16-1-.34-1.99-.58-2.98-.57-2.36-1.41-4.61-2.36-6.84-3.73-8.73-10.11-15.85-18.19-20.8-7.53-4.62-14.57,5.59-9.09,11.78,3.4,3.84,6.8,7.68,10.2,11.52l10.61-10.61c-5.71-5.07-8.12-12.65-13.15-18.33-5.66-6.4-13.12-9.64-21.63-8.19-2.27.39-4.9,2.93-5.24,5.24-1.33,9.07,1.06,17.92,8.14,24.1,4.45,3.89,10.53,2.14,12.54-3.31,1.59-4.31,1.6-8.77.3-13.16-1.14-3.84-5.26-6.39-9.23-5.24-9.13,2.65-17.23,7.32-24.15,13.83-2.17,2.05-3.11,6.54-1.17,9.09,3.45,4.54,7.73,6.22,13.41,4.96,4.64-1.02,7.25-3.52,11.53-.24s7.38,7.98,10.65,12.11c4.12,5.22,8.24,10.43,12.37,15.65,4.71,5.96,14.75-.5,12.54-7.3-1.81-5.54.38-11.47-2.31-16.98-2.96-6.05-8.98-8.68-15.46-8.97-7.06-.32-14.4.91-21.44,1.46-2.09.16-14.16,2.23-15.19.17-1.44-2.87,7.19-9.84,8.7-11.79,4.2-5.41,5.86-11.71,4.77-18.5-2.16-13.51-13.5-21.52-24.44-28.05-8.31-4.96-15.86,8-7.57,12.95h0Z"/>
    <path class="cls-1" d="M375.26,208.87c6.57-10.86,6.51-23,5.81-35.25-.23-4.04-.94-8.39,3.44-9.9,5.81-2,12.89-1.66,18.75-.2s11.16,5.22,17.21,6.28,13.27-.85,16.8-6.44c1.59-2.51,2.07-5.36,2.21-8.28l-.03-1.75c.14-1.86.11-2.31-.1-1.35l-1.89.95c-2.28.46-2.51,1.03-.71,1.72,1.38,1.77,3.67,3.07,5.16,4.87,1.8,2.18,3.26,4.68,4.47,7.23,4.59,9.67,5.19,20.84,4.26,31.34-.53,5.94-1.79,11.82-3.53,17.52s-3.84,13.71-8.3,17.77c-3.59,3.26-9.84,2.91-14.34,3.16-5.37.29-10.96.51-16.24-.7-4.69-1.07-8.21-3.05-11.39-6.69-3.62-4.14-7.19-8.28-12.84-9.4-6.96-1.38-10.93,4.05-17.31,4.61l-1.6.02c-2.28-.43-1.6.73,2.02,3.48.74-.62.99-5,1.27-6.06.86-3.28,1.93-6.52,3.35-9.6.26-.57,1.46-2.34,1.55-3.1,1.01-1.21.84-1.46-.51-.75.59.05,1.11.27,1.54.67.81,1.58,1.87,2.35.56,4.11-.17.23-1.74,1.19-1.74,1.17,1.29,3.05,2.17,3.79,2.64,2.24.24-.62.54-1.22.91-1.78.38-.6,1.65-1.53,1.87-2.04.22-.07.43-.04.63.08-2.39-2.2-2.16-3.93.68-5.18l7.23,5.51c-3.72-10.23-2.23-21.7,5.06-30.04h-10.61c7.74,9.79,8.44,24.11,2.54,34.9h12.95c-3.6-7.34-5.54-15.39-5.68-23.56-.06-3.79.18-7.57.9-11.29.43-2.18.97-4.35,1.64-6.47.33-1.06.69-2.12,1.08-3.16.25-.69.4-.73.43-.14l-3.79,1.02c-1.8.15-1.63-1.6-.88,1.21.59,2.2.92,4.54,1.18,6.8.47,4.13.58,8.31.4,12.46-.39,8.89-2.52,17.49-5.8,25.74,3.67-1.49,7.34-2.99,11.02-4.48-5.65-3.52-4.96-14.1-4.91-19.77.05-4.9.41-9.86,1.43-14.66.6-2.8.41-4.04,3.06-2.2s3.43,6.65,4.08,9.56c.95,4.25,1.34,8.54,1.33,12.89s-.43,8.64-1.38,12.89c-.55,2.44-1.35,9.08-3.74,10.27l3.79-1.02c3.96-.47,2.31,2.67,1.75-.22-.16-.83-.95-1.99-1.26-2.74-.74-1.78-1.34-3.63-1.89-5.47-1.14-3.85-1.98-7.8-2.3-11.81-.66-8.2.23-16.32,2.79-24.14.65-2,1.68-3.9,2.32-5.88.05-.16.83-1.36.75-1.47-.22-.32-1.4-.29-1.47.3-.02.18,1.87,2.02,2.14,2.43,1.21,1.84,1.88,4.05,2.55,6.12,2.57,7.98,3.42,16.25,2.66,24.59-.35,3.8-1.17,7.55-2.27,11.2-.56,1.86-1.14,3.78-1.94,5.56-.14.3-2.74,4.27-2.77,4.19.81,2.74,1.81.6,1.83.58,0,0-.58-1.4-.6-1.53-.41-2.15-1.05-4.26-1.45-6.42-.77-4.25-1.08-8.57-1.1-12.88-.04-8.77,1.36-17.37,4.14-25.69.84-2.52,2.17-6.05,3.75-7.47-.66.6-1.31-.78-.83.41.31.77,1.08,1.55,1.53,2.31,1.12,1.91,2.14,3.9,2.96,5.95,3.15,7.88,4.25,16.44,3.49,24.88-.38,4.26-1.39,8.46-2.78,12.51-.97,2.83-3.06,9.51-5.78,10.87l3.79-1.02c1.93-.16,1.58,2.02,1.68-.32.05-1.08-.43-2.67-.54-3.71-.27-2.55-.39-5.12-.42-7.69-.05-5.33.38-10.64,1.43-15.86s2.57-10.48,4.65-15.43c.97-2.32,2.05-4.64,3.32-6.82.2-.35,1.43-1.83,1.41-2.09.62-.52.21-.64-1.25-.36-1.66-.54-1.96-.19-.87,1.05.13,1.92,1.55,4.2,2.09,6.1.64,2.27,1.18,4.59,1.55,6.92.75,4.78.77,9.72.36,14.53-.86,10.04-4.61,19.53-10.25,27.82l13.71,1.79c-2.06-10.36-2.48-21.05-1.16-31.54.64-5.1,1.77-10.16,3.22-15.08.6-2.03,1.4-3.94,2.14-5.9.18-.47.68-.84.85-1.27.13-.32-.93-.29-.79.04,6.86,15.69.57,35.15-9.16,48.32,4.57.6,9.14,1.19,13.71,1.79-1.5-10.23-2.21-20.59-2.22-30.93-.01-8.65-.71-19.27,3.06-27.33.27-.57,1.3-1.71,1.3-2.29,0-.91-3.27-1.68-3.5-1.32s1.37,4.29,1.52,4.92c1.03,4.27,1.45,8.59,1.41,12.98-.09,9.12-2.48,17.94-6.84,25.93,4.66,1.26,9.32,2.52,13.98,3.79.58-14.29,1.16-28.59,1.73-42.88l-5.51,7.23.99-.33h-3.99c-2.33-.84-2.47-2.89-1.4.83.42,1.45.83,2.9,1.2,4.37.64,2.55,1.23,5.12,1.5,7.74.5,4.87.21,10.12-2.74,14.22-2.07,2.88-5.8,5.8-9.56,4.79s-5.87-4.85-7.24-8.01c-4.23-9.71-4.41-20.23-11.07-28.96-2.94-3.85-6.5-7.13-10.62-9.69-2.18-1.36-4.56-2.44-6.96-3.35-.9-.34-1.81-.66-2.74-.93-.69-.2-1.4-.38-2.11-.51-2.52-.69-1.65.87,2.6,4.68l-1.02,3.79-3.41,2.06-3.79-1.02c-.87-2.51-1.42-2.57-1.63-.17-2.61,9.31,11.86,13.28,14.46,3.99,2.04-7.28.1-17.15-9.04-17.8-6.73-.48-12.43,6.1-10.14,12.77,2.34,6.83,10.84,6.1,16.21,9.44,5.46,3.4,8.69,8.6,10.51,14.65,3.81,12.7,6.38,28.05,20.71,33.1,13.73,4.84,27.47-6.11,31.35-18.93,2.54-8.38,1.29-17.53-.81-25.85-1.82-7.23-5.35-18.61-15.25-15.34-3.27,1.08-5.37,3.79-5.51,7.23-.58,14.29-1.16,28.59-1.73,42.88-.3,7.42,10.46,10.23,13.98,3.79,6.4-11.74,9.68-25.15,8.74-38.54-.69-9.79-4.15-31.79-19.12-26.45-12.12,4.32-13.69,22.17-14.24,32.87-.8,15.6.22,31.14,2.48,46.58,1.05,7.15,10.39,6.28,13.71,1.79,8.28-11.22,12.95-24.7,13.78-38.6.64-10.77-.75-28.68-13.81-31.88-15.46-3.78-20.4,15.51-22.62,26.6-3.04,15.19-2.89,30.56.13,45.73,1.35,6.81,10.37,6.7,13.71,1.79,13.34-19.62,17.58-48.89,6.25-70.52-2.73-5.22-7.91-9.09-14.06-7.84s-10.02,6.83-12.7,12.27c-5.66,11.48-8.94,23.88-9.72,36.65-.58,9.63-1.52,29.65,11.01,32.53s19.18-17.48,21.3-26.68c2.74-11.91,2.44-24.76-1.38-36.41-3.27-9.99-10.37-26.03-23.72-21.88-11.65,3.62-15.11,20.19-16.86,30.54-2.2,12.99-2.41,27.48,1.6,40.17,1.68,5.34,4.95,10.35,10.79,11.66,6.62,1.48,12.51-2.6,16.14-7.83,6.86-9.88,8.92-24.48,8.51-36.23s-2.81-26.24-11.23-34.68c-3.87-3.88-9.48-6.27-14.92-4.58-6.5,2.02-9.15,8.7-11.37,14.49-4.63,12.11-5.62,25.41-3.59,38.17,1.43,9.01,5.99,30.74,18.85,28.18,7.29-1.45,10.1-8.65,12.07-15.01,2.26-7.33,3.36-15.21,3.27-22.88-.14-12.61-2.64-31.7-16.67-36.38-5.85-1.95-12.64-.92-16.98,3.7-5.18,5.51-5.53,15.25-6.04,22.39-.95,13.29-.51,30.45,12.11,38.31,4.49,2.8,9.3-.17,11.02-4.48,4.86-12.18,7.09-25.53,6.25-38.64-.62-9.57-2.18-27.35-15.6-26.56-12.54.73-14.58,20.65-15.16,30.03-.77,12.53,2.11,24.92,7.62,36.14,2.48,5.06,10.37,4.72,12.95,0,9.41-17.23,7.17-37.82-4.89-53.08-2.4-3.04-8.17-2.79-10.61,0-10.66,12.19-14.51,29.23-8.91,44.63,1.24,3.42,3.69,5.14,7.23,5.51,9.28.96,15.5-10.25,11.21-18.06-4.56-8.29-15.93-8.53-22.61-2.95-6.55,5.47-11.59,17.18-4.43,24.14s18.67,2.81,23.49-4.65c5.18-8.02,3.05-18.55-4.52-24.2-7.93-5.91-17.84-4.02-22.68,4.61-4.3,7.68-8.73,18.61-8.13,27.58.78,11.75,15.55,11.55,23.6,8.2,2.83-1.18,4.68-3.81,6.79-1.67,3.09,3.13,5.55,6.51,9.14,9.14,7.07,5.16,16.04,6.71,24.61,6.93,8.52.22,18.49.15,26.38-3.31,9.12-3.99,13.09-13.21,16.48-21.96,6.76-17.43,9.19-37.88,4.31-56.12-2.21-8.25-6.11-16.13-11.92-22.44-5.45-5.91-15.47-13.35-22.94-6.24-1.78,1.69-3.01,3.84-3.65,6.21-.51,1.87.26,5.69-.53,7.23.24-.47,1-.3.01.03s-2.47-.3-3.44-.64c-2.76-.98-5.34-2.5-8.07-3.57-9.99-3.91-22.13-4.78-32.47-1.64-10.43,3.17-14.75,11.81-14.55,22.25s1.95,20.5-3.67,29.8c-5.01,8.28,7.96,15.83,12.95,7.57h0Z"/>
    <path class="cls-1" d="M291.41,245.92c4.42,1.38,12.54,3.5,13.81,8.79.74,3.05-.48,6.54-.3,9.68.25,4.43,1.96,8.48,5.32,11.42,5.75,5.04,13.34,4.48,20.42,3.92,1.58-.12,5.93-1.08,7,.67,1.16,1.91-1.46,5.49-2.54,6.77-4.51,5.34-12.54,7.92-19.35,7.04-7.84-1.01-14.49-6.17-22.25-7.63-4.49-.85-9.13-.85-13.48.67-1.55.54-3,1.33-4.41,2.15-2.39,1.4-1.43,1.19-3.86.84-3.98-.57-7.39-2.04-11.55-1.89-4.69.17-8.9,1.48-13.13,3.4l7.57,12.95c6.22-2.98,11.38-7.51,15.37-13.11,1.93-2.71,3.34-5.64,4.55-8.74.83-2.12,1.43-5.9,3.49-7.21-3.76-2.16-7.52-4.32-11.29-6.48-.19,5.3-.98,10.36-2.37,15.47l14.73,1.99c-1.35-10.23.2-20.07,5.23-29.13h-12.95c4.92,8.32,4.02,17.97-1.6,25.68,4.66,1.26,9.32,2.52,13.98,3.79-.48-5.85-.5-11.76.41-17.57.41-2.64,1.01-5.26,1.71-7.84.35-1.29.92-5.29,2.27-5.97l-3.79,1.02c-2.38.24-3.53-3.49-2.23.87.32,1.07.6,2.15.8,3.25.48,2.61.56,5.36.3,8.01-.24,2.42-1.07,9.65-3.99,10.38l9.23,5.24c-1.12-4.52-1.25-9.11-.15-13.65.52-2.14,1.21-4.22,2.2-6.18.46-.92.98-1.82,1.53-2.69.37-.61.77-1.2,1.21-1.76.56-.62.46-.65-.31-.06l-5.78-.76c-1.34-.64-.93-1.99-.55.34.17,1.05.54,2.08.73,3.13.44,2.51.49,5.08.33,7.62-.29,4.89-1.89,9.53-4.28,13.78l13.71,1.79c-1.62-5.06-2.58-10.11-2.6-15.43,0-2.28.1-4.58.42-6.84.2-1.44.81-2.91.88-4.34s1.11-1.47-.34-1.12h-3.99c-1-.81-1.19-.74-.56.2.33.62.6,1.27.82,1.94.38,1.01.69,2.06.96,3.1.74,2.79,1.07,5.56,1.05,8.45-.02,5.54-1.44,10.78-4.09,15.62,4.57.6,9.14,1.19,13.71,1.79-.87-3.81-1.27-7.52-1.15-11.44.05-1.74.19-3.47.48-5.19.15-.89.33-1.78.54-2.65.88-2.31-.15-1.79-3.1,1.57l-3.79-1.02c-.12-.07,1.07,3.05,1.34,3.95.51,1.65.94,3.32,1.29,5.01s.58,3.19.71,4.83c.1.93.13,1.87.11,2.81-.62,1.29.22.51,2.51-2.36l8.47,3.45c-1.43-2.02-.18-.39-.4-.54-.33-.22,1.33-1.01-.09-.21-.66.38-1.83-.83-1.05.32.4.59-.7-2.11,1.82-1.79l3.79,1.02c.94,1.84,1.24,2.38.92,1.61v-.25c.1-.02,1.37-1.53,1.54-1.62,1.1-.58,1.28-.18,2.27-.33.06.1.14.19.23.27.33.47.39.27.19-.59.94.11,2.05-.46,2.71.63s-1.06,2.48-.49,2.91c.36.28,2.73.04,3.15-.02.38-.04.74.02,1.08.18,1.54.72,1.06-.21-1.46-2.79-.56,5.97,6.7,8.94,11.29,6.48,4.29-2.31,8.18-5.04,11.99-8.07l-9.09,1.17.78.48-3.45-4.48c1.05,2.53.17,5.69,2.71,8.19,2.97,2.93,7.32,2.9,10.78.99,2.24-1.24,3.8-3.91,3.71-6.48l-.02-.73c-.3-9.63-15.3-9.67-15,0l.02.73,3.71-6.48-.81.45,5.78-.76-.88-.26,4.48,3.45-.41-.87,1.02,3.79c-.18-4.65-.51-8.3-4.86-10.97-3.1-1.9-6.48-.9-9.09,1.17-2.79,2.21-5.83,4.04-8.96,5.72,3.76,2.16,7.52,4.32,11.29,6.48,1.54-16.37-30.46-16.82-31.98-.72-.76,8.08,6.05,15.14,14.14,14.55,8.26-.6,14.2-9.36,12.43-17.3-4.17-18.67-32.61-13.94-33.75,3.94-.48,7.45,5.13,15.01,13.23,13.35s11.82-10.4,9.38-17.82c-2.73-8.33-12.51-13.25-20.44-8.64-7.19,4.18-10.07,14.44-5.16,21.39,1.88,2.66,5.12,4.5,8.47,3.45,8.41-2.64,8.96-10.9,8.01-18.35-.91-7.16-2.57-17.51-8.66-22.19-7.14-5.48-14.74-.12-16.88,7.29-2.51,8.72-1.86,18.54.13,27.26,1.43,6.26,10.67,7.34,13.71,1.79,4.4-8.05,6.72-17.24,6.02-26.44-.59-7.75-2.87-20.94-11.12-24.32-10.32-4.23-15.73,7.21-17.06,15.35-1.67,10.16-.96,20.43,2.18,30.24,1.91,5.97,10.43,7.6,13.71,1.79,4.35-7.71,6.75-16.49,6.37-25.37-.3-7.2-1.96-21.05-11.77-21.05-8.56,0-13.57,10.9-16,17.73-2.89,8.15-3.02,16.99-.96,25.34.99,4,5.37,6.21,9.23,5.24,9.48-2.38,13.32-12.61,14.59-21.35,1.21-8.38.8-22.02-6.12-28.16-3.7-3.29-8.92-3.17-12.84-.36s-5.37,7.06-6.69,11.29c-3.21,10.28-4.28,21.26-3.4,31.97.63,7.67,9.54,9.87,13.98,3.79,8.67-11.88,9.03-28.27,1.6-40.82-2.81-4.76-10.19-4.97-12.95,0-6.22,11.2-8.96,23.96-7.28,36.7,1.03,7.81,12.32,10.86,14.73,1.99,1.73-6.36,2.68-12.87,2.91-19.46.2-5.59-6.55-9.48-11.29-6.48-6.45,4.1-7.59,10.11-10.59,16.6-2.65,5.74-7.18,9.76-12.81,12.46-3.68,1.77-4.58,6.95-2.69,10.26,2.17,3.82,6.59,4.36,10.26,2.69,7.25-3.29,12.8,1.49,19.95,1.07,3.66-.22,6.11-2.17,9.19-3.78s6.46-.98,9.71.05c7.34,2.34,13.72,6.26,21.52,7.07,7.1.74,14.32-.79,20.7-3.94,11.46-5.66,22.94-21.22,13.94-33.67-3.95-5.46-10.46-7.21-16.92-6.92-3.04.14-6.09.68-9.14.62-3.26-.06-3.83-.43-3.65-3.75.41-7.54,0-14.11-5.52-19.86-5.06-5.27-12.22-8.01-19.04-10.15-9.23-2.89-13.18,11.59-3.99,14.46h0Z"/>
    <path class="cls-1" d="M380.74,423.77c14.57-7.45,21.61-22.97,26.01-37.94,2.09-7.11,4.01-14.93,1.88-22.27-1.08-3.75-3.39-7.11-6.61-9.32-1.56-1.07-3.24-1.7-4.97-2.44-.52-.21-1.04-.4-1.57-.57-1.39-.74-1.32-.73.19.04v3.99c.58-2.92,5.01-5.32,7.21-7.18,3.23-2.74,6.57-5.4,9.71-8.25,5.89-5.35,6.4-12.27,2.83-19.14-1.03-1.97-2.83-3.98-2.73-6.34s1.99-4.87,3.81-6.22c5.14-3.8,13.2-.96,19.13-3.05,6.49-2.29,12.24-8.6,11.34-15.98-.14-1.16-.28-.96-.56-.8.4-.23,1.14-.29,1.62-.16,2.45.69,3.33,2.93,4.01,5.26.43,1.47.71,3,.93,4.52.12.85.09,1.77.27,2.59.52,2.33-.33.13.5.32-.5-.12,1.24-1.12-.98-.45-.63.19-1.3.66-1.86,1-1.72,1.05-3.38,2.36-4.82,3.76-4.83,4.73-7.73,11.1-9.58,17.51-2.45,8.46-3.59,16.9-8.05,24.65-4.29,7.46-10,13.87-15.7,20.27,4.18,2.43,8.36,4.86,12.54,7.3,6.9-21.32,14.7-42.34,23.52-62.93l-11.78,1.52,3.28,2.86c4.51,3.93,13.26,1.65,12.8-5.3-.38-5.82-1.44-11.42-3.54-16.87-1.67-4.33-6.56-7.26-11.02-4.48-7.5,4.68-12.25,13.1-11.16,22.06.73,6.01,7.89,10.45,12.8,5.3,5.04-5.29,8.89-11.37,11.31-18.28,1.35-3.86,1.9-7.83.48-11.74-1.16-3.17-3.56-5.38-5.62-7.95-7.5-9.37-10.03-22.6-7-34.14.7-2.68,1.61-5.31,2.96-7.74.02-.04,2.05-3.1,2.09-2.87-.28-.76-1.03-1.05-2.27-.86.18.32.26.65.25,1.02-.24.28-.96,2.74-1.08,2.97-.71,1.39-1.62,2.66-2.41,4-1.97,3.35-3.63,6.93-4.46,10.75-3.28,15.11,3.62,30.03,10.47,43.11l10.26-10.26c-6-3.68-9.19-12.04-6.19-18.68-4.57-.6-9.14-1.19-13.71-1.79,3,10.86,4.48,22.53,2.97,33.77-.96,7.09-3.75,16.79-11.16,19.68,2.82,3.67,5.65,7.34,8.47,11.02,12.94-22.38,13.7-49.62,2.69-72.9-3.84-8.11-15.24-2.07-13.71,5.78,1.23,6.33,3.76,16.84-2.49,21.52-3.08,2.3-7.75,1.68-11.32,2.8-3.88,1.22-7.46,3.45-10.39,6.25-12.12,11.61-10.93,30.43.1,42.23,2.49,2.67,5.58,5.03,8.82,6.72,2.34,1.22,7.99,2.09,9.61,4.32.24.32.53-.47-.13.13-.74.67-.88.69-1.6.58-2.84-.41-3.73-5.05-3.66-7.24.13-4.36,2.36-8.53,4.43-12.24.97-1.73,1.98-3.44,3.04-5.12.78-1.23,4.11-4.73,4.15-6.1l.34-.46-3.59-1.06c-.06.12.36.59.29.76-.33.8.16,4.14.04,5.02-.61,4.67-2.85,8.07-4.52,12.27l-.47.71c-1.64,1.99.05,2.62,5.08,1.88.17-.62-.42-2.22-.48-2.9-.24-2.63-.07-5.33.49-7.9.15-.69.94-2.42.77-2.84.03.07-5.57.71-5.28.36-.59.7-.11,4.26-.3,5.43-1.18,7.34-6.28,16.83-15.14,14.24v14.46c2.76-.88,5.21,1.82,5.74,4.81.84,4.69-1.65,9.89-3.54,14.01l13.98,3.79c.51-8.72,1.02-17.44,1.53-26.16l-13.98,3.79c9.66,14.01-3.34,29.01-14.22,37.38l10.26,10.26c7.77-15.61,9.7-33.07,5.14-49.95-1.39-5.13-6.67-6.34-11.02-4.48-7.78,3.33-16.86,4.27-25.14,2.5-1.15-.24-3.57-.39-4.4-1.25.88.91.55-.25,1.17-1.37,1.77-3.2,4.96-5.6,6.93-8.72,9.55-15.15-4.03-32.28-19.32-35.36-9.07-1.83-18.46-.64-27.47.97-4.68.84-9.32,1.95-13.87,3.33-3.96,1.2-8.66,2.28-11.48,5.52-5.37,6.15-1.17,16.49,1.91,22.84,3.16,6.5,7.99,12.21,13.67,16.64,7.18,5.61,15.08,8.55,24.03,9.86,2.25.33,5.24-.12,4.24,2.8-1.17,3.45-6.5,5.07-9.5,6.23-3.7,1.43-6.51,5.02-5.24,9.23,2.43,8.01,10.75,11.76,18.57,9.29,7.21-2.28,13.16-9.72,16.93-15.91,4.04-6.65,5.81-14.66,2.93-22.08s-9.05-12.19-16.98-12.65c-6.86-.39-9.39,8.28-5.3,12.8,5.15,5.7,12.25,8.89,19.86,9.52,3.5.29,7.21-.1,10.57-1.15,1.88-.59,3.73-1.42,5.46-2.35.94-.56,1.88-1.12,2.8-1.69,2.08-.7,1.54-1.56-1.61-2.59v-3.99l-.19,1.24,7.23-5.51c-12.91-1.7-26.08-2.78-38.87-5.22-5.25-1-7.47-2.71-10.59-6.87-1.75-2.33-3.58-4.54-6.11-6.06-1.22-.73-2.62-1.33-3.95-1.81l-1.66-.5c-1.76-.98-2.16-.71-1.2.82-1.84,2.41-3.67,4.82-5.51,7.23,3.2-.58,5.81-.43,8.94-.12.2.02,1.05,1.3.17,1.09-.42-.1,3.38-5.74,3.59-1.78-.01-.22-2.4-2.71-2.69-3.2l-.73-1.28c-.47-1.79-1.12-1.33-1.96,1.36.3.39,4.14.07,4.89.16,2.05.25,4.16.72,6.09,1.47,1.2.46,2.27,1.35,3.45,1.77.35.3.65.64.89,1.03-.22-.72-.08-1.33.42-1.84,0,0-.43.18-.41.14-.42-.24-.13-.03.88.64-.2-.26-.29-.56-.27-.89,1.13-1.13.97-2.36,3.43-2.11,1.17.12,1.94,1.1,2.93,1.31,3.56.85,5.62.13,6.21-2.16,1.17-1.55.97-1.77-.59-.66l-3.79-1.02-1.21-.96-1.02-3.79c.02-1.54.75-.19-.81,0-1.26.16-2.08.54-3.44.25-1.25-.26-3.5-1.12-3.49-2.65l-1.02,3.79c-.56,1.33-2.35.32-.94.95.71.32,1.98.12,2.81.38,1.5.47,2.79,1.37,3.69,2.68l1.17-9.09c-.99,1.01-1.35,1.16-2.74,1.15-9.65-.07-9.66,14.93,0,15,5.19.04,9.72-1.84,13.35-5.54,2.18-2.22,3.06-6.37,1.17-9.09-4.14-5.95-10.04-9.81-17.37-10.39-7.3-.59-15.46,2.98-15.13,11.42.5,12.74,16.2,19.27,26.93,15.25,6.02-2.26,11.81-8.16,10.69-15.09-1.41-8.72-11.56-10.39-17.52-5.02-5.27,4.75-7.8,13.65-4.09,20.01,3.78,6.49,12.86,8.6,18.43,3,5.61-5.64,4.23-14.37-1.24-19.5-5.11-4.79-13.08-6.42-19.7-4.22-13.44,4.47-16.68,26.26-1.39,30.78,14.41,4.26,24.81-13.15,14.3-23.83-8.04-8.17-33.85-14.7-38.56.3-4.32,13.77,17.6,34.55,27.66,18.57,3.56-5.65,2.51-13.86-2.1-18.62-6.28-6.51-15.79-5.58-23.86-4.1-3.38.62-5.28,4.13-5.51,7.23-.28,3.94,1.44,7.39,4.37,9.95s7.01,2.41,9.96,4.6c2.17,1.61,3.37,4.66,5.19,6.64,2.57,2.8,5.69,4.74,9.22,6.09,6.85,2.61,14.64,2.88,21.85,3.83,8.93,1.18,17.87,2.36,26.8,3.54,2.92.39,6.78-2.59,7.23-5.51.82-5.23-.67-9.92-5.53-12.69-5.11-2.92-10.67-1.24-15.4,1.51-6.82,3.97-14.28,3.71-19.82-2.42l-5.3,12.8c5.03.29,3.16,8.31,1.91,10.74-1.46,2.84-3.51,5.3-5.71,7.6-.83.86-2.27,1.7-2.94,2.62-.29.14-.55.32-.8.52-1.01-.27-.83.03.55.89-1.75,3.08-3.49,6.15-5.24,9.23,7.35-2.85,15.13-6.22,18.74-13.75s2.25-16.95-5.14-21.52c-6.39-3.95-14.55-2.69-21.28-6.11-6.28-3.19-11.41-8.13-14.81-14.3-.71-1.29-1.35-2.6-1.85-3.99-.24-.65-1.04-5.18-1.48-5.45l-1.23,1.51c-1.83,1.71-1.64,2,.57.88.88-.13,1.86-.61,2.72-.88,2.72-.85,5.48-1.61,8.26-2.26,8.39-1.98,18.24-4.04,26.82-2.14,5.16,1.14,13.12,6.14,9.96,12.52-1.62,3.28-4.97,5.69-6.96,8.78-2.23,3.47-3.46,7.66-3.05,11.78,1.05,10.74,12.12,13.38,21.08,14.42,10.55,1.23,20.81-.85,30.49-5-3.67-1.49-7.34-2.99-11.02-4.48,3.48,12.86,2.33,26.42-3.63,38.39-2.96,5.95,3.76,15.26,10.26,10.26,9.14-7.03,17.63-14.94,22.09-25.82s3.98-22.7-2.48-32.08c-4.25-6.16-13.53-3.84-13.98,3.79-.51,8.72-1.02,17.44-1.53,26.16-.42,7.18,10.87,10.57,13.98,3.79,4.26-9.3,8.24-20.08,3.45-30-4.02-8.32-13.47-13.79-22.6-10.87-6.98,2.24-7.27,12.35,0,14.46,14.29,4.16,27.22-5.65,32-18.72,2.28-6.24,3.73-14.66,1.26-21-2.44-6.24-9.82-10.38-16.24-7.28-6.77,3.28-8.16,11.93-8.58,18.72-.43,6.95.47,16.01,7.41,19.51,15.29,7.72,23.43-20.08,23.19-30.37-.14-5.93-2.55-12.46-8.14-15.24-7.36-3.65-13.32,1.64-17.42,7.28-8.44,11.63-18.05,27.83-10.59,42.19,6.57,12.63,25.11,14.7,31.46.62,2.88-6.38.79-13.36-4.67-17.56-4.92-3.78-11.42-4.42-15.98-8.8s-6.92-10.49-4.73-16.46c1.03-2.8,2.88-5.35,5.42-6.95,3.2-2.02,7.07-1.71,10.61-2.6,7.77-1.97,13.34-8.07,15.96-15.48,2.94-8.32,1.34-17.27-.3-25.68-4.57,1.93-9.14,3.85-13.71,5.78,8.67,18.34,7.41,40.28-2.69,57.76-3.02,5.22,2.11,13.49,8.47,11.02,27.39-10.66,25.05-48.79,18.67-71.9-1.59-5.74-10.95-7.89-13.71-1.79-6.42,14.2-1.92,30.92,11.57,39.2,6.66,4.09,13.61-3.86,10.26-10.26-3.89-7.42-7.95-15.34-9.07-23.76-.48-3.65-.31-7.48.98-10.95,1.42-3.83,4.19-7.03,5.8-10.79,2.82-6.58,2.33-14.55-3.22-19.61-6.46-5.88-15.43-2.91-20.38,3.18-9.17,11.29-10.54,28.71-7.2,42.37,1.81,7.44,5.28,14.4,10.05,20.37,2.83,3.55,3.55,3.27,1.63,7.75-1.63,3.81-4.04,7.16-6.89,10.14l12.8,5.3c-.46-3.76.39-7.02,3.73-9.1-3.67-1.49-7.34-2.99-11.02-4.48,1.61,4.19,2.71,8.39,3,12.88l12.8-5.3-3.28-2.86c-3.21-2.8-9.74-3.25-11.78,1.52-9.34,21.79-17.74,43.95-25.03,66.51-2.27,7.01,7.57,12.87,12.54,7.3,8.16-9.16,16.45-18.59,21.36-29.97,2.4-5.55,3.69-11.33,5.11-17.18,1.25-5.17,2.61-10.78,6.36-14.78s9.67-4.2,11.53-10.38c1.53-5.06.1-12.24-1.45-17.18-3.23-10.3-12.66-18.1-23.85-14.85-4.57,1.33-8.3,4.89-9.71,9.45-.56,1.8.14,5.63-.78,7.08-1.07,1.69-5.58.99-7.23,1.01-11.44.12-21.92,5.11-25.82,16.62-1.49,4.4-1.51,9.22.13,13.57.78,2.08,3.65,5.21,3.84,7.39-.09-1.09-.26-.24-1.37.71-1.41,1.2-2.83,2.4-4.25,3.6-7.76,6.58-24.42,18.44-11.93,29.14,2.95,2.52,8.46,2.36,9.2,6.57.83,4.78-1.46,10.52-2.84,14.97-3.3,10.66-8.07,21.55-18.48,26.87-8.6,4.4-1.01,17.35,7.57,12.95h0Z"/>
    <path class="cls-1" d="M379.9,292.94c1.06-13.12-4.32-26.27-14.19-34.95-1.1,4.18-2.21,8.36-3.31,12.54,5.24-2.16,10.57-2.77,16.17-1.72,4.33.81,11.12,2.28,13.65,6.37,2.72,4.41-2.52,5.89-5.73,7.59-5.73,3.04-11.63,5.66-17.72,7.9,3.16,2.41,6.33,4.82,9.49,7.23.26-4.92-.17-9.92-1.48-14.69-.6-2.19-1.52-4.23-2.27-6.35-.38-.96-.69-1.94-.94-2.94-.13-1.05-.12-1.23.02-.52,1.46-1.45,4.79-.73,6,.7.71.84,1.02,2.18.91,3.28-.23,2.37-2.59,2.96.86,1.53h3.99c2.37,3.64,3.34,4.1,2.88,1.39.06-.42.08-.84.06-1.26-1.48.63-2.66-.07-3.55-2.1-.18.02-.33.12-.43.3-1.36.17-3.75,2.43-3.48-.14l-1.02,3.79c-.76.16-.86.24-.29.22.67.03,1.34.06,2.01.08,1.54.14,3.04.46,4.53.9,1.24.37,2.43.83,3.58,1.42.68.33,1.33.71,1.96,1.13.75-2.35.65-3.17-.32-2.44-1.62-.33-5.33,1.59-7.23,1.8-1.16.13-2.49.27-3.63.05-.9-.18-1.82-1.02-1.58-.56l1.02,3.79v-1.41c-.35,1.26-.7,2.52-1.04,3.79.99-2.05,3.97-2.31,6.02-2.6,1.48-.21,3-.29,4.49-.35,2.47-.11,3.29.99,3.46-1.62.2-3.19.04-1.19-1.63-1.38-1.1-.13-2.56.38-3.7.44-1.6.09-3.08-.01-4.65-.15-2.14-.19-.67-2-1.77.56,1.62-3.74,1.08-8-2.69-10.26-3.15-1.89-8.65-1.02-10.26,2.69-3.06,7.06-1.26,14.92,5.49,19.23,6.05,3.86,14.8,3.7,21.56,1.96s12.31-6.47,11.89-13.83c-.48-8.33-8.69-12.6-16.16-12.69-6.81-.08-14.65.9-20.28,4.98-6.76,4.89-7.74,13.62-.82,18.79,9.99,7.47,34.43,3.94,36.27-10.57,1.92-15.11-24.3-23.4-35.06-16.43-6.79,4.4-6.56,14.04-1.42,19.6,5.29,5.72,13.66,6.64,20.49,3.22,6.45-3.23,11.08-10.27,9.22-17.63-1.98-7.86-10.98-11.49-18.01-7.78s-8.86,11.34-7.69,18.44c1.25,7.62,9.3,12.44,15.8,6.88,13.53-11.57,3.05-33.81-13.77-33.43-7.95.18-16.11,5.51-16.95,13.87-.45,4.45,1.01,8.06,2.5,12.15,1.7,4.68,2.35,9.2,2.09,14.17-.25,4.59,5.03,8.88,9.49,7.23,14.28-5.26,42.02-14.04,33.84-34.49-6.77-16.91-33.14-20.77-48.18-14.58-4.76,1.96-8.01,8.4-3.31,12.54,7.2,6.34,10.57,14.8,9.8,24.35s14.23,9.57,15,0h0Z"/>
    <path class="cls-1" d="M225.65,337.73c-1.02,4.89-2.04,9.77-3.06,14.66-.91,4.39-2.38,9.14-1.5,13.64,1.68,8.56,9.7,11.97,17.71,10.68,8.95-1.44,33.71-20.55,39.04-4.69,5.13,15.27-18.07,26.33-28.53,31.18-15.72,7.29-32.31,12.33-47.26,21.26-3.33,1.99-7.52,5.1-11.64,4.67-3.36-.35-3.68-1.87-2.26-4.76,2.33-4.75,6.03-9.09,9.04-13.43,3.22-4.65,6.43-9.29,9.65-13.94,2.88-4.17-.19-9.65-4.48-11.02-5.24-1.67-1.26-6.55,1.03-8.66,5.39-4.97,10.59-9.92,15.26-15.59,9.62-11.69,17.52-24.56,25.31-37.5l-12.95-7.57c-9.6,18.34-14.77,38.42-15.1,59.13l14.73-1.99c-1.41-8.05-.9-16.1,1.17-23.99l-14.73-1.99c.48,10.89-1.61,21.69-6.77,31.35-1.12,2.11-3.37,4.39-4.04,6.62l-.99,1.04,4.21,1.37c.07-.06-.35-2.18-.37-2.34-.43-4.95,1.33-9.67,4.7-13.28-4.18-1.1-8.36-2.21-12.54-3.31,1.32,3.98,2.33,7.99,2.59,12.18.07,1.2-.42,3.38-.03,4.39,4.01,2.98,5.76,3.39,5.24,1.24-.13-.63-.17-1.27-.11-1.92.08-3.35,2.13-4.92,3.03-7.82,1.44-1.3.11-1.64-3.98-1.04.21.4.34.83.39,1.29.05,1.14.44,2.31.52,3.47.76,11.49-5.51,22.32-15.59,27.69,3.76,2.16,7.52,4.32,11.29,6.48-.47-8.18,3.49-15.11,10.79-18.85-3.76-2.16-7.52-4.32-11.29-6.48.65,11.27-5.51,22.88-16.3,27.27,3.08,3.08,6.15,6.15,9.23,9.23,1.6-7.61,6.4-17.53,14.42-20.22.71-.24,1.71-.05,1.56-.25,0,0-2.36,3.61-2.86,4.24-2.08,2.58-6.19,6.58-9.76,6.32l3.79,1.02c.74.43,1.02,2.91,1.68,2.56.17-.09.3-1.23.43-1.44.71-1.05,1.15-2.37,1.78-3.48,1.63-2.86,3.57-5.43,5.88-7.78,4.05-4.1,9.03-7.39,14.52-9.2,1.7-.56,4.1-.25,2.51-1.92s-.99.44-1.3,1.86c-.59,2.71-1.98,5.3-3.78,7.4s-4.25,3.97-6.92,5.04c-1.51.6-2.9.13-1.7,1.46,1.35,1.5.72-.69.89-1.78,1.63-10.12,12.29-20.5,22.64-21.04,1.08-.06,3.77-.15,4.35.98.82,1.59-1.82,4.79-2.74,5.84-1.96,2.24-4.51,4.01-7.25,5.14-1.28.53-2.68.93-4.04,1.18-1.15.21-3.76-.24-4.63.27-.96.55-.49-1.21-.19.76.36,2.28.57.11.68,0,.67-.72.74-2.99,1.17-3.99,1.25-2.9,3.33-5.61,5.83-7.55,2.76-2.15,6.25-3.37,9.72-3.6,1.79-.12,3.56-.02,5.32.36.79.17,1.59.4,2.36.68.81.29,2.05,1.37,1.55.41l-1.02-3.79-.04,1.3,1.02-3.79c-2.16,4.42-8.07,7.89-12.31,10.14-.92.49-7.94,2.59-8.19,3.18l3.81,3.68c.25-.4.49-.79.74-1.19.96-.9,1.59-2.44,2.43-3.48,3.33-4.1,7.48-7.39,12.13-9.86,2.3-1.22,4.66-2.16,7.16-2.87,1.41-.4,2.9-.78,4.35-1l.96-.15c2.18.07,1.66-.4-1.55-1.4l-1.02-3.79c-.05,2.03-3.96,5.65-5.22,6.94-2.12,2.16-4.56,4.47-7.37,5.7-.77.34-1.67.41-2.42.77-2.56,1.22.38-.81-.26.61,1.17-2.59,2.61-4.44,4.83-6.35,2.42-2.09,5.26-3.84,8.18-5.14,1.38-.61,2.82-1.09,4.27-1.51.76-.22,1.53-.38,2.28-.59.53-.15,2,.23,1.25-.37,3.46,2.79-4.77,9.98-6.8,11.22-.19.12-2.3.92-2.35,1.14-.07.29,4.08,1.65,1.5,2.01.13-.02.38-1.6.5-1.81.7-1.26,1.17-2.65,1.95-3.89.88-1.39,2.17-2.15,3.11-3.33.37-.47.74,0,.79-.13.02-.05-1.01-1.42-.4-1.45.07,0-.91,1.31-.91,1.31-2.52,1.82-5.03,2.51-8.01,3.47-6.59,2.11-12.39,5.47-15.85,11.67-3.1,5.56-4.34,12.58-3.76,18.9,1.69,18.61,21.5,15.88,33.1,8.19,5.17-3.42,10.5-8.66,16.92-9.55,5.99-.84,9.75,6.73,15.43,8.19,14.23,3.65,22.61-13.41,18.45-25.04-2.27-6.35-6.85-11.56-10.66-17.01-4.56-6.52-10.64-9.42-18.61-9.38-15.1.07-29.18,13.62-23.08,29.21,2.84,7.26,9.9,11.52,17.65,11.37,9.02-.16,16.11-5.89,22.43-11.7,3.23-2.97,2.42-7.53,0-10.61-4.13-5.25-9.21-9.52-14.98-12.88-1.93,4.57-3.85,9.14-5.78,13.71,6.06,2.45,10.67,8.74,11.32,15.22l7.5-7.5c-6.59-.81-12.39-5.95-14.52-12.12-2.41,3.16-4.82,6.33-7.23,9.49,5.27.59,10.08,4.57,11.88,9.5,3.67-2.82,7.34-5.65,11.02-8.47-11.01-5.24-22.08-11.75-33.59-15.8-5.29-1.86-9.78-.55-14.6,1.86-5.1,2.55-9.84,3.35-15.52,2.67-4.03-.49-7.5,3.79-7.5,7.5,0,4.46,3.46,7.01,7.5,7.5,4.85.58,9.84.24,14.55-1.11,3.36-.96,8.27-4.7,11.36-4.02,2.19.48,4.57,2.15,6.59,3.12,2.63,1.25,5.25,2.5,7.88,3.75,5.25,2.5,10.5,5,15.76,7.49s13.47-1.77,11.02-8.47c-4.3-11.77-13.95-19.13-26.34-20.51-4.72-.53-8.7,5.23-7.23,9.49,4.51,13.09,15.36,21.45,28.98,23.13,3.76.46,7.87-3.82,7.5-7.5-1.38-13.77-9.53-24.51-22.33-29.68-8.01-3.24-12.94,9.54-5.78,13.71,4.75,2.76,8.55,6.22,11.94,10.53v-10.61c-3.13,2.88-6.8,6.76-11.28,7.24-3.07.33-4.92-1.14-4.56-4.29s2.93-4.89,5.76-5.71c4.16-1.21,7.76-.75,10.23,2.78,2.96,4.23,11.77,12.42,8.12,18.07-.52.8.32.95-.94-.04-1.51-1.18-2.82-2.59-4.33-3.77-4.03-3.14-8.89-4.61-14-4.3-9.62.59-16.82,6.52-24.49,11.6-1.65,1.09-8.79,6.11-10.97,4.29-.52-.44.99-8.13,1.53-9.48,3.08-7.83,14.53-7.07,20.52-12.04,6.87-5.69,9.69-16.4,2.4-23.04s-18.14-3.9-23.99,2.94-10.8,18.2-4.23,25.88c13.06,15.25,36.86-8.98,34.78-23.67-3.41-24.06-33.74-11.23-44.21-.08-6.37,6.78-10.28,18.01-2.48,25.38,6.36,6.01,16.35,4.06,23.02-.3,7.09-4.63,16.28-13.1,17.62-21.91.77-5.05-1.95-9.8-6.77-11.55-4.16-1.51-9.2-.36-13.34.66-8.47,2.08-16.37,6.49-22.85,12.31-5.84,5.25-14.03,14.39-11.79,22.97,5.31,20.32,39.36-1.65,44.36-12.46,5.17-11.18-8.43-16.53-17.06-17.52-9.68-1.11-19.36,2.07-26.49,8.72-5.92,5.52-10.77,14.48-10.38,22.77.52,11.33,11.72,13.63,21.02,12.23,8.81-1.33,16.86-6.08,22.25-13.18,5.51-7.28,7.36-17.88.19-24.81-13-12.55-34.8-.39-43.76,11.09-5.16,6.6-9.55,15.59-8.34,24.19,1.5,10.63,11.5,13.71,20.62,10.23,8.14-3.11,14.84-9.4,18.39-17.36s4.74-20.23-5.2-24.09c-8.16-3.17-18.79,2.16-25.49,6.74-7.27,4.98-13.53,11.64-17.51,19.55-3.77,7.49-5.62,21.02,6.3,21.97,8.72.7,17.61-6.76,22.45-13.36,5.67-7.74,7.94-18.91-1.63-24.74-8.9-5.43-18.73-.7-25.62,5.68-6.64,6.14-11.16,14.54-13.02,23.35-1.05,4.97,3.51,11.55,9.23,9.23,16.81-6.83,28.37-23.26,27.31-41.73-.34-5.82-6.07-9.15-11.29-6.48-11.66,5.98-18.96,18.71-18.22,31.8.33,5.75,6.1,9.24,11.29,6.48,11.47-6.11,19.85-17.62,22.24-30.41,1.18-6.35,1.31-13.4-.89-19.55-2.51-6.99-9.8-11.99-17.04-8.08-10.63,5.75-18.07,31.17-2.95,36.02,7.23,2.32,14.16-3.07,16.03-9.87,2.11-7.67-.13-17.23-2.56-24.54-1.7-5.13-8.49-7.63-12.54-3.31-6.2,6.64-9.78,15.47-9.04,24.64.36,4.4,1.42,8.94,4.72,12.06,3.8,3.6,9.4,3.75,13.79,1.18,7.71-4.52,12.1-15.22,15.06-23.21,3.38-9.15,4.77-19.09,4.34-28.82-.36-8.24-12.51-10.44-14.73-1.99-2.79,10.59-3.06,21.2-1.17,31.96,1.5,8.53,14.6,6.21,14.73-1.99.29-18.03,4.68-35.57,13.05-51.56,4.47-8.53-7.95-15.88-12.95-7.57-9.76,16.23-19.62,32.73-33.52,45.83-5.91,5.57-12.74,10.79-12.77,19.74-.02,8.5,5.74,15.69,13.65,18.22-1.49-3.67-2.99-7.34-4.48-11.02-6.19,8.94-13.58,17.77-18.69,27.37-4.83,9.07-3.58,19.93,6.15,25,9.07,4.72,18.66,1.3,26.85-3.54,8.62-5.09,17.47-9.27,26.77-12.99,18.06-7.22,39.15-14.29,51.44-30.34,11.54-15.09,8.23-40.13-13.2-43.45-11.4-1.77-21.3,3.42-31.19,8.31-2.02,1-3.78,1.75-5.96,2.26-.48.11-1.92.48-1.37.09.66.11,1.02.61,1.09,1.49-.08-.56-.04-1.1.12-1.64,1.12-2.82,1.36-6.55,1.97-9.52.75-3.58,1.49-7.17,2.24-10.75,1.96-9.42-12.49-13.45-14.46-3.99h0Z"/>
    <path class="cls-1" d="M257.41,496.81c-6.18-.65-12.3-1.68-18.36-3.07-2.74-.63-5.47-1.34-8.18-2.11-1.5-.43-3-.87-4.49-1.35-1.09-.35-2.05-1.2-1.66-.42l1.02,3.79c-.23-3.39,5.72-9.08,7.98-11.53,3.83-4.13,8.01-7.91,12.1-11.78,3.68-3.48,8.77-7.37,8.99-12.88s-4.13-9.67-9.19-11.17c-11.02-3.26-24.07,1.92-33.77,6.82-9.83,4.97-21.17,10.76-24.4,22.15-2.94,10.33-1.56,23.09-.67,33.66.95,11.26,3.18,22.37,8.5,32.44,2.5,4.74,6.18,8.93,8.26,13.88s1.9,11.01,3.58,16.32c3.69,11.64,13.42,17.61,25.49,14.9,11.51-2.58,21.27-11.78,24.69-23.03,1.73-5.67,1.75-11.83.46-17.58-.69-3.05-1.93-6.18-3.46-8.91-1.4-2.49-4.3-4.76-4.9-7.52v3.99l-.82.63c.7-.48,1.4-.96,2.12-1.41,1.19-.77,2.39-1.52,3.61-2.24,2.2-1.29,4.45-2.49,6.74-3.59.84-.4,2.78-1.69,3.66-1.62-.69-.06.99.82.92.8,2.51.7,4.28,1.88,6.99,1.83,11.04-.18,16.01-13.1,20.75-21.08,4.93-8.31,10.53-14.5,18.29-20.19,7.26-5.33,14.53-11.29,16.28-20.63.87-4.64-2.02-9.59-7.23-9.49-12.49.24-20.18,10.5-29.49,17.33-9.27,6.8-20.48,13.03-32.32,10.21-9.45-2.25-13.1,11.38-3.99,14.46,7,2.37,13.49,5.61,19.7,9.6.6-4.57,1.19-9.14,1.79-13.71-3.46.59-6.93,1.18-10.39,1.78-1.53.26-3.24.38-4.72.81-2.59.74-1.17-1.41-.15.71l1.02,3.79-.46.31c-1.4.38-1.56.66-.48.83.41.63,2.11.57,2.54,1.43l-.76-5.78c.21-.94,1.13-.48.11-.16-.78.25-1.51,1.02-2.27,1.37-1.43.65-2.99.97-4.55,1.07-3.18.19-6.33-.75-8.72-2.88l-5.3,12.8c10.64-.2,21.23,1.54,31.07,5.7,1.93-4.57,3.85-9.14,5.78-13.71-9.38-3.86-18.77-7.73-28.15-11.59-6.59-2.71-11.08,5.83-8.47,11.02,1.72,3.42,3.45,6.84,5.17,10.25,1.49-3.67,2.99-7.34,4.48-11.02-6.37,1.37-12.92,1.64-19.36.58-9.34-1.53-13.44,11.66-3.99,14.46,4.46,1.33,7.79,3.76,10.76,7.3l1.52-11.78c-2.47,1.42-4.42,1.93-7.09,2.49-1.61.34.66-.27-.61-.27l-.17-.35c-.6,1.77-.48,1.96.36.57l-11.78,1.52c2.53,2.38,3.55,7.69.3,10.13-4.04,3.03-5.63,10.28,0,12.95,7.16,3.39,9.6,13.56,3.71,19.33l11.78,1.52c-1.83-2.82-5.39-10.16-3.29-13.08l-4.48,3.45c-2.49.89-1.39-.88-.73,1.26.28.89.83,1.61,1.01,2.56.49,2.63-.69,3.97-1.61,6.11-.4.92-1.89.33-.17,1.44,1.22.79.55-.61.63-1.74.06-.87.16-1.67.33-2.52.79-4.05,2.75-7.58,5.56-10.57l-11.78-1.52c1.47,2.26,2.65,4.59,3.04,7.3.14.96.17,1.98.13,2.94.05.67-.02,1.33-.21,1.97-.44,1.47.04,1.01,1.44-1.38h3.99c-4.55-.67-6.46-10.77-7-14.52-.9-6.26.15-12.37,2.38-18.22-4.18,1.1-8.36,2.21-12.54,3.31,5.16,5.66,7.38,12.65,7.03,20.24l5.51-7.23c1.59.81,1.66.63.2-.55l-.65-.89c-.96-1.26-1.75-2.71-2.5-4.1-1.62-2.98-2.77-6.09-3.62-9.37-.78-3.01-1.22-5.98-1.3-9.09-.04-1.6-.02-3.2.11-4.8.08-1,1.07-3.78-.09-3.26l-3.79,1.02c-1.44.04-.8-.82-.91.28-.09.88.89,2.72,1.14,3.63.68,2.54,1.09,5.08,1.19,7.71.09,2.29.03,4.64-.29,6.91-.21,1.47-.57,2.93-.96,4.36-.14.58-.31,1.15-.5,1.71-.57,1.42-.24,1.2,1.01-.65h3.99c-.74-.23-2.36-4.53-2.69-5.28-.88-2.04-1.55-4.19-2.1-6.34-1.15-4.5-1.51-9.09-1.27-13.73.47-9.02,3.82-18.07,9.62-25.02,3.18-3.81,2.81-11.6-3.31-12.54s-11.58-.91-17.6.15c2.82,3.67,5.65,7.34,8.47,11.02,3.39-5.3,9.03-7.22,15.09-6.51l-5.3-12.8c-8.21,6.46-16.42,12.92-24.62,19.39,4.18,2.43,8.36,4.86,12.54,7.3,1.95-8.98,9.71-15.02,18.91-14.6,5.45.25,9.66-6.65,6.48-11.29-.9,3.24-.64,3.97.79,2.2.59-.34,1.19-.67,1.8-.97,2.36-1.19,4.83-2.21,7.23-3.31,3.81-1.75,7.9-4.22,11.97-5.28.96-.25,2.41-.46,2.84-.26-.06-.03,1.1.91.71.46-.31-.35-.66,1.01-.51.42.13-.53.59.59.35.39-.97.53-1.01.67-.11.42.29.03.57.11.83.23.51.65,1.14.92,1.24,1.84.3,2.74-2.16,2.66-3.77,2-.05-.02.38.12.06-.1,1.08.71-1-2.36-.87-.79.16,1.99,1.23-3.94,2.52-1.52l.76,5.78c.27-.68,2.31-3.18,2.27-3.62-.04-.53-.96-1.11-1.28-.7-.21.27.79,2.27.88,2.5,1.97,4.54,6.45,7.55,11.49,6.55,4.1-.81,7.1-3.58,9.18-7.13.27-.46,1.18-1.81,1.16-2.32-.1-3.08-5.6.12-6.52-2.48-.2-.57,2.6-2.92,2.63-3.06.06-.33-.24-.3-.84-1.2v7.57l-3.06.74-3.45-8.47c1.31-4.1,3.04-1.04.52-1.61-1.02-.23-2.33-.14-3.39-.28-3.89-.52-7.77-1.23-11.65-1.84-8.19-1.3-16.53-3.2-24.81-3.81-3.43-.25-6.69.14-9.9,1.38-1.5.58-2.89,1.32-4.34,1.99l-1.29.63c-2.55.66-1.62,2.42,2.79,5.26,1.24-.71,2.84-3.89,3.65-5.19,1.8-2.9,2.78-6.04,2.53-9.46-1.01-14.25-20.42-18.32-27.22-5.82-2.74,5.05-1.74,10.66.44,15.67,1.35,3.09,5.66,8.21,2.9,11.34s-8.88,3.33-12.76,3.2c-7.59-.24-15.02-1.93-22.42-3.47-13.25-2.76-27.9-5.94-41.25-1.98-14.7,4.36-16.39,19.68-17.49,32.95s2.78,29.29,15.16,37.15c11.28,7.16,26.54,5.04,37.13-2.36,6.16-4.3,9.99-10.18,14.32-16.17,1.98-2.74,8.38-10.8,12.59-6.98l10.61-10.61c-13.1-11.66-32.6-20.83-49.07-9.77-3.47,2.33-6.49,5.28-8.56,8.94-.96,1.7-1.67,3.61-2.31,5.46-.49,1.4-.8,4.68-1.95,5.65-.78.65-.12.98-1.27.72s-1.62-2.06-1.83-3.03c-.56-2.62.11-6.77,2.7-8.1,5.21-2.68,9.1,3.35,6.89,7.81-.63,1.28-1.61,2.52-2.91,3.17s-.98.4-1.06.34c-2.14-1.85-2.52-9.49-2.64-12.11-.1-2.15.25-8.51,3.85-8.21s4.25,7.79,4.49,10.15c.07.73-.08,2.47.23,3.07v.26c.03,1.36.78.6,2.25-2.29-.24-.38-3.71-.93-4.46-1.55-1.45-1.22-2.2-4.29-.91-4.79,3.53-1.38,5.65,4.42,5.95,6.64s-.87,5.5-.33,7.4c.5,1.74-2.61,1.83,1.94,1.04s1.59.09,1.34-1.61c-.67-4.49-.89-8.31.89-12.65.87-2.12,4.94-8.76,6.62-8.68l-3.79-1.02c-.95-.53.74,2.09,1,2.78.6,1.63,1.07,3.39,1.34,5.11.25,1.6-.12,3.5.27,5.03.51,2.03-2.68,6.07,4.81,2.33,3.76-1.87,9.39-7.21,14.54-6.99l-3.79-1.02.96.66-3.45-4.48.28,1.26v-3.99c-.85,3.2-3.56,5.03-6.62,5.86l9.49,7.23c.47-6.81,7.46-8.34,12.38-4.97,5.96,4.09,14.81-4.27,10.26-10.26-1.36-1.79-2.72-3.58-4.08-5.37-2.03-2.67-5-4.44-8.47-3.45-2.91.83-5.89,3.99-5.51,7.23.26,2.18.51,4.36.77,6.54.47,4.02,3.11,7.5,7.5,7.5,3.69,0,7.97-3.45,7.5-7.5-.26-2.18-.51-4.36-.77-6.54l-13.98,3.79c1.36,1.79,2.72,3.58,4.08,5.37l10.26-10.26c-14.99-10.28-33.76.64-34.95,17.92-.34,4.94,5.06,8.44,9.49,7.23,8.7-2.36,24.86-16.26,14.13-25.48-4.89-4.2-10.86-1.66-16.03.49s-11.08,4.73-14.96,9.18-5.08,9.69-3.02,15c2.17,5.6,7.79,9.42,13.89,8.02,12.57-2.89,11.31-20.22,8.13-29.44-1.69-4.88-4.12-11.03-9.68-12.5s-11.34,2.56-15.14,6.54c-7.3,7.63-11.01,18.36-9.72,28.85,1.26,10.22,12.74,22.85,22.73,12.81,7.5-7.54,5.97-24.32.21-32.27-6.18-8.54-19.35-11.6-27.35-3.71-8.33,8.21-5.11,22.23,4.2,28.11,10.06,6.35,25.09,4.23,24.73-10.01-.28-11.3-4.5-25.14-17.31-27.3s-21.34,10.52-21.27,22.05c.06,9.4,2.7,24.79,13.49,27.67,10.51,2.81,20.77-6.21,23.24-15.95,2.59-10.25-2.53-20.64-12.6-24.19-11.75-4.13-23.78,2.64-26.51,14.73-2.72,12,4.29,26.66,18.22,25.59,6.67-.51,11.19-5.24,13.59-11.14,1.83-4.5,2.33-9.25,6.68-12.11,10.28-6.74,22.51.83,30.33,7.79,7.18,6.39,17.79-4.09,10.61-10.61-10.02-9.09-24.13-4.65-32.15,4.77-7.36,8.65-11.84,19.4-24.59,20.7-12.18,1.25-18.08-9.92-18.29-20.69-.07-3.88.34-7.72.97-11.54.5-3,.65-7.29,2.1-10.03,2.37-4.47,10.37-3.98,14.66-3.93,14.09.16,27.71,4.98,41.64,6.62,10.7,1.26,23.35.71,31.15-7.85,3.99-4.38,5.41-10.32,4.09-16.07-.53-2.32-1.54-4.54-2.55-6.69s-1.8-4.96-3.01-6.8c.21.33-.8-.66-1.07-.58.3-.09-.25.18.18-.02-.56.26-1.76,2.63-2.16,3.19-3.77,5.22-5.98,11.61-1.13,17.06s12.14,3.49,18.02.65c6.48-3.13,14.86-.06,21.67,1.02,7.76,1.23,15.81,3.27,23.68,3.57,6.79.26,12.97-2.66,15.12-9.39.93-2.91-.56-7.11-3.45-8.47-6.68-3.15-13.26-1.47-17.46,4.64-1.43,2.08-1.38,5.49,0,7.57,3.67,5.55,9.84,9.79,16.78,8.22,5.93-1.34,9.67-6.49,9.31-12.54-.33-5.68-4.55-10.92-10.51-11.08-3.02-.08-6.11,1.33-8.23,3.43-1.21,1.2-2.09,2.69-2.92,4.16-.55.97-1.25,2-1.08,1.98h3.99l2.17,1.78c-.28-1.06-.67-2.09-1.15-3.08-.66-1.36-1.33-2.61-2.42-3.72-1.75-1.77-4.14-2.99-6.56-3.51-6.6-1.42-12.82,1.92-16.49,7.31-3.48,5.1-5.19,11.09-.36,15.89,3.82,3.79,9.78,4.68,14.72,2.91,12.75-4.58,10.22-22.73-1.95-26.32-12.18-3.59-22.58,10.51-17.26,21.46s22.08,12.16,29.11,1.75.47-25.99-12.62-27.07c-11.84-.98-20.15,11.45-14.1,21.95s23.41,8.17,27.07-3.54c2-6.39-.79-13.46-6.07-17.33-6.36-4.65-13.76-3.04-20.47-.12-9,3.92-35.93,12.67-25.78,27.43l6.48-11.29c-15.5-.71-30.08,10.43-33.38,25.62-1.69,7.77,6.76,11.84,12.54,7.3,8.21-6.46,16.42-12.92,24.62-19.39,5.76-4.53.28-12.15-5.3-12.8-11.28-1.32-22.03,4.53-28.04,13.94-3.83,5.99,2.47,12.08,8.47,11.02,3.14-.56,6.46-.64,9.62-.15-1.1-4.18-2.21-8.36-3.31-12.54-9.22,11.04-14.3,24.79-14.08,39.24.11,7.14,1.46,14.3,4.15,20.92s6.85,15.55,14.98,15.55c9.18,0,11.9-9.64,13.05-17.06,1.34-8.62.79-17.78-2.39-25.97-2.63-6.78-9.43-13.28-17.12-9.64-7.35,3.48-7.64,13.94-7.44,21.01.24,8.82,2.52,17.49,6.6,25.32,3.77,7.23,10.87,16.68,20.26,13.14,3.26-1.23,5.34-3.68,5.51-7.23.52-11.53-3.69-22.36-11.42-30.84-4.12-4.52-10.66-1.62-12.54,3.31-2.99,7.86-3.81,16.29-2.61,24.59,1.14,7.89,4.07,17.18,10.13,22.71,6.59,6.01,17.03,5.29,20.19-3.92,2.83-8.24.56-17.94-4.05-25.07-2.54-3.92-8.33-5.18-11.78-1.52-7.38,7.85-15.96,25.9-6.88,35.52s24.01.89,27.01-10.05c2.65-9.67-1.83-23.38-12.57-26.07-7.71-1.93-12.06,4.16-12.61,11.08-.58,7.33,1.48,14.66,5.45,20.8,2.63,4.05,8.21,5.02,11.78,1.52,12.34-12.09,9.17-35.35-6.74-42.89v12.95c10.71-8.03,12.95-24.09,2.74-33.69-3.82-3.59-8.87-2.39-11.78,1.52-4.71,6.33-1.8,15.29,4.17,19.65,7.39,5.4,16.63,2.61,23.86-1.56,4.47-2.58,4.57-8.15,1.52-11.78-4.58-5.46-10.58-9.14-17.38-11.16l-3.99,14.46c9.26,1.52,18.14,1.4,27.33-.58,5-1.08,6.53-6.95,4.48-11.02l-5.17-10.25c-2.82,3.67-5.65,7.34-8.47,11.02,9.38,3.86,18.77,7.73,28.15,11.59,7.79,3.21,13.6-10.4,5.78-13.71-12.36-5.22-25.18-8-38.64-7.75-6.17.11-10.32,8.33-5.3,12.8,7.74,6.9,18.65,9.26,28.45,5.47,4.69-1.81,9.98-5.11,11.73-10.07,2.34-6.64-3.06-11.51-8.46-14.14-5.26-2.56-11.47-3.01-16.33.67-4.6,3.48-6.7,9.71-4.19,15.05,5.44,11.6,22.9,5.19,32.2,3.6,6.78-1.16,6.75-10.52,1.79-13.71-7.29-4.68-15.09-8.33-23.29-11.11l-3.99,14.46c12.86,3.07,25.42-.31,36.62-6.91,5.54-3.27,10.69-7.22,15.6-11.37,3.84-3.24,8.18-8.61,13.58-8.72-2.41-3.16-4.82-6.33-7.23-9.49-1.59,8.49-11.5,12.81-17.59,17.85-8.36,6.9-13.79,16.44-19.1,25.71-.94,1.63-3.55,4.64-3.98,6.41-.17.71-1.26,1.17.41,1.13-.65.01-3.38-1.9-4-2.13-5.86-2.09-11.28.75-16.49,3.31-9.13,4.49-23.16,11.65-15.98,23.87,2.7,4.6,6.14,7.63,6.85,13.26.57,4.53-.53,9.16-3.14,12.89-2.35,3.35-5.85,5.92-9.73,7.2-5.45,1.79-8.14.19-9.52-5.22s-1.54-10.94-3.69-16.18-5.66-9.81-8.48-14.78c-5.4-9.53-7.04-20.57-7.59-31.37-.31-6.13-.47-12.32-.3-18.45.18-6.56,2.18-10.03,7.75-13.46s10.85-6.47,16.68-8.69c3.04-1.15,6.32-2.18,9.56-2.58,1.11-.13,2.26-.18,3.38-.19.85,0,1.7.03,2.55.07.65.14.56.01-.27-.37l-1.02-3.79.03,1.03,1.02-3.79c-1.49,3.38-5.87,6.3-8.56,8.82-3.12,2.94-6.25,5.87-9.16,9.02-4.93,5.33-12.19,13.12-12.47,20.77-.35,9.62,9.86,12.04,17.14,14.07,9.7,2.71,19.62,4.41,29.63,5.46,4.03.42,7.5-3.75,7.5-7.5,0-4.41-3.45-7.08-7.5-7.5h0Z"/>
    <path class="cls-1" d="M83.69,483.66c-2.45,8.14-4.62,17.06-2.24,25.49s8.52,12.37,14.46,17.82c6.27,5.76,6.55,14.17,8.34,22.02,1.88,8.26,7.53,15.75,8.5,24.14.69,5.89-2.15,8.67-7.63,9.27-6.73.74-13.47-.37-20.16,1.1s-12.55,6.11-14.73,12.76c-2.74,8.37.53,16.87,4.05,24.45,2.57,5.53,12.83,4.52,13.71-1.79,3.82-27.29,3.06-54.63-2.53-81.63-4.57,1.93-9.14,3.85-13.71,5.78,7.18,10.74,6.31,24.35,1.05,35.77,4.57.6,9.14,1.19,13.71,1.79-1.74-8.04-2.62-16.15-2.57-24.38.02-3.8.22-7.6.61-11.37.19-1.85.44-3.69.75-5.53.21-1.25.44-2.49.69-3.73.96-2.48.37-2.58-1.76-.29h-3.99c-1.12-1.1-1.39-1.05-.8.12.3.88.57,1.76.84,2.64.53,1.77,1.01,3.56,1.43,5.35.77,3.24,1.4,6.52,1.79,9.83.83,7.05.75,14.15.07,21.2l13.98-3.79c-4.05-7.73-7.03-15.87-8.89-24.4-.98-4.49-1.62-9.01-1.9-13.59-.07-1.16.42-4.1-.15-4.91.34-1.42-.35-1.4-2.05.05.34.13.6.37.8.69.27,1.52,2.07,3.71,2.7,5.19s1.21,3.06,1.73,4.61c1.47,4.32,2.6,8.81,3.23,13.34,1.15,8.32.72,16.83-1.07,25.02l13.71-1.79c-5.66-7.86-8.78-17.43-7.44-27.18-3.08,1.75-6.15,3.49-9.23,5.24,5.15,1.38,7.62,7.34,9.46,11.88,1.1,2.71,2.12,5.59,2.2,8.53.04,1.47.06,2.01-1.41,1.31-2.32-1.1-2.51-4.43-2.31-6.65.03-.6.12-1.19.28-1.78.41-1.1-.06-.99-1.42.34.1.24,3.04,1.48,3.45,1.86,1.49,1.41,2.49,3.23,1.63,5.22-.67,1.55-1.24.95-1.73-.04-4.31-8.64-17.25-1.05-12.95,7.57,6.48,13,25.19,9.35,29.16-3.57,4.02-13.03-9.02-29.02-22.98-25.66s-12.64,26.73-2.86,34.2c11.62,8.88,26.98.25,26.08-14.13-.81-13.07-9.2-29.96-22.62-33.56-3.53-.95-8.67,1.19-9.23,5.24-1.89,13.73.76,27.37,8.96,38.74,3.47,4.81,12.21,5.05,13.71-1.79,2.82-12.87,2.9-26.04-.06-38.9-2.4-10.41-6.91-26.42-19.17-28.63-6.36-1.14-12.47,2.39-14.58,8.51-1.93,5.61-.91,12.26-.18,18,1.72,13.58,5.82,26.47,12.18,38.59,3.75,7.16,13.32,3.02,13.98-3.79,1.07-11.11.41-22.31-1.98-33.22-1.79-8.18-5.61-23.93-17.47-20.15-5.13,1.64-6.84,6.67-7.76,11.45-1.09,5.62-1.83,11.34-2.18,17.05-.73,11.74.4,23.52,2.88,35.01,1.3,6,11.01,7.65,13.71,1.79,7.41-16.12,9.22-35.54-1.05-50.91-4.76-7.12-15.45-2.65-13.71,5.78,5,24.16,5.95,49.21,2.53,73.66,4.57-.6,9.14-1.19,13.71-1.79-1.77-3.82-5.85-11.98-.4-14.59,4.85-2.33,11.92-.78,17.08-1.07,6.21-.35,12.37-1.71,17.13-5.95,5.91-5.26,7.47-13.47,6.37-20.98-1.25-8.51-6.25-15.73-8.34-24-1.83-7.24-2.43-14.74-5.86-21.5-3.75-7.39-10.91-10.34-15.66-16.63-4.44-5.87-1.27-14.53.6-20.76,2.79-9.26-11.69-13.22-14.46-3.99h0Z"/>
    <path class="cls-1" d="M90.04,689.92c7.02,9.14,17.8,14.23,29.4,11.75,10.61-2.27,19.17-11.18,21.45-21.7,2.54-11.73-1.95-23.61,2.02-35.18,1.62-4.71,4.31-9.1,7.76-12.69,3.7-3.84,8.34-6.8,11.18-11.43,1.24-2.02,2.05-4.17,2.44-6.49.21-1.28.51-2.98.1-4.29-.88-2.78-4.38,1.84-2.21,2.5,1.68.51,5.26-.36,7.06-.39,2.6-.04,5.25,0,7.81.43,11.13,1.89,12.95,10.48,12.79,20.53-.22,13.22-2.08,26.34-5.41,39.13-2.6,9.96-5.37,21.03-15.24,26.11-8.58,4.41-19.2,3.84-28.07.64-6.17-2.23-11.6-6.09-18.12-7.42-6.94-1.42-13.91-1.01-20.91-.39l1.99,14.73c7.22-1.19,14.45-2.36,21.67-3.56,5.95-.98,11.94-2.19,16.91-5.83,9.42-6.92,10.96-21.52.55-28.29-1.93,4.57-3.85,9.14-5.78,13.71,1.98.73,3.67,2.96,3.78,5.09,0,.07-.38,5.76,1.19,2.82.11-.2-.55-1.72-.61-2.06-.22-1.35-.06-2.84.05-4.2.3-3.7,1.22-7.39,2.49-10.88.26-.78.56-1.54.9-2.28,1.16-1.64.68-1.76-1.43-.35.02-.15,2.01,1.66,1.7,1.33,1.4,1.49,2.06,3.67,2.58,5.59.73,2.67,1.08,5.34,1.19,8.1.06,1.53.34,3.6-.35,5.04-.12.25-.9,1.42-.9,1.44-.65.08-.57.16.25.26.83.41.97.16.43-.77.37-1.05-.79-3.68-.96-4.95-.5-3.76-.57-7.61-.37-11.39.25-4.68.69-15.22,5.08-18.28,2.21-1.55,2.03.63,2.56,2.66.89,3.43,1.5,6.89,1.61,10.44.14,4.14-.15,16.44-5.51,17.26h3.99c.37,1.23.22,1.12-.44-.32-.2-.76-.42-1.51-.65-2.26-.5-1.84-.94-3.7-1.26-5.59-.66-3.9-.77-7.92-.54-11.87.42-7.36,2.42-14.76,5.85-21.29.81-1.55,1.65-3.22,2.7-4.62.31-.54.71-1.01,1.19-1.41,1.24-.73.74-1.05-1.5-.96.61-.61,1.84,7.27,1.85,7.63.07,3.48-.45,6.84-1.57,10.14-.62,1.84-1.44,3.54-2.42,5.21-.52.88-1.08,1.74-1.68,2.58-1.13.94-.98,1.21.47.81l3.79,1.02c.32.69.27.68-.13-.04-.35-.54-.67-1.09-.98-1.65-.45-.83-.88-1.68-1.23-2.56-.8-2.02-1.39-4.25-1.7-6.4-.6-4.13-.26-8.43.77-12.45,1.93-7.5,7.53-17.7,15.81-19.49h-3.99c-1.39-2.28-1.76-2.42-1.11-.41l.19,1.28c.21,1.62.28,3.31.3,4.94.05,3.19-.18,6.37-.8,9.5s-1.55,6.46-2.83,9.48c-.81,1.91-2.12,5.64-4,6.5l3.79-1.02c1.02-.11.8,1.62.6.32-.08-.54-.59-1.33-.77-1.87-.59-1.79-.82-3.64-.86-5.52-.07-3.54.58-7.1,2.02-10.35s3.7-6.45,6.54-8.71c.36-.28,3.38-2.16,2.61-2.26.14.02,1.01,2.34,1.19,3.13,1.7,7.48-.43,16.43-2.93,23.49-2.97,8.38-8.12,15.7-14.6,21.73l12.8,5.3c-.52-9.19.12-18.27,2.35-27.22.45-1.79.94-3.56,1.48-5.32s2.23-4.54,2.27-6.37c1.39-2.04-.2-2.84-4.76-2.41l.53,1.67c.03,2.1,1.28,4.68,1.65,6.79,1.39,7.85.96,16.06-1.12,23.75-1.45,5.36-4.93,15.9-12.42,13.81l5.24,5.24c-.83-3.7,1.51-11.76,6.42-11.16l-3.79-1.02c-3.1-1.74-.7-2.65-1.36-.54-.29.93-.17,2.17-.41,3.17-.55,2.34-1.66,4.44-2.94,6.45-1.21,1.9-2.65,3.6-4.2,5.23-1.3,1.37-3.84,4.59-5.64,5.27h3.99c2.32,4.43,3.24,5.01,2.76,1.73-.04-1.25-.07-2.51-.1-3.76-.06-2.51-.1-5.02-.13-7.52-.05-5.02,0-10.03.08-15.05.18-9.66-14.82-9.66-15,0-.14,7.52-.14,15.05.04,22.57.15,6.16-.1,13.9,7.03,16.28s12.76-3.98,17.03-8.34,7.95-9.41,10.25-15.13c2.1-5.23,3.29-11.88,1.34-17.34-2.38-6.66-9.54-8.38-15.62-5.88-11.36,4.66-16.83,17.43-14.22,29.05.57,2.52,2.81,4.56,5.24,5.24,14.2,3.97,24.81-7.13,29.33-19.41,4.75-12.9,5.13-27.6,1.71-40.86-1.56-6.04-4.26-13.17-11.64-13.43-6.77-.24-11.25,5.37-13.57,11.08-5.55,13.64-7.65,28.8-6.83,43.46.37,6.52,7.92,9.85,12.8,5.3,10.22-9.51,17.59-22.15,20.59-35.82,2.47-11.23,4.39-29.75-7.81-36.34-13.29-7.17-26.6,9.55-30.72,20.31s-4.41,29.27,7.46,35.17c15.55,7.73,22.85-18.71,24.28-29.11.94-6.87,1.26-14.76-.92-21.45-2.86-8.79-11.63-9.74-18.89-5.63-20.66,11.69-28.71,42.82-15.23,62.7,4.25,6.27,11.7,7.86,17.49,2.5,5.03-4.66,8.5-11.89,10.22-18.42,2.87-10.95,2.45-33.18-13.29-33.9-14.49-.66-21.64,20.47-23.92,31.71-1.44,7.09-1.91,14.35-1.09,21.54.76,6.63,1.84,15.33,6.76,20.35,5.54,5.64,14.08,4.27,19.19-1.16s7.28-13.83,7.96-21.2c1.13-12.09-1.28-34.71-17.59-34.53-16.85.19-20.8,20.78-21.49,33.89-.62,11.8,1.48,36.85,19.63,31.32,14.48-4.41,13.91-23.21,9.96-34.9-1.94-5.72-5.26-11.07-10.69-14.03-6.71-3.65-14.44-2.31-18.39,4.54-5.94,10.31-10.59,30.12-.5,39.4,5.27,4.84,13.45,4.24,18.45-.67s6.56-12.67,4.28-19.33-7.24-11.17-13.72-13.56c-8.3-3.06-12.59,9.28-5.78,13.71-.59-.38-.02-.19-.1.58-.09.85-.37,1.35-.86,1.97-1.84,2.36-6.3,2.95-8.96,3.47-8.48,1.67-17.1,2.84-25.63,4.24s-6.43,15.49,1.99,14.73c6.1-.55,12.57-1.34,18.59.24s11.62,5.5,17.73,7.47c9.69,3.12,20.75,3.59,30.54.62,25.48-7.71,30.96-36.52,34.13-59.66,1.67-12.2,3.87-26.81-.34-38.74-3.93-11.16-13.74-17.04-25.06-18.47-9.04-1.14-28-2.58-28.49,10.42-.1,2.72,1.02,3.55-.76,5.77-1.44,1.79-3.38,3.23-5.08,4.74-4.73,4.19-8.83,9.14-11.71,14.79-3,5.9-4.85,12.18-5.47,18.76-.68,7.26.99,14.45.49,21.7-.79,11.67-15.53,19.29-23.68,8.66-2.48-3.24-6.43-4.87-10.26-2.69-3.18,1.81-5.15,7.05-2.69,10.26h0Z"/>
    <path class="cls-1" d="M199.83,632.63c6.69-4.55,10.88-11.38,17.13-16.31,5.35-4.21,13.18-3.72,17.13,2.2,2.29,3.44,1.93,7.29,2.93,11.06.32,1.21.15-.58.58-.6-.32.02-.98.22-1.39.18-2.37-.25-5.03.29-7.44.26-7.87-.1-17.08-2.3-18.44-11.29-.91-6.02-8.78-6.62-12.54-3.31-5.77,5.08-2.68,14.51,4.42,16.41,3.41.91,7.18.31,10.65.15,1.99-.09,3.98-.19,5.97-.28.74-.04,6.32-.37,5.83-.72l-3.71-6.48-.05.65,5.51-7.23-1.14.3h3.99c.82,1.96,1.18,2.24,1.09.86.01-.78.08-1.55.2-2.33l-9.49,7.23c1.37.2,5.86.98,5.83,3.14l1.02-3.79c2.1-.81,2.34-1.09.72-.85-.79.07-1.56.01-2.32-.16-.77-.12-1.52-.31-2.25-.58-1.37-.91-1.63-.82-.79.25v3.99c-2.67,2.22-2.73,2.8-.19,1.74.85-.29,1.72-.46,2.61-.52.68-.03,1.76-.03,1.81.16,2.44,9.33,16.92,5.37,14.46-3.99-2.85-10.88-14.37-12.56-23.76-9.87-4.74,1.35-9.09,4.08-9.54,9.48-.43,5.11,2.94,9.23,7.3,11.5,7.67,4,22.84,5.54,25.65-5.38,2.5-9.72-7.96-18.37-16.58-19.6-5.19-.74-8.92,1.95-9.49,7.23-.97,8.97,4.74,18.29,14.85,15.63,3.38-.89,5.26-3.94,5.51-7.23.49-6.55-5.78-8.84-11.1-8.74-2.98.05-5.97.28-8.96.43-1.66.08-3.32.16-4.98.24l-1.99.09c-3.06-.38-2.88.65.55,3.09v3.99l-1.03,1.79c-4.18-1.1-8.36-2.21-12.54-3.31,2.27,14.98,17.67,21.68,31.22,22.26,6.48.28,14.95.51,20.18-3.93,5.85-4.98,5.09-12.68,3.61-19.52-2.88-13.35-14.37-23.64-28.5-22.35-6.79.62-12.47,3.78-17.39,8.38-4.37,4.08-7.74,9.35-12.72,12.74-7.94,5.39-.44,18.4,7.57,12.95h0Z"/>
    <path class="cls-1" d="M279.91,587.66c2.45,7.2,4.55,14.51,6.22,21.93.95,4.25,4.2,13.92-.18,17.32-2.22,1.72-4.2-.2-6.71-.88-3.42-.92-7.01-.93-10.21.7-5.88,2.99-8.06,9.97-8.53,16.11-.9,11.95,6.76,24.21,1.49,35.77-4.16,9.13-14.77,16.57-25.08,15.11-8.34-1.18-13.03,8.56-5.78,13.71,13.09,9.29,31.95,14.32,46.43,4.98s18.31-25.45,9.97-39.64c-3.57-6.08-7.39-10.91-4.16-18.07,2.8-6.19,8.51-9.99,14.81-11.89,7.14-2.16,14.54-4.61,17.96-11.87s1.62-14.56-4.73-19.12l-1.79,13.71c2.23-.8,4.46-1.6,6.69-2.4,5.04-1.81,7.72-8.43,3.31-12.54-2.77-2.58-5.54-5.16-8.31-7.74l-5.3,12.8c8.34-.05,16.58.56,24.79,2.04s13.19-8.9,5.78-13.71-17.87-4.87-24.08,1.98c-5.48,6.04-5.53,16.9,1.19,22.09,2.43-4.18,4.86-8.36,7.3-12.54-20.1-7.15-30.21,18.28-37.39,31.8-4.39,8.27-6.03,17.35,2.76,23.4,3.39,2.34,7.17,3.26,11.19,3.75,2.97.36,6.95,0,9.21,2.3,3.5,3.56,1.94,10.8.06,14.73-3.17,6.63-9.52,11.89-16.19,14.74-4.22,1.8-15.52,5.29-18.89,1.05-1.68-2.12-2-5.35-3.66-7.63-2.31-3.17-5.58-4.98-9.56-4.83l5.3,12.8c3.69-4.04,7.69-7.75,12.24-10.81.34-.23,2.78-1.47,2.8-1.79-1.95-1.95-2.95-2.07-3.01-.37-.1.61-.25,1.2-.45,1.78-.33,1.06-.77,1.92-1.21,2.92-.53,1.22-1.17.65-.27.75l3.79,1.02c-1.53-.66-.51-7.18.01-9.06,1.01-3.61,3.34-7.98,6.91-9.63,1.1-.51-.32-.7.18-.26.45.4.59,1.18.78,1.71.55,1.53.68,3.34.5,4.96-.46,4-2.62,7.08-5.65,9.58,4.18,1.1,8.36,2.21,12.54,3.31-1.11-4.22-3.02-9.71-1.44-14.06.56-1.52,1.28-2.26,2.59-3.1.38-.25,1.14-.59,1.58-.54.75.09-.45-.37.04.14,1.72,1.8.37,5.63-.66,7.43-1.61,2.79-4.61,5.2-7.89,5.57l7.23,5.51c-1.23-7.67,4.11-15.81,11.32-18.26-3.16-2.41-6.33-4.82-9.49-7.23-.99,13.08-14.51,24.13-27.55,22.54-4.57-.56-9.15-2.31-13.58-3.55-1.59-.45-4.6-1.94-6.13-1.72l-.88-.25c1.29,2.08,1.73,2.42,1.34,1.03.14-.96-.47-2.25-.79-3.18-2.53-7.22-10.33-11.41-17.76-10.86-8.25.61-14.52,6.57-17.04,14.25-2.73,8.29-.41,17.2,3.93,24.49,4.27,7.16,10.44,15.03,18.24,18.47,7.14,3.16,15.97,2.08,21.36-3.91,5.97-6.63,3.74-15.21-.8-21.83-.86-1.26-4.44-5.41-4-6.58,1.06-2.83,8.34-.31,10.3.32l-1.79-13.71c-4.57,2.45-9.23,4.54-14.17,6.15-2.29.74-4.68,1.59-7.05,1.99.72-.12-1.89.43-1.61.23-.23.08-.44.07-.63-.04-.99-.49-.24.17,2.26,1.99-4.18,2.43-8.36,4.86-12.54,7.3,4.29,3.66,8.04,7.69,11.17,12.38,2.82-3.67,5.65-7.34,8.47-11.02.09.02-1.07,0-1.1-.35-3.76,2.16-7.52,4.32-11.29,6.48,2,1.32,3.49,2.88,4.77,4.89,5.16,8.13,18.15.61,12.95-7.57-2.68-4.22-5.98-7.53-10.15-10.27-4.53-2.98-11.76.88-11.29,6.48.61,7.2,4.82,13.16,12.11,14.82,5.97,1.36,12.3-5.28,8.47-11.02s-8.26-10.93-13.52-15.42c-5.97-5.1-13.68-.12-12.54,7.3,1.23,7.99,10.35,9.84,17.01,8.59,9.13-1.7,18.08-5.59,26.22-9.96,5.95-3.19,4.08-11.8-1.79-13.71-7.88-2.56-16.81-3.38-23.55,2.36-5.93,5.04-6.99,12.73-3.73,19.58,1.17,2.47,2.85,4.59,4.37,6.84.66.97,1.4,1.96,1.88,3.04.78,1.77.24.89.15.96-4.34,3.38-10.95-6.16-12.88-8.8-3.27-4.46-8.63-13.29-3.59-18.52,1.04-1.08,2.72-1.84,4.19-.96,1.79,1.07,1.86,5.25,3.02,7.12,2.3,3.69,6.08,4.76,10.02,5.86,4.34,1.21,8.66,2.48,13.01,3.64,7.41,1.97,14.94,2.44,22.36.15,16.1-4.96,27.85-19.22,29.12-36.02.36-4.71-5.1-8.73-9.49-7.23-15.57,5.29-24.37,20.62-21.79,36.71.47,2.92,4.25,5.84,7.23,5.51,9.1-1.02,17.27-5.8,21.49-14.2s4-19.62-3.82-25.68c-7.21-5.59-17.32-3.06-23.19,3.25-7.74,8.32-5.79,20.19-3.16,30.19,1.54,5.86,8.35,6.77,12.54,3.31,10.95-9.05,15.7-32.74.41-40.42-8.86-4.45-18.11,1.96-23.2,9.03-4.75,6.6-6.92,14.96-5.96,23.02s6.31,16.84,15.79,14.08c7.98-2.32,12.44-12.39,12.84-20.02.48-8.92-6.95-17.35-16.32-14.24-8.07,2.68-15.79,10.41-21.4,16.54-4.17,4.56-1.49,13.07,5.3,12.8-2.86.11-3.48-3.52-1.82.13.74,1.61,1.24,3.34,2.08,4.9,2.01,3.7,5.19,6.37,9.19,7.7,7.57,2.52,16.89,1.47,24.33-1,14.09-4.69,27.62-16.26,30.63-31.36,1.39-6.96.93-14.67-3-20.79-4.42-6.88-11.53-8.81-19.25-9.63-1.47-.16-3.89-.06-5.17-.95-1.1-.76-.65-.45-.69-.68-.26-1.3,2.95-5.55,3.6-6.76,1.25-2.34,2.5-4.67,3.76-7.01,2.73-5.09,7.15-17.13,14.82-14.4,6.78,2.41,13.24-7.94,7.3-12.54-.43-.33-1.61-.76-.63-1.5,1.66-1.25,3.91.06,5.35.99,1.93-4.57,3.85-9.14,5.78-13.71-9.52-1.72-19.1-2.64-28.78-2.58-6.31.04-10.15,8.29-5.3,12.8,2.77,2.58,5.54,5.16,8.31,7.74,1.1-4.18,2.21-8.36,3.31-12.54-2.23.8-4.46,1.6-6.69,2.4-6.34,2.27-7.14,9.87-1.79,13.71-2.43-1.74.11-.6-1.8.56-2.47,1.51-5.09,2.17-7.84,3.01-5.89,1.78-11.15,4.41-15.79,8.51-8.71,7.69-13.88,20.28-10.11,31.7,1.98,6,7.59,11.01,8.68,17.19.83,4.67-1.79,9.29-5.2,12.31-9.78,8.65-23.89,2.96-33.09-3.57-1.93,4.57-3.85,9.14-5.78,13.71,14.27,2.02,28.16-3.4,37.25-14.71,4.23-5.27,7.25-11.42,8.27-18.13,1.19-7.86-.73-15.38-2.21-23.06-.66-3.4-1.35-7.22-.48-10.64.09-.78.35-1.5.77-2.14-1.57.66-1.75,1.08-.52,1.26.79.95,4.18,1.47,5.36,1.69,7.53,1.41,14.69-2.74,18.51-9.16,4.2-7.05,3.17-15.55,1.67-23.21-1.76-8.95-4.23-17.76-7.17-26.39-3.09-9.09-17.58-5.19-14.46,3.99h0Z"/>
    <path class="cls-1" d="M199.48,789.67c7.77,1.51,15.79,1.37,23.32-1.29,6.28-2.22,15.5-6.22,16.43-13.76.51-4.18-1.74-7.64-4.56-10.5-.69-.71-3.54-4.03-4.25-3.96-.55.05.71-3.42-.59.96-.59,1.97.25,1.15,1.94,1.09,8.18-.26,16.24,2.3,24.34,3.09,4.08.4,8.16.29,12.2-.44,4.16-.76,7.76-2.73,11.75-4,7.32-2.33,16.72,1.86,23.12,5.44.62.34,1.26.7,1.83,1.11,1.89,1.35,1.34,2.44,2.24-.86,1.22-4.5.9-1.51-.62-1.93-.42-.12-3.24.5-3.11.48-4.44.65-8.89,1.27-13.33,1.9-7.7,1.1-18.87.54-24.41,6.82-5.68,6.43-2.18,16.48,4.67,20.46,3.85,2.24,8.2,2.63,12.54,3.08,4.85.5,9.56,1.52,14.24,2.89-.6-4.57-1.19-9.14-1.79-13.71-4.29,2.48-9.01,1.22-13.51-.13-5.61-1.69-10.99-4.01-16.71-5.34-11.98-2.78-24.28-2.56-36.22.29-9.56,2.28-5.34,15.99,3.99,14.46,7.09-1.16,14.17-2.31,21.26-3.47,3.99-.65,6.25-5.62,5.24-9.23-1.19-4.26-5.2-5.88-9.23-5.24,3.58-.57,0,5.5-1.45,3.68v-10.61c-2.53,2.33-2.27-1.92-3.49-.81-1.07.97.3,1.11,1.35,1.83s2.07,1.47,3.05,2.29c2.11,1.74,4.03,3.68,5.88,5.69,1.77-4.27,3.54-8.54,5.3-12.8-5.08-.67-9.85-3.11-13.63-6.5-1.77,4.27-3.54,8.54-5.3,12.8,6.88-.51,13.19.65,19.26,3.99,2.82,1.55,6.81,1.3,9.09-1.17,3.95-4.29,2.15-7.51,1.42-12.38v3.99c-5.16,2.84-5.91,4.05-2.25,3.65,1.31,0,2.62.02,3.94.03,2.62.02,5.25.04,7.87.05,6.06.04,10.47-8.54,5.3-12.8l-.27-.17c-3.08,3.08-6.15,6.15-9.23,9.23,9.53,1.41,18.97,1.98,28.6,1.35,9.58-.63,9.65-15.63,0-15-8.21.54-16.46.39-24.61-.81-5.55-.82-10.74,3.19-9.23,9.23.69,2.75,1.94,4.99,4.13,6.79,1.77-4.27,3.54-8.54,5.3-12.8-5.79-.04-14.39-1.74-19.64,1.27-2.23,1.28-3.82,3.54-4.38,6.02-.36,1.57-.27,3.37.14,4.94.1.37.54,2.6.62,1.58.73-1.77,1.46-3.54,2.2-5.3l-.52.56c3.03-.39,6.06-.78,9.09-1.17-8.26-4.55-17.39-6.75-26.83-6.04-6,.45-10.5,8.15-5.3,12.8,7.03,6.29,14.93,9.67,24.24,10.89,6.92.91,9.24-8.54,5.3-12.8-4.73-5.13-11.63-12.08-18.66-13.8-8.02-1.96-14.95,4.02-16.22,11.76-2.65,16.22,16.62,24.83,28.09,14.25,3.22-2.97,2.44-7.54,0-10.61-5.87-7.4-18.93-4.51-21.87,4.21-3.6,10.7,6.88,18.75,16.7,17.18-1.33-4.82-2.66-9.64-3.99-14.46-7.09,1.16-14.17,2.31-21.26,3.47,1.33,4.82,2.66,9.64,3.99,14.46,12.31-2.94,24.52-1.99,36.43,2.14,11.05,3.84,22.62,7.86,33.59,1.53,5.67-3.27,4.34-11.91-1.79-13.71-3.66-1.07-7.35-1.95-11.12-2.54-3.39-.53-7.1-.44-10.4-1.35-.02,0-2.11-.91-1.99-.93.06-.01.47,5.65-1.61,3.23.05.06,1.95-.43,2.13-.46,4.01-.74,8.1-1.17,12.14-1.74,7.26-1.03,15.74-1.09,22.65-3.64,6.86-2.53,10.69-9.85,6.96-16.63-3.4-6.17-10.52-9.25-16.7-11.77-7.33-2.99-15.03-5.73-23.05-4.5-7.6,1.17-13.56,5.42-21.53,5.02-7.59-.38-14.98-2.54-22.56-3.12s-17.05.33-20.05,8.56c-1.32,3.61-.81,7.62.98,11,.99,1.88,2.43,3.54,3.94,5.02.99.97,3.41,2.35,3.64,3.68v-3.99c.41-1.25,1.38-1.1.1-.79-.86.21-1.9,1.19-2.69,1.62-1.98,1.07-4.05,1.81-6.23,2.38-4.04,1.04-8.24,1.17-12.34.37-9.43-1.83-13.47,12.63-3.99,14.46h0Z"/>
    <path class="cls-1" d="M295.1,702.07c-1.16,10.21,6.69,18.26,15.65,21.59,10.25,3.81,21.76,3.13,32.51,3.63,8.64.4,17.83,1.6,24.76,7.28,2.6,2.13,4.82,4.95,5.53,8.29.97,4.55-2.39,6.35-6.31,7.49-10.19,2.95-22.08,2.07-32.61,2.61-4.09.21-8.5.91-12.58.32s-3.54-1.04-.79-3.63c3.31-3.12,7.34-5.35,9.82-9.31,2.96-4.72,3.54-10.61.26-15.3-2.77-3.95-7.54-5.21-11.97-6.31-2.51-.62-5.05-1.16-7.53-1.9-1.06-.32-2.12-.63-3.14-1.07-1.42-.61-2.16-1.87-2.51-.59-.5,1.81.7-.06,1.23-.19,1.14-.29,2.11-.85,3.34-.98,2.27-.24,4.62.28,6.72,1.08,4.81,1.84,8.71,5.52,12.43,8.96,4.08,3.77,8.14,7.58,12.77,10.68,2.36,1.58,4.84,2.83,7.48,3.87,1,.4,2,.77,3.04,1.06.78.23,1.57.41,2.37.53,2.06.6,1.82-.11-.71-2.15v-3.99l-.41,1.05,3.45-4.48c-4.68,2.47-11.54,2.87-16.72,3.06-2.78.1-5.58.06-8.36-.19-1.18-.1-2.36-.34-3.54-.41-2.66-.16-1.11-1.28-.89.36v3.99c-2.04,1.96-2.26,2.44-.64,1.42.98-.5,1.99-.94,3.03-1.32,1.63-.62,3.31-1.15,5-1.6,2.96-.8,6.53-1.73,9.64-1.12,1.83.36,2.72.59,2.17,2.23-.79,2.36-4.28,2.71-6.28,2.71-1.85,0-3.58-.31-5.37-.75-.17-.04-3.92-1.42-4.07-1.36-1.2,3.97-.75,5.1,1.34,3.37.78-.45,1.6-.83,2.44-1.14,1.43-.56,2.96-.97,4.47-1.26,3.22-.61,6.65-.6,9.86.07,1.48.31,3.04.74,4.45,1.3.83.35,1.64.74,2.42,1.19,1.53.89,1.78,1.04.76.48l-1.02-3.79-.07,1.2,1.02-3.79c-.96,1.68-5.83,2.54-7.52,2.97-3.49.89-7,1.26-10.59,1.43s-6.85.17-10.27.1c-1.09-.02-2.14-.08-3.21-.2-1.79-.2-1.48-1.13-1.1.22l-5.24,9.23c12.49-4.61,26.4-7.58,39.79-6.27l-3.79-1.02.18.07-2.2-5.3c1.68-2,1.74-2.59.17-1.78-1.16.36-2.34.65-3.53.87-2.23.35-4.64.39-6.88.08,1.1,4.18,2.21,8.36,3.31,12.54,3.13-2.47,6.99-4.13,10.91-4.84,1.58-.28,8-.85,7.86.32l7.5-7.5c-5.25.46-9.93-.2-14.85-2.07.6,4.57,1.19,9.14,1.79,13.71,2.91-2.02,6.56-3.25,10.03-1.75l-3.71-6.48c-.15-2.79,1.29-.63-.38-.75s-4.03,1.09-5.65,1.45-3.34.8-5.04.98c-.69.11-1.38.14-2.08.09,2,1.46,1.98,3.24-.05,5.35,3.72-1.68,4.54-7,2.69-10.26-2.17-3.82-6.59-4.35-10.26-2.69-4.93,2.23-6.86,8.24-5.49,13.25,1.71,6.26,7.73,9.33,13.87,9.34,9.81.02,28.07-3.87,27.37-16.75-.13-2.42-1.28-5.42-3.71-6.48-8.34-3.61-17.51-3.57-25.18,1.75-5.54,3.84-4.36,11.37,1.79,13.71s12.43,3.16,18.84,2.6c4.41-.38,7-3.15,7.5-7.5,1.23-10.64-9.57-15.67-18.53-15.68-9.65-.02-18.37,3.69-25.84,9.59-4.17,3.3-2.04,11.78,3.31,12.54,7.74,1.09,17.23,1.21,23.92-3.53,6.01-4.26,7.84-13.54.44-17.59-6.27-3.43-16.73-1.36-23.5-.48-8.44,1.1-16.62,3.08-24.61,6.02-3.8,1.4-6.4,5.04-5.24,9.23,2.07,7.46,8.95,10.3,16.08,10.88,7.97.65,16.41.19,24.26-1.25,6.73-1.23,16.41-3.96,19.77-10.57,4.42-8.73-4.44-14.36-11.36-17.04s-14.81-3.17-22.24-1.8c-6.69,1.23-16.06,4.63-18.56,11.64-6.36,17.86,23.84,22.23,34.5,16.45,6.59-3.57,11.2-11.38,9.71-18.95-1.45-7.36-7.71-11.93-14.85-13.03-10.15-1.56-40.71,4.12-32.89,20.13,3.66,7.49,13.55,8.12,20.78,8.43,8.55.37,17.71-.61,25.84-3.35,4.1-1.38,7.43-3.65,8.01-8.27.54-4.24-1.99-8.23-5.73-10.08-3.17-1.57-6.78-1.49-9.99-3.09-3.6-1.79-6.68-4.4-9.63-7.09-6.54-5.95-12.85-12.29-21.22-15.6-7.94-3.14-17.5-3.14-24.63,1.97-7.54,5.41-9.4,15.7-2.21,22.28,3.26,2.98,7.62,4.64,11.79,5.88,2.11.63,10.93,1.62,11.71,3.39l-1.02-3.79c.27,2.72-4.23,5.05-6.11,6.6-3.05,2.53-5.6,5.47-7.09,9.18-2.87,7.14-.3,15.16,6.55,18.89,6.12,3.33,13.19,2.86,19.89,2.52,9.08-.46,18.2-.72,27.26-1.44,7.57-.6,15.44-1.75,21.68-6.41,6.68-4.97,9.22-12.63,7.46-20.73-3.01-13.82-16.66-22.63-29.69-25.49-9.64-2.12-19.55-1.68-29.33-2.26-6.04-.35-20.07-.82-19.05-9.71.46-4.03-3.78-7.5-7.5-7.5-4.44,0-7.04,3.46-7.5,7.5h0Z"/>
    <path class="cls-1" d="M364.89,694.69c-1.67.53-2.97.69-4.37.39,1.1,4.18,2.21,8.36,3.31,12.54.15-.17,1.65-1.39.63-.72.19-.12,1.76-.8,1.03-.57-.91.28,1.72-.26-.11-.03.37-.05,2.33.15.86-.1v-14.46c1.71-.28-.94-.22.63.02-.44-.08-.88-.19-1.31-.33.63.3.71.33.24.09-.3-.15-.6-.32-.88-.51.52.43.59.47.2.11-.25-.23-.48-.47-.7-.73.5.61.52.56.06-.17-1.49,3.67-2.99,7.34-4.48,11.02.36-.1,2.18-.28.95-.25.5-.02,1,0,1.5.04-.63-.08-.68-.06-.15.05.37.08.72.19,1.08.32-.53-.22-.56-.22-.09.02,1.94,1.12-.27.22-.47-1.1v-3.99c-.28,2.05.8-1.69,2.08-2.13.09-.03,1.16-.48,1.17-.18-.02-.31-5-.71-5.27-.73-3.92-.27-7.67,3.64-7.5,7.5.19,4.29,3.3,7.21,7.5,7.5-1.11-.08,1.05.16,1.28.19,1.18.19,2.43.44,3.63.45,2.24.03,4.54-.52,6.47-1.66,4.21-2.48,6.59-7.79,4.63-12.45-3.24-7.67-13.37-10.17-20.8-8.05-4.73,1.35-6.84,6.77-4.48,11.02,3.8,6.85,11.23,9.62,18.7,8.42s7.13-13.24,0-14.46c-6.27-1.08-12.61.43-17,5.28-3.57,3.94-2.5,11.28,3.31,12.54,4.15.9,8.27.9,12.34-.39,3.74-1.18,6.52-5.27,5.24-9.23s-5.22-6.5-9.23-5.24h0Z"/>
    <path class="cls-1" d="M345.48,679.67h1.53c1.03.04,2-.18,2.89-.65.93-.3,1.73-.82,2.41-1.55.73-.68,1.25-1.48,1.55-2.41.47-.89.68-1.86.65-2.89l-.27-1.99c-.36-1.27-1-2.37-1.93-3.31l-1.52-1.17c-1.17-.68-2.43-1.02-3.79-1.02h-1.53c-1.03-.04-2,.18-2.89.65-.93.3-1.73.82-2.41,1.55-.73.68-1.25,1.48-1.55,2.41-.47.89-.68,1.86-.65,2.89l.27,1.99c.36,1.27,1,2.37,1.93,3.31l1.52,1.17c1.17.68,2.43,1.02,3.79,1.02h0Z"/>
    <path class="cls-1" d="M322.41,611.81c-1.1,4.21-3.3,9.2-2.56,13.61.92,5.46,5.77,8.15,11,7.61,10-1.04,18.17-6.98,27.99-1.54,7.92,4.39,12.52,12.81,15.26,21.15,1.5,4.57,2.42,9.39,5.21,13.4,2.81,4.03,6.8,6.58,11.31,8.37,8.22,3.25,18.87,4.89,27.03.7,7.4-3.79,11.35-12.05,11.01-20.19-.38-9.08-5.14-16.63-12.23-22.06-3.49-2.68-7.27-4.72-11.29-6.48-3.41-1.49-8.77-2.53-11.54-5.17-1.24-1.19-1.26-2.12-1.83-3.81-.92-2.73-2.49-4.9-5.01-6.37-4.5-2.62-10.62-2.14-15.62-2.45-13.01-.81-26.03-1.62-39.04-2.43-8.36-.52-10.31,13.07-1.99,14.73,7.36,1.47,14.63,3.3,21.78,5.58,5.31,1.7,12.42,3.28,16.59,7.27,2.18,2.08,2.46,5.16,3.57,7.84s2.74,5.11,4.82,7.23c2.73,2.79,8.33,5.27,9.64,9.1,4.18-2.43,8.36-4.86,12.54-7.3-6.81-6.13-12.24-12.98-13.56-22.27-3.08,3.08-6.15,6.15-9.23,9.23,11.69,2.62,21.68,10.66,25.84,22.06,2.41-3.16,4.82-6.33,7.23-9.49-2.85-.38-9.59-3.54-9.25-6.92l-1.02,3.79c-.98,2.12-5.35,1.08-.79,2.32,1.01.28,1.97.6,2.91,1.05,2.1,1,3.22,2.39,4.99,3.71-.06-.05,1.02-1.13.04-.82-.91.29-1.87.74-2.87.73-.43,0-1.32-.2-1.74-.03-.46-.89-.78-.5-.95,1.18-.42,2.5-2,2.66-4.72.49,4.79,8.38,17.75.83,12.95-7.57-3.52-6.15-11.55-7.66-17.3-3.67s-6.26,12.11-2.57,17.76c8.1,12.41,32.61,7.07,32.2-8.65-.2-7.61-6.99-13.45-13.33-16.5-5.76-2.77-15.11-5.57-20.16-.02-5.16,5.67-2.07,13.42,2.25,18.46,5.02,5.86,11.89,8.7,19.37,9.69,4.67.62,8.76-5.31,7.23-9.49-5.92-16.22-19.31-28.73-36.32-32.54-6.06-1.36-10.03,3.56-9.23,9.23,1.64,11.55,8.95,21.27,17.42,28.89,5.19,4.67,15.13.23,12.54-7.3-2.21-6.43-6.71-9.77-11.66-14.03-5.25-4.53-5.15-11.82-10.23-16.76s-12.82-7.62-19.65-9.95c-8.29-2.82-16.75-5.04-25.34-6.76l-1.99,14.73c8.78.55,17.57,1.09,26.35,1.64,4.23.26,8.46.53,12.69.79,1.96.12,5,.9,6.83.42-.84.22,1.42.03,1.38.09-.22.37-2.18-4.08-1.4-.31,2.85,13.76,22.09,14.11,30.9,22.18,3.49,3.2,6.46,8.7,4.13,13.45-2.56,5.22-10.59,2.98-14.93,1.72-2.53-.73-5.17-1.68-6.65-3.97-1.95-3.02-2.41-7.44-3.64-10.82-2.59-7.09-6.05-13.74-11.05-19.44-5.61-6.39-13.54-11.17-21.97-12.52-4.44-.71-8.71-.5-13.1.48s-8.56,3.23-12.95,3.32l3.79,1.02,1.22,1.43,1.02,3.79c-.07-2.45,1.5-6.13,2.16-8.63,2.44-9.35-12.02-13.33-14.46-3.99h0Z"/>
    <path class="cls-1" d="M510.77,719.47c-3.61,5.14-11.55,5.86-17.06,7.49-6.65,1.97-12.99,4.91-17.36,10.48-4.22,5.39-5.68,12.35-2.86,18.72,2.65,5.98,8.63,10.39,15.35,9.76-1.77-4.27-3.54-8.54-5.3-12.8-16.48,15.8-38.67,23.98-61.45,23.04,1.26,4.66,2.52,9.32,3.79,13.98,10.14-5.97,11.83-19.6,5.5-29.03-7.02-10.48-19.33-13.3-29.05-20.34v12.95c1.86-1.06,4.69-1.02,6.08.94,2.82-3.67,5.65-7.34,8.47-11.02-2.73-1.02-5.35-2.22-7.91-3.61-1.64-.9-5.41-2.32-6.33-3.8l1.02,3.79v-1.09c-.35,1.26-.69,2.52-1.03,3.79-1.3.55-1.63.92-.98,1.1,1.03-.08,2.05-.09,3.08-.04,1.72.14,3.46.49,5,1.32,2.96,1.6,4.19,4.11,3.93,7.39l7.5-7.5c-8.2-.04-15.91-3.83-20.57-10.67-1.49,3.67-2.99,7.34-4.48,11.02,5.77-1.03,11.1,2.34,13.76,7.28l2.69-10.26c-5.42,2.95-11.34,1.01-15.08-3.56-1.1,4.18-2.21,8.36-3.31,12.54,5.5-1.26,10.97.02,15.7,2.99,3.67,2.3,8.93,7.41,8.82,12.09.34-1.26.68-2.52,1.02-3.79.75-.59,1.5-1.17,2.25-1.76h3.99c-3.87-.79-7.63-7.32-9.37-10.61-1.25-2.36-2.11-4.84-2.72-7.44-.25-1.07-.61-2.21-.48-3.32-.39,3.37-.97-.39.22.93s2.86,2.31,4.03,3.88c1.97,2.61,3.62,5.57,5.04,8.51,1.16,2.39,2.08,4.87,2.84,7.42.28.94.65,4.05,1.23,4.79.9,1.16-1.85.9.88-.39l3.79-1.02c-1.88.15-7.2-11.33-8.14-13.73-2.11-5.44-3.35-11.21-3.48-17.05-.02-.81.44-2.58.03-3.22-4.2.43-5.43,1.36-3.68,2.81l.58.73c1.36,3.1,3.12,6.04,4.46,9.16,2.52,5.89,4.56,12.02,6.2,18.21.83,3.13,1.55,6.29,2.16,9.47.2,1.01.11,3.52.77,4.35-.09,1.96.95,1.88,3.11-.24,2.75-.06,3.61-.72,2.59-1.97,0-2.74-2.14-6.61-2.89-9.29-.91-3.29-1.72-6.61-2.42-9.96-1.35-6.45-2.4-13.03-2.75-19.62-.26-4.7-.41-9.63,3.52-12.81l-11.78-1.52c7.64,17.58,12.23,36.5,13.66,55.6,4.66-1.26,9.32-2.52,13.98-3.79-4.45-7.8-7.85-15.97-10.1-24.66-1.07-4.11-1.92-8.3-2.44-12.52-.28-2.3-.45-4.62-.56-6.93-.05-1.16-.09-2.32-.11-3.48.4-3.03-.65-2.59-3.16,1.33h-3.99c-1.94-1.52-2.24-1.3-.89.67.53,1.09,1.05,2.18,1.55,3.28.99,2.16,1.93,4.33,2.8,6.54,1.56,3.93,2.96,7.92,4.22,11.96,2.66,8.58,4.71,17.4,5.9,26.3,1.26,9.38,14.29,9.89,15,0,.66-9.23,1.32-18.46,1.98-27.68-4.66,1.26-9.32,2.52-13.98,3.79,3.21,7.58,3.93,15.71,3.07,23.83h15c.64-6.06,2.64-11.76,5.61-17.05-3.93.51-7.85,1.01-11.78,1.52,1.22,1.49.29,3.29-.61,4.6,4.32,2.52,8.63,5.05,12.95,7.57,2.15-3.7,4.82-6.34,8.53-8.47-3.42-3.42-6.84-6.84-10.26-10.26,0,.54-.25.84-.78.91-7.48,4.08-2.39,16.02,5.78,13.71,2.62-.74,5.24-1.48,7.86-2.22,8.45-2.39,6.24-14.1-1.99-14.73s-15.62-4.88-20.64-11.15c-1.25-1.57-2.34-3.32-3.24-5.11-.32-.63-.54-1.49-.93-2.07l-.46-1.33c-4.9,1.46-6.37,2.51-4.43,3.15.52,1.12,2.3,2.28,2.97,3.63,1,2.03,1.35,4.11,1.37,6.36,3.76-2.16,7.52-4.32,11.29-6.48-5.29-3.37-9.37-8.05-12.13-13.69-1.3-2.65-2.21-5.52-2.78-8.42-.24-1.24-.4-2.46-.47-3.72-.05-.96-.07-1.92-.05-2.88.41-2.12-.15-2.02-1.68.28l-3.79,1.02c-.82-.52-.75-.3.23.67l.94,1.41c.93,1.41,1.77,2.89,2.55,4.39,1.53,2.94,2.67,6.02,3.55,9.22s1.45,6.39,1.6,9.68c0-.03-.12,3.36-.08,3.39,4.19-.76,5.3-1.67,3.34-2.74-.53-.49-1.04-1-1.53-1.53-3.64-3.88-5.92-9.08-6.65-14.33-.35-2.52-.36-5.25.03-7.77.22-1.42.58-2.83,1.05-4.19.15-.53.34-1.04.57-1.54.58-1.04.59-1.13.03-.28l-3.79-1.02c3.47,1.57,5.45,6.85,6.57,10.31.73,2.27,1.32,4.61,1.55,6.99.11,1.1.14,2.23.14,3.34,0,2.26-1.11,3.67,1.46,2.6,3.15-1.31.92-.37.33-1.76-.28-.66-1.54-1.9-1.9-2.45-.95-1.47-1.78-3.04-2.39-4.68-1.44-3.87-1.98-8.12-1.5-12.23.2-1.7.64-3.43,1.2-5.05.49-1.41,2.32-3.35,2.55-4.63.19-1.07,1.26-.09-.11-.43s.24,1.76.39,2.1c.86,1.97,1.47,4.11,2.04,6.17,2.8,10.15,2.57,20.67-.2,30.78l13.71-1.79c-4.83-7.77-7.88-16.48-8.45-25.64-.27-4.38-.16-8.84.62-13.17.38-2.1.88-4.18,1.49-6.23.35-1.19.83-2.35,1.18-3.54.12-.4.3-.77.54-1.12.66-.94.4-.9-.77.12l-3.79-1.02s.82,1.65,1.18,2.72c.67,2,1.28,4.03,1.82,6.07,1.13,4.32,1.98,8.71,2.4,13.15.73,7.79,1.09,16.76-1.01,24.38-.63,2.26-.49,2.39-2.48.78-2.62-2.12-3.37-7.49-3.95-10.52-1.61-8.36-1.17-17.21,1.16-25.39.48-1.69,1.92-7.35,4.36-7.35,1.92,0,2.01,4.09,2.25,5.7.62,4.18.72,8.47.52,12.69-.21,4.49-1.91,8.97-2.07,13.35-.05,1.49-.87.87.21,1.27,1.66.61.25-.65.31-.49-.44-1.14-1.6-2.35-2.11-3.58-1.56-3.77-2.56-7.93-3.21-11.95-1.11-6.9-1.67-16.04,1.52-22.51.71-1.44,2.94-4.57,5.11-3.66s2.73,7.79,2.97,9.85c.5,4.38.39,8.98-.48,13.31-.45,2.24-1.03,4.44-1.77,6.59-.28.8-.55,1.62-.88,2.4-.29.67-.6,1.32-.95,1.96-.36.79-.43.84-.2.15h3.99c-6.27-1.2-5.23-15.13-4.91-19.52.57-7.82,1.8-17.61,8.37-22.85,1.27-1.02,2.72-1.86,4.28-2.31.73-.28,1.49-.4,2.26-.37,1.17-.05,1.33,0,.48.13,1.08,1.01,1.35,5.55,1.59,7,.38,2.29.6,4.6.7,6.92.21,4.7,0,9.45-.81,14.09-.42,2.35-.98,4.69-1.64,6.99-.33,1.15-.7,2.29-1.09,3.42-.6.81-.48.82.37.02h3.99c1.08.16-.41-2.06-.78-3.21-.57-1.79-1.07-3.67-1.31-5.54-.51-4.04-.19-8.23.88-12.16.56-2.06,1.79-7.32,3.98-8.4-.28.14-1.05-.62-.18.21.98.93,1.47,2.54,1.87,3.78,2.28,7.12,2.11,16.53.98,23.85-.2,1.28-.46,2.72-.97,3.93-.24.57-1.38,1.89-.71,1.24,1.86-1.8.8,1.12.49-.17-.08-.34-1.14-1.3-1.36-1.62-.97-1.46-1.41-3.17-1.77-4.87-1.38-6.64-.57-16.15,4.03-21.55,1.95-2.28,2.08-1.93,3.66.3,2.29,3.22,3.64,7.22,4.44,11.05.73,3.49.87,7.25.36,10.79-.3,2.14-1.57,7.07-3.61,7.69.65-.19.78,1.04.5-.31-.22-1.09-.29-2.15-.15-3.28.25-2,.69-4.98,2.95-4.1,3.38,1.32,2.97,7.49,3.14,10.33.03.5.2,1.69.19,1.55.02.2.55.26.58.6.07.78-.04,2.17-1.57,2.21-1.91.04-.15-2.35-1.45-2.87-.04-.02-.77.66-.89.69-1.58.42-3.18,1.41-4.81,1.88-5.35,1.53-10.8,2.49-16.35,2.92,2.16,3.76,4.32,7.52,6.48,11.29l-1.38,1.5-3.79,1.02,1,.03-3.79-1.02-1.16-1.09-1.02-3.79c.47,3.66-5.06,7.48-7.21,10.15-3.7,4.6-5.69,9.72-4.1,15.64,2.35,8.75,13.78,5.94,14.73-1.99.67-5.58,1.59-11.13,2.74-16.63s3.64-11.17,3.51-16.61-4.5-9.47-9.78-8.69c-4.63.68-8.37,6.19-6.45,10.78,1.62,3.86,4.85,6.26,9.23,5.24l.41-.1c9.4-2.19,5.42-16.66-3.99-14.46l-.41.1,9.23,5.24.18,1.02-1.02,3.79.3-.45-6.48,3.71.52-.03-5.3-2.2.69.78-2.2-5.3c.21,1.95-.98,4.72-1.47,6.75-.74,3.06-1.4,6.13-2,9.22-1.15,5.91-2,11.87-2.72,17.84l14.73-1.99c-.31-1.16,2.92-4.09,4.06-5.33,2.8-3.05,5.6-6.28,6.97-10.25,1.68-4.89,1.09-10.73-3.55-13.82s-10.82-1.34-13.44,3.37.58,11.75,6.48,11.29c10.14-.8,23.18-1.95,31.32-8.74s6.97-19.59-3.5-23.08c-9.65-3.22-18.95,5.3-17.12,15.2s13.83,14.3,22,8.5c16.92-12.02.18-49.64-20.46-37.41-8.05,4.77-10.77,16.68-8.19,25.21,3.12,10.34,14.96,13.7,23.26,7.14,15.07-11.92,11.24-41.98-2.09-53.86-8.6-7.67-19.72-3.29-25.48,5.38s-7.37,20.79-5.56,31.1c1.54,8.76,7.45,19.1,17.53,19.21,9.76.11,14.93-8.67,16.19-17.28,1.5-10.24,1.88-22.65-1.8-32.5-3.23-8.63-11.31-16.04-20.99-12.07s-13.11,16.02-14.21,25.14.2,22.92,7.31,29.78c3.67,3.53,9.27,3.9,13.47,1.15,4.7-3.07,6.46-8.87,7.8-14,2.87-10.92,3.2-22.24,1.42-33.36-.78-4.88-1.7-10.85-5.2-14.6-3.84-4.11-9.55-4.92-14.91-4.08-10.1,1.58-17.94,9.26-21.9,18.38-6.36,14.67-10,46.35,8.18,54.77,12.35,5.72,18.49-8.59,20.87-18.07,2.62-10.44,2.64-22.28-.97-32.51-3.3-9.34-12.08-14.27-21.75-11.19-10.09,3.21-14.25,13.45-15.44,23.11-1.35,11.02-.04,22.65,3.88,33.05,3.38,8.97,11.63,18.42,22.27,13.7,9.89-4.39,10.58-19.87,10.89-29.16.32-9.52.14-23.5-8.44-29.7s-20.31-1.12-25.09,7.65c-5.07,9.33-6.34,21.52-5.54,31.95s2.96,23.32,12.43,29.15c8.9,5.49,20.22,1.86,23.63-8.11,3.35-9.79,3.07-21.99,1.93-32.14-.62-5.47-1.54-10.89-2.99-16.21-1.29-4.72-2.65-10.76-6.17-14.39s-9.02-4.69-13.5-2.29c-4.84,2.59-7.09,7.84-8.7,12.79-3.12,9.58-3.9,19.93-2.61,29.9s4.64,19.61,9.99,28.23c3.37,5.41,11.97,4.55,13.71-1.79,4.17-15.2,3.62-31.69-2.41-46.32-2.7-6.55-7.68-12.07-15.33-11.53-6.94.48-11.84,6.35-14.43,12.31-5.32,12.22-4.11,27.28,3.58,38.29,3.85,5.51,10.04,11.02,17.32,9.45,8.27-1.79,10.08-10.13,9.92-17.44-.25-11.62-6.65-34.99-21.85-33.83-14.85,1.13-15.77,24.08-13.41,34.67,2.32,10.38,12.78,29.56,26.15,24.75,14.68-5.28,6.28-29.9,1.81-39.55-3.18-6.87-8.44-16.42-17.19-16.23-9.54.21-10.62,10.73-9.96,18.07,1.38,15.36,9.7,29.06,22.7,37.35,4.83,3.08,11.33-.94,11.29-6.48-.07-8.94-4.15-19.28-12.64-23.39-10.26-4.97-19.89,3.36-16.73,14.25,5.08,17.51,22.05,29.33,39.73,30.68-.66-4.91-1.33-9.82-1.99-14.73-2.62.74-5.24,1.48-7.86,2.22,1.93,4.57,3.85,9.14,5.78,13.71,2.68-1.46,4.79-3.54,6.16-6.29,3.27-6.53-3.47-14.15-10.26-10.26-5.86,3.36-10.52,8.01-13.91,13.85-4.91,8.46,7.52,15.41,12.95,7.57,5.05-7.28,3.66-16.21-1.73-22.78-3.08-3.75-9.59-2.38-11.78,1.52-4.35,7.74-6.73,15.81-7.66,24.62-.42,4.03,3.75,7.5,7.5,7.5,4.41,0,7.07-3.45,7.5-7.5,1.16-10.93-.86-21.34-5.11-31.4-3.17-7.49-13.51-2.77-13.98,3.79-.66,9.23-1.32,18.46-1.98,27.68h15c-1.7-12.68-4.41-25.1-8.74-37.17-2.25-6.27-4.8-12.52-7.78-18.49-2.66-5.32-7.63-9.73-13.88-6.9-5.61,2.54-6.15,8.8-5.99,14.22.18,6.16.92,12.34,2.08,18.39,2.34,12.31,6.93,24.16,13.14,35.03,3.53,6.18,14.55,3.81,13.98-3.79-1.65-21.95-6.94-43-15.71-63.17-2.11-4.87-8.48-4.19-11.78-1.52-12.25,9.9-7.8,30.17-5.35,43.36,1.51,8.1,3.38,16.51,6.54,24.15,2.9,7,10.52,12.44,18.02,8.15,7.77-4.44,5.03-14.15,3.58-21.24-1.72-8.37-4.22-16.56-7.41-24.48-2.89-7.17-5.82-16.07-12.6-20.54s-15.58-2.33-18.07,5.74c-2.22,7.18-.46,16.39,1.45,23.48,2.07,7.65,5.6,15.03,10.32,21.39,4.59,6.17,11.92,12.25,19.58,6.68,6.5-4.73,5.01-13.66,3.03-20.29-3.76-12.52-13.85-34.01-30.22-30.44-18.64,4.06-10,27.73-2.29,37.93,4.41,5.84,12.15,14.53,20.39,11.08,8.93-3.73,5.61-14.65,1.89-20.98-7.96-13.55-24.36-20.46-39.57-16.96-5.97,1.37-6.65,8.45-3.31,12.54,8.03,9.82,22.35,11.84,33.26,5.91,3.64-1.98,4.57-6.78,2.69-10.26-6.04-11.2-18.42-16.37-30.7-14.17-4.6.82-7.05,7.25-4.48,11.02,7.66,11.26,19.82,18.04,33.52,18.1,4.29.02,7.18-3.46,7.5-7.5,1.29-16.19-15.99-26.27-30.53-23.24-7.73,1.61-13.04,10.57-6.66,17.06,5.51,5.6,14.22,9.11,21.42,11.81,5.96,2.24,12.16-5.81,8.47-11.02-6.12-8.64-17.2-11.67-26.6-6.32-5.27,3-4.39,9.77,0,12.95,6.21,4.5,13.72,6.78,19.86,11.32,2.93,2.16,8.96,9.04,3.68,12.15-6.58,3.88-3.52,13.68,3.79,13.98,26.65,1.1,52.83-9.01,72.05-27.44,4.41-4.22,1.3-13.42-5.3-12.8-2.6.24-2.09-2.47-.66-4.35,2.76-3.62,7.95-4.74,12.08-5.85,9.31-2.51,17.71-5.49,23.46-13.68s-7.44-15.42-12.95-7.57h0Z"/>
    <path class="cls-1" d="M409.16,794.91c8.14,3.06,16.15-4.01,17.23-11.92,1.2-8.81-5.75-15.09-12.44-19.46-4.23-2.76-8.52-5.42-12.77-8.13-3.37-2.14-9.09-4.45-11.48-7.8-4.62-6.47,7.55-12.46,11.69-14.43,16.18-7.7,29.4-18.33,36.87-35.07,3.64-8.15,6.05-17.54,12.03-24.4,5.16-5.92,12.27-9.71,19.93-11.26,9.75-1.97,17.58.55,23.07,8.94,6.07,9.27,11.06,19.5,15.33,29.71,1.56,3.72,4.97,6.43,9.23,5.24,3.52-.98,6.82-5.45,5.24-9.23-3.99-9.53-8.39-18.85-13.54-27.81-4.46-7.77-9.7-15.66-18.11-19.52-16.58-7.59-38.6-.48-50.72,12.21-6.76,7.07-10.25,15.89-13.85,24.81-3.37,8.36-7.71,15.83-14.35,22.01-12.73,11.84-37.83,14.41-38.63,35.8-.44,11.7,9.5,17.21,18.12,22.7,5,3.18,10.07,6.27,15,9.55,1.68,1.12,2.92,2.95,4.45,4.02.01,0,1.07,1.06.1.26-.2-.17,1.76-.65,1.61-.71-9.05-3.4-12.96,11.1-3.99,14.46h0Z"/>
  </g>
  <path d="M267.42,247.74c-16.3,45.71-50.9,81.43-84.97,114.64-34.7,33.83-71.95,67.02-96.36,109.5-13.8,24.01-22.06,50.14-24.77,77.71-1.69,17.19-1.32,34.53-.03,51.73,1.3,17.31,3.14,34.74,6.76,51.74,12.13,56.85,52.71,101.74,103.57,128.01,58.65,30.29,126.68,34.32,191.39,29.31,21.21-1.64,41.72-4.52,62.32-9.93,29.31-7.7,58.57-19.23,82.38-38.35,11.88-9.54,22.25-21.56,28.47-35.57,7.21-16.24,8.7-33.69,5.79-51.14-3.84-23.01-14.16-46.51-28.87-64.63-11.02-13.58-26.01-23.91-43.05-28.24-23.4-5.95-48.61-1.19-70.12,9.05-1.27.61-2.55,1.23-3.78,1.92-8.39,4.77-.84,17.74,7.57,12.95,1.18-.67,2.41-1.27,3.64-1.86.63-.3,1.27-.6,1.91-.89.75-.34,3.19-1.36,1.05-.48,1.88-.77,3.76-1.51,5.67-2.19,4.98-1.78,10.08-3.23,15.25-4.3,1.3-.27,2.6-.51,3.91-.73.78-.13,1.57-.25,2.35-.37.88-.13-.16.02-.29.04.46-.06.92-.12,1.38-.17,3.22-.33,6.44-.56,9.68-.58,13.72-.08,26.46,3.31,38.32,11.39,16.19,11.02,26.81,29.38,33.63,47.45,6.38,16.93,10.55,35.58,6.85,52.78-2.98,13.86-9.93,25.55-19.61,35.55-19.7,20.32-47.05,32.2-73.86,40.41-11.07,3.39-22.33,6.17-33.7,8.37-3.64.71-7.3,1.35-10.97,1.92-1.15.18-2.3.33-3.44.51-1.39.21,2.28-.23-.09,0-60.05,6.11-122.25,7.12-179.81-13.65-48.4-17.47-93.52-52.47-113.97-100.75-12.53-29.59-15.37-63.69-16.31-95.5-.87-29.5,2.51-59.15,14.68-86.3,18.99-42.36,52.79-75.48,85.64-107.28,33.67-32.6,69.04-65.37,92.07-106.76,5.58-10.03,10.31-20.54,14.16-31.35,3.25-9.11-11.24-13.03-14.46-3.99h0Z"/>
  <path d="M341.24,469.28c9.65,0,9.67-15,0-15s-9.67,15,0,15h0Z"/>
  <path d="M321.02,202.96c-11.62,19.99-33.7,29.89-54.95,36.38-23.2,7.08-47.54,11.85-71.86,11.67-23.22-.17-47.35-5.5-65.75-20.41-15.84-12.83-25.54-31.16-29.63-50.94-4.25-20.57-2.12-42.36,5.03-62.03,7.74-21.3,22.57-39.59,39.76-54.07,18.05-15.21,39.55-26.42,61.74-34.23,25.41-8.95,52.54-14.48,79.53-14.3,89.43.6,167.57,73.91,186.1,159.25,10.15,46.73,3.53,96.13-14.8,140.01-9.01,21.56-20.99,42.07-35.26,60.57-15.69,20.34-34.49,37.37-54.45,53.41-10.93,8.78-21.98,17.44-32.32,26.92-8.97,8.22-17.55,16.97-26.14,25.59-15.28,15.32-29.31,32.47-34,54.13-4.53,20.96-4.01,50.32,14.41,64.81,10.99,8.64,25.96,10.57,39.41,12.24,14.48,1.8,29.14,2.01,43.65.56,13.33-1.33,27.39-3.16,39.53-9.14,8.66-4.27,1.06-17.21-7.57-12.95-12.52,6.18-28.67,7.22-42.39,7.85-15.36.7-30.89-.31-45.96-3.48-12.1-2.55-21.89-7.34-25.74-19.85-3.35-10.89-3.37-23.51-1.18-34.62,4.32-21.88,19.1-37.81,34.48-52.95,9.24-9.1,18.3-18.41,28.1-26.92,10.81-9.4,22.19-18.13,33.28-27.2,39.52-32.34,70.36-72.93,88.9-120.68,17.81-45.88,23.04-97.02,11.85-145.16C464.02,77.95,381.72,2.44,288.23.07,194.71-2.31,72.85,60.07,82.15,168.24c1.9,22.08,9.4,43.34,23.43,60.64,15.03,18.52,37.35,30.02,60.55,34.43,25.03,4.76,50.78,2.64,75.6-2.38,23.32-4.72,48.01-11.36,67.91-24.9,9.87-6.72,18.3-15.14,24.33-25.5,4.86-8.36-8.1-15.92-12.95-7.57h0Z"/>
  <path class="cls-4" d="M120.32,75.99c-41.85,36.13-56.01,121.23-98.95,152.16-1.42,1.03-.53,3.27,1.21,3.03,49.24-6.96,117.49,35.29,180.85,28.21"/>
  <path class="cls-5" d="M109.73,135.06s-54.03,87.85-83.95,95.76"/>
  <path class="cls-5" d="M152.11,222.63s-89.14-6.57-130.74,5.52c-29.08,8.45,139.17-50.97,139.17-50.97"/>
  <path class="cls-7" d="M94.5,207.06c6.48,28.31.68,45.96-26.81,56.17s-51.47-10.15-57.96-38.47.71-53.72,27.57-62.46c29.6-9.63,50.71,16.44,57.19,44.76Z"/>
  <path class="cls-9" d="M53.65,214.49c2.21,20.61.67,24.86-.98,36.96-7.88-11.79-10.43-14.59-12.64-35.2-2.21-20.61-1.7-27.34,2.34-45.83,6.98,15.04,9.07,23.45,11.28,44.07Z"/>
</svg>