<?xml version="1.0" encoding="UTF-8"?>
<svg id="Tomato" xmlns="http://www.w3.org/2000/svg" viewBox="0 0 496.74 434.38">
  <defs>
    <style>
      .cls-1 {
        fill: #ce0000;
      }

      .cls-2 {
        fill: #fff;
        opacity: .3;
      }

      .cls-3 {
        fill: #067700;
      }
    </style>
  </defs>
  <g>
    <path class="cls-1" d="M412.11,259.1c7.15,2.94,14.29,5.88,21.44,8.82,1.99.82,4.01,1.65,6.15,1.93,7.54.99,14.09-4.8,21.29-7.25,6.38-2.17,13.64-1.62,19.61,1.5,1.23.64,2.52,1.54,2.8,2.9.31,1.5-.79,2.99-2.15,3.69s-2.94.78-4.47.93c-6.34.61-12.56,2.44-18.22,5.36-1.08.55-2.24,1.29-2.48,2.48-.25,1.28.77,2.53,1.98,3.01s2.57.38,3.87.3c10.43-.67,22.5.95,28.31,9.65,1.14,1.7,1.98,3.69,1.89,5.74s-1.3,4.13-3.23,4.8c-2.37.83-4.88-.55-7.1-1.73-6.65-3.51-14.1-5.51-21.61-5.79-.27,3.02,1.75,5.82,4.16,7.66s5.26,3.03,7.74,4.79c3.63,2.58,6.29,6.28,8.7,10.02,1.43,2.21,2.82,4.56,3.12,7.17s-.79,5.57-3.19,6.65c-2.98,1.35-6.38-.63-8.84-2.78-7.94-6.95-13.93-17.05-24.06-20-3.33-.97-7.8-.53-9.09,2.7-.75,1.9-.08,4.04.72,5.92,1.53,3.6,3.56,7.06,4.18,10.92s-.59,8.39-4.06,10.19c-2.61,1.36-5.79.86-8.59-.06-1.34-.44-2.68-.98-3.74-1.92-3.42-3-2.6-8.41-1.73-12.88,1.96-9.98,2.46-21.32-3.87-29.27-2.9-3.63-6.93-6.15-10.88-8.59-4.6-2.85-9.21-5.69-13.81-8.54"/>
    <path d="M410.92,263.44c8.24,3.39,16.66,7.78,25.23,10.21,7.29,2.07,13.64-.76,20.07-3.98,3.64-1.82,7.22-3.58,11.36-3.84,1.83-.11,3.71,0,5.5.35,1.1.23,2.18.54,3.24.91,1.5,1.46,2.27,1.38,2.31-.23-3.75,1.01-7.78.95-11.57,1.99-3.62,1-7.52,2.33-10.77,4.23-5.18,3.03-6.66,10.18-.5,13.26,2.8,1.4,5.9.86,8.89.79,3.33-.07,6.67.09,9.94.78,3.08.66,6.22,1.72,8.75,3.66,1.44,1.1,3.08,2.71,3.76,4.43,1.53,3.85-1.27,1.98-3.07,1.33-3.63-1.32-6.96-3.25-10.72-4.33-4.29-1.23-8.72-1.83-13.16-2.07-2.38-.13-4.57,2.17-4.5,4.5.23,7.16,5.14,11.02,10.9,14.35,3.43,1.99,6.13,4.37,8.45,7.61,1.14,1.59,7.09,9.55,2.92,10.14-2.13.3-6.32-5.03-7.57-6.35-2.35-2.47-4.61-5.04-7.05-7.43-4.29-4.2-9.46-8.19-15.47-9.42-4.81-.99-10.7.25-13.02,5.04-3.33,6.88,3.22,13.02,4.26,19.54.65,4.04-1.27,6.71-5.5,5.77-4.56-1.01-4.64-4.31-4.01-8.31,1.06-6.74,2.24-13.22,1.35-20.07-2.26-17.53-18.22-24.43-31.73-32.78-4.94-3.05-9.47,4.73-4.54,7.77,7.09,4.38,15.68,8.32,21.69,14.16s6.52,14.38,5.6,22.25c-.78,6.64-3.64,14.16.48,20.29,3.58,5.31,12.56,7.42,18.31,5.02,6.1-2.55,8.31-9.6,7.21-15.73-.67-3.72-2.46-7.03-3.95-10.46-1.05-2.41-1.62-4.08,1.45-3.8,1.83.17,3.68,1.17,5.22,2.07,8.72,5.06,21.15,28.49,33.38,19.84,7.43-5.26,3.73-14.66-.32-20.69-2.4-3.56-5.05-6.91-8.49-9.53-3.19-2.43-10.43-4.6-10.58-9.27l-4.5,4.5c8.57.47,14.9,3.68,22.66,6.75,5.38,2.13,11.32.23,13.22-5.55,4.23-12.86-12.4-21.05-22.39-22.47-2.98-.42-5.98-.6-8.99-.54-.6.01-3.71-.24-4.07.18l.11,1.27c-.28,1.32.01,1.61.89.88,1.03-.03,2.7-1.22,3.71-1.6,3.69-1.4,7.55-2.28,11.46-2.75,3.07-.37,6.25-.66,8.6-2.91,4.86-4.62,1.92-10.79-3.27-13.36-6.13-3.04-13.23-3.78-19.89-2.27-7.24,1.65-14.38,8.7-21.97,7.74-4.33-.55-8.65-3.04-12.65-4.69-4.76-1.96-9.53-3.92-14.29-5.88-5.35-2.2-7.68,6.5-2.39,8.68h0Z"/>
  </g>
  <g>
    <path class="cls-1" d="M305.67,363.21c.21,9.81,2.83,19.56,7.57,28.15.87,1.58,1.85,3.16,3.27,4.27,1.83,1.44,4.22,1.96,6.55,2.07,5.94.29,11.71-1.77,17.59-2.68,5.88-.92,12.62-.38,16.65,3.99,3.71,4.03,4.03,10.04,3.97,15.52-.02,2.41-.13,4.99-1.52,6.96-1.45,2.06-3.97,3.03-6.37,3.78-20.84,6.5-43.27,4.97-64.95,2.39-3.6-.43-7.43-.99-10.14-3.39-3.81-3.37-4.12-9.1-4.15-14.19-.08-12.38-.16-24.76-.23-37.15"/>
    <path d="M301.17,363.21c.26,7.33,1.51,14.61,4.1,21.49,2,5.3,4.49,12.06,9.54,15.19,5.43,3.37,12.31,2.43,18.25,1.26,5.96-1.17,14.39-4.19,19.91-.01,4.16,3.15,6.16,15.79,1.48,18.89-2.89,1.91-7.7,2.47-11.06,3.16-4.04.84-8.12,1.4-12.22,1.73-7.57.62-15.17.55-22.75.11s-16.12-.49-23.47-2.47c-8.42-2.27-6.34-13.53-6.39-20.3-.06-9.78-.12-19.55-.18-29.33-.04-5.79-9.04-5.8-9,0,.06,9.78.12,19.55.18,29.33.05,7.22-.91,15.78,3.06,22.23,4.31,7,12.98,7.39,20.3,8.19,9.08,1,18.21,1.74,27.35,1.7,8.84-.04,17.73-.82,26.38-2.69,6.87-1.49,15.95-3.22,18.31-10.92,1.91-6.22,1.16-15.2-1.79-20.98-3.29-6.46-10-9.37-16.99-9.62-4.05-.15-8.09.72-12.03,1.56-4.22.91-11.02,3.2-14.86.3-3.43-2.58-5.28-9.09-6.5-12.98-1.63-5.16-2.46-10.42-2.65-15.83-.21-5.77-9.21-5.8-9,0h0Z"/>
  </g>
  <g>
    <path class="cls-1" d="M183.26,363.21c-.21,9.81-2.83,19.56-7.57,28.15-.87,1.58-1.85,3.16-3.27,4.27-1.83,1.44-4.22,1.96-6.55,2.07-5.94.29-11.71-1.77-17.59-2.68-5.88-.92-12.62-.38-16.65,3.99-3.71,4.03-4.03,10.04-3.97,15.52.02,2.41.13,4.99,1.52,6.96,1.45,2.06,3.97,3.03,6.37,3.78,20.84,6.5,43.27,4.97,64.95,2.39,3.6-.43,7.43-.99,10.14-3.39,3.81-3.37,4.12-9.1,4.15-14.19.08-12.38.16-24.76.23-37.15"/>
    <path d="M178.76,363.21c-.32,8.96-2.46,18.06-6.96,25.88-4.63,8.04-16.44,2.37-23.69,1.41-6.67-.88-14.14-.06-19.17,4.86s-6,12.95-5.76,19.9c.28,8.15,4.45,12.3,12.05,14.61,8.45,2.57,17.33,3.82,26.13,4.3,9.12.49,18.26.06,27.34-.76,7.64-.69,17.86-.33,24.21-5.26,6.44-5,6.35-13.6,6.4-21.01.07-11.4.14-22.81.21-34.21.04-5.79-8.96-5.8-9,0-.05,8.47-.11,16.94-.16,25.42-.04,6.04,1.61,15.43-1.5,20.92-1.85,3.26-5.9,3.57-9.26,3.99-3.93.49-7.87.89-11.81,1.23-7.88.69-15.8,1.07-23.71.8-7.75-.27-15.45-1.19-22.97-3.12-3.96-1.02-8.29-1.52-8.92-6.17-.42-3.11-.15-7.02.73-10.01,2.13-7.18,9.65-7.43,15.92-6.32,6.85,1.22,13.99,3.72,21,2.01,7.03-1.72,10.12-8.15,12.71-14.29,3.26-7.7,4.9-15.83,5.19-24.18.21-5.79-8.79-5.78-9,0h0Z"/>
  </g>
  <g>
    <path class="cls-1" d="M84.8,276.18c-15.2-26.71-21.2-57.71-17.14-88.17,4.12-30.89,18.1-60.38,40.11-82.53,21.03-21.17,48.33-35.08,77.04-42.53,29.84-7.75,61.25-8.82,91.72-4.5,33.6,4.76,66.94,16.28,93.57,37.81,25.88,20.93,42.66,49.4,47.72,82.34,5.54,36.05,2.35,76.11-13.41,109.36-13.65,28.79-38.3,51.09-66.69,64.99-32.63,15.98-70.41,21.74-106.51,20.17-33.46-1.45-66.02-12.83-92.88-32.9-6.3-4.71-12.26-9.87-17.81-15.45"/>
    <path d="M89.98,273.15c-31.74-56.61-18.44-129.92,31.14-171.83,50.27-42.48,125.94-47.95,187.08-29.95,29.8,8.77,57.68,24.61,77.54,48.85,19.19,23.41,27.13,52.31,28.4,82.13,1.33,31.25-3.76,64.22-19.65,91.57-14.82,25.51-38.67,44.52-65.38,56.46-30.21,13.5-64.16,18.12-97.03,16.78-31.54-1.28-62.28-11.75-87.98-30.1-6.92-4.94-13.32-10.53-19.35-16.52-5.49-5.45-13.97,3.03-8.49,8.49,24.61,24.45,56.41,41.16,90.57,47.34,33.97,6.14,70.75,3.37,103.76-6.48,31.12-9.28,60.49-26.27,81.33-51.52,21.39-25.91,31.49-58.64,33.88-91.81,2.34-32.5-1.86-66.64-18.11-95.33-16.16-28.53-42.58-49.85-72.45-62.76-63.23-27.33-144.95-26.38-204.12,10.82-28.29,17.79-49.75,44.04-61.37,75.38s-12.51,68.34-1.02,100.69c2.93,8.25,6.59,16.22,10.87,23.85,3.78,6.74,14.15.69,10.36-6.06h0Z"/>
  </g>
  <g>
    <path class="cls-1" d="M86.88,276.69c-14.67,7.75-32.89,8.4-48.07,1.72-3.55-1.56-7.04-3.53-10.9-3.86s-8.29,1.58-9.27,5.33c-.98,3.74,1.9,7.54,5.35,9.31s7.4,2.16,11.11,3.29c3.7,1.13,7.48,3.39,8.56,7.11-7.36-.61-14.87-1.22-22.04.54-7.17,1.75-14.08,6.3-16.7,13.2-.32.83-.57,1.73-.39,2.6.21,1.05,1.02,1.89,1.9,2.5,3.35,2.31,7.9,1.99,11.74.67,3.85-1.32,7.34-3.53,11.19-4.86,4.35-1.51,9.1-1.84,13.62-.96.59.12,1.21.27,1.64.68,1.57,1.49-.64,3.88-2.54,4.93-9.38,5.16-17.71,12.2-24.37,20.58-3.36,4.23-6.29,10.38-3.02,14.68,2.32,3.05,6.92,3.5,10.5,2.14,3.58-1.37,6.41-4.14,9.21-6.75,6.69-6.22,13.85-11.93,21.42-17.06,3.25-2.2,8.23-4.05,10.56-.89,1.73,2.34.44,5.58-.31,8.4-1.19,4.47-.73,9.53,1.96,13.29,2.69,3.77,7.8,5.89,12.19,4.41,4.94-1.66,7.63-7.04,8.59-12.16s-3.29-15.53-1.68-20.48c2.94-9.03,7.71-19.12,15.56-24.45"/>
    <path d="M84.61,272.8c-9.5,4.83-20.32,6.7-30.89,5.2-5.21-.74-10.13-2.36-14.92-4.52-4.29-1.93-8.69-3.88-13.51-3.33-7.84.88-13.89,8.38-10.19,16.12,1.98,4.13,5.74,6.71,9.96,8.21s12.33,1.48,14.24,6.3l4.34-5.7c-9.37-.77-19.14-1.38-28.02,2.31-6.74,2.8-14.43,8.86-15.53,16.62-1.17,8.24,8.6,11.23,15.06,10.36,4.19-.57,7.84-2.46,11.64-4.2,2.65-1.22,5.27-2.27,8.17-2.66,1.24-.17,2.45-.24,3.7-.19s3.09.89,2.57-.1l-.45-3.47c-.27,1.53-4.21,3.11-5.35,3.83-1.66,1.06-3.28,2.18-4.87,3.36-3.25,2.41-6.37,5-9.26,7.83-5.27,5.15-11.72,11.79-12.43,19.54-.62,6.76,3.88,12.29,10.62,13.07,8.11.94,13.91-4.88,19.42-9.9,3.15-2.87,6.4-5.64,9.75-8.27,2.09-1.64,4.23-3.23,6.41-4.76,1.46-1.04,3.59-3.14,5.38-3.44,1.36-.23,1.6-1.31,2.06.88.11.5-.47,1.68-.6,2.19-.42,1.62-.78,3.28-.91,4.96-.28,3.82.42,7.85,2.3,11.22,3.32,5.96,10.65,9.76,17.41,7.95s10.88-8.27,12.25-14.77c1.49-7.08-2.77-13.89-1.62-20.8,1.31-7.87,7.16-17.5,13.59-22.14,4.65-3.36.16-11.17-4.54-7.77-7.53,5.44-12.22,13.12-15.64,21.64-1.44,3.59-2.71,7.04-2.46,10.96.27,4.21,1.6,8.26,2,12.44.37,3.88-.88,9.05-4.52,11.13-5.53,3.17-9.85-3.44-9.85-8.3,0-4.39,2.75-8.49,1.4-12.95-1.24-4.1-5.11-6.38-9.26-6.19s-8.12,2.82-11.54,5.24c-4.78,3.39-9.42,7-13.87,10.81-3.72,3.19-7.22,7.51-11.56,9.84-1.64.88-4.53,1.96-6.31.59-2.44-1.88-.13-5.82,1.04-7.71,5.79-9.4,15.47-15.64,24.51-21.44,3.01-1.93,6.03-5.12,5.13-9.02-1.04-4.51-6.09-5.19-9.93-5.4-5.51-.31-10.72,1.07-15.69,3.32-2.74,1.24-5.41,2.86-8.36,3.54-1.45.34-2.8.57-4.28.29-.9-.04-1.72-.35-2.45-.93.52-.11.84-.43.96-.95,1.82-4.97,8.37-7.98,13.09-9.14,6.78-1.68,13.97-.94,20.85-.38,2.72.22,5.37-3.09,4.34-5.7-3.27-8.27-10.4-9.64-18.16-11.86-2.19-.63-5.08-1.33-6.29-3.53-1.43-2.61.78-3.75,3.06-3.98,4.23-.42,8.74,2.87,12.54,4.38,16.23,6.42,34.56,5.03,50.01-2.82,5.16-2.62.62-10.39-4.54-7.77h0Z"/>
  </g>
  <circle cx="177.32" cy="201.24" r="13.41"/>
  <circle cx="309.44" cy="201.24" r="13.41"/>
  <path d="M217.39,210.89c13.36,17.94,38.67,17.93,51.99-.06,4.6-6.21-5.81-12.2-10.36-6.06-7.66,10.36-23.56,10.41-31.26.06-4.56-6.12-14.98-.15-10.36,6.06h0Z"/>
  <path class="cls-2" d="M144.9,145.95c21.27-26.45,47.74-41.62,35.22-51.7s-43.22,1.42-64.49,27.87c-21.27,26.45-25.05,57.83-12.52,67.9s20.53-17.63,41.8-44.07Z"/>
  <g>
    <path class="cls-3" d="M181.57,86.7c-16.97-.81-33.7-6.1-48.04-15.2,11.71-3.36,22.15-10.03,32.41-16.58,10.27-6.56,20.73-13.19,32.46-16.47s25.12-2.79,35.12,4.16"/>
    <path d="M181.57,80.7c-16.07-.91-31.36-5.89-45.01-14.38-.48,3.66-.96,7.31-1.43,10.97,17.45-5.27,31.57-16.58,47.24-25.39,14.56-8.19,32.91-14.12,48.14-4.11,6.47,4.25,12.49-6.13,6.06-10.36-16.05-10.55-35.99-7.58-52.53.12-17.94,8.35-32.93,22.39-52.09,28.18-4.99,1.51-5.85,8.22-1.43,10.97,15.47,9.62,32.9,14.99,51.07,16.02,7.72.44,7.69-11.56,0-12h0Z"/>
  </g>
  <g>
    <path class="cls-3" d="M235.97,56.3c-4.1-9.14-2.42-20.15,2.59-28.82s12.98-15.28,21.47-20.59c.95-.59,1.95-1.19,3.07-1.28,1.13-.09,2.23.36,3.28.8,3.7,1.55,7.4,3.1,11.09,4.66-6,6.72-12,13.45-18,20.17-4.56,5.11-9.36,10.74-9.93,17.57"/>
    <path d="M241.75,54.7c-4.31-10.48-1.11-21.61,6.09-30.01,3.45-4.03,7.52-7.47,11.9-10.46,2.94-2,4.01-2.47,7.42-1.04,2.91,1.22,5.81,2.44,8.72,3.66l-2.65-10.03c-6.35,7.12-12.79,14.17-19.06,21.36-5.39,6.18-9.54,12.32-10.63,20.62-.43,3.24,3.06,5.97,6,6,3.59.04,5.58-2.8,6-6,.85-6.42,6.67-11.64,10.75-16.2,5.14-5.76,10.29-11.53,15.43-17.29,3.26-3.66,1.55-8.27-2.65-10.03-7.23-3.03-14.46-7.9-22.07-3.58-6.47,3.68-12.79,8.88-17.64,14.5-9.78,11.33-15.12,27.24-9.18,41.68,2.9,7.04,14.51,3.96,11.57-3.19h0Z"/>
  </g>
  <g>
    <path class="cls-3" d="M252.52,41.07c4.69-4.45,11.22-6.48,17.65-7.16s12.92-.15,19.38-.23c13.5-.16,26.97-2.98,39.4-8.27,1.48,9.08,1.94,18.45-.05,27.43s-6.58,17.59-13.84,23.24"/>
    <path d="M256.76,45.31c9.7-8.52,24.7-5.19,36.47-5.74,12.84-.6,25.45-3.46,37.31-8.37l-7.38-4.19c2.5,16.09,1.08,33.85-12.34,44.83-5.98,4.89,2.55,13.34,8.49,8.49,16.85-13.79,18.54-36.46,15.43-56.51-.46-2.94-4.63-5.33-7.38-4.19-13.36,5.54-27.23,8.2-41.68,8.04-13.41-.15-26.75-.2-37.39,9.16-5.81,5.11,2.7,13.57,8.49,8.49h0Z"/>
  </g>
  <g>
    <path class="cls-3" d="M240.76,84.97c-5.35,6.8-15,7.92-22.89,11.47-9.33,4.18-16.48,12.01-25.11,17.51-.7.45-1.5.9-2.32.72-.86-.19-1.41-1-1.86-1.76-6.44-10.56-12.86-23.07-8.8-34.75,1-2.88,2.61-5.53,4.46-7.97,9.4-12.43,25.43-19.52,40.95-18.09,4.59.42,9.35,1.67,12.6,4.93"/>
    <path d="M236.52,80.73c-3.88,4.51-9.36,5.95-14.79,7.83-5.7,1.97-10.94,4.5-15.84,8.03-2.6,1.87-5.11,3.88-7.62,5.88-2.08,1.66-5.59,3.37-7.18,5.41-2.58,1.21-1.69,1.88,2.68,2l-.88-1.45c-.59-1.49-1.8-3.07-2.57-4.49-1.67-3.08-3.21-6.24-4.29-9.59-1.99-6.18-2.18-12.29,1.25-17.98,2.96-4.92,7.33-9.05,12.18-12.08,8.46-5.28,25.46-10.72,34.09-3.02,5.75,5.12,14.26-3.33,8.49-8.49-12.3-10.97-32.66-7.57-46.03-.37-14.45,7.79-25.74,22.42-22.92,39.45,1.4,8.42,5.56,17.02,10.31,24.06,6.01,8.91,13.91,2.43,20.17-2.46,6.77-5.29,13.13-10.48,21.35-13.34,7.33-2.55,14.84-4.83,20.08-10.92,5.01-5.83-3.44-14.35-8.49-8.49h0Z"/>
  </g>
  <g>
    <path class="cls-3" d="M235.74,64.67c1.01-5.51,5.06-10.14,9.95-12.87s10.56-3.77,16.15-4.14c11.97-.79,24.35,1.46,34.57,7.74,10.22,6.28,18.06,16.85,19.67,28.74s-3.62,24.79-13.84,31.09c-4.24-9.71-14.63-15.18-24.76-18.31-10.12-3.13-20.91-4.76-30-10.2s-16.18-16.33-12.97-26.43"/>
    <path d="M241.53,66.27c2.44-10.51,14.52-12.59,23.75-12.74,10.97-.18,22.35,2.42,31.21,9.16,14.73,11.21,20.42,35.8,2.74,47.37l8.21,2.15c-6.74-14.22-22.28-19.58-36.43-23.32-11.97-3.17-35.38-9.75-30.69-27,2.03-7.46-9.55-10.65-11.57-3.19-4.77,17.58,9.57,31.58,24.65,37.42,14.68,5.68,36,5.94,43.69,22.16,1.34,2.83,5.67,3.81,8.21,2.15,11.08-7.25,17.69-20.11,17.07-33.4-.63-13.47-8.01-25.67-18.58-33.77-11.79-9.04-27.25-12.56-41.92-11.57-13.66.91-28.47,6.67-31.89,21.41-1.74,7.51,9.83,10.72,11.57,3.19h0Z"/>
  </g>
</svg>